<svg width="796" height="96" viewBox="0 0 796 96" fill="none" xmlns="http://www.w3.org/2000/svg">
<rect x="1" y="1" width="794" height="94" rx="33" fill="white"/>
<rect x="1" y="1" width="794" height="94" rx="33" stroke="#068B35" stroke-width="2"/>
<path d="M47.8333 61C56.2097 61 63 54.2096 63 45.8333C63 37.457 56.2097 30.6666 47.8333 30.6666C39.457 30.6666 32.6667 37.457 32.6667 45.8333C32.6667 54.2096 39.457 61 47.8333 61Z" stroke="#068B35" stroke-width="5"/>
<path d="M69.6757 66.9729L58.4324 57.135" stroke="#068B35" stroke-width="5" stroke-linecap="round"/>
<path d="M102.132 60.88V37.35H104.108V60.88H102.132Z" fill="#0F0F0F"/>
<path d="M746 51.0333L735.383 61.65C734.986 62.0472 734.481 62.2458 733.867 62.2458C733.253 62.2458 732.747 62.0472 732.35 61.65C731.953 61.2528 731.754 60.7472 731.754 60.1333C731.754 59.5194 731.953 59.0139 732.35 58.6166L742.967 48L732.35 37.3833C731.953 36.9861 731.754 36.4805 731.754 35.8666C731.754 35.2528 731.953 34.7472 732.35 34.35C732.747 33.9528 733.253 33.7542 733.867 33.7542C734.481 33.7542 734.986 33.9528 735.383 34.35L746 44.9666L756.617 34.35C757.014 33.9528 757.519 33.7542 758.133 33.7542C758.747 33.7542 759.253 33.9528 759.65 34.35C760.047 34.7472 760.246 35.2528 760.246 35.8666C760.246 36.4805 760.047 36.9861 759.65 37.3833L749.033 48L759.65 58.6166C760.047 59.0139 760.246 59.5194 760.246 60.1333C760.246 60.7472 760.047 61.2528 759.65 61.65C759.253 62.0472 758.747 62.2458 758.133 62.2458C757.519 62.2458 757.014 62.0472 756.617 61.65L746 51.0333Z" fill="#068B35"/>
</svg>
