<svg width="796" height="96" viewBox="0 0 796 96" fill="none" xmlns="http://www.w3.org/2000/svg">
<rect x="1" y="1" width="794" height="94" rx="33" fill="white"/>
<rect x="1" y="1" width="794" height="94" rx="33" stroke="#068B35" stroke-width="2"/>
<path d="M47.8333 61C56.2097 61 63 54.2096 63 45.8333C63 37.457 56.2097 30.6666 47.8333 30.6666C39.457 30.6666 32.6667 37.457 32.6667 45.8333C32.6667 54.2096 39.457 61 47.8333 61Z" stroke="#068B35" stroke-width="5"/>
<path d="M69.6757 66.9729L58.4324 57.135" stroke="#068B35" stroke-width="5" stroke-linecap="round"/>
<path d="M115.522 41.12H109.152V57.5H106.812V41.12H100.442V39.04H115.522V41.12ZM122.885 45.93C121.741 45.9473 120.727 46.242 119.843 46.814C118.977 47.3687 118.361 48.14 117.997 49.128V57.5H115.709V43.928H117.841V47.074C118.309 46.138 118.925 45.384 119.687 44.812C120.467 44.2227 121.282 43.8933 122.131 43.824C122.305 43.824 122.452 43.824 122.573 43.824C122.695 43.824 122.799 43.8327 122.885 43.85V45.93ZM130.753 57.76C129.73 57.76 128.803 57.578 127.971 57.214C127.139 56.8327 126.419 56.3213 125.813 55.68C125.206 55.0213 124.738 54.2673 124.409 53.418C124.079 52.5687 123.915 51.676 123.915 50.74C123.915 49.7867 124.079 48.8853 124.409 48.036C124.738 47.1867 125.206 46.4413 125.813 45.8C126.419 45.1413 127.139 44.63 127.971 44.266C128.82 43.8847 129.747 43.694 130.753 43.694C131.775 43.694 132.703 43.8847 133.535 44.266C134.367 44.63 135.086 45.1413 135.693 45.8C136.317 46.4413 136.793 47.1867 137.123 48.036C137.452 48.8853 137.617 49.7867 137.617 50.74C137.617 51.676 137.452 52.5687 137.123 53.418C136.793 54.2673 136.325 55.0213 135.719 55.68C135.112 56.3213 134.384 56.8327 133.535 57.214C132.703 57.578 131.775 57.76 130.753 57.76ZM126.255 50.766C126.255 51.702 126.454 52.5513 126.853 53.314C127.269 54.0767 127.815 54.6833 128.491 55.134C129.167 55.5673 129.921 55.784 130.753 55.784C131.585 55.784 132.339 55.5587 133.015 55.108C133.708 54.6573 134.254 54.0507 134.653 53.288C135.069 52.508 135.277 51.65 135.277 50.714C135.277 49.778 135.069 48.9287 134.653 48.166C134.254 47.4033 133.708 46.7967 133.015 46.346C132.339 45.8953 131.585 45.67 130.753 45.67C129.921 45.67 129.167 45.904 128.491 46.372C127.815 46.8227 127.269 47.4293 126.853 48.192C126.454 48.9547 126.255 49.8127 126.255 50.766ZM143.832 57.5L138.502 43.928H140.894L145.158 55.316L149.422 43.928H151.658L146.328 57.5H143.832ZM152.551 53.574C152.551 52.7073 152.794 51.962 153.279 51.338C153.782 50.6967 154.467 50.2027 155.333 49.856C156.2 49.5093 157.205 49.336 158.349 49.336C158.956 49.336 159.597 49.388 160.273 49.492C160.949 49.5787 161.547 49.7173 162.067 49.908V48.92C162.067 47.88 161.755 47.0653 161.131 46.476C160.507 45.8693 159.623 45.566 158.479 45.566C157.734 45.566 157.015 45.7047 156.321 45.982C155.645 46.242 154.926 46.6233 154.163 47.126L153.331 45.514C154.215 44.9073 155.099 44.4567 155.983 44.162C156.867 43.85 157.786 43.694 158.739 43.694C160.473 43.694 161.842 44.1793 162.847 45.15C163.853 46.1033 164.355 47.438 164.355 49.154V54.9C164.355 55.1773 164.407 55.3853 164.511 55.524C164.633 55.6453 164.823 55.7147 165.083 55.732V57.5C164.858 57.5347 164.659 57.5607 164.485 57.578C164.329 57.5953 164.199 57.604 164.095 57.604C163.558 57.604 163.151 57.4567 162.873 57.162C162.613 56.8673 162.466 56.5553 162.431 56.226L162.379 55.368C161.79 56.1307 161.019 56.72 160.065 57.136C159.112 57.552 158.167 57.76 157.231 57.76C156.33 57.76 155.524 57.578 154.813 57.214C154.103 56.8327 153.548 56.33 153.149 55.706C152.751 55.0647 152.551 54.354 152.551 53.574ZM161.391 54.536C161.599 54.2933 161.764 54.0507 161.885 53.808C162.007 53.548 162.067 53.3313 162.067 53.158V51.468C161.53 51.26 160.967 51.104 160.377 51C159.788 50.8787 159.207 50.818 158.635 50.818C157.474 50.818 156.529 51.052 155.801 51.52C155.091 51.9707 154.735 52.5947 154.735 53.392C154.735 53.8253 154.848 54.25 155.073 54.666C155.316 55.0647 155.663 55.394 156.113 55.654C156.581 55.914 157.153 56.044 157.829 56.044C158.54 56.044 159.216 55.9053 159.857 55.628C160.499 55.3333 161.01 54.9693 161.391 54.536ZM174.46 52.066V43.928H176.748V51.624C176.748 53.0107 176.991 54.0507 177.476 54.744C177.961 55.4373 178.681 55.784 179.634 55.784C180.258 55.784 180.856 55.654 181.428 55.394C182.017 55.1167 182.546 54.7267 183.014 54.224C183.482 53.7213 183.846 53.1233 184.106 52.43V43.928H186.394V54.9C186.394 55.1773 186.446 55.3853 186.55 55.524C186.671 55.6453 186.862 55.7147 187.122 55.732V57.5C186.862 57.5347 186.654 57.552 186.498 57.552C186.359 57.5693 186.221 57.578 186.082 57.578C185.649 57.578 185.276 57.448 184.964 57.188C184.652 56.9107 184.487 56.5727 184.47 56.174L184.418 54.588C183.829 55.5933 183.031 56.3733 182.026 56.928C181.038 57.4827 179.955 57.76 178.776 57.76C177.355 57.76 176.28 57.2833 175.552 56.33C174.824 55.3593 174.46 53.938 174.46 52.066ZM201.983 57.5H199.695V49.908C199.695 48.4693 199.47 47.4207 199.019 46.762C198.586 46.086 197.919 45.748 197.017 45.748C196.393 45.748 195.769 45.904 195.145 46.216C194.539 46.528 193.993 46.9527 193.507 47.49C193.039 48.01 192.701 48.6167 192.493 49.31V57.5H190.205V43.928H192.285V46.84C192.649 46.1987 193.117 45.644 193.689 45.176C194.261 44.708 194.911 44.344 195.639 44.084C196.367 43.824 197.13 43.694 197.927 43.694C198.707 43.694 199.357 43.8413 199.877 44.136C200.415 44.4133 200.831 44.812 201.125 45.332C201.437 45.8347 201.654 46.4327 201.775 47.126C201.914 47.8193 201.983 48.5733 201.983 49.388V57.5ZM204.475 53.574C204.475 52.7073 204.718 51.962 205.203 51.338C205.706 50.6967 206.391 50.2027 207.257 49.856C208.124 49.5093 209.129 49.336 210.273 49.336C210.88 49.336 211.521 49.388 212.197 49.492C212.873 49.5787 213.471 49.7173 213.991 49.908V48.92C213.991 47.88 213.679 47.0653 213.055 46.476C212.431 45.8693 211.547 45.566 210.403 45.566C209.658 45.566 208.939 45.7047 208.245 45.982C207.569 46.242 206.85 46.6233 206.087 47.126L205.255 45.514C206.139 44.9073 207.023 44.4567 207.907 44.162C208.791 43.85 209.71 43.694 210.663 43.694C212.397 43.694 213.766 44.1793 214.771 45.15C215.777 46.1033 216.279 47.438 216.279 49.154V54.9C216.279 55.1773 216.331 55.3853 216.435 55.524C216.557 55.6453 216.747 55.7147 217.007 55.732V57.5C216.782 57.5347 216.583 57.5607 216.409 57.578C216.253 57.5953 216.123 57.604 216.019 57.604C215.482 57.604 215.075 57.4567 214.797 57.162C214.537 56.8673 214.39 56.5553 214.355 56.226L214.303 55.368C213.714 56.1307 212.943 56.72 211.989 57.136C211.036 57.552 210.091 57.76 209.155 57.76C208.254 57.76 207.448 57.578 206.737 57.214C206.027 56.8327 205.472 56.33 205.073 55.706C204.675 55.0647 204.475 54.354 204.475 53.574ZM213.315 54.536C213.523 54.2933 213.688 54.0507 213.809 53.808C213.931 53.548 213.991 53.3313 213.991 53.158V51.468C213.454 51.26 212.891 51.104 212.301 51C211.712 50.8787 211.131 50.818 210.559 50.818C209.398 50.818 208.453 51.052 207.725 51.52C207.015 51.9707 206.659 52.5947 206.659 53.392C206.659 53.8253 206.772 54.25 206.997 54.666C207.24 55.0647 207.587 55.394 208.037 55.654C208.505 55.914 209.077 56.044 209.753 56.044C210.464 56.044 211.14 55.9053 211.781 55.628C212.423 55.3333 212.934 54.9693 213.315 54.536ZM233.82 57.76C232.711 57.76 231.723 57.4827 230.856 56.928C229.989 56.3733 229.305 55.6713 228.802 54.822V63.038H226.514V43.928H228.542V46.476C229.079 45.644 229.781 44.9767 230.648 44.474C231.515 43.954 232.459 43.694 233.482 43.694C234.418 43.694 235.276 43.8847 236.056 44.266C236.836 44.6473 237.512 45.1673 238.084 45.826C238.656 46.4847 239.098 47.2387 239.41 48.088C239.739 48.92 239.904 49.7953 239.904 50.714C239.904 51.9967 239.644 53.1753 239.124 54.25C238.621 55.3247 237.911 56.1827 236.992 56.824C236.073 57.448 235.016 57.76 233.82 57.76ZM233.118 55.784C233.794 55.784 234.401 55.6453 234.938 55.368C235.493 55.0733 235.961 54.692 236.342 54.224C236.741 53.7387 237.044 53.1927 237.252 52.586C237.46 51.9793 237.564 51.3553 237.564 50.714C237.564 50.038 237.443 49.3967 237.2 48.79C236.975 48.1833 236.645 47.646 236.212 47.178C235.796 46.71 235.302 46.346 234.73 46.086C234.175 45.8087 233.569 45.67 232.91 45.67C232.494 45.67 232.061 45.748 231.61 45.904C231.177 46.06 230.761 46.2853 230.362 46.58C229.963 46.8573 229.625 47.178 229.348 47.542C229.071 47.906 228.889 48.296 228.802 48.712V52.586C229.062 53.1753 229.409 53.7127 229.842 54.198C230.275 54.6833 230.778 55.0733 231.35 55.368C231.922 55.6453 232.511 55.784 233.118 55.784ZM242.713 57.5V43.928H245.001V57.5H242.713ZM242.713 41.38V38.52H245.001V41.38H242.713ZM247.639 53.574C247.639 52.7073 247.882 51.962 248.367 51.338C248.87 50.6967 249.555 50.2027 250.421 49.856C251.288 49.5093 252.293 49.336 253.437 49.336C254.044 49.336 254.685 49.388 255.361 49.492C256.037 49.5787 256.635 49.7173 257.155 49.908V48.92C257.155 47.88 256.843 47.0653 256.219 46.476C255.595 45.8693 254.711 45.566 253.567 45.566C252.822 45.566 252.103 45.7047 251.409 45.982C250.733 46.242 250.014 46.6233 249.251 47.126L248.419 45.514C249.303 44.9073 250.187 44.4567 251.071 44.162C251.955 43.85 252.874 43.694 253.827 43.694C255.561 43.694 256.93 44.1793 257.935 45.15C258.941 46.1033 259.443 47.438 259.443 49.154V54.9C259.443 55.1773 259.495 55.3853 259.599 55.524C259.721 55.6453 259.911 55.7147 260.171 55.732V57.5C259.946 57.5347 259.747 57.5607 259.573 57.578C259.417 57.5953 259.287 57.604 259.183 57.604C258.646 57.604 258.239 57.4567 257.961 57.162C257.701 56.8673 257.554 56.5553 257.519 56.226L257.467 55.368C256.878 56.1307 256.107 56.72 255.153 57.136C254.2 57.552 253.255 57.76 252.319 57.76C251.418 57.76 250.612 57.578 249.901 57.214C249.191 56.8327 248.636 56.33 248.237 55.706C247.839 55.0647 247.639 54.354 247.639 53.574ZM256.479 54.536C256.687 54.2933 256.852 54.0507 256.973 53.808C257.095 53.548 257.155 53.3313 257.155 53.158V51.468C256.618 51.26 256.055 51.104 255.465 51C254.876 50.8787 254.295 50.818 253.723 50.818C252.562 50.818 251.617 51.052 250.889 51.52C250.179 51.9707 249.823 52.5947 249.823 53.392C249.823 53.8253 249.936 54.25 250.161 54.666C250.404 55.0647 250.751 55.394 251.201 55.654C251.669 55.914 252.241 56.044 252.917 56.044C253.628 56.044 254.304 55.9053 254.945 55.628C255.587 55.3333 256.098 54.9693 256.479 54.536ZM274.88 57.5H272.592V49.908C272.592 48.4693 272.367 47.4207 271.916 46.762C271.483 46.086 270.815 45.748 269.914 45.748C269.29 45.748 268.666 45.904 268.042 46.216C267.435 46.528 266.889 46.9527 266.404 47.49C265.936 48.01 265.598 48.6167 265.39 49.31V57.5H263.102V43.928H265.182V46.84C265.546 46.1987 266.014 45.644 266.586 45.176C267.158 44.708 267.808 44.344 268.536 44.084C269.264 43.824 270.027 43.694 270.824 43.694C271.604 43.694 272.254 43.8413 272.774 44.136C273.311 44.4133 273.727 44.812 274.022 45.332C274.334 45.8347 274.551 46.4327 274.672 47.126C274.811 47.8193 274.88 48.5733 274.88 49.388V57.5ZM285.331 56.824C285.14 56.9107 284.88 57.0233 284.551 57.162C284.222 57.3007 283.84 57.422 283.407 57.526C282.974 57.63 282.514 57.682 282.029 57.682C281.474 57.682 280.963 57.5867 280.495 57.396C280.027 57.188 279.654 56.876 279.377 56.46C279.1 56.0267 278.961 55.4893 278.961 54.848V45.722H277.115V43.928H278.961V39.404H281.249V43.928H284.291V45.722H281.249V54.146C281.284 54.6313 281.448 54.9953 281.743 55.238C282.038 55.4633 282.384 55.576 282.783 55.576C283.234 55.576 283.65 55.498 284.031 55.342C284.412 55.186 284.664 55.0733 284.785 55.004L285.331 56.824ZM286.385 53.574C286.385 52.7073 286.628 51.962 287.113 51.338C287.616 50.6967 288.301 50.2027 289.167 49.856C290.034 49.5093 291.039 49.336 292.183 49.336C292.79 49.336 293.431 49.388 294.107 49.492C294.783 49.5787 295.381 49.7173 295.901 49.908V48.92C295.901 47.88 295.589 47.0653 294.965 46.476C294.341 45.8693 293.457 45.566 292.313 45.566C291.568 45.566 290.849 45.7047 290.155 45.982C289.479 46.242 288.76 46.6233 287.997 47.126L287.165 45.514C288.049 44.9073 288.933 44.4567 289.817 44.162C290.701 43.85 291.62 43.694 292.573 43.694C294.307 43.694 295.676 44.1793 296.681 45.15C297.687 46.1033 298.189 47.438 298.189 49.154V54.9C298.189 55.1773 298.241 55.3853 298.345 55.524C298.467 55.6453 298.657 55.7147 298.917 55.732V57.5C298.692 57.5347 298.493 57.5607 298.319 57.578C298.163 57.5953 298.033 57.604 297.929 57.604C297.392 57.604 296.985 57.4567 296.707 57.162C296.447 56.8673 296.3 56.5553 296.265 56.226L296.213 55.368C295.624 56.1307 294.853 56.72 293.899 57.136C292.946 57.552 292.001 57.76 291.065 57.76C290.164 57.76 289.358 57.578 288.647 57.214C287.937 56.8327 287.382 56.33 286.983 55.706C286.585 55.0647 286.385 54.354 286.385 53.574ZM295.225 54.536C295.433 54.2933 295.598 54.0507 295.719 53.808C295.841 53.548 295.901 53.3313 295.901 53.158V51.468C295.364 51.26 294.801 51.104 294.211 51C293.622 50.8787 293.041 50.818 292.469 50.818C291.308 50.818 290.363 51.052 289.635 51.52C288.925 51.9707 288.569 52.5947 288.569 53.392C288.569 53.8253 288.682 54.25 288.907 54.666C289.15 55.0647 289.497 55.394 289.947 55.654C290.415 55.914 290.987 56.044 291.663 56.044C292.374 56.044 293.05 55.9053 293.691 55.628C294.333 55.3333 294.844 54.9693 295.225 54.536Z" fill="#888888"/>
</svg>
