<svg width="256" height="256" viewBox="0 0 256 256" fill="none" xmlns="http://www.w3.org/2000/svg">
<g clip-path="url(#clip0_379_3528)">
<path d="M60 0.5H196C228.861 0.5 255.5 27.1391 255.5 60V196C255.5 228.861 228.861 255.5 196 255.5H60C27.1391 255.5 0.5 228.861 0.5 196V60C0.5 27.1391 27.1391 0.5 60 0.5Z" fill="#181818" stroke="#4D4D4D"/>
<g clip-path="url(#clip1_379_3528)">
<path d="M105.805 61H127.522V104.751H105.805C77.1654 103.623 76.8762 62.1844 105.805 61ZM105.805 150.373H127.522V106.622H105.805C76.8762 107.807 77.1654 149.246 105.805 150.373ZM151.097 61H129.38V104.751H151.097C180.122 103.186 179.76 61.8931 151.097 61ZM127.522 174.12V152.245H105.805C88.0828 152.245 76.8762 173.174 89.2013 188.206C100.952 203.106 127.522 195.678 127.522 174.12ZM172.859 128.498C172.859 111.686 154.667 101.122 140.192 109.528C125.717 117.934 125.717 139.062 140.192 147.468C154.667 155.874 172.859 145.31 172.859 128.498Z" fill="white"/>
</g>
</g>
<defs>
<clipPath id="clip0_379_3528">
<rect width="256" height="256" fill="white"/>
</clipPath>
<clipPath id="clip1_379_3528">
<rect width="89" height="135" fill="white" transform="translate(84 61)"/>
</clipPath>
</defs>
</svg>
