<svg width="256" height="256" viewBox="0 0 256 256" fill="none" xmlns="http://www.w3.org/2000/svg">
<g clip-path="url(#clip0_379_3535)">
<path d="M60 0.5H196C228.861 0.5 255.5 27.1391 255.5 60V196C255.5 228.861 228.861 255.5 196 255.5H60C27.1391 255.5 0.5 228.861 0.5 196V60C0.5 27.1391 27.1391 0.5 60 0.5Z" fill="#181818" stroke="#4D4D4D"/>
<path d="M128.157 160.973H88.4769L80.3703 186.04C80.1569 187 79.3036 187.64 78.3436 187.533H58.2903C57.1169 187.533 56.7969 186.893 57.1169 185.613L91.4636 86.7331C91.7836 85.6664 92.1036 84.4931 92.5303 83.2132C92.9569 80.9732 93.1703 78.6264 93.1703 76.2797C93.0636 75.7464 93.4903 75.2131 94.0236 75.1064H94.3436H121.65C122.504 75.1064 122.93 75.4264 123.037 75.9597L161.97 185.827C162.29 187 161.97 187.533 160.904 187.533H138.61C137.864 187.64 137.117 187.107 136.904 186.36L128.157 160.973ZM94.6636 139.32H121.757C121.117 137.08 120.264 134.413 119.304 131.64C118.344 128.76 117.384 125.667 116.424 122.467C115.357 119.16 114.397 115.96 113.33 112.653C112.264 109.347 111.304 106.253 110.45 103.16C109.597 100.173 108.85 97.3998 108.104 94.8398H107.89C106.93 99.4265 105.757 104.013 104.264 108.6C102.664 113.72 101.064 119.053 99.3569 124.387C97.8636 129.827 96.2636 134.84 94.6636 139.32Z" fill="white"/>
<path d="M185.757 93.7733C182.237 93.88 178.824 92.4933 176.264 90.04C173.811 87.3733 172.531 83.8533 172.637 80.2267C172.531 76.6 173.917 73.1867 176.477 70.7333C179.037 68.28 182.451 67 185.971 67C190.131 67 193.331 68.28 195.677 70.7333C198.024 73.2933 199.304 76.7067 199.197 80.2267C199.304 83.8533 198.024 87.3733 195.464 90.04C193.011 92.6 189.384 93.9867 185.757 93.7733ZM173.811 186.36V104.227C173.811 103.16 174.237 102.733 175.197 102.733H196.317C197.277 102.733 197.704 103.267 197.704 104.227V186.36C197.704 187.533 197.277 188.067 196.317 188.067H175.411C174.344 188.067 173.811 187.427 173.811 186.36Z" fill="white"/>
</g>
<defs>
<clipPath id="clip0_379_3535">
<rect width="256" height="256" fill="white"/>
</clipPath>
</defs>
</svg>
