<svg width="256" height="256" viewBox="0 0 256 256" fill="none" xmlns="http://www.w3.org/2000/svg">
<g clip-path="url(#clip0_379_3518)">
<path d="M60 0.5H196C228.861 0.5 255.5 27.1391 255.5 60V196C255.5 228.861 228.861 255.5 196 255.5H60C27.1391 255.5 0.5 228.861 0.5 196V60C0.5 27.1391 27.1391 0.5 60 0.5Z" fill="#181818" stroke="#4D4D4D"/>
<path d="M57.5996 178.04V68.2801C57.5996 67.5334 57.9196 67.1068 58.6663 67.1068C60.4796 67.1068 62.1863 67.1068 64.6396 67.0001C67.1996 66.8934 69.8663 66.8934 72.7463 66.7868C75.6263 66.6801 78.7196 66.6801 82.0263 66.5734C85.3329 66.4668 88.5329 66.4668 91.7329 66.4668C100.48 66.4668 107.733 67.5334 113.707 69.7734C119.04 71.5868 123.947 74.5734 128 78.5201C131.413 81.9334 134.08 86.0934 135.787 90.6801C137.387 95.1601 138.24 99.7468 138.24 104.547C138.24 113.72 136.107 121.293 131.84 127.267C127.573 133.24 121.6 137.72 114.667 140.28C107.413 142.947 99.4129 143.907 90.6663 143.907C88.1063 143.907 86.3996 143.907 85.3329 143.8C84.2663 143.693 82.7729 143.693 80.7463 143.693V177.933C80.8529 178.68 80.3196 179.32 79.5729 179.427C79.4663 179.427 79.3596 179.427 79.1463 179.427H58.8796C58.0263 179.427 57.5996 179 57.5996 178.04ZM80.8529 87.6934V123.533C82.3463 123.64 83.7329 123.747 85.0129 123.747H90.6663C94.8263 123.747 98.9863 123.107 102.933 121.827C106.347 120.867 109.333 118.84 111.68 116.173C113.92 113.507 114.987 109.88 114.987 105.187C115.093 101.88 114.24 98.5734 112.533 95.6934C110.72 92.9201 108.16 90.7868 105.067 89.6134C101.12 88.0134 96.8529 87.3734 92.4796 87.4801C89.7063 87.4801 87.2529 87.4801 85.2263 87.5868C83.0929 87.4801 81.5996 87.5868 80.8529 87.6934Z" fill="white"/>
<path d="M204.799 117.027C201.599 115.32 198.186 114.147 194.559 113.4C190.612 112.547 186.666 112.013 182.612 112.013C180.479 111.907 178.239 112.227 176.212 112.76C174.826 113.08 173.652 113.827 172.906 114.893C172.372 115.747 172.052 116.813 172.052 117.773C172.052 118.733 172.479 119.693 173.119 120.547C174.079 121.72 175.359 122.68 176.746 123.427C179.199 124.707 181.759 125.88 184.319 126.947C190.079 128.867 195.626 131.533 200.746 134.733C204.266 136.973 207.146 139.96 209.172 143.587C210.879 147 211.732 150.733 211.626 154.573C211.732 159.587 210.239 164.6 207.466 168.76C204.479 173.027 200.319 176.333 195.519 178.253C190.292 180.493 183.892 181.667 176.212 181.667C171.306 181.667 166.506 181.24 161.706 180.28C157.972 179.64 154.239 178.467 150.826 176.867C150.079 176.44 149.546 175.693 149.652 174.84V156.28C149.652 155.96 149.759 155.533 150.079 155.32C150.399 155.107 150.719 155.213 151.039 155.427C155.199 157.88 159.572 159.587 164.266 160.653C168.319 161.72 172.586 162.253 176.852 162.253C180.906 162.253 183.786 161.72 185.706 160.76C187.412 160.013 188.586 158.2 188.586 156.28C188.586 154.787 187.732 153.4 186.026 152.013C184.319 150.627 180.799 149.027 175.572 147C170.132 145.08 165.119 142.52 160.426 139.32C157.119 136.973 154.346 133.88 152.319 130.253C150.612 126.84 149.759 123.107 149.866 119.373C149.866 114.787 151.146 110.413 153.492 106.467C156.159 102.2 160.106 98.7866 164.692 96.6532C169.706 94.0932 175.999 92.9199 183.572 92.9199C187.946 92.9199 192.426 93.2399 196.799 93.8799C199.999 94.3066 203.092 95.1599 205.972 96.3332C206.399 96.4399 206.826 96.8666 207.039 97.2932C207.146 97.7199 207.252 98.1466 207.252 98.5732V115.96C207.252 116.387 207.039 116.813 206.719 117.027C205.759 117.24 205.226 117.24 204.799 117.027Z" fill="white"/>
</g>
<defs>
<clipPath id="clip0_379_3518">
<rect width="256" height="256" fill="white"/>
</clipPath>
</defs>
</svg>
