<svg width="50" height="45" viewBox="0 0 50 45" fill="none" xmlns="http://www.w3.org/2000/svg">
<path d="M4.98682 44.8805C3.61548 44.8805 2.44122 44.3923 1.46625 43.4156C0.488831 42.439 0 41.2651 0 39.8937V0L4.17651 4.17639L8.29053 0L12.4669 4.17639L16.6434 0L20.7574 4.17639L24.9338 0L29.1101 4.17639L33.2242 0L37.4006 4.17639L41.577 0L45.6911 4.17639L49.8675 0V39.8937C49.8675 41.2651 49.379 42.439 48.404 43.4156C47.4264 44.3923 46.2521 44.8805 44.8807 44.8805H4.98682ZM4.98682 39.8937H22.4404V24.9336H4.98682V39.8937ZM27.4272 39.8937H44.8807V34.907H27.4272V39.8937ZM27.4272 29.9203H44.8807V24.9336H27.4272V29.9203ZM4.98682 19.9469H44.8807V12.4668H4.98682V19.9469Z" fill="#FAF0E6"/>
</svg>
