<svg width="796" height="372" viewBox="0 0 796 372" fill="none" xmlns="http://www.w3.org/2000/svg">
<rect x="1" y="1" width="794" height="370" rx="33" fill="white"/>
<rect x="1" y="1" width="794" height="370" rx="33" stroke="#068B35" stroke-width="2"/>
<path d="M47.8333 61C56.2097 61 63 54.2096 63 45.8333C63 37.457 56.2097 30.6666 47.8333 30.6666C39.457 30.6666 32.6667 37.457 32.6667 45.8333C32.6667 54.2096 39.457 61 47.8333 61Z" stroke="#068B35" stroke-width="5"/>
<path d="M69.6757 66.9729L58.4324 57.135" stroke="#068B35" stroke-width="5" stroke-linecap="round"/>
<path d="M101.014 48.14C101.014 47.0133 101.205 45.9127 101.586 44.838C101.985 43.746 102.557 42.758 103.302 41.874C104.065 40.9727 104.992 40.262 106.084 39.742C107.176 39.2047 108.415 38.936 109.802 38.936C111.449 38.936 112.861 39.3173 114.04 40.08C115.219 40.8253 116.094 41.7873 116.666 42.966L114.82 44.162C114.456 43.382 113.988 42.7667 113.416 42.316C112.861 41.848 112.255 41.5187 111.596 41.328C110.955 41.1373 110.322 41.042 109.698 41.042C108.675 41.042 107.765 41.25 106.968 41.666C106.188 42.082 105.529 42.6367 104.992 43.33C104.455 44.0233 104.047 44.8033 103.77 45.67C103.51 46.5193 103.38 47.3773 103.38 48.244C103.38 49.1973 103.536 50.116 103.848 51C104.177 51.884 104.628 52.664 105.2 53.34C105.772 54.016 106.448 54.5533 107.228 54.952C108.008 55.3507 108.857 55.55 109.776 55.55C110.417 55.55 111.076 55.4373 111.752 55.212C112.428 54.9867 113.061 54.64 113.65 54.172C114.239 53.6867 114.707 53.0627 115.054 52.3L117.004 53.366C116.623 54.2847 116.033 55.0647 115.236 55.706C114.439 56.3473 113.546 56.8327 112.558 57.162C111.587 57.4913 110.625 57.656 109.672 57.656C108.407 57.656 107.245 57.3873 106.188 56.85C105.131 56.2953 104.212 55.5673 103.432 54.666C102.669 53.7473 102.071 52.7247 101.638 51.598C101.222 50.454 101.014 49.3013 101.014 48.14ZM125.575 57.76C124.552 57.76 123.616 57.578 122.767 57.214C121.935 56.8327 121.207 56.3213 120.583 55.68C119.976 55.0213 119.499 54.2673 119.153 53.418C118.823 52.5687 118.659 51.6673 118.659 50.714C118.659 49.4313 118.953 48.2613 119.543 47.204C120.132 46.1467 120.947 45.2973 121.987 44.656C123.044 44.0147 124.249 43.694 125.601 43.694C126.97 43.694 128.157 44.0233 129.163 44.682C130.185 45.3233 130.974 46.1727 131.529 47.23C132.101 48.27 132.387 49.3967 132.387 50.61C132.387 50.7833 132.378 50.9567 132.361 51.13C132.361 51.286 132.352 51.4073 132.335 51.494H121.077C121.146 52.378 121.389 53.1667 121.805 53.86C122.238 54.536 122.793 55.0733 123.469 55.472C124.145 55.8533 124.873 56.044 125.653 56.044C126.485 56.044 127.265 55.836 127.993 55.42C128.738 55.004 129.249 54.458 129.527 53.782L131.503 54.328C131.208 54.9867 130.766 55.576 130.177 56.096C129.605 56.616 128.92 57.0233 128.123 57.318C127.343 57.6127 126.493 57.76 125.575 57.76ZM120.999 49.908H130.255C130.185 49.024 129.934 48.244 129.501 47.568C129.067 46.892 128.513 46.3633 127.837 45.982C127.161 45.6007 126.415 45.41 125.601 45.41C124.803 45.41 124.067 45.6007 123.391 45.982C122.715 46.3633 122.16 46.892 121.727 47.568C121.311 48.244 121.068 49.024 120.999 49.908ZM142.106 45.93C140.962 45.9473 139.948 46.242 139.064 46.814C138.197 47.3687 137.582 48.14 137.218 49.128V57.5H134.93V43.928H137.062V47.074C137.53 46.138 138.145 45.384 138.908 44.812C139.688 44.2227 140.503 43.8933 141.352 43.824C141.525 43.824 141.673 43.824 141.794 43.824C141.915 43.824 142.019 43.8327 142.106 43.85V45.93ZM143.309 53.574C143.309 52.7073 143.552 51.962 144.037 51.338C144.54 50.6967 145.225 50.2027 146.091 49.856C146.958 49.5093 147.963 49.336 149.107 49.336C149.714 49.336 150.355 49.388 151.031 49.492C151.707 49.5787 152.305 49.7173 152.825 49.908V48.92C152.825 47.88 152.513 47.0653 151.889 46.476C151.265 45.8693 150.381 45.566 149.237 45.566C148.492 45.566 147.773 45.7047 147.079 45.982C146.403 46.242 145.684 46.6233 144.921 47.126L144.089 45.514C144.973 44.9073 145.857 44.4567 146.741 44.162C147.625 43.85 148.544 43.694 149.497 43.694C151.231 43.694 152.6 44.1793 153.605 45.15C154.611 46.1033 155.113 47.438 155.113 49.154V54.9C155.113 55.1773 155.165 55.3853 155.269 55.524C155.391 55.6453 155.581 55.7147 155.841 55.732V57.5C155.616 57.5347 155.417 57.5607 155.243 57.578C155.087 57.5953 154.957 57.604 154.853 57.604C154.316 57.604 153.909 57.4567 153.631 57.162C153.371 56.8673 153.224 56.5553 153.189 56.226L153.137 55.368C152.548 56.1307 151.777 56.72 150.823 57.136C149.87 57.552 148.925 57.76 147.989 57.76C147.088 57.76 146.282 57.578 145.571 57.214C144.861 56.8327 144.306 56.33 143.907 55.706C143.509 55.0647 143.309 54.354 143.309 53.574ZM152.149 54.536C152.357 54.2933 152.522 54.0507 152.643 53.808C152.765 53.548 152.825 53.3313 152.825 53.158V51.468C152.288 51.26 151.725 51.104 151.135 51C150.546 50.8787 149.965 50.818 149.393 50.818C148.232 50.818 147.287 51.052 146.559 51.52C145.849 51.9707 145.493 52.5947 145.493 53.392C145.493 53.8253 145.606 54.25 145.831 54.666C146.074 55.0647 146.421 55.394 146.871 55.654C147.339 55.914 147.911 56.044 148.587 56.044C149.298 56.044 149.974 55.9053 150.615 55.628C151.257 55.3333 151.768 54.9693 152.149 54.536ZM159.058 60.88V37.35H161.034V60.88H159.058Z" fill="black"/>
<path d="M746 51.0333L735.383 61.65C734.986 62.0472 734.481 62.2458 733.867 62.2458C733.253 62.2458 732.747 62.0472 732.35 61.65C731.953 61.2528 731.754 60.7472 731.754 60.1333C731.754 59.5194 731.953 59.0139 732.35 58.6166L742.967 48L732.35 37.3833C731.953 36.9861 731.754 36.4805 731.754 35.8666C731.754 35.2528 731.953 34.7472 732.35 34.35C732.747 33.9528 733.253 33.7542 733.867 33.7542C734.481 33.7542 734.986 33.9528 735.383 34.35L746 44.9666L756.617 34.35C757.014 33.9528 757.519 33.7542 758.133 33.7542C758.747 33.7542 759.253 33.9528 759.65 34.35C760.047 34.7472 760.246 35.2528 760.246 35.8666C760.246 36.4805 760.047 36.9861 759.65 37.3833L749.033 48L759.65 58.6166C760.047 59.0139 760.246 59.5194 760.246 60.1333C760.246 60.7472 760.047 61.2528 759.65 61.65C759.253 62.0472 758.747 62.2458 758.133 62.2458C757.519 62.2458 757.014 62.0472 756.617 61.65L746 51.0333Z" fill="#068B35"/>
<line x1="24" y1="97.5" x2="767" y2="97.5" stroke="#A6A6A6"/>
<path d="M58.899 148.56C58.899 147.303 59.1213 146.076 59.566 144.877C60.03 143.659 60.697 142.557 61.567 141.571C62.437 140.566 63.5003 139.773 64.757 139.193C66.0137 138.594 67.4443 138.294 69.049 138.294C70.9437 138.294 72.5773 138.71 73.95 139.541C75.342 140.372 76.3763 141.455 77.053 142.789L73.979 144.906C73.631 144.133 73.1767 143.524 72.616 143.079C72.0553 142.615 71.456 142.296 70.818 142.122C70.18 141.929 69.5517 141.832 68.933 141.832C67.9277 141.832 67.048 142.035 66.294 142.441C65.5593 142.847 64.9407 143.379 64.438 144.036C63.9353 144.693 63.5583 145.428 63.307 146.24C63.075 147.052 62.959 147.864 62.959 148.676C62.959 149.585 63.104 150.464 63.394 151.315C63.684 152.146 64.09 152.891 64.612 153.548C65.1533 154.186 65.7913 154.698 66.526 155.085C67.28 155.452 68.1017 155.636 68.991 155.636C69.629 155.636 70.2767 155.53 70.934 155.317C71.5913 155.104 72.2003 154.766 72.761 154.302C73.3217 153.838 73.7567 153.239 74.066 152.504L77.343 154.389C76.937 155.414 76.27 156.284 75.342 156.999C74.4333 157.714 73.4087 158.256 72.268 158.623C71.1273 158.99 69.9963 159.174 68.875 159.174C67.4057 159.174 66.062 158.874 64.844 158.275C63.626 157.656 62.5723 156.844 61.683 155.839C60.813 154.814 60.1267 153.674 59.624 152.417C59.1407 151.141 58.899 149.855 58.899 148.56ZM86.6402 159.29C85.4222 159.29 84.3202 159.087 83.3342 158.681C82.3482 158.256 81.5072 157.685 80.8112 156.97C80.1152 156.235 79.5739 155.404 79.1872 154.476C78.8199 153.529 78.6362 152.533 78.6362 151.489C78.6362 150.039 78.9552 148.715 79.5932 147.516C80.2506 146.317 81.1786 145.36 82.3772 144.645C83.5952 143.91 85.0259 143.543 86.6692 143.543C88.3319 143.543 89.7529 143.91 90.9322 144.645C92.1116 145.36 93.0106 146.317 93.6292 147.516C94.2672 148.695 94.5862 149.971 94.5862 151.344C94.5862 151.576 94.5766 151.818 94.5572 152.069C94.5379 152.301 94.5186 152.494 94.4992 152.649H82.7542C82.8316 153.422 83.0539 154.099 83.4212 154.679C83.8079 155.259 84.2912 155.704 84.8712 156.013C85.4706 156.303 86.1086 156.448 86.7852 156.448C87.5586 156.448 88.2836 156.264 88.9602 155.897C89.6562 155.51 90.1299 155.008 90.3812 154.389L93.7162 155.317C93.3489 156.09 92.8172 156.777 92.1212 157.376C91.4446 157.975 90.6422 158.449 89.7142 158.797C88.7862 159.126 87.7616 159.29 86.6402 159.29ZM82.6672 150.184H90.6132C90.5359 149.411 90.3136 148.744 89.9462 148.183C89.5982 147.603 89.1342 147.158 88.5542 146.849C87.9742 146.52 87.3266 146.356 86.6112 146.356C85.9152 146.356 85.2772 146.52 84.6972 146.849C84.1366 147.158 83.6726 147.603 83.3052 148.183C82.9572 148.744 82.7446 149.411 82.6672 150.184ZM106.002 147.168C104.822 147.168 103.769 147.4 102.841 147.864C101.913 148.309 101.246 148.956 100.84 149.807V159H96.9536V143.804H100.521V147.052C101.062 146.008 101.748 145.186 102.58 144.587C103.411 143.988 104.291 143.659 105.219 143.601C105.431 143.601 105.596 143.601 105.712 143.601C105.828 143.601 105.924 143.611 106.002 143.63V147.168ZM107.039 154.505C107.039 153.519 107.31 152.659 107.851 151.924C108.412 151.17 109.185 150.59 110.171 150.184C111.157 149.778 112.288 149.575 113.564 149.575C114.202 149.575 114.85 149.623 115.507 149.72C116.165 149.817 116.735 149.971 117.218 150.184V149.372C117.218 148.405 116.928 147.661 116.348 147.139C115.788 146.617 114.947 146.356 113.825 146.356C112.994 146.356 112.201 146.501 111.447 146.791C110.693 147.081 109.901 147.506 109.069 148.067L107.822 145.515C108.828 144.858 109.852 144.365 110.896 144.036C111.96 143.707 113.071 143.543 114.231 143.543C116.397 143.543 118.079 144.084 119.277 145.167C120.495 146.25 121.104 147.796 121.104 149.807V154.65C121.104 155.056 121.172 155.346 121.307 155.52C121.462 155.694 121.704 155.8 122.032 155.839V159C121.684 159.058 121.365 159.106 121.075 159.145C120.805 159.184 120.573 159.203 120.379 159.203C119.606 159.203 119.016 159.029 118.61 158.681C118.224 158.333 117.982 157.908 117.885 157.405L117.798 156.622C117.141 157.473 116.319 158.13 115.333 158.594C114.347 159.058 113.342 159.29 112.317 159.29C111.312 159.29 110.403 159.087 109.591 158.681C108.799 158.256 108.17 157.685 107.706 156.97C107.262 156.235 107.039 155.414 107.039 154.505ZM116.493 155.288C116.706 155.056 116.88 154.824 117.015 154.592C117.151 154.36 117.218 154.147 117.218 153.954V152.417C116.754 152.224 116.252 152.079 115.71 151.982C115.169 151.866 114.657 151.808 114.173 151.808C113.168 151.808 112.337 152.03 111.679 152.475C111.041 152.9 110.722 153.471 110.722 154.186C110.722 154.573 110.829 154.94 111.041 155.288C111.254 155.636 111.563 155.916 111.969 156.129C112.375 156.342 112.859 156.448 113.419 156.448C113.999 156.448 114.57 156.342 115.13 156.129C115.691 155.897 116.145 155.617 116.493 155.288ZM132.392 158.275C132.237 158.333 131.995 158.439 131.667 158.594C131.338 158.749 130.942 158.884 130.478 159C130.014 159.116 129.511 159.174 128.97 159.174C128.409 159.174 127.877 159.068 127.375 158.855C126.891 158.642 126.505 158.323 126.215 157.898C125.925 157.453 125.78 156.912 125.78 156.274V145.457H123.692V143.891H125.78V138.787H127.752V143.891H131.232V145.457H127.752V155.723C127.79 156.264 127.984 156.67 128.332 156.941C128.699 157.212 129.115 157.347 129.579 157.347C130.12 157.347 130.613 157.26 131.058 157.086C131.502 156.893 131.773 156.757 131.87 156.68L132.392 158.275ZM141.039 159.29C139.956 159.29 138.951 159.087 138.023 158.681C137.114 158.256 136.321 157.685 135.645 156.97C134.987 156.235 134.475 155.404 134.108 154.476C133.74 153.529 133.557 152.533 133.557 151.489C133.557 150.406 133.74 149.401 134.108 148.473C134.475 147.526 134.997 146.694 135.674 145.979C136.35 145.244 137.143 144.674 138.052 144.268C138.98 143.843 139.985 143.63 141.068 143.63C142.15 143.63 143.146 143.843 144.055 144.268C144.963 144.674 145.756 145.244 146.433 145.979C147.109 146.694 147.631 147.526 147.999 148.473C148.366 149.401 148.55 150.406 148.55 151.489C148.55 152.533 148.366 153.529 147.999 154.476C147.631 155.404 147.109 156.235 146.433 156.97C145.775 157.685 144.983 158.256 144.055 158.681C143.146 159.087 142.141 159.29 141.039 159.29ZM135.558 151.518C135.558 152.639 135.799 153.664 136.283 154.592C136.785 155.501 137.452 156.226 138.284 156.767C139.115 157.289 140.033 157.55 141.039 157.55C142.044 157.55 142.962 157.279 143.794 156.738C144.625 156.197 145.292 155.462 145.795 154.534C146.297 153.587 146.549 152.562 146.549 151.46C146.549 150.339 146.297 149.314 145.795 148.386C145.292 147.458 144.625 146.723 143.794 146.182C142.962 145.641 142.044 145.37 141.039 145.37C140.033 145.37 139.115 145.65 138.284 146.211C137.472 146.772 136.814 147.516 136.312 148.444C135.809 149.353 135.558 150.377 135.558 151.518ZM164.55 159H162.578V150.561C162.578 148.782 162.317 147.487 161.795 146.675C161.273 145.844 160.451 145.428 159.33 145.428C158.557 145.428 157.793 145.621 157.039 146.008C156.285 146.375 155.618 146.888 155.038 147.545C154.477 148.183 154.071 148.918 153.82 149.749V159H151.848V143.891H153.646V147.313C154.052 146.578 154.584 145.94 155.241 145.399C155.898 144.838 156.643 144.403 157.474 144.094C158.305 143.785 159.166 143.63 160.055 143.63C160.886 143.63 161.592 143.785 162.172 144.094C162.752 144.403 163.216 144.848 163.564 145.428C163.912 145.989 164.163 146.675 164.318 147.487C164.473 148.28 164.55 149.169 164.55 150.155V159ZM168.755 159V143.891H170.727V159H168.755ZM168.755 140.73V137.83H170.727V140.73H168.755ZM173.853 154.65C173.853 153.703 174.123 152.891 174.665 152.214C175.206 151.518 175.95 150.986 176.898 150.619C177.864 150.232 178.976 150.039 180.233 150.039C180.967 150.039 181.731 150.097 182.524 150.213C183.316 150.329 184.022 150.503 184.641 150.735V149.459C184.641 148.183 184.264 147.168 183.51 146.414C182.756 145.66 181.712 145.283 180.378 145.283C179.566 145.283 178.763 145.438 177.971 145.747C177.197 146.037 176.385 146.472 175.535 147.052L174.781 145.66C175.767 144.983 176.733 144.481 177.681 144.152C178.628 143.804 179.595 143.63 180.581 143.63C182.437 143.63 183.906 144.162 184.989 145.225C186.071 146.288 186.613 147.758 186.613 149.633V156.622C186.613 156.893 186.671 157.096 186.787 157.231C186.903 157.347 187.086 157.415 187.338 157.434V159C187.125 159.019 186.941 159.039 186.787 159.058C186.632 159.077 186.516 159.077 186.439 159.058C185.955 159.039 185.588 158.884 185.337 158.594C185.085 158.304 184.95 157.995 184.931 157.666L184.902 156.564C184.225 157.434 183.345 158.111 182.263 158.594C181.18 159.058 180.078 159.29 178.957 159.29C177.99 159.29 177.11 159.087 176.318 158.681C175.544 158.256 174.935 157.695 174.491 156.999C174.065 156.284 173.853 155.501 173.853 154.65ZM183.974 155.81C184.186 155.539 184.351 155.278 184.467 155.027C184.583 154.776 184.641 154.553 184.641 154.36V152.156C183.983 151.905 183.297 151.711 182.582 151.576C181.886 151.441 181.18 151.373 180.465 151.373C179.053 151.373 177.913 151.653 177.043 152.214C176.173 152.775 175.738 153.538 175.738 154.505C175.738 155.066 175.883 155.597 176.173 156.1C176.463 156.583 176.888 156.989 177.449 157.318C178.009 157.627 178.667 157.782 179.421 157.782C180.368 157.782 181.248 157.598 182.06 157.231C182.891 156.864 183.529 156.39 183.974 155.81ZM203.224 159.29C201.987 159.29 200.836 159.087 199.773 158.681C198.71 158.275 197.791 157.656 197.018 156.825L197.83 155.433C198.681 156.226 199.531 156.806 200.382 157.173C201.252 157.521 202.17 157.695 203.137 157.695C204.316 157.695 205.273 157.463 206.008 156.999C206.743 156.516 207.11 155.829 207.11 154.94C207.11 154.341 206.926 153.886 206.559 153.577C206.211 153.248 205.699 152.987 205.022 152.794C204.365 152.581 203.572 152.359 202.644 152.127C201.6 151.837 200.72 151.537 200.005 151.228C199.309 150.899 198.777 150.493 198.41 150.01C198.062 149.507 197.888 148.86 197.888 148.067C197.888 147.081 198.13 146.269 198.613 145.631C199.116 144.974 199.792 144.481 200.643 144.152C201.513 143.804 202.48 143.63 203.543 143.63C204.703 143.63 205.728 143.814 206.617 144.181C207.506 144.548 208.231 145.061 208.792 145.718L207.835 147.052C207.294 146.433 206.646 145.979 205.892 145.689C205.157 145.38 204.336 145.225 203.427 145.225C202.808 145.225 202.219 145.312 201.658 145.486C201.097 145.641 200.633 145.911 200.266 146.298C199.918 146.665 199.744 147.178 199.744 147.835C199.744 148.376 199.879 148.802 200.15 149.111C200.421 149.401 200.827 149.652 201.368 149.865C201.909 150.058 202.576 150.271 203.369 150.503C204.51 150.812 205.505 151.131 206.356 151.46C207.207 151.769 207.864 152.175 208.328 152.678C208.792 153.181 209.024 153.886 209.024 154.795C209.024 156.206 208.492 157.308 207.429 158.101C206.366 158.894 204.964 159.29 203.224 159.29ZM212.283 159V143.891H214.255V159H212.283ZM212.283 140.73V137.83H214.255V140.73H212.283ZM218.686 137.83H220.658V155.578C220.658 156.332 220.793 156.825 221.064 157.057C221.334 157.289 221.663 157.405 222.05 157.405C222.398 157.405 222.746 157.366 223.094 157.289C223.442 157.212 223.741 157.134 223.993 157.057L224.341 158.652C223.973 158.807 223.519 158.932 222.978 159.029C222.456 159.126 222.001 159.174 221.615 159.174C220.725 159.174 220.01 158.913 219.469 158.391C218.947 157.869 218.686 157.154 218.686 156.245V137.83ZM226.5 159V143.891H228.472V159H226.5ZM226.5 140.73V137.83H228.472V140.73H226.5ZM238.645 159.29C237.62 159.29 236.682 159.077 235.832 158.652C235 158.227 234.285 157.647 233.686 156.912C233.086 156.177 232.622 155.346 232.294 154.418C231.965 153.471 231.801 152.485 231.801 151.46C231.801 150.397 231.984 149.401 232.352 148.473C232.719 147.526 233.222 146.694 233.86 145.979C234.517 145.244 235.281 144.674 236.151 144.268C237.04 143.843 237.987 143.63 238.993 143.63C240.172 143.63 241.255 143.939 242.241 144.558C243.246 145.157 244.029 145.921 244.59 146.849V143.891H246.359V165.177H244.387V155.868C242.898 158.149 240.984 159.29 238.645 159.29ZM239.254 157.55C240.046 157.55 240.762 157.395 241.4 157.086C242.057 156.757 242.627 156.322 243.111 155.781C243.613 155.24 244.039 154.64 244.387 153.983V149.314C244.329 148.792 244.135 148.299 243.807 147.835C243.478 147.352 243.072 146.926 242.589 146.559C242.105 146.172 241.583 145.882 241.023 145.689C240.462 145.476 239.911 145.37 239.37 145.37C238.538 145.37 237.784 145.544 237.108 145.892C236.45 146.24 235.87 146.704 235.368 147.284C234.865 147.864 234.478 148.521 234.208 149.256C233.937 149.991 233.802 150.735 233.802 151.489C233.802 152.572 234.034 153.577 234.498 154.505C234.981 155.433 235.629 156.177 236.441 156.738C237.253 157.279 238.19 157.55 239.254 157.55ZM250.569 152.765V143.891H252.541V152.417C252.541 154.138 252.831 155.423 253.411 156.274C254.01 157.125 254.89 157.55 256.05 157.55C256.823 157.55 257.568 157.386 258.283 157.057C259.018 156.709 259.665 156.226 260.226 155.607C260.787 154.969 261.212 154.234 261.502 153.403V143.891H263.474V156.622C263.474 156.893 263.532 157.096 263.648 157.231C263.764 157.347 263.938 157.415 264.17 157.434V159C263.938 159.019 263.754 159.029 263.619 159.029C263.484 159.048 263.358 159.058 263.242 159.058C262.855 159.019 262.517 158.865 262.227 158.594C261.956 158.323 261.811 157.995 261.792 157.608L261.734 155.578C261.077 156.738 260.178 157.647 259.037 158.304C257.916 158.961 256.698 159.29 255.383 159.29C253.798 159.29 252.599 158.739 251.787 157.637C250.975 156.535 250.569 154.911 250.569 152.765ZM266.715 154.65C266.715 153.703 266.985 152.891 267.527 152.214C268.068 151.518 268.812 150.986 269.76 150.619C270.726 150.232 271.838 150.039 273.095 150.039C273.829 150.039 274.593 150.097 275.386 150.213C276.178 150.329 276.884 150.503 277.503 150.735V149.459C277.503 148.183 277.126 147.168 276.372 146.414C275.618 145.66 274.574 145.283 273.24 145.283C272.428 145.283 271.625 145.438 270.833 145.747C270.059 146.037 269.247 146.472 268.397 147.052L267.643 145.66C268.629 144.983 269.595 144.481 270.543 144.152C271.49 143.804 272.457 143.63 273.443 143.63C275.299 143.63 276.768 144.162 277.851 145.225C278.933 146.288 279.475 147.758 279.475 149.633V156.622C279.475 156.893 279.533 157.096 279.649 157.231C279.765 157.347 279.948 157.415 280.2 157.434V159C279.987 159.019 279.803 159.039 279.649 159.058C279.494 159.077 279.378 159.077 279.301 159.058C278.817 159.039 278.45 158.884 278.199 158.594C277.947 158.304 277.812 157.995 277.793 157.666L277.764 156.564C277.087 157.434 276.207 158.111 275.125 158.594C274.042 159.058 272.94 159.29 271.819 159.29C270.852 159.29 269.972 159.087 269.18 158.681C268.406 158.256 267.797 157.695 267.353 156.999C266.927 156.284 266.715 155.501 266.715 154.65ZM276.836 155.81C277.048 155.539 277.213 155.278 277.329 155.027C277.445 154.776 277.503 154.553 277.503 154.36V152.156C276.845 151.905 276.159 151.711 275.444 151.576C274.748 151.441 274.042 151.373 273.327 151.373C271.915 151.373 270.775 151.653 269.905 152.214C269.035 152.775 268.6 153.538 268.6 154.505C268.6 155.066 268.745 155.597 269.035 156.1C269.325 156.583 269.75 156.989 270.311 157.318C270.871 157.627 271.529 157.782 272.283 157.782C273.23 157.782 274.11 157.598 274.922 157.231C275.753 156.864 276.391 156.39 276.836 155.81Z" fill="#555555"/>
<path d="M58.899 206.56C58.899 205.303 59.1213 204.076 59.566 202.877C60.03 201.659 60.697 200.557 61.567 199.571C62.437 198.566 63.5003 197.773 64.757 197.193C66.0137 196.594 67.4443 196.294 69.049 196.294C70.9437 196.294 72.5773 196.71 73.95 197.541C75.342 198.372 76.3763 199.455 77.053 200.789L73.979 202.906C73.631 202.133 73.1767 201.524 72.616 201.079C72.0553 200.615 71.456 200.296 70.818 200.122C70.18 199.929 69.5517 199.832 68.933 199.832C67.9277 199.832 67.048 200.035 66.294 200.441C65.5593 200.847 64.9407 201.379 64.438 202.036C63.9353 202.693 63.5583 203.428 63.307 204.24C63.075 205.052 62.959 205.864 62.959 206.676C62.959 207.585 63.104 208.464 63.394 209.315C63.684 210.146 64.09 210.891 64.612 211.548C65.1533 212.186 65.7913 212.698 66.526 213.085C67.28 213.452 68.1017 213.636 68.991 213.636C69.629 213.636 70.2767 213.53 70.934 213.317C71.5913 213.104 72.2003 212.766 72.761 212.302C73.3217 211.838 73.7567 211.239 74.066 210.504L77.343 212.389C76.937 213.414 76.27 214.284 75.342 214.999C74.4333 215.714 73.4087 216.256 72.268 216.623C71.1273 216.99 69.9963 217.174 68.875 217.174C67.4057 217.174 66.062 216.874 64.844 216.275C63.626 215.656 62.5723 214.844 61.683 213.839C60.813 212.814 60.1267 211.674 59.624 210.417C59.1407 209.141 58.899 207.855 58.899 206.56ZM86.6402 217.29C85.4222 217.29 84.3202 217.087 83.3342 216.681C82.3482 216.256 81.5072 215.685 80.8112 214.97C80.1152 214.235 79.5739 213.404 79.1872 212.476C78.8199 211.529 78.6362 210.533 78.6362 209.489C78.6362 208.039 78.9552 206.715 79.5932 205.516C80.2506 204.317 81.1786 203.36 82.3772 202.645C83.5952 201.91 85.0259 201.543 86.6692 201.543C88.3319 201.543 89.7529 201.91 90.9322 202.645C92.1116 203.36 93.0106 204.317 93.6292 205.516C94.2672 206.695 94.5862 207.971 94.5862 209.344C94.5862 209.576 94.5766 209.818 94.5572 210.069C94.5379 210.301 94.5186 210.494 94.4992 210.649H82.7542C82.8316 211.422 83.0539 212.099 83.4212 212.679C83.8079 213.259 84.2912 213.704 84.8712 214.013C85.4706 214.303 86.1086 214.448 86.7852 214.448C87.5586 214.448 88.2836 214.264 88.9602 213.897C89.6562 213.51 90.1299 213.008 90.3812 212.389L93.7162 213.317C93.3489 214.09 92.8172 214.777 92.1212 215.376C91.4446 215.975 90.6422 216.449 89.7142 216.797C88.7862 217.126 87.7616 217.29 86.6402 217.29ZM82.6672 208.184H90.6132C90.5359 207.411 90.3136 206.744 89.9462 206.183C89.5982 205.603 89.1342 205.158 88.5542 204.849C87.9742 204.52 87.3266 204.356 86.6112 204.356C85.9152 204.356 85.2772 204.52 84.6972 204.849C84.1366 205.158 83.6726 205.603 83.3052 206.183C82.9572 206.744 82.7446 207.411 82.6672 208.184ZM106.002 205.168C104.822 205.168 103.769 205.4 102.841 205.864C101.913 206.309 101.246 206.956 100.84 207.807V217H96.9536V201.804H100.521V205.052C101.062 204.008 101.748 203.186 102.58 202.587C103.411 201.988 104.291 201.659 105.219 201.601C105.431 201.601 105.596 201.601 105.712 201.601C105.828 201.601 105.924 201.611 106.002 201.63V205.168ZM107.039 212.505C107.039 211.519 107.31 210.659 107.851 209.924C108.412 209.17 109.185 208.59 110.171 208.184C111.157 207.778 112.288 207.575 113.564 207.575C114.202 207.575 114.85 207.623 115.507 207.72C116.165 207.817 116.735 207.971 117.218 208.184V207.372C117.218 206.405 116.928 205.661 116.348 205.139C115.788 204.617 114.947 204.356 113.825 204.356C112.994 204.356 112.201 204.501 111.447 204.791C110.693 205.081 109.901 205.506 109.069 206.067L107.822 203.515C108.828 202.858 109.852 202.365 110.896 202.036C111.96 201.707 113.071 201.543 114.231 201.543C116.397 201.543 118.079 202.084 119.277 203.167C120.495 204.25 121.104 205.796 121.104 207.807V212.65C121.104 213.056 121.172 213.346 121.307 213.52C121.462 213.694 121.704 213.8 122.032 213.839V217C121.684 217.058 121.365 217.106 121.075 217.145C120.805 217.184 120.573 217.203 120.379 217.203C119.606 217.203 119.016 217.029 118.61 216.681C118.224 216.333 117.982 215.908 117.885 215.405L117.798 214.622C117.141 215.473 116.319 216.13 115.333 216.594C114.347 217.058 113.342 217.29 112.317 217.29C111.312 217.29 110.403 217.087 109.591 216.681C108.799 216.256 108.17 215.685 107.706 214.97C107.262 214.235 107.039 213.414 107.039 212.505ZM116.493 213.288C116.706 213.056 116.88 212.824 117.015 212.592C117.151 212.36 117.218 212.147 117.218 211.954V210.417C116.754 210.224 116.252 210.079 115.71 209.982C115.169 209.866 114.657 209.808 114.173 209.808C113.168 209.808 112.337 210.03 111.679 210.475C111.041 210.9 110.722 211.471 110.722 212.186C110.722 212.573 110.829 212.94 111.041 213.288C111.254 213.636 111.563 213.916 111.969 214.129C112.375 214.342 112.859 214.448 113.419 214.448C113.999 214.448 114.57 214.342 115.13 214.129C115.691 213.897 116.145 213.617 116.493 213.288ZM132.392 216.275C132.237 216.333 131.995 216.439 131.667 216.594C131.338 216.749 130.942 216.884 130.478 217C130.014 217.116 129.511 217.174 128.97 217.174C128.409 217.174 127.877 217.068 127.375 216.855C126.891 216.642 126.505 216.323 126.215 215.898C125.925 215.453 125.78 214.912 125.78 214.274V203.457H123.692V201.891H125.78V196.787H127.752V201.891H131.232V203.457H127.752V213.723C127.79 214.264 127.984 214.67 128.332 214.941C128.699 215.212 129.115 215.347 129.579 215.347C130.12 215.347 130.613 215.26 131.058 215.086C131.502 214.893 131.773 214.757 131.87 214.68L132.392 216.275ZM141.039 217.29C139.956 217.29 138.951 217.087 138.023 216.681C137.114 216.256 136.321 215.685 135.645 214.97C134.987 214.235 134.475 213.404 134.108 212.476C133.74 211.529 133.557 210.533 133.557 209.489C133.557 208.406 133.74 207.401 134.108 206.473C134.475 205.526 134.997 204.694 135.674 203.979C136.35 203.244 137.143 202.674 138.052 202.268C138.98 201.843 139.985 201.63 141.068 201.63C142.15 201.63 143.146 201.843 144.055 202.268C144.963 202.674 145.756 203.244 146.433 203.979C147.109 204.694 147.631 205.526 147.999 206.473C148.366 207.401 148.55 208.406 148.55 209.489C148.55 210.533 148.366 211.529 147.999 212.476C147.631 213.404 147.109 214.235 146.433 214.97C145.775 215.685 144.983 216.256 144.055 216.681C143.146 217.087 142.141 217.29 141.039 217.29ZM135.558 209.518C135.558 210.639 135.799 211.664 136.283 212.592C136.785 213.501 137.452 214.226 138.284 214.767C139.115 215.289 140.033 215.55 141.039 215.55C142.044 215.55 142.962 215.279 143.794 214.738C144.625 214.197 145.292 213.462 145.795 212.534C146.297 211.587 146.549 210.562 146.549 209.46C146.549 208.339 146.297 207.314 145.795 206.386C145.292 205.458 144.625 204.723 143.794 204.182C142.962 203.641 142.044 203.37 141.039 203.37C140.033 203.37 139.115 203.65 138.284 204.211C137.472 204.772 136.814 205.516 136.312 206.444C135.809 207.353 135.558 208.377 135.558 209.518ZM164.55 217H162.578V208.561C162.578 206.782 162.317 205.487 161.795 204.675C161.273 203.844 160.451 203.428 159.33 203.428C158.557 203.428 157.793 203.621 157.039 204.008C156.285 204.375 155.618 204.888 155.038 205.545C154.477 206.183 154.071 206.918 153.82 207.749V217H151.848V201.891H153.646V205.313C154.052 204.578 154.584 203.94 155.241 203.399C155.898 202.838 156.643 202.403 157.474 202.094C158.305 201.785 159.166 201.63 160.055 201.63C160.886 201.63 161.592 201.785 162.172 202.094C162.752 202.403 163.216 202.848 163.564 203.428C163.912 203.989 164.163 204.675 164.318 205.487C164.473 206.28 164.55 207.169 164.55 208.155V217ZM168.755 217V201.891H170.727V217H168.755ZM168.755 198.73V195.83H170.727V198.73H168.755ZM173.853 212.65C173.853 211.703 174.123 210.891 174.665 210.214C175.206 209.518 175.95 208.986 176.898 208.619C177.864 208.232 178.976 208.039 180.233 208.039C180.967 208.039 181.731 208.097 182.524 208.213C183.316 208.329 184.022 208.503 184.641 208.735V207.459C184.641 206.183 184.264 205.168 183.51 204.414C182.756 203.66 181.712 203.283 180.378 203.283C179.566 203.283 178.763 203.438 177.971 203.747C177.197 204.037 176.385 204.472 175.535 205.052L174.781 203.66C175.767 202.983 176.733 202.481 177.681 202.152C178.628 201.804 179.595 201.63 180.581 201.63C182.437 201.63 183.906 202.162 184.989 203.225C186.071 204.288 186.613 205.758 186.613 207.633V214.622C186.613 214.893 186.671 215.096 186.787 215.231C186.903 215.347 187.086 215.415 187.338 215.434V217C187.125 217.019 186.941 217.039 186.787 217.058C186.632 217.077 186.516 217.077 186.439 217.058C185.955 217.039 185.588 216.884 185.337 216.594C185.085 216.304 184.95 215.995 184.931 215.666L184.902 214.564C184.225 215.434 183.345 216.111 182.263 216.594C181.18 217.058 180.078 217.29 178.957 217.29C177.99 217.29 177.11 217.087 176.318 216.681C175.544 216.256 174.935 215.695 174.491 214.999C174.065 214.284 173.853 213.501 173.853 212.65ZM183.974 213.81C184.186 213.539 184.351 213.278 184.467 213.027C184.583 212.776 184.641 212.553 184.641 212.36V210.156C183.983 209.905 183.297 209.711 182.582 209.576C181.886 209.441 181.18 209.373 180.465 209.373C179.053 209.373 177.913 209.653 177.043 210.214C176.173 210.775 175.738 211.538 175.738 212.505C175.738 213.066 175.883 213.597 176.173 214.1C176.463 214.583 176.888 214.989 177.449 215.318C178.009 215.627 178.667 215.782 179.421 215.782C180.368 215.782 181.248 215.598 182.06 215.231C182.891 214.864 183.529 214.39 183.974 213.81ZM203.224 217.29C201.987 217.29 200.836 217.087 199.773 216.681C198.71 216.275 197.791 215.656 197.018 214.825L197.83 213.433C198.681 214.226 199.531 214.806 200.382 215.173C201.252 215.521 202.17 215.695 203.137 215.695C204.316 215.695 205.273 215.463 206.008 214.999C206.743 214.516 207.11 213.829 207.11 212.94C207.11 212.341 206.926 211.886 206.559 211.577C206.211 211.248 205.699 210.987 205.022 210.794C204.365 210.581 203.572 210.359 202.644 210.127C201.6 209.837 200.72 209.537 200.005 209.228C199.309 208.899 198.777 208.493 198.41 208.01C198.062 207.507 197.888 206.86 197.888 206.067C197.888 205.081 198.13 204.269 198.613 203.631C199.116 202.974 199.792 202.481 200.643 202.152C201.513 201.804 202.48 201.63 203.543 201.63C204.703 201.63 205.728 201.814 206.617 202.181C207.506 202.548 208.231 203.061 208.792 203.718L207.835 205.052C207.294 204.433 206.646 203.979 205.892 203.689C205.157 203.38 204.336 203.225 203.427 203.225C202.808 203.225 202.219 203.312 201.658 203.486C201.097 203.641 200.633 203.911 200.266 204.298C199.918 204.665 199.744 205.178 199.744 205.835C199.744 206.376 199.879 206.802 200.15 207.111C200.421 207.401 200.827 207.652 201.368 207.865C201.909 208.058 202.576 208.271 203.369 208.503C204.51 208.812 205.505 209.131 206.356 209.46C207.207 209.769 207.864 210.175 208.328 210.678C208.792 211.181 209.024 211.886 209.024 212.795C209.024 214.206 208.492 215.308 207.429 216.101C206.366 216.894 204.964 217.29 203.224 217.29ZM212.283 217V201.891H214.255V217H212.283ZM212.283 198.73V195.83H214.255V198.73H212.283ZM218.686 195.83H220.658V213.578C220.658 214.332 220.793 214.825 221.064 215.057C221.334 215.289 221.663 215.405 222.05 215.405C222.398 215.405 222.746 215.366 223.094 215.289C223.442 215.212 223.741 215.134 223.993 215.057L224.341 216.652C223.973 216.807 223.519 216.932 222.978 217.029C222.456 217.126 222.001 217.174 221.615 217.174C220.725 217.174 220.01 216.913 219.469 216.391C218.947 215.869 218.686 215.154 218.686 214.245V195.83ZM226.5 217V201.891H228.472V217H226.5ZM226.5 198.73V195.83H228.472V198.73H226.5ZM238.645 217.29C237.62 217.29 236.682 217.077 235.832 216.652C235 216.227 234.285 215.647 233.686 214.912C233.086 214.177 232.622 213.346 232.294 212.418C231.965 211.471 231.801 210.485 231.801 209.46C231.801 208.397 231.984 207.401 232.352 206.473C232.719 205.526 233.222 204.694 233.86 203.979C234.517 203.244 235.281 202.674 236.151 202.268C237.04 201.843 237.987 201.63 238.993 201.63C240.172 201.63 241.255 201.939 242.241 202.558C243.246 203.157 244.029 203.921 244.59 204.849V201.891H246.359V223.177H244.387V213.868C242.898 216.149 240.984 217.29 238.645 217.29ZM239.254 215.55C240.046 215.55 240.762 215.395 241.4 215.086C242.057 214.757 242.627 214.322 243.111 213.781C243.613 213.24 244.039 212.64 244.387 211.983V207.314C244.329 206.792 244.135 206.299 243.807 205.835C243.478 205.352 243.072 204.926 242.589 204.559C242.105 204.172 241.583 203.882 241.023 203.689C240.462 203.476 239.911 203.37 239.37 203.37C238.538 203.37 237.784 203.544 237.108 203.892C236.45 204.24 235.87 204.704 235.368 205.284C234.865 205.864 234.478 206.521 234.208 207.256C233.937 207.991 233.802 208.735 233.802 209.489C233.802 210.572 234.034 211.577 234.498 212.505C234.981 213.433 235.629 214.177 236.441 214.738C237.253 215.279 238.19 215.55 239.254 215.55ZM250.569 210.765V201.891H252.541V210.417C252.541 212.138 252.831 213.423 253.411 214.274C254.01 215.125 254.89 215.55 256.05 215.55C256.823 215.55 257.568 215.386 258.283 215.057C259.018 214.709 259.665 214.226 260.226 213.607C260.787 212.969 261.212 212.234 261.502 211.403V201.891H263.474V214.622C263.474 214.893 263.532 215.096 263.648 215.231C263.764 215.347 263.938 215.415 264.17 215.434V217C263.938 217.019 263.754 217.029 263.619 217.029C263.484 217.048 263.358 217.058 263.242 217.058C262.855 217.019 262.517 216.865 262.227 216.594C261.956 216.323 261.811 215.995 261.792 215.608L261.734 213.578C261.077 214.738 260.178 215.647 259.037 216.304C257.916 216.961 256.698 217.29 255.383 217.29C253.798 217.29 252.599 216.739 251.787 215.637C250.975 214.535 250.569 212.911 250.569 210.765ZM266.715 212.65C266.715 211.703 266.985 210.891 267.527 210.214C268.068 209.518 268.812 208.986 269.76 208.619C270.726 208.232 271.838 208.039 273.095 208.039C273.829 208.039 274.593 208.097 275.386 208.213C276.178 208.329 276.884 208.503 277.503 208.735V207.459C277.503 206.183 277.126 205.168 276.372 204.414C275.618 203.66 274.574 203.283 273.24 203.283C272.428 203.283 271.625 203.438 270.833 203.747C270.059 204.037 269.247 204.472 268.397 205.052L267.643 203.66C268.629 202.983 269.595 202.481 270.543 202.152C271.49 201.804 272.457 201.63 273.443 201.63C275.299 201.63 276.768 202.162 277.851 203.225C278.933 204.288 279.475 205.758 279.475 207.633V214.622C279.475 214.893 279.533 215.096 279.649 215.231C279.765 215.347 279.948 215.415 280.2 215.434V217C279.987 217.019 279.803 217.039 279.649 217.058C279.494 217.077 279.378 217.077 279.301 217.058C278.817 217.039 278.45 216.884 278.199 216.594C277.947 216.304 277.812 215.995 277.793 215.666L277.764 214.564C277.087 215.434 276.207 216.111 275.125 216.594C274.042 217.058 272.94 217.29 271.819 217.29C270.852 217.29 269.972 217.087 269.18 216.681C268.406 216.256 267.797 215.695 267.353 214.999C266.927 214.284 266.715 213.501 266.715 212.65ZM276.836 213.81C277.048 213.539 277.213 213.278 277.329 213.027C277.445 212.776 277.503 212.553 277.503 212.36V210.156C276.845 209.905 276.159 209.711 275.444 209.576C274.748 209.441 274.042 209.373 273.327 209.373C271.915 209.373 270.775 209.653 269.905 210.214C269.035 210.775 268.6 211.538 268.6 212.505C268.6 213.066 268.745 213.597 269.035 214.1C269.325 214.583 269.75 214.989 270.311 215.318C270.871 215.627 271.529 215.782 272.283 215.782C273.23 215.782 274.11 215.598 274.922 215.231C275.753 214.864 276.391 214.39 276.836 213.81Z" fill="#555555"/>
<path d="M58.899 264.56C58.899 263.303 59.1213 262.076 59.566 260.877C60.03 259.659 60.697 258.557 61.567 257.571C62.437 256.566 63.5003 255.773 64.757 255.193C66.0137 254.594 67.4443 254.294 69.049 254.294C70.9437 254.294 72.5773 254.71 73.95 255.541C75.342 256.372 76.3763 257.455 77.053 258.789L73.979 260.906C73.631 260.133 73.1767 259.524 72.616 259.079C72.0553 258.615 71.456 258.296 70.818 258.122C70.18 257.929 69.5517 257.832 68.933 257.832C67.9277 257.832 67.048 258.035 66.294 258.441C65.5593 258.847 64.9407 259.379 64.438 260.036C63.9353 260.693 63.5583 261.428 63.307 262.24C63.075 263.052 62.959 263.864 62.959 264.676C62.959 265.585 63.104 266.464 63.394 267.315C63.684 268.146 64.09 268.891 64.612 269.548C65.1533 270.186 65.7913 270.698 66.526 271.085C67.28 271.452 68.1017 271.636 68.991 271.636C69.629 271.636 70.2767 271.53 70.934 271.317C71.5913 271.104 72.2003 270.766 72.761 270.302C73.3217 269.838 73.7567 269.239 74.066 268.504L77.343 270.389C76.937 271.414 76.27 272.284 75.342 272.999C74.4333 273.714 73.4087 274.256 72.268 274.623C71.1273 274.99 69.9963 275.174 68.875 275.174C67.4057 275.174 66.062 274.874 64.844 274.275C63.626 273.656 62.5723 272.844 61.683 271.839C60.813 270.814 60.1267 269.674 59.624 268.417C59.1407 267.141 58.899 265.855 58.899 264.56ZM86.6402 275.29C85.4222 275.29 84.3202 275.087 83.3342 274.681C82.3482 274.256 81.5072 273.685 80.8112 272.97C80.1152 272.235 79.5739 271.404 79.1872 270.476C78.8199 269.529 78.6362 268.533 78.6362 267.489C78.6362 266.039 78.9552 264.715 79.5932 263.516C80.2506 262.317 81.1786 261.36 82.3772 260.645C83.5952 259.91 85.0259 259.543 86.6692 259.543C88.3319 259.543 89.7529 259.91 90.9322 260.645C92.1116 261.36 93.0106 262.317 93.6292 263.516C94.2672 264.695 94.5862 265.971 94.5862 267.344C94.5862 267.576 94.5766 267.818 94.5572 268.069C94.5379 268.301 94.5186 268.494 94.4992 268.649H82.7542C82.8316 269.422 83.0539 270.099 83.4212 270.679C83.8079 271.259 84.2912 271.704 84.8712 272.013C85.4706 272.303 86.1086 272.448 86.7852 272.448C87.5586 272.448 88.2836 272.264 88.9602 271.897C89.6562 271.51 90.1299 271.008 90.3812 270.389L93.7162 271.317C93.3489 272.09 92.8172 272.777 92.1212 273.376C91.4446 273.975 90.6422 274.449 89.7142 274.797C88.7862 275.126 87.7616 275.29 86.6402 275.29ZM82.6672 266.184H90.6132C90.5359 265.411 90.3136 264.744 89.9462 264.183C89.5982 263.603 89.1342 263.158 88.5542 262.849C87.9742 262.52 87.3266 262.356 86.6112 262.356C85.9152 262.356 85.2772 262.52 84.6972 262.849C84.1366 263.158 83.6726 263.603 83.3052 264.183C82.9572 264.744 82.7446 265.411 82.6672 266.184ZM106.002 263.168C104.822 263.168 103.769 263.4 102.841 263.864C101.913 264.309 101.246 264.956 100.84 265.807V275H96.9536V259.804H100.521V263.052C101.062 262.008 101.748 261.186 102.58 260.587C103.411 259.988 104.291 259.659 105.219 259.601C105.431 259.601 105.596 259.601 105.712 259.601C105.828 259.601 105.924 259.611 106.002 259.63V263.168ZM107.039 270.505C107.039 269.519 107.31 268.659 107.851 267.924C108.412 267.17 109.185 266.59 110.171 266.184C111.157 265.778 112.288 265.575 113.564 265.575C114.202 265.575 114.85 265.623 115.507 265.72C116.165 265.817 116.735 265.971 117.218 266.184V265.372C117.218 264.405 116.928 263.661 116.348 263.139C115.788 262.617 114.947 262.356 113.825 262.356C112.994 262.356 112.201 262.501 111.447 262.791C110.693 263.081 109.901 263.506 109.069 264.067L107.822 261.515C108.828 260.858 109.852 260.365 110.896 260.036C111.96 259.707 113.071 259.543 114.231 259.543C116.397 259.543 118.079 260.084 119.277 261.167C120.495 262.25 121.104 263.796 121.104 265.807V270.65C121.104 271.056 121.172 271.346 121.307 271.52C121.462 271.694 121.704 271.8 122.032 271.839V275C121.684 275.058 121.365 275.106 121.075 275.145C120.805 275.184 120.573 275.203 120.379 275.203C119.606 275.203 119.016 275.029 118.61 274.681C118.224 274.333 117.982 273.908 117.885 273.405L117.798 272.622C117.141 273.473 116.319 274.13 115.333 274.594C114.347 275.058 113.342 275.29 112.317 275.29C111.312 275.29 110.403 275.087 109.591 274.681C108.799 274.256 108.17 273.685 107.706 272.97C107.262 272.235 107.039 271.414 107.039 270.505ZM116.493 271.288C116.706 271.056 116.88 270.824 117.015 270.592C117.151 270.36 117.218 270.147 117.218 269.954V268.417C116.754 268.224 116.252 268.079 115.71 267.982C115.169 267.866 114.657 267.808 114.173 267.808C113.168 267.808 112.337 268.03 111.679 268.475C111.041 268.9 110.722 269.471 110.722 270.186C110.722 270.573 110.829 270.94 111.041 271.288C111.254 271.636 111.563 271.916 111.969 272.129C112.375 272.342 112.859 272.448 113.419 272.448C113.999 272.448 114.57 272.342 115.13 272.129C115.691 271.897 116.145 271.617 116.493 271.288ZM132.392 274.275C132.237 274.333 131.995 274.439 131.667 274.594C131.338 274.749 130.942 274.884 130.478 275C130.014 275.116 129.511 275.174 128.97 275.174C128.409 275.174 127.877 275.068 127.375 274.855C126.891 274.642 126.505 274.323 126.215 273.898C125.925 273.453 125.78 272.912 125.78 272.274V261.457H123.692V259.891H125.78V254.787H127.752V259.891H131.232V261.457H127.752V271.723C127.79 272.264 127.984 272.67 128.332 272.941C128.699 273.212 129.115 273.347 129.579 273.347C130.12 273.347 130.613 273.26 131.058 273.086C131.502 272.893 131.773 272.757 131.87 272.68L132.392 274.275ZM141.039 275.29C139.956 275.29 138.951 275.087 138.023 274.681C137.114 274.256 136.321 273.685 135.645 272.97C134.987 272.235 134.475 271.404 134.108 270.476C133.74 269.529 133.557 268.533 133.557 267.489C133.557 266.406 133.74 265.401 134.108 264.473C134.475 263.526 134.997 262.694 135.674 261.979C136.35 261.244 137.143 260.674 138.052 260.268C138.98 259.843 139.985 259.63 141.068 259.63C142.15 259.63 143.146 259.843 144.055 260.268C144.963 260.674 145.756 261.244 146.433 261.979C147.109 262.694 147.631 263.526 147.999 264.473C148.366 265.401 148.55 266.406 148.55 267.489C148.55 268.533 148.366 269.529 147.999 270.476C147.631 271.404 147.109 272.235 146.433 272.97C145.775 273.685 144.983 274.256 144.055 274.681C143.146 275.087 142.141 275.29 141.039 275.29ZM135.558 267.518C135.558 268.639 135.799 269.664 136.283 270.592C136.785 271.501 137.452 272.226 138.284 272.767C139.115 273.289 140.033 273.55 141.039 273.55C142.044 273.55 142.962 273.279 143.794 272.738C144.625 272.197 145.292 271.462 145.795 270.534C146.297 269.587 146.549 268.562 146.549 267.46C146.549 266.339 146.297 265.314 145.795 264.386C145.292 263.458 144.625 262.723 143.794 262.182C142.962 261.641 142.044 261.37 141.039 261.37C140.033 261.37 139.115 261.65 138.284 262.211C137.472 262.772 136.814 263.516 136.312 264.444C135.809 265.353 135.558 266.377 135.558 267.518ZM164.55 275H162.578V266.561C162.578 264.782 162.317 263.487 161.795 262.675C161.273 261.844 160.451 261.428 159.33 261.428C158.557 261.428 157.793 261.621 157.039 262.008C156.285 262.375 155.618 262.888 155.038 263.545C154.477 264.183 154.071 264.918 153.82 265.749V275H151.848V259.891H153.646V263.313C154.052 262.578 154.584 261.94 155.241 261.399C155.898 260.838 156.643 260.403 157.474 260.094C158.305 259.785 159.166 259.63 160.055 259.63C160.886 259.63 161.592 259.785 162.172 260.094C162.752 260.403 163.216 260.848 163.564 261.428C163.912 261.989 164.163 262.675 164.318 263.487C164.473 264.28 164.55 265.169 164.55 266.155V275ZM168.755 275V259.891H170.727V275H168.755ZM168.755 256.73V253.83H170.727V256.73H168.755ZM173.853 270.65C173.853 269.703 174.123 268.891 174.665 268.214C175.206 267.518 175.95 266.986 176.898 266.619C177.864 266.232 178.976 266.039 180.233 266.039C180.967 266.039 181.731 266.097 182.524 266.213C183.316 266.329 184.022 266.503 184.641 266.735V265.459C184.641 264.183 184.264 263.168 183.51 262.414C182.756 261.66 181.712 261.283 180.378 261.283C179.566 261.283 178.763 261.438 177.971 261.747C177.197 262.037 176.385 262.472 175.535 263.052L174.781 261.66C175.767 260.983 176.733 260.481 177.681 260.152C178.628 259.804 179.595 259.63 180.581 259.63C182.437 259.63 183.906 260.162 184.989 261.225C186.071 262.288 186.613 263.758 186.613 265.633V272.622C186.613 272.893 186.671 273.096 186.787 273.231C186.903 273.347 187.086 273.415 187.338 273.434V275C187.125 275.019 186.941 275.039 186.787 275.058C186.632 275.077 186.516 275.077 186.439 275.058C185.955 275.039 185.588 274.884 185.337 274.594C185.085 274.304 184.95 273.995 184.931 273.666L184.902 272.564C184.225 273.434 183.345 274.111 182.263 274.594C181.18 275.058 180.078 275.29 178.957 275.29C177.99 275.29 177.11 275.087 176.318 274.681C175.544 274.256 174.935 273.695 174.491 272.999C174.065 272.284 173.853 271.501 173.853 270.65ZM183.974 271.81C184.186 271.539 184.351 271.278 184.467 271.027C184.583 270.776 184.641 270.553 184.641 270.36V268.156C183.983 267.905 183.297 267.711 182.582 267.576C181.886 267.441 181.18 267.373 180.465 267.373C179.053 267.373 177.913 267.653 177.043 268.214C176.173 268.775 175.738 269.538 175.738 270.505C175.738 271.066 175.883 271.597 176.173 272.1C176.463 272.583 176.888 272.989 177.449 273.318C178.009 273.627 178.667 273.782 179.421 273.782C180.368 273.782 181.248 273.598 182.06 273.231C182.891 272.864 183.529 272.39 183.974 271.81ZM203.224 275.29C201.987 275.29 200.836 275.087 199.773 274.681C198.71 274.275 197.791 273.656 197.018 272.825L197.83 271.433C198.681 272.226 199.531 272.806 200.382 273.173C201.252 273.521 202.17 273.695 203.137 273.695C204.316 273.695 205.273 273.463 206.008 272.999C206.743 272.516 207.11 271.829 207.11 270.94C207.11 270.341 206.926 269.886 206.559 269.577C206.211 269.248 205.699 268.987 205.022 268.794C204.365 268.581 203.572 268.359 202.644 268.127C201.6 267.837 200.72 267.537 200.005 267.228C199.309 266.899 198.777 266.493 198.41 266.01C198.062 265.507 197.888 264.86 197.888 264.067C197.888 263.081 198.13 262.269 198.613 261.631C199.116 260.974 199.792 260.481 200.643 260.152C201.513 259.804 202.48 259.63 203.543 259.63C204.703 259.63 205.728 259.814 206.617 260.181C207.506 260.548 208.231 261.061 208.792 261.718L207.835 263.052C207.294 262.433 206.646 261.979 205.892 261.689C205.157 261.38 204.336 261.225 203.427 261.225C202.808 261.225 202.219 261.312 201.658 261.486C201.097 261.641 200.633 261.911 200.266 262.298C199.918 262.665 199.744 263.178 199.744 263.835C199.744 264.376 199.879 264.802 200.15 265.111C200.421 265.401 200.827 265.652 201.368 265.865C201.909 266.058 202.576 266.271 203.369 266.503C204.51 266.812 205.505 267.131 206.356 267.46C207.207 267.769 207.864 268.175 208.328 268.678C208.792 269.181 209.024 269.886 209.024 270.795C209.024 272.206 208.492 273.308 207.429 274.101C206.366 274.894 204.964 275.29 203.224 275.29ZM212.283 275V259.891H214.255V275H212.283ZM212.283 256.73V253.83H214.255V256.73H212.283ZM218.686 253.83H220.658V271.578C220.658 272.332 220.793 272.825 221.064 273.057C221.334 273.289 221.663 273.405 222.05 273.405C222.398 273.405 222.746 273.366 223.094 273.289C223.442 273.212 223.741 273.134 223.993 273.057L224.341 274.652C223.973 274.807 223.519 274.932 222.978 275.029C222.456 275.126 222.001 275.174 221.615 275.174C220.725 275.174 220.01 274.913 219.469 274.391C218.947 273.869 218.686 273.154 218.686 272.245V253.83ZM226.5 275V259.891H228.472V275H226.5ZM226.5 256.73V253.83H228.472V256.73H226.5ZM238.645 275.29C237.62 275.29 236.682 275.077 235.832 274.652C235 274.227 234.285 273.647 233.686 272.912C233.086 272.177 232.622 271.346 232.294 270.418C231.965 269.471 231.801 268.485 231.801 267.46C231.801 266.397 231.984 265.401 232.352 264.473C232.719 263.526 233.222 262.694 233.86 261.979C234.517 261.244 235.281 260.674 236.151 260.268C237.04 259.843 237.987 259.63 238.993 259.63C240.172 259.63 241.255 259.939 242.241 260.558C243.246 261.157 244.029 261.921 244.59 262.849V259.891H246.359V281.177H244.387V271.868C242.898 274.149 240.984 275.29 238.645 275.29ZM239.254 273.55C240.046 273.55 240.762 273.395 241.4 273.086C242.057 272.757 242.627 272.322 243.111 271.781C243.613 271.24 244.039 270.64 244.387 269.983V265.314C244.329 264.792 244.135 264.299 243.807 263.835C243.478 263.352 243.072 262.926 242.589 262.559C242.105 262.172 241.583 261.882 241.023 261.689C240.462 261.476 239.911 261.37 239.37 261.37C238.538 261.37 237.784 261.544 237.108 261.892C236.45 262.24 235.87 262.704 235.368 263.284C234.865 263.864 234.478 264.521 234.208 265.256C233.937 265.991 233.802 266.735 233.802 267.489C233.802 268.572 234.034 269.577 234.498 270.505C234.981 271.433 235.629 272.177 236.441 272.738C237.253 273.279 238.19 273.55 239.254 273.55ZM250.569 268.765V259.891H252.541V268.417C252.541 270.138 252.831 271.423 253.411 272.274C254.01 273.125 254.89 273.55 256.05 273.55C256.823 273.55 257.568 273.386 258.283 273.057C259.018 272.709 259.665 272.226 260.226 271.607C260.787 270.969 261.212 270.234 261.502 269.403V259.891H263.474V272.622C263.474 272.893 263.532 273.096 263.648 273.231C263.764 273.347 263.938 273.415 264.17 273.434V275C263.938 275.019 263.754 275.029 263.619 275.029C263.484 275.048 263.358 275.058 263.242 275.058C262.855 275.019 262.517 274.865 262.227 274.594C261.956 274.323 261.811 273.995 261.792 273.608L261.734 271.578C261.077 272.738 260.178 273.647 259.037 274.304C257.916 274.961 256.698 275.29 255.383 275.29C253.798 275.29 252.599 274.739 251.787 273.637C250.975 272.535 250.569 270.911 250.569 268.765ZM266.715 270.65C266.715 269.703 266.985 268.891 267.527 268.214C268.068 267.518 268.812 266.986 269.76 266.619C270.726 266.232 271.838 266.039 273.095 266.039C273.829 266.039 274.593 266.097 275.386 266.213C276.178 266.329 276.884 266.503 277.503 266.735V265.459C277.503 264.183 277.126 263.168 276.372 262.414C275.618 261.66 274.574 261.283 273.24 261.283C272.428 261.283 271.625 261.438 270.833 261.747C270.059 262.037 269.247 262.472 268.397 263.052L267.643 261.66C268.629 260.983 269.595 260.481 270.543 260.152C271.49 259.804 272.457 259.63 273.443 259.63C275.299 259.63 276.768 260.162 277.851 261.225C278.933 262.288 279.475 263.758 279.475 265.633V272.622C279.475 272.893 279.533 273.096 279.649 273.231C279.765 273.347 279.948 273.415 280.2 273.434V275C279.987 275.019 279.803 275.039 279.649 275.058C279.494 275.077 279.378 275.077 279.301 275.058C278.817 275.039 278.45 274.884 278.199 274.594C277.947 274.304 277.812 273.995 277.793 273.666L277.764 272.564C277.087 273.434 276.207 274.111 275.125 274.594C274.042 275.058 272.94 275.29 271.819 275.29C270.852 275.29 269.972 275.087 269.18 274.681C268.406 274.256 267.797 273.695 267.353 272.999C266.927 272.284 266.715 271.501 266.715 270.65ZM276.836 271.81C277.048 271.539 277.213 271.278 277.329 271.027C277.445 270.776 277.503 270.553 277.503 270.36V268.156C276.845 267.905 276.159 267.711 275.444 267.576C274.748 267.441 274.042 267.373 273.327 267.373C271.915 267.373 270.775 267.653 269.905 268.214C269.035 268.775 268.6 269.538 268.6 270.505C268.6 271.066 268.745 271.597 269.035 272.1C269.325 272.583 269.75 272.989 270.311 273.318C270.871 273.627 271.529 273.782 272.283 273.782C273.23 273.782 274.11 273.598 274.922 273.231C275.753 272.864 276.391 272.39 276.836 271.81Z" fill="#555555"/>
<path d="M58.899 322.56C58.899 321.303 59.1213 320.076 59.566 318.877C60.03 317.659 60.697 316.557 61.567 315.571C62.437 314.566 63.5003 313.773 64.757 313.193C66.0137 312.594 67.4443 312.294 69.049 312.294C70.9437 312.294 72.5773 312.71 73.95 313.541C75.342 314.372 76.3763 315.455 77.053 316.789L73.979 318.906C73.631 318.133 73.1767 317.524 72.616 317.079C72.0553 316.615 71.456 316.296 70.818 316.122C70.18 315.929 69.5517 315.832 68.933 315.832C67.9277 315.832 67.048 316.035 66.294 316.441C65.5593 316.847 64.9407 317.379 64.438 318.036C63.9353 318.693 63.5583 319.428 63.307 320.24C63.075 321.052 62.959 321.864 62.959 322.676C62.959 323.585 63.104 324.464 63.394 325.315C63.684 326.146 64.09 326.891 64.612 327.548C65.1533 328.186 65.7913 328.698 66.526 329.085C67.28 329.452 68.1017 329.636 68.991 329.636C69.629 329.636 70.2767 329.53 70.934 329.317C71.5913 329.104 72.2003 328.766 72.761 328.302C73.3217 327.838 73.7567 327.239 74.066 326.504L77.343 328.389C76.937 329.414 76.27 330.284 75.342 330.999C74.4333 331.714 73.4087 332.256 72.268 332.623C71.1273 332.99 69.9963 333.174 68.875 333.174C67.4057 333.174 66.062 332.874 64.844 332.275C63.626 331.656 62.5723 330.844 61.683 329.839C60.813 328.814 60.1267 327.674 59.624 326.417C59.1407 325.141 58.899 323.855 58.899 322.56ZM86.6402 333.29C85.4222 333.29 84.3202 333.087 83.3342 332.681C82.3482 332.256 81.5072 331.685 80.8112 330.97C80.1152 330.235 79.5739 329.404 79.1872 328.476C78.8199 327.529 78.6362 326.533 78.6362 325.489C78.6362 324.039 78.9552 322.715 79.5932 321.516C80.2506 320.317 81.1786 319.36 82.3772 318.645C83.5952 317.91 85.0259 317.543 86.6692 317.543C88.3319 317.543 89.7529 317.91 90.9322 318.645C92.1116 319.36 93.0106 320.317 93.6292 321.516C94.2672 322.695 94.5862 323.971 94.5862 325.344C94.5862 325.576 94.5766 325.818 94.5572 326.069C94.5379 326.301 94.5186 326.494 94.4992 326.649H82.7542C82.8316 327.422 83.0539 328.099 83.4212 328.679C83.8079 329.259 84.2912 329.704 84.8712 330.013C85.4706 330.303 86.1086 330.448 86.7852 330.448C87.5586 330.448 88.2836 330.264 88.9602 329.897C89.6562 329.51 90.1299 329.008 90.3812 328.389L93.7162 329.317C93.3489 330.09 92.8172 330.777 92.1212 331.376C91.4446 331.975 90.6422 332.449 89.7142 332.797C88.7862 333.126 87.7616 333.29 86.6402 333.29ZM82.6672 324.184H90.6132C90.5359 323.411 90.3136 322.744 89.9462 322.183C89.5982 321.603 89.1342 321.158 88.5542 320.849C87.9742 320.52 87.3266 320.356 86.6112 320.356C85.9152 320.356 85.2772 320.52 84.6972 320.849C84.1366 321.158 83.6726 321.603 83.3052 322.183C82.9572 322.744 82.7446 323.411 82.6672 324.184ZM106.002 321.168C104.822 321.168 103.769 321.4 102.841 321.864C101.913 322.309 101.246 322.956 100.84 323.807V333H96.9536V317.804H100.521V321.052C101.062 320.008 101.748 319.186 102.58 318.587C103.411 317.988 104.291 317.659 105.219 317.601C105.431 317.601 105.596 317.601 105.712 317.601C105.828 317.601 105.924 317.611 106.002 317.63V321.168ZM107.039 328.505C107.039 327.519 107.31 326.659 107.851 325.924C108.412 325.17 109.185 324.59 110.171 324.184C111.157 323.778 112.288 323.575 113.564 323.575C114.202 323.575 114.85 323.623 115.507 323.72C116.165 323.817 116.735 323.971 117.218 324.184V323.372C117.218 322.405 116.928 321.661 116.348 321.139C115.788 320.617 114.947 320.356 113.825 320.356C112.994 320.356 112.201 320.501 111.447 320.791C110.693 321.081 109.901 321.506 109.069 322.067L107.822 319.515C108.828 318.858 109.852 318.365 110.896 318.036C111.96 317.707 113.071 317.543 114.231 317.543C116.397 317.543 118.079 318.084 119.277 319.167C120.495 320.25 121.104 321.796 121.104 323.807V328.65C121.104 329.056 121.172 329.346 121.307 329.52C121.462 329.694 121.704 329.8 122.032 329.839V333C121.684 333.058 121.365 333.106 121.075 333.145C120.805 333.184 120.573 333.203 120.379 333.203C119.606 333.203 119.016 333.029 118.61 332.681C118.224 332.333 117.982 331.908 117.885 331.405L117.798 330.622C117.141 331.473 116.319 332.13 115.333 332.594C114.347 333.058 113.342 333.29 112.317 333.29C111.312 333.29 110.403 333.087 109.591 332.681C108.799 332.256 108.17 331.685 107.706 330.97C107.262 330.235 107.039 329.414 107.039 328.505ZM116.493 329.288C116.706 329.056 116.88 328.824 117.015 328.592C117.151 328.36 117.218 328.147 117.218 327.954V326.417C116.754 326.224 116.252 326.079 115.71 325.982C115.169 325.866 114.657 325.808 114.173 325.808C113.168 325.808 112.337 326.03 111.679 326.475C111.041 326.9 110.722 327.471 110.722 328.186C110.722 328.573 110.829 328.94 111.041 329.288C111.254 329.636 111.563 329.916 111.969 330.129C112.375 330.342 112.859 330.448 113.419 330.448C113.999 330.448 114.57 330.342 115.13 330.129C115.691 329.897 116.145 329.617 116.493 329.288ZM132.392 332.275C132.237 332.333 131.995 332.439 131.667 332.594C131.338 332.749 130.942 332.884 130.478 333C130.014 333.116 129.511 333.174 128.97 333.174C128.409 333.174 127.877 333.068 127.375 332.855C126.891 332.642 126.505 332.323 126.215 331.898C125.925 331.453 125.78 330.912 125.78 330.274V319.457H123.692V317.891H125.78V312.787H127.752V317.891H131.232V319.457H127.752V329.723C127.79 330.264 127.984 330.67 128.332 330.941C128.699 331.212 129.115 331.347 129.579 331.347C130.12 331.347 130.613 331.26 131.058 331.086C131.502 330.893 131.773 330.757 131.87 330.68L132.392 332.275ZM141.039 333.29C139.956 333.29 138.951 333.087 138.023 332.681C137.114 332.256 136.321 331.685 135.645 330.97C134.987 330.235 134.475 329.404 134.108 328.476C133.74 327.529 133.557 326.533 133.557 325.489C133.557 324.406 133.74 323.401 134.108 322.473C134.475 321.526 134.997 320.694 135.674 319.979C136.35 319.244 137.143 318.674 138.052 318.268C138.98 317.843 139.985 317.63 141.068 317.63C142.15 317.63 143.146 317.843 144.055 318.268C144.963 318.674 145.756 319.244 146.433 319.979C147.109 320.694 147.631 321.526 147.999 322.473C148.366 323.401 148.55 324.406 148.55 325.489C148.55 326.533 148.366 327.529 147.999 328.476C147.631 329.404 147.109 330.235 146.433 330.97C145.775 331.685 144.983 332.256 144.055 332.681C143.146 333.087 142.141 333.29 141.039 333.29ZM135.558 325.518C135.558 326.639 135.799 327.664 136.283 328.592C136.785 329.501 137.452 330.226 138.284 330.767C139.115 331.289 140.033 331.55 141.039 331.55C142.044 331.55 142.962 331.279 143.794 330.738C144.625 330.197 145.292 329.462 145.795 328.534C146.297 327.587 146.549 326.562 146.549 325.46C146.549 324.339 146.297 323.314 145.795 322.386C145.292 321.458 144.625 320.723 143.794 320.182C142.962 319.641 142.044 319.37 141.039 319.37C140.033 319.37 139.115 319.65 138.284 320.211C137.472 320.772 136.814 321.516 136.312 322.444C135.809 323.353 135.558 324.377 135.558 325.518ZM164.55 333H162.578V324.561C162.578 322.782 162.317 321.487 161.795 320.675C161.273 319.844 160.451 319.428 159.33 319.428C158.557 319.428 157.793 319.621 157.039 320.008C156.285 320.375 155.618 320.888 155.038 321.545C154.477 322.183 154.071 322.918 153.82 323.749V333H151.848V317.891H153.646V321.313C154.052 320.578 154.584 319.94 155.241 319.399C155.898 318.838 156.643 318.403 157.474 318.094C158.305 317.785 159.166 317.63 160.055 317.63C160.886 317.63 161.592 317.785 162.172 318.094C162.752 318.403 163.216 318.848 163.564 319.428C163.912 319.989 164.163 320.675 164.318 321.487C164.473 322.28 164.55 323.169 164.55 324.155V333ZM168.755 333V317.891H170.727V333H168.755ZM168.755 314.73V311.83H170.727V314.73H168.755ZM173.853 328.65C173.853 327.703 174.123 326.891 174.665 326.214C175.206 325.518 175.95 324.986 176.898 324.619C177.864 324.232 178.976 324.039 180.233 324.039C180.967 324.039 181.731 324.097 182.524 324.213C183.316 324.329 184.022 324.503 184.641 324.735V323.459C184.641 322.183 184.264 321.168 183.51 320.414C182.756 319.66 181.712 319.283 180.378 319.283C179.566 319.283 178.763 319.438 177.971 319.747C177.197 320.037 176.385 320.472 175.535 321.052L174.781 319.66C175.767 318.983 176.733 318.481 177.681 318.152C178.628 317.804 179.595 317.63 180.581 317.63C182.437 317.63 183.906 318.162 184.989 319.225C186.071 320.288 186.613 321.758 186.613 323.633V330.622C186.613 330.893 186.671 331.096 186.787 331.231C186.903 331.347 187.086 331.415 187.338 331.434V333C187.125 333.019 186.941 333.039 186.787 333.058C186.632 333.077 186.516 333.077 186.439 333.058C185.955 333.039 185.588 332.884 185.337 332.594C185.085 332.304 184.95 331.995 184.931 331.666L184.902 330.564C184.225 331.434 183.345 332.111 182.263 332.594C181.18 333.058 180.078 333.29 178.957 333.29C177.99 333.29 177.11 333.087 176.318 332.681C175.544 332.256 174.935 331.695 174.491 330.999C174.065 330.284 173.853 329.501 173.853 328.65ZM183.974 329.81C184.186 329.539 184.351 329.278 184.467 329.027C184.583 328.776 184.641 328.553 184.641 328.36V326.156C183.983 325.905 183.297 325.711 182.582 325.576C181.886 325.441 181.18 325.373 180.465 325.373C179.053 325.373 177.913 325.653 177.043 326.214C176.173 326.775 175.738 327.538 175.738 328.505C175.738 329.066 175.883 329.597 176.173 330.1C176.463 330.583 176.888 330.989 177.449 331.318C178.009 331.627 178.667 331.782 179.421 331.782C180.368 331.782 181.248 331.598 182.06 331.231C182.891 330.864 183.529 330.39 183.974 329.81ZM203.224 333.29C201.987 333.29 200.836 333.087 199.773 332.681C198.71 332.275 197.791 331.656 197.018 330.825L197.83 329.433C198.681 330.226 199.531 330.806 200.382 331.173C201.252 331.521 202.17 331.695 203.137 331.695C204.316 331.695 205.273 331.463 206.008 330.999C206.743 330.516 207.11 329.829 207.11 328.94C207.11 328.341 206.926 327.886 206.559 327.577C206.211 327.248 205.699 326.987 205.022 326.794C204.365 326.581 203.572 326.359 202.644 326.127C201.6 325.837 200.72 325.537 200.005 325.228C199.309 324.899 198.777 324.493 198.41 324.01C198.062 323.507 197.888 322.86 197.888 322.067C197.888 321.081 198.13 320.269 198.613 319.631C199.116 318.974 199.792 318.481 200.643 318.152C201.513 317.804 202.48 317.63 203.543 317.63C204.703 317.63 205.728 317.814 206.617 318.181C207.506 318.548 208.231 319.061 208.792 319.718L207.835 321.052C207.294 320.433 206.646 319.979 205.892 319.689C205.157 319.38 204.336 319.225 203.427 319.225C202.808 319.225 202.219 319.312 201.658 319.486C201.097 319.641 200.633 319.911 200.266 320.298C199.918 320.665 199.744 321.178 199.744 321.835C199.744 322.376 199.879 322.802 200.15 323.111C200.421 323.401 200.827 323.652 201.368 323.865C201.909 324.058 202.576 324.271 203.369 324.503C204.51 324.812 205.505 325.131 206.356 325.46C207.207 325.769 207.864 326.175 208.328 326.678C208.792 327.181 209.024 327.886 209.024 328.795C209.024 330.206 208.492 331.308 207.429 332.101C206.366 332.894 204.964 333.29 203.224 333.29ZM212.283 333V317.891H214.255V333H212.283ZM212.283 314.73V311.83H214.255V314.73H212.283ZM218.686 311.83H220.658V329.578C220.658 330.332 220.793 330.825 221.064 331.057C221.334 331.289 221.663 331.405 222.05 331.405C222.398 331.405 222.746 331.366 223.094 331.289C223.442 331.212 223.741 331.134 223.993 331.057L224.341 332.652C223.973 332.807 223.519 332.932 222.978 333.029C222.456 333.126 222.001 333.174 221.615 333.174C220.725 333.174 220.01 332.913 219.469 332.391C218.947 331.869 218.686 331.154 218.686 330.245V311.83ZM226.5 333V317.891H228.472V333H226.5ZM226.5 314.73V311.83H228.472V314.73H226.5ZM238.645 333.29C237.62 333.29 236.682 333.077 235.832 332.652C235 332.227 234.285 331.647 233.686 330.912C233.086 330.177 232.622 329.346 232.294 328.418C231.965 327.471 231.801 326.485 231.801 325.46C231.801 324.397 231.984 323.401 232.352 322.473C232.719 321.526 233.222 320.694 233.86 319.979C234.517 319.244 235.281 318.674 236.151 318.268C237.04 317.843 237.987 317.63 238.993 317.63C240.172 317.63 241.255 317.939 242.241 318.558C243.246 319.157 244.029 319.921 244.59 320.849V317.891H246.359V339.177H244.387V329.868C242.898 332.149 240.984 333.29 238.645 333.29ZM239.254 331.55C240.046 331.55 240.762 331.395 241.4 331.086C242.057 330.757 242.627 330.322 243.111 329.781C243.613 329.24 244.039 328.64 244.387 327.983V323.314C244.329 322.792 244.135 322.299 243.807 321.835C243.478 321.352 243.072 320.926 242.589 320.559C242.105 320.172 241.583 319.882 241.023 319.689C240.462 319.476 239.911 319.37 239.37 319.37C238.538 319.37 237.784 319.544 237.108 319.892C236.45 320.24 235.87 320.704 235.368 321.284C234.865 321.864 234.478 322.521 234.208 323.256C233.937 323.991 233.802 324.735 233.802 325.489C233.802 326.572 234.034 327.577 234.498 328.505C234.981 329.433 235.629 330.177 236.441 330.738C237.253 331.279 238.19 331.55 239.254 331.55ZM250.569 326.765V317.891H252.541V326.417C252.541 328.138 252.831 329.423 253.411 330.274C254.01 331.125 254.89 331.55 256.05 331.55C256.823 331.55 257.568 331.386 258.283 331.057C259.018 330.709 259.665 330.226 260.226 329.607C260.787 328.969 261.212 328.234 261.502 327.403V317.891H263.474V330.622C263.474 330.893 263.532 331.096 263.648 331.231C263.764 331.347 263.938 331.415 264.17 331.434V333C263.938 333.019 263.754 333.029 263.619 333.029C263.484 333.048 263.358 333.058 263.242 333.058C262.855 333.019 262.517 332.865 262.227 332.594C261.956 332.323 261.811 331.995 261.792 331.608L261.734 329.578C261.077 330.738 260.178 331.647 259.037 332.304C257.916 332.961 256.698 333.29 255.383 333.29C253.798 333.29 252.599 332.739 251.787 331.637C250.975 330.535 250.569 328.911 250.569 326.765ZM266.715 328.65C266.715 327.703 266.985 326.891 267.527 326.214C268.068 325.518 268.812 324.986 269.76 324.619C270.726 324.232 271.838 324.039 273.095 324.039C273.829 324.039 274.593 324.097 275.386 324.213C276.178 324.329 276.884 324.503 277.503 324.735V323.459C277.503 322.183 277.126 321.168 276.372 320.414C275.618 319.66 274.574 319.283 273.24 319.283C272.428 319.283 271.625 319.438 270.833 319.747C270.059 320.037 269.247 320.472 268.397 321.052L267.643 319.66C268.629 318.983 269.595 318.481 270.543 318.152C271.49 317.804 272.457 317.63 273.443 317.63C275.299 317.63 276.768 318.162 277.851 319.225C278.933 320.288 279.475 321.758 279.475 323.633V330.622C279.475 330.893 279.533 331.096 279.649 331.231C279.765 331.347 279.948 331.415 280.2 331.434V333C279.987 333.019 279.803 333.039 279.649 333.058C279.494 333.077 279.378 333.077 279.301 333.058C278.817 333.039 278.45 332.884 278.199 332.594C277.947 332.304 277.812 331.995 277.793 331.666L277.764 330.564C277.087 331.434 276.207 332.111 275.125 332.594C274.042 333.058 272.94 333.29 271.819 333.29C270.852 333.29 269.972 333.087 269.18 332.681C268.406 332.256 267.797 331.695 267.353 330.999C266.927 330.284 266.715 329.501 266.715 328.65ZM276.836 329.81C277.048 329.539 277.213 329.278 277.329 329.027C277.445 328.776 277.503 328.553 277.503 328.36V326.156C276.845 325.905 276.159 325.711 275.444 325.576C274.748 325.441 274.042 325.373 273.327 325.373C271.915 325.373 270.775 325.653 269.905 326.214C269.035 326.775 268.6 327.538 268.6 328.505C268.6 329.066 268.745 329.597 269.035 330.1C269.325 330.583 269.75 330.989 270.311 331.318C270.871 331.627 271.529 331.782 272.283 331.782C273.23 331.782 274.11 331.598 274.922 331.231C275.753 330.864 276.391 330.39 276.836 329.81Z" fill="#555555"/>
</svg>
