<svg width="222" height="72" viewBox="0 0 222 72" fill="none" xmlns="http://www.w3.org/2000/svg">
<rect x="1.5" y="1.5" width="219" height="69" rx="26.5" fill="white"/>
<rect x="1.5" y="1.5" width="219" height="69" rx="26.5" stroke="#EEBE00" stroke-width="3"/>
<path d="M67.6078 23.8859C66.5719 22.7778 65.3194 21.8944 63.9279 21.2904C62.5364 20.6864 61.0357 20.3748 59.5188 20.3748C58.0019 20.3748 56.5011 20.6864 55.1097 21.2904C53.7182 21.8944 52.4656 22.7778 51.4297 23.8859C50.8949 24.4485 50.4161 25.0618 50 25.7172C49.584 25.0618 49.1052 24.4485 48.5703 23.8859C47.5344 22.7778 46.2819 21.8944 44.8904 21.2904C43.4989 20.6864 41.9982 20.3748 40.4813 20.3748C38.9644 20.3748 37.4636 20.6864 36.0722 21.2904C34.6807 21.8944 33.4281 22.7778 32.3922 23.8859C32.1841 24.1043 32.0318 24.3698 31.9482 24.6596C31.8646 24.9495 31.8522 25.2552 31.912 25.5509C31.9719 25.8466 32.1021 26.1235 32.2918 26.3581C32.4815 26.5927 32.725 26.778 33.0016 26.8984L40.3125 30.0812C37.6945 31.191 35.5658 33.2097 34.3188 35.7652C33.0717 38.3207 32.7904 41.2409 33.5266 43.9875C33.607 44.2841 33.759 44.5563 33.9693 44.7804C34.1796 45.0044 34.4417 45.1733 34.7327 45.2722C35.0236 45.3711 35.3343 45.3971 35.6376 45.3477C35.9409 45.2983 36.2274 45.1751 36.4719 44.989L48.125 36.1172V51C48.125 51.4973 48.3226 51.9742 48.6742 52.3258C49.0258 52.6774 49.5027 52.875 50 52.875C50.4973 52.875 50.9742 52.6774 51.3258 52.3258C51.6775 51.9742 51.875 51.4973 51.875 51V36.1172L63.5219 44.9906C63.7664 45.1767 64.0529 45.2999 64.3562 45.3492C64.6595 45.3986 64.9702 45.3727 65.2611 45.2738C65.5521 45.1748 65.8142 45.0059 66.0245 44.7819C66.2348 44.5579 66.3868 44.2856 66.4672 43.989C67.2034 41.2424 66.9221 38.3223 65.675 35.7668C64.428 33.2113 62.2993 31.1926 59.6813 30.0828L66.9985 26.9C67.2751 26.7796 67.5186 26.5942 67.7082 26.3597C67.8979 26.1251 68.0282 25.8482 68.088 25.5525C68.1478 25.2568 68.1354 24.951 68.0518 24.6612C67.9682 24.3713 67.8159 24.1059 67.6078 23.8875V23.8859Z" fill="#555555"/>
<path d="M100.424 29.336H94.76V44H92.048V29.336H86.36V26.96H100.424V29.336ZM107.835 33.728C106.811 33.744 105.899 33.976 105.099 34.424C104.315 34.872 103.755 35.504 103.419 36.32V44H100.779V31.448H103.227V34.256C103.659 33.392 104.227 32.704 104.931 32.192C105.635 31.664 106.379 31.376 107.163 31.328C107.323 31.328 107.451 31.328 107.547 31.328C107.659 31.328 107.755 31.336 107.835 31.352V33.728ZM115.162 44.24C114.17 44.24 113.282 44.072 112.498 43.736C111.714 43.384 111.034 42.904 110.458 42.296C109.898 41.688 109.466 41 109.162 40.232C108.858 39.448 108.706 38.616 108.706 37.736C108.706 36.856 108.858 36.024 109.162 35.24C109.466 34.456 109.898 33.768 110.458 33.176C111.034 32.568 111.714 32.096 112.498 31.76C113.298 31.408 114.186 31.232 115.162 31.232C116.138 31.232 117.018 31.408 117.802 31.76C118.602 32.096 119.282 32.568 119.842 33.176C120.418 33.768 120.858 34.456 121.161 35.24C121.466 36.024 121.618 36.856 121.618 37.736C121.618 38.616 121.466 39.448 121.161 40.232C120.858 41 120.418 41.688 119.842 42.296C119.282 42.904 118.602 43.384 117.802 43.736C117.018 44.072 116.138 44.24 115.162 44.24ZM111.418 37.76C111.418 38.56 111.586 39.28 111.922 39.92C112.258 40.56 112.706 41.064 113.266 41.432C113.826 41.8 114.458 41.984 115.162 41.984C115.85 41.984 116.474 41.8 117.034 41.432C117.61 41.048 118.066 40.536 118.402 39.896C118.738 39.24 118.906 38.52 118.906 37.736C118.906 36.936 118.738 36.216 118.402 35.576C118.066 34.936 117.61 34.432 117.034 34.064C116.474 33.68 115.85 33.488 115.162 33.488C114.458 33.488 113.826 33.68 113.266 34.064C112.706 34.448 112.258 34.96 111.922 35.6C111.586 36.224 111.418 36.944 111.418 37.76ZM131.087 44.24C130.079 44.24 129.191 44 128.423 43.52C127.655 43.04 127.047 42.416 126.599 41.648V49.112H123.959V31.448H126.287V33.704C126.767 32.952 127.391 32.352 128.159 31.904C128.927 31.456 129.783 31.232 130.727 31.232C131.591 31.232 132.383 31.408 133.103 31.76C133.823 32.096 134.447 32.568 134.975 33.176C135.503 33.784 135.911 34.48 136.199 35.264C136.503 36.032 136.655 36.848 136.655 37.712C136.655 38.912 136.415 40.008 135.935 41C135.471 41.992 134.815 42.784 133.967 43.376C133.135 43.952 132.175 44.24 131.087 44.24ZM130.223 41.984C130.783 41.984 131.287 41.864 131.735 41.624C132.199 41.384 132.591 41.064 132.911 40.664C133.247 40.264 133.503 39.808 133.679 39.296C133.855 38.784 133.943 38.256 133.943 37.712C133.943 37.136 133.847 36.592 133.655 36.08C133.463 35.568 133.183 35.12 132.815 34.736C132.463 34.352 132.047 34.048 131.567 33.824C131.103 33.6 130.591 33.488 130.031 33.488C129.695 33.488 129.343 33.552 128.975 33.68C128.607 33.808 128.263 33.984 127.943 34.208C127.623 34.432 127.343 34.696 127.103 35C126.863 35.304 126.695 35.624 126.599 35.96V39.248C126.823 39.76 127.119 40.224 127.487 40.64C127.855 41.04 128.279 41.368 128.759 41.624C129.239 41.864 129.727 41.984 130.223 41.984ZM139.029 44V31.448H141.669V44H139.029ZM139.029 29.384V26.48H141.669V29.384H139.029ZM150.53 44.24C149.554 44.24 148.666 44.072 147.866 43.736C147.082 43.384 146.402 42.904 145.826 42.296C145.25 41.688 144.802 40.992 144.482 40.208C144.178 39.424 144.026 38.592 144.026 37.712C144.026 36.528 144.29 35.448 144.818 34.472C145.362 33.496 146.114 32.712 147.074 32.12C148.05 31.528 149.202 31.232 150.53 31.232C151.81 31.232 152.922 31.52 153.866 32.096C154.826 32.656 155.53 33.408 155.978 34.352L153.41 35.168C153.122 34.64 152.714 34.232 152.186 33.944C151.674 33.64 151.106 33.488 150.482 33.488C149.778 33.488 149.138 33.672 148.562 34.04C148.002 34.392 147.554 34.888 147.218 35.528C146.898 36.152 146.738 36.88 146.738 37.712C146.738 38.512 146.906 39.24 147.242 39.896C147.578 40.536 148.026 41.048 148.586 41.432C149.162 41.8 149.802 41.984 150.506 41.984C150.938 41.984 151.354 41.912 151.754 41.768C152.17 41.608 152.53 41.4 152.834 41.144C153.138 40.872 153.354 40.576 153.482 40.256L156.074 41.024C155.802 41.648 155.394 42.2 154.85 42.68C154.322 43.16 153.69 43.544 152.954 43.832C152.234 44.104 151.426 44.24 150.53 44.24ZM157.336 40.328C157.336 39.528 157.56 38.832 158.008 38.24C158.472 37.632 159.104 37.168 159.904 36.848C160.704 36.512 161.632 36.344 162.688 36.344C163.248 36.344 163.816 36.384 164.392 36.464C164.984 36.544 165.504 36.672 165.952 36.848V36.056C165.952 35.176 165.688 34.488 165.16 33.992C164.632 33.496 163.872 33.248 162.88 33.248C162.176 33.248 161.512 33.376 160.888 33.632C160.264 33.872 159.6 34.216 158.896 34.664L158.008 32.888C158.84 32.328 159.672 31.912 160.504 31.64C161.352 31.368 162.24 31.232 163.168 31.232C164.848 31.232 166.168 31.68 167.128 32.576C168.104 33.456 168.592 34.712 168.592 36.344V41.024C168.592 41.328 168.64 41.544 168.736 41.672C168.848 41.8 169.032 41.872 169.288 41.888V44C169.048 44.048 168.832 44.08 168.64 44.096C168.448 44.112 168.288 44.12 168.16 44.12C167.6 44.12 167.176 43.984 166.888 43.712C166.6 43.44 166.432 43.12 166.384 42.752L166.312 42.032C165.768 42.736 165.072 43.28 164.224 43.664C163.376 44.048 162.52 44.24 161.656 44.24C160.824 44.24 160.08 44.072 159.424 43.736C158.768 43.384 158.256 42.912 157.888 42.32C157.52 41.728 157.336 41.064 157.336 40.328ZM165.328 41.096C165.52 40.888 165.672 40.68 165.784 40.472C165.896 40.264 165.952 40.08 165.952 39.92V38.48C165.504 38.304 165.032 38.176 164.536 38.096C164.04 38 163.552 37.952 163.072 37.952C162.112 37.952 161.328 38.144 160.72 38.528C160.128 38.912 159.832 39.44 159.832 40.112C159.832 40.48 159.928 40.832 160.12 41.168C160.328 41.504 160.616 41.776 160.984 41.984C161.368 42.192 161.84 42.296 162.4 42.296C162.976 42.296 163.528 42.184 164.056 41.96C164.584 41.736 165.008 41.448 165.328 41.096ZM171.819 26.48H174.459V40.376C174.459 41.016 174.555 41.424 174.747 41.6C174.939 41.776 175.179 41.864 175.467 41.864C175.787 41.864 176.083 41.832 176.355 41.768C176.643 41.704 176.891 41.624 177.099 41.528L177.483 43.616C177.099 43.776 176.643 43.912 176.115 44.024C175.587 44.136 175.115 44.192 174.699 44.192C173.803 44.192 173.099 43.944 172.587 43.448C172.075 42.936 171.819 42.232 171.819 41.336V26.48ZM184.702 44.24C183.726 44.24 182.838 44.072 182.038 43.736C181.254 43.384 180.574 42.912 179.998 42.32C179.422 41.712 178.974 41.024 178.654 40.256C178.35 39.472 178.198 38.64 178.198 37.76C178.198 36.576 178.47 35.496 179.014 34.52C179.558 33.528 180.318 32.736 181.294 32.144C182.27 31.536 183.414 31.232 184.726 31.232C186.038 31.232 187.166 31.536 188.11 32.144C189.07 32.736 189.814 33.52 190.342 34.496C190.87 35.472 191.134 36.52 191.134 37.64C191.134 37.832 191.126 38.016 191.11 38.192C191.094 38.352 191.078 38.488 191.062 38.6H181.006C181.054 39.336 181.254 39.984 181.606 40.544C181.974 41.088 182.438 41.52 182.998 41.84C183.558 42.144 184.158 42.296 184.798 42.296C185.502 42.296 186.166 42.12 186.79 41.768C187.43 41.416 187.862 40.952 188.086 40.376L190.342 41.024C190.07 41.632 189.654 42.184 189.094 42.68C188.55 43.16 187.902 43.544 187.15 43.832C186.398 44.104 185.582 44.24 184.702 44.24ZM180.934 36.848H188.518C188.47 36.128 188.262 35.496 187.894 34.952C187.542 34.392 187.086 33.96 186.526 33.656C185.982 33.336 185.374 33.176 184.702 33.176C184.046 33.176 183.438 33.336 182.878 33.656C182.334 33.96 181.886 34.392 181.534 34.952C181.182 35.496 180.982 36.128 180.934 36.848Z" fill="#555555"/>
</svg>
