<svg width="237" height="72" viewBox="0 0 237 72" fill="none" xmlns="http://www.w3.org/2000/svg">
<rect x="1.5" y="1.5" width="234" height="69" rx="26.5" fill="white"/>
<rect x="1.5" y="1.5" width="234" height="69" rx="26.5" stroke="#39A1F6" stroke-width="3"/>
<path d="M49.6667 21.3833C49.6667 21.3833 60 33.7833 60 39.9833C60 45.6873 55.3707 50.3166 49.6667 50.3166C43.9627 50.3166 39.3334 45.6873 39.3334 39.9833C39.3334 33.7833 49.6667 21.3833 49.6667 21.3833Z" fill="#555555"/>
<path d="M49.6667 21.3833C49.6667 21.3833 60 33.7833 60 39.9833C60 45.6873 55.3707 50.3166 49.6667 50.3166M49.6667 21.3833C49.6667 21.3833 39.3334 33.7833 39.3334 39.9833C39.3334 45.6873 43.9627 50.3166 49.6667 50.3166" stroke="#555555" stroke-width="2" stroke-linecap="round" stroke-linejoin="round"/>
<path d="M87.92 44V26.96H99.272V29.336H90.608V34.424H97.856V36.656H90.608V44H87.92ZM106.372 44.24C105.38 44.24 104.492 44.072 103.708 43.736C102.924 43.384 102.244 42.904 101.668 42.296C101.108 41.688 100.676 41 100.372 40.232C100.068 39.448 99.9164 38.616 99.9164 37.736C99.9164 36.856 100.068 36.024 100.372 35.24C100.676 34.456 101.108 33.768 101.668 33.176C102.244 32.568 102.924 32.096 103.708 31.76C104.508 31.408 105.396 31.232 106.372 31.232C107.348 31.232 108.228 31.408 109.012 31.76C109.812 32.096 110.492 32.568 111.052 33.176C111.628 33.768 112.068 34.456 112.372 35.24C112.676 36.024 112.828 36.856 112.828 37.736C112.828 38.616 112.676 39.448 112.372 40.232C112.068 41 111.628 41.688 111.052 42.296C110.492 42.904 109.812 43.384 109.012 43.736C108.228 44.072 107.348 44.24 106.372 44.24ZM102.628 37.76C102.628 38.56 102.796 39.28 103.132 39.92C103.468 40.56 103.916 41.064 104.476 41.432C105.036 41.8 105.668 41.984 106.372 41.984C107.06 41.984 107.684 41.8 108.244 41.432C108.82 41.048 109.276 40.536 109.612 39.896C109.948 39.24 110.116 38.52 110.116 37.736C110.116 36.936 109.948 36.216 109.612 35.576C109.276 34.936 108.82 34.432 108.244 34.064C107.684 33.68 107.06 33.488 106.372 33.488C105.668 33.488 105.036 33.68 104.476 34.064C103.916 34.448 103.468 34.96 103.132 35.6C102.796 36.224 102.628 36.944 102.628 37.76ZM126.426 44H123.786V36.968C123.786 35.8 123.594 34.944 123.21 34.4C122.842 33.856 122.29 33.584 121.554 33.584C121.042 33.584 120.53 33.712 120.018 33.968C119.522 34.224 119.074 34.576 118.674 35.024C118.274 35.456 117.986 35.96 117.81 36.536V44H115.17V31.448H117.57V33.968C117.89 33.408 118.306 32.928 118.818 32.528C119.346 32.112 119.938 31.792 120.594 31.568C121.25 31.344 121.946 31.232 122.682 31.232C123.434 31.232 124.05 31.368 124.53 31.64C125.026 31.912 125.41 32.288 125.682 32.768C125.97 33.232 126.162 33.776 126.258 34.4C126.37 35.008 126.426 35.656 126.426 36.344V44ZM136.381 43.352C136.157 43.464 135.877 43.584 135.541 43.712C135.205 43.84 134.821 43.952 134.389 44.048C133.973 44.144 133.541 44.192 133.093 44.192C132.549 44.192 132.045 44.096 131.581 43.904C131.117 43.712 130.741 43.408 130.453 42.992C130.181 42.56 130.045 42.008 130.045 41.336V33.488H128.389V31.448H130.045V27.32H132.685V31.448H135.421V33.488H132.685V40.496C132.717 40.928 132.853 41.248 133.093 41.456C133.349 41.664 133.661 41.768 134.029 41.768C134.397 41.768 134.749 41.704 135.085 41.576C135.421 41.448 135.669 41.344 135.829 41.264L136.381 43.352ZM137.297 40.328C137.297 39.528 137.521 38.832 137.969 38.24C138.433 37.632 139.065 37.168 139.865 36.848C140.665 36.512 141.593 36.344 142.649 36.344C143.209 36.344 143.777 36.384 144.353 36.464C144.945 36.544 145.465 36.672 145.913 36.848V36.056C145.913 35.176 145.649 34.488 145.121 33.992C144.593 33.496 143.833 33.248 142.841 33.248C142.137 33.248 141.473 33.376 140.849 33.632C140.225 33.872 139.561 34.216 138.857 34.664L137.969 32.888C138.801 32.328 139.633 31.912 140.465 31.64C141.313 31.368 142.201 31.232 143.129 31.232C144.809 31.232 146.129 31.68 147.089 32.576C148.065 33.456 148.553 34.712 148.553 36.344V41.024C148.553 41.328 148.601 41.544 148.697 41.672C148.809 41.8 148.993 41.872 149.249 41.888V44C149.009 44.048 148.793 44.08 148.601 44.096C148.409 44.112 148.249 44.12 148.121 44.12C147.561 44.12 147.137 43.984 146.849 43.712C146.561 43.44 146.393 43.12 146.345 42.752L146.273 42.032C145.729 42.736 145.033 43.28 144.185 43.664C143.337 44.048 142.481 44.24 141.617 44.24C140.785 44.24 140.041 44.072 139.385 43.736C138.729 43.384 138.217 42.912 137.849 42.32C137.481 41.728 137.297 41.064 137.297 40.328ZM145.289 41.096C145.481 40.888 145.633 40.68 145.745 40.472C145.857 40.264 145.913 40.08 145.913 39.92V38.48C145.465 38.304 144.993 38.176 144.497 38.096C144.001 38 143.513 37.952 143.033 37.952C142.073 37.952 141.289 38.144 140.681 38.528C140.089 38.912 139.793 39.44 139.793 40.112C139.793 40.48 139.889 40.832 140.081 41.168C140.289 41.504 140.577 41.776 140.945 41.984C141.329 42.192 141.801 42.296 142.361 42.296C142.937 42.296 143.489 42.184 144.017 41.96C144.545 41.736 144.969 41.448 145.289 41.096ZM163.012 44H160.372V36.968C160.372 35.8 160.18 34.944 159.796 34.4C159.428 33.856 158.876 33.584 158.14 33.584C157.628 33.584 157.116 33.712 156.604 33.968C156.108 34.224 155.66 34.576 155.26 35.024C154.86 35.456 154.572 35.96 154.396 36.536V44H151.756V31.448H154.156V33.968C154.476 33.408 154.892 32.928 155.404 32.528C155.932 32.112 156.524 31.792 157.18 31.568C157.836 31.344 158.532 31.232 159.268 31.232C160.02 31.232 160.636 31.368 161.116 31.64C161.612 31.912 161.996 32.288 162.268 32.768C162.556 33.232 162.748 33.776 162.844 34.4C162.956 35.008 163.012 35.656 163.012 36.344V44ZM171.764 44.24C170.788 44.24 169.9 44.072 169.1 43.736C168.316 43.384 167.636 42.912 167.06 42.32C166.484 41.712 166.036 41.024 165.716 40.256C165.412 39.472 165.26 38.64 165.26 37.76C165.26 36.576 165.532 35.496 166.076 34.52C166.62 33.528 167.38 32.736 168.356 32.144C169.332 31.536 170.476 31.232 171.788 31.232C173.1 31.232 174.228 31.536 175.172 32.144C176.132 32.736 176.876 33.52 177.404 34.496C177.932 35.472 178.196 36.52 178.196 37.64C178.196 37.832 178.188 38.016 178.172 38.192C178.156 38.352 178.14 38.488 178.124 38.6H168.068C168.116 39.336 168.316 39.984 168.668 40.544C169.036 41.088 169.5 41.52 170.06 41.84C170.62 42.144 171.22 42.296 171.86 42.296C172.564 42.296 173.228 42.12 173.852 41.768C174.492 41.416 174.924 40.952 175.148 40.376L177.404 41.024C177.132 41.632 176.716 42.184 176.156 42.68C175.612 43.16 174.964 43.544 174.212 43.832C173.46 44.104 172.644 44.24 171.764 44.24ZM167.996 36.848H175.58C175.532 36.128 175.324 35.496 174.956 34.952C174.604 34.392 174.148 33.96 173.588 33.656C173.044 33.336 172.436 33.176 171.764 33.176C171.108 33.176 170.5 33.336 169.94 33.656C169.396 33.96 168.948 34.392 168.596 34.952C168.244 35.496 168.044 36.128 167.996 36.848ZM180.374 26.48H183.014V40.376C183.014 41.016 183.11 41.424 183.302 41.6C183.494 41.776 183.734 41.864 184.022 41.864C184.342 41.864 184.638 41.832 184.91 41.768C185.198 41.704 185.446 41.624 185.654 41.528L186.038 43.616C185.654 43.776 185.198 43.912 184.67 44.024C184.142 44.136 183.67 44.192 183.254 44.192C182.358 44.192 181.654 43.944 181.142 43.448C180.63 42.936 180.374 42.232 180.374 41.336V26.48ZM187.592 26.48H190.232V40.376C190.232 41.016 190.328 41.424 190.52 41.6C190.712 41.776 190.952 41.864 191.24 41.864C191.56 41.864 191.856 41.832 192.128 41.768C192.416 41.704 192.664 41.624 192.872 41.528L193.256 43.616C192.872 43.776 192.416 43.912 191.888 44.024C191.36 44.136 190.888 44.192 190.472 44.192C189.576 44.192 188.872 43.944 188.36 43.448C187.848 42.936 187.592 42.232 187.592 41.336V26.48ZM193.875 40.328C193.875 39.528 194.099 38.832 194.547 38.24C195.011 37.632 195.643 37.168 196.443 36.848C197.243 36.512 198.171 36.344 199.227 36.344C199.787 36.344 200.355 36.384 200.931 36.464C201.523 36.544 202.043 36.672 202.491 36.848V36.056C202.491 35.176 202.227 34.488 201.699 33.992C201.171 33.496 200.411 33.248 199.419 33.248C198.715 33.248 198.051 33.376 197.427 33.632C196.803 33.872 196.139 34.216 195.435 34.664L194.547 32.888C195.379 32.328 196.211 31.912 197.043 31.64C197.891 31.368 198.779 31.232 199.707 31.232C201.387 31.232 202.707 31.68 203.667 32.576C204.643 33.456 205.131 34.712 205.131 36.344V41.024C205.131 41.328 205.179 41.544 205.275 41.672C205.387 41.8 205.571 41.872 205.827 41.888V44C205.587 44.048 205.371 44.08 205.179 44.096C204.987 44.112 204.827 44.12 204.699 44.12C204.139 44.12 203.715 43.984 203.427 43.712C203.139 43.44 202.971 43.12 202.923 42.752L202.851 42.032C202.307 42.736 201.611 43.28 200.763 43.664C199.915 44.048 199.059 44.24 198.195 44.24C197.363 44.24 196.619 44.072 195.963 43.736C195.307 43.384 194.795 42.912 194.427 42.32C194.059 41.728 193.875 41.064 193.875 40.328ZM201.867 41.096C202.059 40.888 202.211 40.68 202.323 40.472C202.435 40.264 202.491 40.08 202.491 39.92V38.48C202.043 38.304 201.571 38.176 201.075 38.096C200.579 38 200.091 37.952 199.611 37.952C198.651 37.952 197.867 38.144 197.259 38.528C196.667 38.912 196.371 39.44 196.371 40.112C196.371 40.48 196.467 40.832 196.659 41.168C196.867 41.504 197.155 41.776 197.523 41.984C197.907 42.192 198.379 42.296 198.939 42.296C199.515 42.296 200.067 42.184 200.595 41.96C201.123 41.736 201.547 41.448 201.867 41.096Z" fill="#555555"/>
</svg>
