<svg width="243" height="72" viewBox="0 0 243 72" fill="none" xmlns="http://www.w3.org/2000/svg">
<rect x="1.5" y="1.5" width="240" height="69" rx="26.5" fill="white"/>
<rect x="1.5" y="1.5" width="240" height="69" rx="26.5" stroke="#28BF31" stroke-width="3"/>
<path d="M48.4783 25.8317L46.0033 24.6767L47.6866 22.9934C49.5327 21.1465 51.9838 20.0287 54.5887 19.8455C57.1936 19.6624 59.7769 20.4263 61.8633 21.9967L64.3433 20.7567L65.8333 23.74L64.2766 24.5167C65.7109 26.6027 66.3694 29.1251 66.1377 31.646C65.906 34.1669 64.7988 36.5271 63.0083 38.3167L61.325 40L60.1683 37.52C59.3586 38.3853 58.5363 39.2388 57.7016 40.08C56.94 40.8434 56.6 41.8684 56.045 43.5384L55.8933 43.995C55.2816 45.8217 54.4466 48.0434 52.4033 50.095C50.3883 52.115 47.6616 53.5017 44.6983 53.6767C41.6966 53.8534 38.585 52.7734 35.9066 50.095C33.2283 47.4167 32.1466 44.3117 32.3216 41.3084C32.4933 38.3467 33.88 35.6184 35.9016 33.5967C37.955 31.5434 40.1783 30.7067 42.0066 30.0967L42.4766 29.9417C44.1383 29.3917 45.1566 29.055 45.9183 28.295C46.7594 27.4619 47.6129 26.6396 48.4783 25.8317Z" fill="#555555"/>
<path d="M95 44.12C93.768 44.12 92.656 43.88 91.664 43.4C90.672 42.92 89.816 42.272 89.096 41.456C88.376 40.624 87.816 39.696 87.416 38.672C87.032 37.632 86.84 36.568 86.84 35.48C86.84 34.344 87.048 33.264 87.464 32.24C87.88 31.2 88.456 30.28 89.192 29.48C89.928 28.664 90.792 28.024 91.784 27.56C92.792 27.08 93.88 26.84 95.048 26.84C96.264 26.84 97.368 27.088 98.36 27.584C99.368 28.08 100.224 28.744 100.928 29.576C101.648 30.408 102.2 31.336 102.584 32.36C102.984 33.384 103.184 34.432 103.184 35.504C103.184 36.64 102.976 37.728 102.56 38.768C102.16 39.792 101.592 40.712 100.856 41.528C100.12 42.328 99.248 42.96 98.24 43.424C97.248 43.888 96.168 44.12 95 44.12ZM89.576 35.48C89.576 36.28 89.704 37.056 89.96 37.808C90.216 38.56 90.576 39.232 91.04 39.824C91.52 40.4 92.096 40.856 92.768 41.192C93.44 41.528 94.192 41.696 95.024 41.696C95.888 41.696 96.656 41.52 97.328 41.168C98 40.816 98.56 40.344 99.008 39.752C99.472 39.144 99.824 38.472 100.064 37.736C100.304 36.984 100.424 36.232 100.424 35.48C100.424 34.68 100.296 33.912 100.04 33.176C99.8 32.424 99.44 31.76 98.96 31.184C98.48 30.592 97.904 30.128 97.232 29.792C96.576 29.456 95.84 29.288 95.024 29.288C94.16 29.288 93.392 29.464 92.72 29.816C92.048 30.168 91.48 30.64 91.016 31.232C90.552 31.824 90.192 32.488 89.936 33.224C89.696 33.96 89.576 34.712 89.576 35.48ZM112.57 33.728C111.546 33.744 110.634 33.976 109.834 34.424C109.05 34.872 108.49 35.504 108.154 36.32V44H105.514V31.448H107.962V34.256C108.394 33.392 108.962 32.704 109.666 32.192C110.37 31.664 111.114 31.376 111.898 31.328C112.058 31.328 112.186 31.328 112.282 31.328C112.394 31.328 112.49 31.336 112.57 31.352V33.728ZM121.474 43.352C121.25 43.464 120.97 43.584 120.634 43.712C120.298 43.84 119.914 43.952 119.482 44.048C119.066 44.144 118.634 44.192 118.186 44.192C117.642 44.192 117.138 44.096 116.674 43.904C116.21 43.712 115.834 43.408 115.546 42.992C115.274 42.56 115.138 42.008 115.138 41.336V33.488H113.482V31.448H115.138V27.32H117.778V31.448H120.514V33.488H117.778V40.496C117.81 40.928 117.946 41.248 118.186 41.456C118.442 41.664 118.754 41.768 119.122 41.768C119.49 41.768 119.842 41.704 120.178 41.576C120.514 41.448 120.762 41.344 120.922 41.264L121.474 43.352ZM128.779 44.24C127.787 44.24 126.899 44.072 126.115 43.736C125.331 43.384 124.651 42.904 124.075 42.296C123.515 41.688 123.083 41 122.779 40.232C122.475 39.448 122.323 38.616 122.323 37.736C122.323 36.856 122.475 36.024 122.779 35.24C123.083 34.456 123.515 33.768 124.075 33.176C124.651 32.568 125.331 32.096 126.115 31.76C126.915 31.408 127.803 31.232 128.779 31.232C129.755 31.232 130.635 31.408 131.419 31.76C132.219 32.096 132.899 32.568 133.459 33.176C134.035 33.768 134.475 34.456 134.779 35.24C135.083 36.024 135.235 36.856 135.235 37.736C135.235 38.616 135.083 39.448 134.779 40.232C134.475 41 134.035 41.688 133.459 42.296C132.899 42.904 132.219 43.384 131.419 43.736C130.635 44.072 129.755 44.24 128.779 44.24ZM125.035 37.76C125.035 38.56 125.203 39.28 125.539 39.92C125.875 40.56 126.323 41.064 126.883 41.432C127.443 41.8 128.075 41.984 128.779 41.984C129.467 41.984 130.091 41.8 130.651 41.432C131.227 41.048 131.683 40.536 132.019 39.896C132.355 39.24 132.523 38.52 132.523 37.736C132.523 36.936 132.355 36.216 132.019 35.576C131.683 34.936 131.227 34.432 130.651 34.064C130.091 33.68 129.467 33.488 128.779 33.488C128.075 33.488 127.443 33.68 126.883 34.064C126.323 34.448 125.875 34.96 125.539 35.6C125.203 36.224 125.035 36.944 125.035 37.76ZM153.922 30.968C153.762 30.792 153.53 30.608 153.226 30.416C152.922 30.208 152.562 30.016 152.146 29.84C151.73 29.664 151.282 29.52 150.802 29.408C150.322 29.296 149.826 29.24 149.314 29.24C148.194 29.24 147.362 29.448 146.818 29.864C146.274 30.28 146.002 30.856 146.002 31.592C146.002 32.136 146.154 32.568 146.458 32.888C146.762 33.192 147.226 33.448 147.85 33.656C148.474 33.864 149.258 34.088 150.202 34.328C151.354 34.6 152.354 34.928 153.202 35.312C154.05 35.68 154.698 36.176 155.146 36.8C155.594 37.424 155.818 38.248 155.818 39.272C155.818 40.136 155.658 40.88 155.338 41.504C155.018 42.128 154.57 42.64 153.994 43.04C153.418 43.424 152.754 43.712 152.002 43.904C151.25 44.08 150.442 44.168 149.578 44.168C148.73 44.168 147.882 44.08 147.034 43.904C146.202 43.728 145.402 43.472 144.634 43.136C143.882 42.784 143.186 42.36 142.546 41.864L143.77 39.56C143.978 39.768 144.274 40 144.658 40.256C145.058 40.496 145.514 40.728 146.026 40.952C146.554 41.176 147.122 41.368 147.73 41.528C148.354 41.672 148.986 41.744 149.626 41.744C150.698 41.744 151.514 41.56 152.074 41.192C152.65 40.808 152.938 40.264 152.938 39.56C152.938 38.984 152.754 38.528 152.386 38.192C152.018 37.84 151.482 37.544 150.778 37.304C150.074 37.064 149.234 36.824 148.258 36.584C147.138 36.28 146.202 35.952 145.45 35.6C144.698 35.232 144.13 34.768 143.746 34.208C143.378 33.632 143.194 32.904 143.194 32.024C143.194 30.904 143.466 29.96 144.01 29.192C144.554 28.408 145.29 27.824 146.218 27.44C147.162 27.04 148.218 26.84 149.386 26.84C150.154 26.84 150.882 26.928 151.57 27.104C152.258 27.264 152.898 27.488 153.49 27.776C154.098 28.064 154.65 28.392 155.146 28.76L153.922 30.968ZM158.178 44V31.448H160.818V44H158.178ZM158.178 29.384V26.48H160.818V29.384H158.178ZM169.678 44.24C168.702 44.24 167.814 44.072 167.014 43.736C166.23 43.384 165.55 42.904 164.974 42.296C164.398 41.688 163.95 40.992 163.63 40.208C163.326 39.424 163.174 38.592 163.174 37.712C163.174 36.528 163.438 35.448 163.966 34.472C164.51 33.496 165.262 32.712 166.222 32.12C167.198 31.528 168.35 31.232 169.678 31.232C170.958 31.232 172.07 31.52 173.014 32.096C173.974 32.656 174.678 33.408 175.126 34.352L172.558 35.168C172.27 34.64 171.862 34.232 171.334 33.944C170.822 33.64 170.254 33.488 169.63 33.488C168.926 33.488 168.286 33.672 167.71 34.04C167.15 34.392 166.702 34.888 166.366 35.528C166.046 36.152 165.886 36.88 165.886 37.712C165.886 38.512 166.054 39.24 166.39 39.896C166.726 40.536 167.174 41.048 167.734 41.432C168.31 41.8 168.95 41.984 169.654 41.984C170.086 41.984 170.502 41.912 170.902 41.768C171.318 41.608 171.678 41.4 171.982 41.144C172.286 40.872 172.502 40.576 172.63 40.256L175.222 41.024C174.95 41.648 174.542 42.2 173.998 42.68C173.47 43.16 172.838 43.544 172.102 43.832C171.382 44.104 170.574 44.24 169.678 44.24ZM177.277 39.128V31.448H179.917V38.6C179.917 39.72 180.117 40.568 180.517 41.144C180.933 41.704 181.533 41.984 182.317 41.984C182.813 41.984 183.293 41.88 183.757 41.672C184.237 41.464 184.669 41.16 185.053 40.76C185.453 40.344 185.773 39.848 186.013 39.272V31.448H188.653V41.024C188.653 41.328 188.709 41.544 188.821 41.672C188.933 41.8 189.117 41.872 189.372 41.888V44C189.101 44.048 188.877 44.08 188.701 44.096C188.525 44.112 188.357 44.12 188.197 44.12C187.717 44.12 187.317 43.992 186.997 43.736C186.677 43.464 186.493 43.12 186.445 42.704L186.397 41.456C185.837 42.368 185.109 43.064 184.213 43.544C183.317 44.008 182.333 44.24 181.261 44.24C179.949 44.24 178.957 43.808 178.285 42.944C177.613 42.08 177.277 40.808 177.277 39.128ZM192.046 26.48H194.686V40.376C194.686 41.016 194.782 41.424 194.974 41.6C195.166 41.776 195.406 41.864 195.694 41.864C196.014 41.864 196.31 41.832 196.582 41.768C196.87 41.704 197.118 41.624 197.326 41.528L197.71 43.616C197.326 43.776 196.87 43.912 196.342 44.024C195.814 44.136 195.342 44.192 194.926 44.192C194.03 44.192 193.326 43.944 192.814 43.448C192.302 42.936 192.046 42.232 192.046 41.336V26.48ZM204.88 44.24C203.888 44.24 203 44.072 202.216 43.736C201.432 43.384 200.752 42.904 200.176 42.296C199.616 41.688 199.184 41 198.88 40.232C198.576 39.448 198.424 38.616 198.424 37.736C198.424 36.856 198.576 36.024 198.88 35.24C199.184 34.456 199.616 33.768 200.176 33.176C200.752 32.568 201.432 32.096 202.216 31.76C203.016 31.408 203.904 31.232 204.88 31.232C205.856 31.232 206.736 31.408 207.52 31.76C208.32 32.096 209 32.568 209.56 33.176C210.136 33.768 210.576 34.456 210.88 35.24C211.184 36.024 211.336 36.856 211.336 37.736C211.336 38.616 211.184 39.448 210.88 40.232C210.576 41 210.136 41.688 209.56 42.296C209 42.904 208.32 43.384 207.52 43.736C206.736 44.072 205.856 44.24 204.88 44.24ZM201.136 37.76C201.136 38.56 201.304 39.28 201.64 39.92C201.976 40.56 202.424 41.064 202.984 41.432C203.544 41.8 204.176 41.984 204.88 41.984C205.568 41.984 206.192 41.8 206.752 41.432C207.328 41.048 207.784 40.536 208.12 39.896C208.456 39.24 208.624 38.52 208.624 37.736C208.624 36.936 208.456 36.216 208.12 35.576C207.784 34.936 207.328 34.432 206.752 34.064C206.192 33.68 205.568 33.488 204.88 33.488C204.176 33.488 203.544 33.68 202.984 34.064C202.424 34.448 201.976 34.96 201.64 35.6C201.304 36.224 201.136 36.944 201.136 37.76Z" fill="#555555"/>
</svg>
