<svg width="181" height="72" viewBox="0 0 181 72" fill="none" xmlns="http://www.w3.org/2000/svg">
<rect x="1.5" y="1.5" width="178" height="69" rx="26.5" fill="white"/>
<rect x="1.5" y="1.5" width="178" height="69" rx="26.5" stroke="#00025D" stroke-width="3"/>
<path d="M39.1667 51.0001V40.1667H38.3334C37.8611 40.1667 37.4656 40.0067 37.1467 39.6867C36.8278 39.3667 36.6678 38.9712 36.6667 38.5001V31.0001C36.6667 30.0834 36.9934 29.2989 37.6467 28.6467C38.3 27.9945 39.0845 27.6678 40 27.6667H45C45.9167 27.6667 46.7017 27.9934 47.355 28.6467C48.0084 29.3001 48.3345 30.0845 48.3334 31.0001V38.5001C48.3334 38.9723 48.1734 39.3684 47.8534 39.6884C47.5334 40.0084 47.1378 40.1678 46.6667 40.1667H45.8334V51.0001C45.8334 51.4723 45.6734 51.8684 45.3534 52.1884C45.0334 52.5084 44.6378 52.6678 44.1667 52.6667H40.8334C40.3611 52.6667 39.9656 52.5067 39.6467 52.1867C39.3278 51.8667 39.1678 51.4712 39.1667 51.0001ZM42.5 26.0001C41.5834 26.0001 40.7989 25.6739 40.1467 25.0217C39.4945 24.3695 39.1678 23.5845 39.1667 22.6667C39.1656 21.7489 39.4922 20.9645 40.1467 20.3134C40.8011 19.6623 41.5856 19.3356 42.5 19.3334C43.4145 19.3312 44.1995 19.6578 44.855 20.3134C45.5106 20.9689 45.8367 21.7534 45.8334 22.6667C45.83 23.5801 45.5039 24.3651 44.855 25.0217C44.2061 25.6784 43.4211 26.0045 42.5 26.0001ZM55 51.0001V42.6667H52.2917C51.7361 42.6667 51.2917 42.4373 50.9584 41.9784C50.625 41.5195 50.5556 41.0128 50.75 40.4584L54.25 29.9167C54.4722 29.1945 54.8817 28.6389 55.4784 28.2501C56.075 27.8612 56.7489 27.6667 57.5 27.6667C58.2511 27.6667 58.925 27.8612 59.5217 28.2501C60.1184 28.6389 60.5278 29.1945 60.75 29.9167L64.25 40.4584C64.4445 41.0139 64.375 41.5212 64.0417 41.9801C63.7084 42.4389 63.2639 42.6678 62.7084 42.6667H60V51.0001C60 51.4723 59.84 51.8684 59.52 52.1884C59.2 52.5084 58.8045 52.6678 58.3334 52.6667H56.6667C56.1945 52.6667 55.7989 52.5067 55.48 52.1867C55.1611 51.8667 55.0011 51.4712 55 51.0001ZM57.5 26.0001C56.5834 26.0001 55.7989 25.6739 55.1467 25.0217C54.4945 24.3695 54.1678 23.5845 54.1667 22.6667C54.1656 21.7489 54.4922 20.9645 55.1467 20.3134C55.8011 19.6623 56.5856 19.3356 57.5 19.3334C58.4145 19.3312 59.1995 19.6578 59.855 20.3134C60.5106 20.9689 60.8367 21.7534 60.8334 22.6667C60.83 23.5801 60.5039 24.3651 59.855 25.0217C59.2061 25.6784 58.4211 26.0045 57.5 26.0001Z" fill="#555555"/>
<path d="M101.312 39.608C101.312 40.52 101.072 41.304 100.592 41.96C100.128 42.616 99.496 43.12 98.696 43.472C97.896 43.824 97.016 44 96.056 44H87.92V26.96H96.704C97.504 26.96 98.192 27.176 98.768 27.608C99.36 28.024 99.808 28.568 100.112 29.24C100.432 29.896 100.592 30.584 100.592 31.304C100.592 32.136 100.376 32.92 99.944 33.656C99.528 34.376 98.928 34.912 98.144 35.264C99.12 35.552 99.888 36.08 100.448 36.848C101.024 37.6 101.312 38.52 101.312 39.608ZM98.552 39.104C98.552 38.624 98.448 38.192 98.24 37.808C98.048 37.408 97.776 37.088 97.424 36.848C97.088 36.592 96.688 36.464 96.224 36.464H90.608V41.672H96.056C96.536 41.672 96.96 41.56 97.328 41.336C97.712 41.096 98.008 40.784 98.216 40.4C98.44 40 98.552 39.568 98.552 39.104ZM90.608 29.288V34.304H95.552C96 34.304 96.4 34.2 96.752 33.992C97.104 33.768 97.384 33.472 97.592 33.104C97.8 32.72 97.904 32.288 97.904 31.808C97.904 31.312 97.808 30.88 97.616 30.512C97.424 30.128 97.16 29.832 96.824 29.624C96.504 29.4 96.128 29.288 95.696 29.288H90.608ZM102.867 40.328C102.867 39.528 103.091 38.832 103.539 38.24C104.003 37.632 104.635 37.168 105.435 36.848C106.235 36.512 107.163 36.344 108.219 36.344C108.779 36.344 109.347 36.384 109.923 36.464C110.515 36.544 111.035 36.672 111.483 36.848V36.056C111.483 35.176 111.219 34.488 110.691 33.992C110.163 33.496 109.403 33.248 108.411 33.248C107.707 33.248 107.043 33.376 106.419 33.632C105.795 33.872 105.131 34.216 104.427 34.664L103.539 32.888C104.371 32.328 105.203 31.912 106.035 31.64C106.883 31.368 107.771 31.232 108.699 31.232C110.379 31.232 111.699 31.68 112.659 32.576C113.635 33.456 114.123 34.712 114.123 36.344V41.024C114.123 41.328 114.171 41.544 114.267 41.672C114.379 41.8 114.563 41.872 114.819 41.888V44C114.579 44.048 114.363 44.08 114.171 44.096C113.979 44.112 113.819 44.12 113.691 44.12C113.131 44.12 112.707 43.984 112.419 43.712C112.131 43.44 111.963 43.12 111.915 42.752L111.843 42.032C111.299 42.736 110.603 43.28 109.755 43.664C108.907 44.048 108.051 44.24 107.187 44.24C106.355 44.24 105.611 44.072 104.955 43.736C104.299 43.384 103.787 42.912 103.419 42.32C103.051 41.728 102.867 41.064 102.867 40.328ZM110.859 41.096C111.051 40.888 111.203 40.68 111.315 40.472C111.427 40.264 111.483 40.08 111.483 39.92V38.48C111.035 38.304 110.563 38.176 110.067 38.096C109.571 38 109.083 37.952 108.603 37.952C107.643 37.952 106.859 38.144 106.251 38.528C105.659 38.912 105.363 39.44 105.363 40.112C105.363 40.48 105.459 40.832 105.651 41.168C105.859 41.504 106.147 41.776 106.515 41.984C106.899 42.192 107.371 42.296 107.931 42.296C108.507 42.296 109.059 42.184 109.587 41.96C110.115 41.736 110.539 41.448 110.859 41.096ZM122.294 44.12C121.446 44.12 120.67 43.952 119.966 43.616C119.262 43.264 118.654 42.792 118.142 42.2C117.646 41.608 117.254 40.928 116.966 40.16C116.694 39.392 116.558 38.584 116.558 37.736C116.558 36.84 116.702 36 116.99 35.216C117.278 34.432 117.678 33.744 118.19 33.152C118.718 32.544 119.334 32.072 120.038 31.736C120.742 31.4 121.526 31.232 122.39 31.232C123.398 31.232 124.278 31.472 125.03 31.952C125.798 32.432 126.43 33.056 126.926 33.824V31.448H129.254V43.64C129.254 44.856 128.958 45.888 128.366 46.736C127.79 47.584 126.998 48.232 125.99 48.68C124.982 49.128 123.846 49.352 122.582 49.352C121.19 49.352 120.038 49.112 119.126 48.632C118.214 48.152 117.438 47.496 116.798 46.664L118.286 45.272C118.766 45.944 119.382 46.456 120.134 46.808C120.902 47.16 121.718 47.336 122.582 47.336C123.302 47.336 123.966 47.2 124.574 46.928C125.198 46.672 125.694 46.264 126.062 45.704C126.43 45.16 126.614 44.472 126.614 43.64V41.72C126.166 42.472 125.55 43.064 124.766 43.496C123.982 43.912 123.158 44.12 122.294 44.12ZM123.158 41.984C123.558 41.984 123.942 41.92 124.31 41.792C124.678 41.648 125.014 41.464 125.318 41.24C125.638 41 125.91 40.736 126.134 40.448C126.358 40.144 126.518 39.824 126.614 39.488V36.2C126.406 35.656 126.11 35.184 125.726 34.784C125.342 34.368 124.91 34.048 124.43 33.824C123.95 33.6 123.462 33.488 122.966 33.488C122.39 33.488 121.87 33.616 121.406 33.872C120.958 34.112 120.574 34.44 120.254 34.856C119.934 35.256 119.686 35.712 119.51 36.224C119.334 36.736 119.246 37.264 119.246 37.808C119.246 38.384 119.342 38.92 119.534 39.416C119.742 39.912 120.022 40.36 120.374 40.76C120.726 41.144 121.142 41.448 121.622 41.672C122.102 41.88 122.614 41.984 123.158 41.984ZM143.676 44H141.036V36.968C141.036 35.8 140.844 34.944 140.46 34.4C140.092 33.856 139.54 33.584 138.804 33.584C138.292 33.584 137.78 33.712 137.268 33.968C136.772 34.224 136.324 34.576 135.924 35.024C135.524 35.456 135.236 35.96 135.06 36.536V44H132.42V31.448H134.82V33.968C135.14 33.408 135.556 32.928 136.068 32.528C136.596 32.112 137.188 31.792 137.844 31.568C138.5 31.344 139.196 31.232 139.932 31.232C140.684 31.232 141.3 31.368 141.78 31.64C142.276 31.912 142.66 32.288 142.932 32.768C143.22 33.232 143.412 33.776 143.508 34.4C143.62 35.008 143.676 35.656 143.676 36.344V44ZM146.74 44V31.448H149.38V44H146.74ZM146.74 29.384V26.48H149.38V29.384H146.74Z" fill="#555555"/>
</svg>
