<svg width="270" height="72" viewBox="0 0 270 72" fill="none" xmlns="http://www.w3.org/2000/svg">
<rect x="1.5" y="1.5" width="267" height="69" rx="26.5" fill="white"/>
<rect x="1.5" y="1.5" width="267" height="69" rx="26.5" stroke="#6B4FD4" stroke-width="3"/>
<path d="M68.6922 23.4828C68.6743 23.177 68.5448 22.8884 68.3282 22.6718C68.1116 22.4552 67.823 22.3256 67.5172 22.3078C59.4297 21.839 52.9359 24.2984 50.1453 28.9047C48.3015 31.95 48.3047 35.6484 50.1203 39.1765C49.0867 40.4067 48.3314 41.8458 47.9062 43.3953L45.364 40.8437C46.5859 38.2922 46.539 35.6328 45.2078 33.4234C43.1453 30.0187 38.3843 28.1937 32.4734 28.5406C32.1676 28.5585 31.879 28.688 31.6624 28.9046C31.4458 29.1212 31.3163 29.4098 31.2984 29.7156C30.95 35.6265 32.7765 40.3875 36.1812 42.45C37.3047 43.1366 38.5958 43.4999 39.9125 43.5C41.1904 43.4841 42.4485 43.1814 43.5937 42.614L47.5 46.5203V51C47.5 51.3315 47.6317 51.6494 47.8661 51.8839C48.1005 52.1183 48.4184 52.25 48.75 52.25C49.0815 52.25 49.3994 52.1183 49.6338 51.8839C49.8683 51.6494 50 51.3315 50 51V46.3922C49.9943 44.4035 50.671 42.4732 51.9172 40.9234C53.5249 41.7637 55.3079 42.2133 57.1218 42.2359C58.8755 42.2416 60.5967 41.7625 62.0953 40.8515C66.7015 38.064 69.1672 31.5703 68.6922 23.4828Z" fill="#555555"/>
<path d="M102.248 44V31.856L97.232 41.072H95.648L90.608 31.856V44H87.92V26.96H90.8L96.44 37.376L102.08 26.96H104.96V44H102.248ZM113.944 44.24C112.968 44.24 112.08 44.072 111.28 43.736C110.496 43.384 109.816 42.912 109.24 42.32C108.664 41.712 108.216 41.024 107.896 40.256C107.592 39.472 107.44 38.64 107.44 37.76C107.44 36.576 107.712 35.496 108.256 34.52C108.8 33.528 109.56 32.736 110.536 32.144C111.512 31.536 112.656 31.232 113.968 31.232C115.28 31.232 116.408 31.536 117.352 32.144C118.312 32.736 119.056 33.52 119.584 34.496C120.112 35.472 120.376 36.52 120.376 37.64C120.376 37.832 120.368 38.016 120.352 38.192C120.336 38.352 120.32 38.488 120.304 38.6H110.248C110.296 39.336 110.496 39.984 110.848 40.544C111.216 41.088 111.68 41.52 112.24 41.84C112.8 42.144 113.4 42.296 114.04 42.296C114.744 42.296 115.408 42.12 116.032 41.768C116.672 41.416 117.104 40.952 117.328 40.376L119.584 41.024C119.312 41.632 118.896 42.184 118.336 42.68C117.792 43.16 117.144 43.544 116.392 43.832C115.64 44.104 114.824 44.24 113.944 44.24ZM110.176 36.848H117.76C117.712 36.128 117.504 35.496 117.136 34.952C116.784 34.392 116.328 33.96 115.768 33.656C115.224 33.336 114.616 33.176 113.944 33.176C113.288 33.176 112.68 33.336 112.12 33.656C111.576 33.96 111.128 34.392 110.776 34.952C110.424 35.496 110.224 36.128 110.176 36.848ZM121.737 37.736C121.737 36.536 121.977 35.448 122.457 34.472C122.953 33.48 123.625 32.696 124.473 32.12C125.321 31.528 126.297 31.232 127.401 31.232C128.361 31.232 129.225 31.48 129.993 31.976C130.777 32.472 131.385 33.088 131.817 33.824V26.48H134.457V41.024C134.457 41.328 134.513 41.544 134.625 41.672C134.737 41.8 134.921 41.872 135.177 41.888V44C134.681 44.08 134.297 44.12 134.025 44.12C133.529 44.12 133.105 43.976 132.753 43.688C132.417 43.4 132.241 43.056 132.225 42.656L132.201 41.72C131.721 42.52 131.073 43.144 130.257 43.592C129.441 44.024 128.593 44.24 127.713 44.24C126.849 44.24 126.049 44.072 125.313 43.736C124.593 43.4 123.961 42.928 123.417 42.32C122.889 41.712 122.473 41.016 122.169 40.232C121.881 39.448 121.737 38.616 121.737 37.736ZM131.817 39.488V36.2C131.641 35.688 131.353 35.232 130.953 34.832C130.569 34.416 130.129 34.088 129.633 33.848C129.153 33.608 128.673 33.488 128.193 33.488C127.633 33.488 127.121 33.608 126.657 33.848C126.209 34.088 125.817 34.408 125.481 34.808C125.161 35.208 124.913 35.664 124.737 36.176C124.561 36.688 124.473 37.224 124.473 37.784C124.473 38.36 124.569 38.904 124.761 39.416C124.953 39.912 125.225 40.36 125.577 40.76C125.945 41.144 126.361 41.448 126.825 41.672C127.305 41.88 127.825 41.984 128.385 41.984C128.737 41.984 129.089 41.92 129.441 41.792C129.809 41.664 130.153 41.488 130.473 41.264C130.809 41.04 131.089 40.776 131.313 40.472C131.553 40.168 131.721 39.84 131.817 39.488ZM137.811 44V31.448H140.451V44H137.811ZM137.811 29.384V26.48H140.451V29.384H137.811ZM150.607 43.352C150.383 43.464 150.103 43.584 149.767 43.712C149.431 43.84 149.047 43.952 148.615 44.048C148.199 44.144 147.767 44.192 147.319 44.192C146.775 44.192 146.271 44.096 145.807 43.904C145.343 43.712 144.967 43.408 144.679 42.992C144.407 42.56 144.271 42.008 144.271 41.336V33.488H142.615V31.448H144.271V27.32H146.911V31.448H149.647V33.488H146.911V40.496C146.943 40.928 147.079 41.248 147.319 41.456C147.575 41.664 147.887 41.768 148.255 41.768C148.623 41.768 148.975 41.704 149.311 41.576C149.647 41.448 149.895 41.344 150.055 41.264L150.607 43.352ZM157.96 44.24C156.984 44.24 156.096 44.072 155.296 43.736C154.512 43.384 153.832 42.912 153.256 42.32C152.68 41.712 152.232 41.024 151.912 40.256C151.608 39.472 151.456 38.64 151.456 37.76C151.456 36.576 151.728 35.496 152.271 34.52C152.816 33.528 153.576 32.736 154.552 32.144C155.528 31.536 156.672 31.232 157.984 31.232C159.296 31.232 160.424 31.536 161.368 32.144C162.328 32.736 163.072 33.52 163.6 34.496C164.128 35.472 164.392 36.52 164.392 37.64C164.392 37.832 164.384 38.016 164.368 38.192C164.352 38.352 164.336 38.488 164.32 38.6H154.264C154.312 39.336 154.512 39.984 154.864 40.544C155.232 41.088 155.696 41.52 156.256 41.84C156.816 42.144 157.416 42.296 158.056 42.296C158.76 42.296 159.424 42.12 160.048 41.768C160.688 41.416 161.12 40.952 161.344 40.376L163.6 41.024C163.328 41.632 162.912 42.184 162.352 42.68C161.808 43.16 161.16 43.544 160.408 43.832C159.656 44.104 158.84 44.24 157.96 44.24ZM154.192 36.848H161.776C161.728 36.128 161.52 35.496 161.152 34.952C160.8 34.392 160.344 33.96 159.784 33.656C159.24 33.336 158.632 33.176 157.96 33.176C157.304 33.176 156.696 33.336 156.136 33.656C155.592 33.96 155.144 34.392 154.792 34.952C154.44 35.496 154.24 36.128 154.192 36.848ZM173.601 33.728C172.577 33.744 171.665 33.976 170.865 34.424C170.081 34.872 169.521 35.504 169.185 36.32V44H166.545V31.448H168.993V34.256C169.425 33.392 169.993 32.704 170.697 32.192C171.401 31.664 172.145 31.376 172.929 31.328C173.089 31.328 173.217 31.328 173.313 31.328C173.425 31.328 173.521 31.336 173.601 31.352V33.728ZM182.578 33.728C181.554 33.744 180.642 33.976 179.842 34.424C179.058 34.872 178.498 35.504 178.162 36.32V44H175.521V31.448H177.97V34.256C178.402 33.392 178.97 32.704 179.674 32.192C180.378 31.664 181.122 31.376 181.906 31.328C182.066 31.328 182.194 31.328 182.29 31.328C182.402 31.328 182.498 31.336 182.578 31.352V33.728ZM183.563 40.328C183.563 39.528 183.787 38.832 184.235 38.24C184.699 37.632 185.331 37.168 186.131 36.848C186.931 36.512 187.859 36.344 188.915 36.344C189.475 36.344 190.043 36.384 190.619 36.464C191.211 36.544 191.731 36.672 192.179 36.848V36.056C192.179 35.176 191.915 34.488 191.387 33.992C190.859 33.496 190.099 33.248 189.107 33.248C188.403 33.248 187.739 33.376 187.115 33.632C186.491 33.872 185.827 34.216 185.123 34.664L184.235 32.888C185.067 32.328 185.899 31.912 186.731 31.64C187.579 31.368 188.467 31.232 189.395 31.232C191.075 31.232 192.395 31.68 193.355 32.576C194.331 33.456 194.819 34.712 194.819 36.344V41.024C194.819 41.328 194.867 41.544 194.963 41.672C195.075 41.8 195.259 41.872 195.515 41.888V44C195.275 44.048 195.059 44.08 194.867 44.096C194.675 44.112 194.515 44.12 194.387 44.12C193.827 44.12 193.403 43.984 193.115 43.712C192.827 43.44 192.659 43.12 192.611 42.752L192.539 42.032C191.995 42.736 191.299 43.28 190.451 43.664C189.603 44.048 188.747 44.24 187.883 44.24C187.051 44.24 186.307 44.072 185.651 43.736C184.995 43.384 184.483 42.912 184.115 42.32C183.747 41.728 183.563 41.064 183.563 40.328ZM191.555 41.096C191.747 40.888 191.899 40.68 192.011 40.472C192.123 40.264 192.179 40.08 192.179 39.92V38.48C191.731 38.304 191.259 38.176 190.763 38.096C190.267 38 189.779 37.952 189.299 37.952C188.339 37.952 187.555 38.144 186.947 38.528C186.355 38.912 186.059 39.44 186.059 40.112C186.059 40.48 186.155 40.832 186.347 41.168C186.555 41.504 186.843 41.776 187.211 41.984C187.595 42.192 188.067 42.296 188.627 42.296C189.203 42.296 189.755 42.184 190.283 41.96C190.811 41.736 191.235 41.448 191.555 41.096ZM209.278 44H206.638V36.968C206.638 35.8 206.446 34.944 206.062 34.4C205.694 33.856 205.142 33.584 204.406 33.584C203.894 33.584 203.382 33.712 202.87 33.968C202.374 34.224 201.926 34.576 201.526 35.024C201.126 35.456 200.838 35.96 200.662 36.536V44H198.021V31.448H200.422V33.968C200.742 33.408 201.158 32.928 201.67 32.528C202.198 32.112 202.79 31.792 203.446 31.568C204.102 31.344 204.798 31.232 205.534 31.232C206.286 31.232 206.902 31.368 207.382 31.64C207.878 31.912 208.262 32.288 208.534 32.768C208.822 33.232 209.014 33.776 209.109 34.4C209.222 35.008 209.278 35.656 209.278 36.344V44ZM218.03 44.24C217.054 44.24 216.166 44.072 215.366 43.736C214.582 43.384 213.902 42.912 213.326 42.32C212.75 41.712 212.302 41.024 211.982 40.256C211.678 39.472 211.526 38.64 211.526 37.76C211.526 36.576 211.798 35.496 212.342 34.52C212.886 33.528 213.646 32.736 214.622 32.144C215.598 31.536 216.742 31.232 218.054 31.232C219.366 31.232 220.494 31.536 221.438 32.144C222.398 32.736 223.142 33.52 223.67 34.496C224.198 35.472 224.462 36.52 224.462 37.64C224.462 37.832 224.454 38.016 224.438 38.192C224.422 38.352 224.406 38.488 224.39 38.6H214.334C214.382 39.336 214.582 39.984 214.934 40.544C215.302 41.088 215.766 41.52 216.326 41.84C216.886 42.144 217.486 42.296 218.126 42.296C218.83 42.296 219.494 42.12 220.118 41.768C220.758 41.416 221.19 40.952 221.414 40.376L223.67 41.024C223.398 41.632 222.982 42.184 222.422 42.68C221.878 43.16 221.23 43.544 220.478 43.832C219.726 44.104 218.91 44.24 218.03 44.24ZM214.262 36.848H221.846C221.798 36.128 221.59 35.496 221.222 34.952C220.87 34.392 220.414 33.96 219.854 33.656C219.31 33.336 218.702 33.176 218.03 33.176C217.374 33.176 216.766 33.336 216.206 33.656C215.662 33.96 215.214 34.392 214.862 34.952C214.51 35.496 214.31 36.128 214.262 36.848ZM232.255 44.24C231.263 44.24 230.375 44.072 229.591 43.736C228.807 43.384 228.127 42.904 227.551 42.296C226.991 41.688 226.559 41 226.255 40.232C225.951 39.448 225.799 38.616 225.799 37.736C225.799 36.856 225.951 36.024 226.255 35.24C226.559 34.456 226.991 33.768 227.551 33.176C228.127 32.568 228.807 32.096 229.591 31.76C230.391 31.408 231.279 31.232 232.255 31.232C233.231 31.232 234.111 31.408 234.895 31.76C235.695 32.096 236.375 32.568 236.935 33.176C237.511 33.768 237.951 34.456 238.255 35.24C238.559 36.024 238.711 36.856 238.711 37.736C238.711 38.616 238.559 39.448 238.255 40.232C237.951 41 237.511 41.688 236.935 42.296C236.375 42.904 235.695 43.384 234.895 43.736C234.111 44.072 233.231 44.24 232.255 44.24ZM228.511 37.76C228.511 38.56 228.679 39.28 229.015 39.92C229.351 40.56 229.799 41.064 230.359 41.432C230.919 41.8 231.551 41.984 232.255 41.984C232.943 41.984 233.567 41.8 234.127 41.432C234.703 41.048 235.159 40.536 235.495 39.896C235.831 39.24 235.999 38.52 235.999 37.736C235.999 36.936 235.831 36.216 235.495 35.576C235.159 34.936 234.703 34.432 234.127 34.064C233.567 33.68 232.943 33.488 232.255 33.488C231.551 33.488 230.919 33.68 230.359 34.064C229.799 34.448 229.351 34.96 229.015 35.6C228.679 36.224 228.511 36.944 228.511 37.76Z" fill="#555555"/>
</svg>
