<svg width="224" height="72" viewBox="0 0 224 72" fill="none" xmlns="http://www.w3.org/2000/svg">
<rect x="1.5" y="1.5" width="221" height="69" rx="26.5" fill="white"/>
<rect x="1.5" y="1.5" width="221" height="69" rx="26.5" stroke="#FF0000" stroke-width="3"/>
<path d="M60.6066 23.7267C63.3605 26.4802 64.9355 30.1969 64.9987 34.0907C65.0618 37.9845 63.6081 41.7503 60.945 44.5917L60.6066 44.9417L53.535 52.0117C52.6377 52.9084 51.4331 53.4305 50.1652 53.4723C48.8974 53.5141 47.661 53.0724 46.7066 52.2367L46.4666 52.0117L39.3933 44.94C36.5802 42.1269 34.9999 38.3116 34.9999 34.3333C34.9999 30.3551 36.5802 26.5397 39.3933 23.7267C42.2064 20.9136 46.0217 19.3333 50 19.3333C53.9782 19.3333 57.7936 20.9136 60.6066 23.7267ZM50 29.3333C49.3434 29.3333 48.6932 29.4627 48.0866 29.7139C47.4799 29.9652 46.9287 30.3335 46.4644 30.7978C46.0001 31.2621 45.6318 31.8133 45.3806 32.4199C45.1293 33.0266 45 33.6767 45 34.3333C45 34.99 45.1293 35.6401 45.3806 36.2468C45.6318 36.8534 46.0001 37.4046 46.4644 37.8689C46.9287 38.3332 47.4799 38.7015 48.0866 38.9527C48.6932 39.204 49.3434 39.3333 50 39.3333C51.3261 39.3333 52.5978 38.8066 53.5355 37.8689C54.4732 36.9312 55 35.6594 55 34.3333C55 33.0073 54.4732 31.7355 53.5355 30.7978C52.5978 29.8601 51.3261 29.3333 50 29.3333Z" fill="#555555"/>
<path d="M100.424 29.336H94.76V44H92.048V29.336H86.36V26.96H100.424V29.336ZM100.636 39.128V31.448H103.276V38.6C103.276 39.72 103.476 40.568 103.876 41.144C104.292 41.704 104.892 41.984 105.676 41.984C106.172 41.984 106.652 41.88 107.116 41.672C107.596 41.464 108.028 41.16 108.412 40.76C108.812 40.344 109.132 39.848 109.372 39.272V31.448H112.012V41.024C112.012 41.328 112.068 41.544 112.18 41.672C112.292 41.8 112.476 41.872 112.732 41.888V44C112.46 44.048 112.236 44.08 112.06 44.096C111.884 44.112 111.716 44.12 111.556 44.12C111.076 44.12 110.676 43.992 110.356 43.736C110.036 43.464 109.852 43.12 109.804 42.704L109.756 41.456C109.196 42.368 108.468 43.064 107.572 43.544C106.676 44.008 105.692 44.24 104.62 44.24C103.308 44.24 102.316 43.808 101.644 42.944C100.972 42.08 100.636 40.808 100.636 39.128ZM125.775 44.24C124.719 44.24 123.719 44.072 122.775 43.736C121.831 43.384 121.023 42.864 120.351 42.176L121.335 40.4C122.055 41.04 122.775 41.504 123.495 41.792C124.231 42.08 124.959 42.224 125.679 42.224C126.415 42.224 127.015 42.088 127.479 41.816C127.943 41.528 128.175 41.112 128.175 40.568C128.175 40.168 128.055 39.872 127.815 39.68C127.575 39.488 127.223 39.32 126.759 39.176C126.311 39.032 125.767 38.872 125.127 38.696C124.231 38.424 123.479 38.144 122.871 37.856C122.263 37.552 121.807 37.184 121.503 36.752C121.199 36.32 121.047 35.768 121.047 35.096C121.047 34.28 121.255 33.584 121.671 33.008C122.087 32.432 122.663 31.992 123.399 31.688C124.151 31.384 125.015 31.232 125.991 31.232C126.903 31.232 127.743 31.376 128.511 31.664C129.295 31.936 129.983 32.368 130.575 32.96L129.447 34.712C128.887 34.2 128.311 33.824 127.719 33.584C127.143 33.344 126.519 33.224 125.847 33.224C125.463 33.224 125.095 33.272 124.743 33.368C124.391 33.448 124.095 33.608 123.855 33.848C123.631 34.072 123.519 34.392 123.519 34.808C123.519 35.144 123.615 35.416 123.807 35.624C123.999 35.832 124.287 36.008 124.671 36.152C125.055 36.296 125.527 36.456 126.087 36.632C127.063 36.92 127.895 37.208 128.583 37.496C129.271 37.768 129.799 38.128 130.167 38.576C130.551 39.008 130.743 39.608 130.743 40.376C130.743 41.592 130.287 42.544 129.375 43.232C128.479 43.904 127.279 44.24 125.775 44.24ZM138.788 44.24C137.812 44.24 136.924 44.072 136.124 43.736C135.34 43.384 134.66 42.912 134.084 42.32C133.508 41.712 133.06 41.024 132.74 40.256C132.436 39.472 132.284 38.64 132.284 37.76C132.284 36.576 132.556 35.496 133.1 34.52C133.644 33.528 134.404 32.736 135.38 32.144C136.356 31.536 137.5 31.232 138.812 31.232C140.124 31.232 141.252 31.536 142.196 32.144C143.156 32.736 143.9 33.52 144.428 34.496C144.956 35.472 145.22 36.52 145.22 37.64C145.22 37.832 145.212 38.016 145.196 38.192C145.18 38.352 145.164 38.488 145.148 38.6H135.092C135.14 39.336 135.34 39.984 135.692 40.544C136.06 41.088 136.524 41.52 137.084 41.84C137.644 42.144 138.244 42.296 138.884 42.296C139.588 42.296 140.252 42.12 140.876 41.768C141.516 41.416 141.948 40.952 142.172 40.376L144.428 41.024C144.156 41.632 143.74 42.184 143.18 42.68C142.636 43.16 141.988 43.544 141.236 43.832C140.484 44.104 139.668 44.24 138.788 44.24ZM135.02 36.848H142.604C142.556 36.128 142.348 35.496 141.98 34.952C141.628 34.392 141.172 33.96 140.612 33.656C140.068 33.336 139.46 33.176 138.788 33.176C138.132 33.176 137.524 33.336 136.964 33.656C136.42 33.96 135.972 34.392 135.62 34.952C135.268 35.496 135.068 36.128 135.02 36.848ZM147.373 44V31.448H150.013V44H147.373ZM147.373 29.384V26.48H150.013V29.384H147.373ZM163.891 44.24C163.075 44.24 162.323 44.072 161.635 43.736C160.963 43.384 160.379 42.912 159.883 42.32C159.387 41.712 159.003 41.016 158.731 40.232C158.475 39.432 158.347 38.592 158.347 37.712C158.347 36.816 158.491 35.976 158.779 35.192C159.083 34.408 159.499 33.72 160.027 33.128C160.571 32.536 161.203 32.072 161.923 31.736C162.643 31.4 163.419 31.232 164.251 31.232C165.211 31.232 166.075 31.464 166.843 31.928C167.627 32.392 168.243 32.992 168.691 33.728V31.448H171.019V49.112H168.379V41.648C167.323 43.376 165.827 44.24 163.891 44.24ZM164.851 41.984C165.379 41.984 165.859 41.88 166.291 41.672C166.739 41.464 167.131 41.184 167.467 40.832C167.819 40.464 168.123 40.048 168.379 39.584V36.272C168.299 35.888 168.139 35.536 167.899 35.216C167.675 34.88 167.395 34.584 167.059 34.328C166.723 34.056 166.363 33.848 165.979 33.704C165.595 33.56 165.219 33.488 164.851 33.488C164.291 33.488 163.779 33.608 163.315 33.848C162.851 34.088 162.443 34.416 162.091 34.832C161.755 35.232 161.491 35.688 161.299 36.2C161.123 36.712 161.035 37.24 161.035 37.784C161.035 38.552 161.195 39.256 161.515 39.896C161.851 40.52 162.299 41.024 162.859 41.408C163.435 41.792 164.099 41.984 164.851 41.984ZM174.066 39.128V31.448H176.706V38.6C176.706 39.72 176.906 40.568 177.306 41.144C177.722 41.704 178.322 41.984 179.106 41.984C179.602 41.984 180.082 41.88 180.546 41.672C181.026 41.464 181.458 41.16 181.842 40.76C182.242 40.344 182.562 39.848 182.802 39.272V31.448H185.442V41.024C185.442 41.328 185.498 41.544 185.61 41.672C185.722 41.8 185.906 41.872 186.162 41.888V44C185.89 44.048 185.666 44.08 185.49 44.096C185.314 44.112 185.146 44.12 184.986 44.12C184.506 44.12 184.106 43.992 183.786 43.736C183.466 43.464 183.282 43.12 183.234 42.704L183.186 41.456C182.626 42.368 181.898 43.064 181.002 43.544C180.106 44.008 179.122 44.24 178.05 44.24C176.738 44.24 175.746 43.808 175.074 42.944C174.402 42.08 174.066 40.808 174.066 39.128ZM188.811 44V31.448H191.451V44H188.811ZM188.811 29.384V26.48H191.451V29.384H188.811Z" fill="#555555"/>
</svg>
