<svg width="277" height="72" viewBox="0 0 277 72" fill="none" xmlns="http://www.w3.org/2000/svg">
<rect x="1.5" y="1.5" width="274" height="69" rx="26.5" fill="white"/>
<rect x="1.5" y="1.5" width="274" height="69" rx="26.5" stroke="#0054F0" stroke-width="3"/>
<path d="M50 21L36.6667 31V51H63.3334V31L50 21ZM46.6667 32.6667H53.3334V47.6667H46.6667V32.6667ZM56.6667 32.6667H60V37.6667H56.6667V32.6667ZM55.55 29.3333H44.45L50 25.1667L55.55 29.3333ZM43.3334 32.6667V37.6667H40V32.6667H43.3334ZM40 41H43.3334V47.6667H40V41ZM56.6667 47.6667V41H60V47.6667H56.6667Z" fill="#555555"/>
<path d="M95 44.12C93.768 44.12 92.656 43.88 91.664 43.4C90.672 42.92 89.816 42.272 89.096 41.456C88.376 40.624 87.816 39.696 87.416 38.672C87.032 37.632 86.84 36.568 86.84 35.48C86.84 34.344 87.048 33.264 87.464 32.24C87.88 31.2 88.456 30.28 89.192 29.48C89.928 28.664 90.792 28.024 91.784 27.56C92.792 27.08 93.88 26.84 95.048 26.84C96.264 26.84 97.368 27.088 98.36 27.584C99.368 28.08 100.224 28.744 100.928 29.576C101.648 30.408 102.2 31.336 102.584 32.36C102.984 33.384 103.184 34.432 103.184 35.504C103.184 36.64 102.976 37.728 102.56 38.768C102.16 39.792 101.592 40.712 100.856 41.528C100.12 42.328 99.248 42.96 98.24 43.424C97.248 43.888 96.168 44.12 95 44.12ZM89.576 35.48C89.576 36.28 89.704 37.056 89.96 37.808C90.216 38.56 90.576 39.232 91.04 39.824C91.52 40.4 92.096 40.856 92.768 41.192C93.44 41.528 94.192 41.696 95.024 41.696C95.888 41.696 96.656 41.52 97.328 41.168C98 40.816 98.56 40.344 99.008 39.752C99.472 39.144 99.824 38.472 100.064 37.736C100.304 36.984 100.424 36.232 100.424 35.48C100.424 34.68 100.296 33.912 100.04 33.176C99.8 32.424 99.44 31.76 98.96 31.184C98.48 30.592 97.904 30.128 97.232 29.792C96.576 29.456 95.84 29.288 95.024 29.288C94.16 29.288 93.392 29.464 92.72 29.816C92.048 30.168 91.48 30.64 91.016 31.232C90.552 31.824 90.192 32.488 89.936 33.224C89.696 33.96 89.576 34.712 89.576 35.48ZM112.57 33.728C111.546 33.744 110.634 33.976 109.834 34.424C109.05 34.872 108.49 35.504 108.154 36.32V44H105.514V31.448H107.962V34.256C108.394 33.392 108.962 32.704 109.666 32.192C110.37 31.664 111.114 31.376 111.898 31.328C112.058 31.328 112.186 31.328 112.282 31.328C112.394 31.328 112.49 31.336 112.57 31.352V33.728ZM121.474 43.352C121.25 43.464 120.97 43.584 120.634 43.712C120.298 43.84 119.914 43.952 119.482 44.048C119.066 44.144 118.634 44.192 118.186 44.192C117.642 44.192 117.138 44.096 116.674 43.904C116.21 43.712 115.834 43.408 115.546 42.992C115.274 42.56 115.138 42.008 115.138 41.336V33.488H113.482V31.448H115.138V27.32H117.778V31.448H120.514V33.488H117.778V40.496C117.81 40.928 117.946 41.248 118.186 41.456C118.442 41.664 118.754 41.768 119.122 41.768C119.49 41.768 119.842 41.704 120.178 41.576C120.514 41.448 120.762 41.344 120.922 41.264L121.474 43.352ZM128.779 44.24C127.787 44.24 126.899 44.072 126.115 43.736C125.331 43.384 124.651 42.904 124.075 42.296C123.515 41.688 123.083 41 122.779 40.232C122.475 39.448 122.323 38.616 122.323 37.736C122.323 36.856 122.475 36.024 122.779 35.24C123.083 34.456 123.515 33.768 124.075 33.176C124.651 32.568 125.331 32.096 126.115 31.76C126.915 31.408 127.803 31.232 128.779 31.232C129.755 31.232 130.635 31.408 131.419 31.76C132.219 32.096 132.899 32.568 133.459 33.176C134.035 33.768 134.475 34.456 134.779 35.24C135.083 36.024 135.235 36.856 135.235 37.736C135.235 38.616 135.083 39.448 134.779 40.232C134.475 41 134.035 41.688 133.459 42.296C132.899 42.904 132.219 43.384 131.419 43.736C130.635 44.072 129.755 44.24 128.779 44.24ZM125.035 37.76C125.035 38.56 125.203 39.28 125.539 39.92C125.875 40.56 126.323 41.064 126.883 41.432C127.443 41.8 128.075 41.984 128.779 41.984C129.467 41.984 130.091 41.8 130.651 41.432C131.227 41.048 131.683 40.536 132.019 39.896C132.355 39.24 132.523 38.52 132.523 37.736C132.523 36.936 132.355 36.216 132.019 35.576C131.683 34.936 131.227 34.432 130.651 34.064C130.091 33.68 129.467 33.488 128.779 33.488C128.075 33.488 127.443 33.68 126.883 34.064C126.323 34.448 125.875 34.96 125.539 35.6C125.203 36.224 125.035 36.944 125.035 37.76ZM150.802 44.12C149.682 44.12 148.634 43.888 147.658 43.424C146.682 42.96 145.826 42.32 145.09 41.504C144.37 40.688 143.802 39.76 143.386 38.72C142.986 37.68 142.786 36.576 142.786 35.408C142.786 34.24 142.986 33.144 143.386 32.12C143.802 31.096 144.37 30.184 145.09 29.384C145.826 28.584 146.682 27.96 147.658 27.512C148.65 27.064 149.73 26.84 150.898 26.84C152.514 26.84 153.874 27.184 154.978 27.872C156.098 28.544 156.938 29.44 157.498 30.56L155.434 32.048C154.986 31.12 154.346 30.424 153.514 29.96C152.698 29.496 151.802 29.264 150.826 29.264C150.026 29.264 149.298 29.432 148.642 29.768C147.986 30.104 147.418 30.568 146.938 31.16C146.474 31.736 146.122 32.4 145.882 33.152C145.642 33.888 145.522 34.664 145.522 35.48C145.522 36.344 145.658 37.152 145.93 37.904C146.202 38.656 146.586 39.32 147.082 39.896C147.578 40.456 148.162 40.896 148.834 41.216C149.506 41.536 150.234 41.696 151.018 41.696C151.946 41.696 152.826 41.464 153.658 41C154.506 40.52 155.298 39.808 156.034 38.864V41.6C154.546 43.28 152.802 44.12 150.802 44.12ZM155.77 37.376H152.194V35.384H158.026V44H155.77V37.376ZM166.444 44.24C165.468 44.24 164.58 44.072 163.78 43.736C162.996 43.384 162.316 42.912 161.74 42.32C161.164 41.712 160.716 41.024 160.396 40.256C160.092 39.472 159.94 38.64 159.94 37.76C159.94 36.576 160.212 35.496 160.756 34.52C161.3 33.528 162.06 32.736 163.036 32.144C164.012 31.536 165.156 31.232 166.468 31.232C167.78 31.232 168.908 31.536 169.852 32.144C170.812 32.736 171.556 33.52 172.084 34.496C172.612 35.472 172.876 36.52 172.876 37.64C172.876 37.832 172.868 38.016 172.852 38.192C172.836 38.352 172.82 38.488 172.804 38.6H162.748C162.796 39.336 162.996 39.984 163.348 40.544C163.716 41.088 164.18 41.52 164.74 41.84C165.3 42.144 165.9 42.296 166.54 42.296C167.244 42.296 167.908 42.12 168.532 41.768C169.172 41.416 169.604 40.952 169.828 40.376L172.084 41.024C171.812 41.632 171.396 42.184 170.836 42.68C170.292 43.16 169.644 43.544 168.892 43.832C168.14 44.104 167.324 44.24 166.444 44.24ZM162.676 36.848H170.26C170.212 36.128 170.004 35.496 169.636 34.952C169.284 34.392 168.828 33.96 168.268 33.656C167.724 33.336 167.116 33.176 166.444 33.176C165.788 33.176 165.18 33.336 164.62 33.656C164.076 33.96 163.628 34.392 163.276 34.952C162.924 35.496 162.724 36.128 162.676 36.848ZM186.285 44H183.645V36.968C183.645 35.8 183.453 34.944 183.069 34.4C182.701 33.856 182.149 33.584 181.413 33.584C180.901 33.584 180.389 33.712 179.877 33.968C179.381 34.224 178.933 34.576 178.533 35.024C178.133 35.456 177.845 35.96 177.669 36.536V44H175.029V31.448H177.429V33.968C177.749 33.408 178.165 32.928 178.677 32.528C179.205 32.112 179.797 31.792 180.453 31.568C181.109 31.344 181.805 31.232 182.541 31.232C183.293 31.232 183.909 31.368 184.389 31.64C184.885 31.912 185.269 32.288 185.541 32.768C185.829 33.232 186.021 33.776 186.117 34.4C186.229 35.008 186.285 35.656 186.285 36.344V44ZM195.038 44.24C194.062 44.24 193.174 44.072 192.374 43.736C191.59 43.384 190.91 42.912 190.334 42.32C189.758 41.712 189.31 41.024 188.99 40.256C188.686 39.472 188.534 38.64 188.534 37.76C188.534 36.576 188.806 35.496 189.35 34.52C189.894 33.528 190.654 32.736 191.63 32.144C192.606 31.536 193.75 31.232 195.062 31.232C196.374 31.232 197.502 31.536 198.446 32.144C199.406 32.736 200.15 33.52 200.678 34.496C201.206 35.472 201.47 36.52 201.47 37.64C201.47 37.832 201.462 38.016 201.446 38.192C201.43 38.352 201.414 38.488 201.398 38.6H191.342C191.39 39.336 191.59 39.984 191.942 40.544C192.31 41.088 192.774 41.52 193.334 41.84C193.894 42.144 194.494 42.296 195.134 42.296C195.838 42.296 196.502 42.12 197.126 41.768C197.766 41.416 198.198 40.952 198.422 40.376L200.678 41.024C200.406 41.632 199.99 42.184 199.43 42.68C198.886 43.16 198.238 43.544 197.486 43.832C196.734 44.104 195.918 44.24 195.038 44.24ZM191.27 36.848H198.854C198.806 36.128 198.598 35.496 198.23 34.952C197.878 34.392 197.422 33.96 196.862 33.656C196.318 33.336 195.71 33.176 195.038 33.176C194.382 33.176 193.774 33.336 193.214 33.656C192.67 33.96 192.222 34.392 191.87 34.952C191.518 35.496 191.318 36.128 191.27 36.848ZM210.679 33.728C209.655 33.744 208.743 33.976 207.943 34.424C207.159 34.872 206.599 35.504 206.263 36.32V44H203.623V31.448H206.071V34.256C206.503 33.392 207.071 32.704 207.775 32.192C208.479 31.664 209.223 31.376 210.007 31.328C210.167 31.328 210.295 31.328 210.391 31.328C210.503 31.328 210.599 31.336 210.679 31.352V33.728ZM211.664 40.328C211.664 39.528 211.888 38.832 212.336 38.24C212.8 37.632 213.432 37.168 214.232 36.848C215.032 36.512 215.96 36.344 217.016 36.344C217.576 36.344 218.144 36.384 218.72 36.464C219.312 36.544 219.832 36.672 220.28 36.848V36.056C220.28 35.176 220.016 34.488 219.488 33.992C218.96 33.496 218.2 33.248 217.208 33.248C216.504 33.248 215.84 33.376 215.216 33.632C214.592 33.872 213.928 34.216 213.224 34.664L212.336 32.888C213.168 32.328 214 31.912 214.832 31.64C215.68 31.368 216.568 31.232 217.496 31.232C219.176 31.232 220.496 31.68 221.456 32.576C222.432 33.456 222.92 34.712 222.92 36.344V41.024C222.92 41.328 222.968 41.544 223.064 41.672C223.176 41.8 223.36 41.872 223.616 41.888V44C223.376 44.048 223.16 44.08 222.968 44.096C222.776 44.112 222.616 44.12 222.488 44.12C221.928 44.12 221.504 43.984 221.216 43.712C220.928 43.44 220.76 43.12 220.712 42.752L220.64 42.032C220.096 42.736 219.4 43.28 218.552 43.664C217.704 44.048 216.848 44.24 215.984 44.24C215.152 44.24 214.408 44.072 213.752 43.736C213.096 43.384 212.584 42.912 212.216 42.32C211.848 41.728 211.664 41.064 211.664 40.328ZM219.656 41.096C219.848 40.888 220 40.68 220.112 40.472C220.224 40.264 220.28 40.08 220.28 39.92V38.48C219.832 38.304 219.36 38.176 218.864 38.096C218.368 38 217.88 37.952 217.4 37.952C216.44 37.952 215.656 38.144 215.048 38.528C214.456 38.912 214.16 39.44 214.16 40.112C214.16 40.48 214.256 40.832 214.448 41.168C214.656 41.504 214.944 41.776 215.312 41.984C215.696 42.192 216.168 42.296 216.728 42.296C217.304 42.296 217.856 42.184 218.384 41.96C218.912 41.736 219.336 41.448 219.656 41.096ZM226.147 26.48H228.787V40.376C228.787 41.016 228.883 41.424 229.075 41.6C229.267 41.776 229.507 41.864 229.795 41.864C230.115 41.864 230.411 41.832 230.683 41.768C230.971 41.704 231.219 41.624 231.427 41.528L231.811 43.616C231.427 43.776 230.971 43.912 230.443 44.024C229.915 44.136 229.443 44.192 229.027 44.192C228.131 44.192 227.427 43.944 226.915 43.448C226.403 42.936 226.147 42.232 226.147 41.336V26.48ZM239.03 44.24C238.054 44.24 237.166 44.072 236.366 43.736C235.582 43.384 234.902 42.912 234.326 42.32C233.75 41.712 233.302 41.024 232.982 40.256C232.678 39.472 232.526 38.64 232.526 37.76C232.526 36.576 232.798 35.496 233.342 34.52C233.886 33.528 234.646 32.736 235.622 32.144C236.598 31.536 237.742 31.232 239.054 31.232C240.366 31.232 241.494 31.536 242.438 32.144C243.398 32.736 244.142 33.52 244.67 34.496C245.198 35.472 245.462 36.52 245.462 37.64C245.462 37.832 245.454 38.016 245.438 38.192C245.422 38.352 245.406 38.488 245.39 38.6H235.334C235.382 39.336 235.582 39.984 235.934 40.544C236.302 41.088 236.766 41.52 237.326 41.84C237.886 42.144 238.486 42.296 239.126 42.296C239.83 42.296 240.494 42.12 241.118 41.768C241.758 41.416 242.19 40.952 242.414 40.376L244.67 41.024C244.398 41.632 243.982 42.184 243.422 42.68C242.878 43.16 242.23 43.544 241.478 43.832C240.726 44.104 239.91 44.24 239.03 44.24ZM235.262 36.848H242.846C242.798 36.128 242.59 35.496 242.222 34.952C241.87 34.392 241.414 33.96 240.854 33.656C240.31 33.336 239.702 33.176 239.03 33.176C238.374 33.176 237.766 33.336 237.206 33.656C236.662 33.96 236.214 34.392 235.862 34.952C235.51 35.496 235.31 36.128 235.262 36.848Z" fill="#555555"/>
</svg>
