<svg width="177" height="72" viewBox="0 0 177 72" fill="none" xmlns="http://www.w3.org/2000/svg">
<rect x="1.5" y="1.5" width="174" height="69" rx="26.5" fill="white"/>
<rect x="1.5" y="1.5" width="174" height="69" rx="26.5" stroke="#CE2B37" stroke-width="3"/>
<path d="M49.9967 19.3334C51.7648 19.3334 53.4605 20.0358 54.7107 21.286C55.961 22.5362 56.6633 24.2319 56.6633 26V41H58.33C59.2467 41 59.9967 40.25 59.9967 39.3334V29.3334C59.9967 28.8913 60.1723 28.4674 60.4848 28.1549C60.7974 27.8423 61.2213 27.6667 61.6633 27.6667C62.1054 27.6667 62.5293 27.8423 62.8418 28.1549C63.1544 28.4674 63.33 28.8913 63.33 29.3334V39.3334C63.33 40.6595 62.8032 41.9312 61.8655 42.8689C60.9279 43.8066 59.6561 44.3334 58.33 44.3334H56.6633V49.3334H59.9967V52.6667H39.9967V49.3334H43.33V39.3334H41.6633C40.3372 39.3334 39.0655 38.8066 38.1278 37.8689C37.1901 36.9312 36.6633 35.6595 36.6633 34.3334V31C36.6633 30.558 36.8389 30.1341 37.1515 29.8215C37.464 29.509 37.888 29.3334 38.33 29.3334C38.772 29.3334 39.1959 29.509 39.5085 29.8215C39.8211 30.1341 39.9967 30.558 39.9967 31V34.3334C39.9967 35.25 40.7467 36 41.6633 36H43.33V26C43.33 24.2319 44.0324 22.5362 45.2826 21.286C46.5329 20.0358 48.2286 19.3334 49.9967 19.3334Z" fill="#555555"/>
<path d="M92.84 26.96H95.384L102.008 44H99.176L97.376 39.368H90.8L89.024 44H86.168L92.84 26.96ZM96.848 37.376L94.112 29.912L91.28 37.376H96.848ZM110.835 33.728C109.811 33.744 108.899 33.976 108.099 34.424C107.315 34.872 106.755 35.504 106.419 36.32V44H103.779V31.448H106.227V34.256C106.659 33.392 107.227 32.704 107.931 32.192C108.635 31.664 109.379 31.376 110.163 31.328C110.323 31.328 110.451 31.328 110.547 31.328C110.659 31.328 110.755 31.336 110.835 31.352V33.728ZM112.756 44V31.448H115.396V44H112.756ZM112.756 29.384V26.48H115.396V29.384H112.756ZM117.776 37.736C117.776 36.536 118.016 35.448 118.496 34.472C118.992 33.48 119.664 32.696 120.512 32.12C121.36 31.528 122.336 31.232 123.44 31.232C124.4 31.232 125.264 31.48 126.032 31.976C126.816 32.472 127.424 33.088 127.856 33.824V26.48H130.496V41.024C130.496 41.328 130.552 41.544 130.664 41.672C130.776 41.8 130.96 41.872 131.216 41.888V44C130.72 44.08 130.336 44.12 130.064 44.12C129.568 44.12 129.144 43.976 128.792 43.688C128.456 43.4 128.28 43.056 128.264 42.656L128.24 41.72C127.76 42.52 127.112 43.144 126.296 43.592C125.48 44.024 124.632 44.24 123.752 44.24C122.888 44.24 122.088 44.072 121.352 43.736C120.632 43.4 120 42.928 119.456 42.32C118.928 41.712 118.512 41.016 118.208 40.232C117.92 39.448 117.776 38.616 117.776 37.736ZM127.856 39.488V36.2C127.68 35.688 127.392 35.232 126.992 34.832C126.608 34.416 126.168 34.088 125.672 33.848C125.192 33.608 124.712 33.488 124.232 33.488C123.672 33.488 123.16 33.608 122.696 33.848C122.248 34.088 121.856 34.408 121.52 34.808C121.2 35.208 120.952 35.664 120.776 36.176C120.6 36.688 120.512 37.224 120.512 37.784C120.512 38.36 120.608 38.904 120.8 39.416C120.992 39.912 121.264 40.36 121.616 40.76C121.984 41.144 122.4 41.448 122.864 41.672C123.344 41.88 123.864 41.984 124.424 41.984C124.776 41.984 125.128 41.92 125.48 41.792C125.848 41.664 126.192 41.488 126.512 41.264C126.848 41.04 127.128 40.776 127.352 40.472C127.592 40.168 127.76 39.84 127.856 39.488ZM139.49 44.24C138.498 44.24 137.61 44.072 136.826 43.736C136.042 43.384 135.362 42.904 134.786 42.296C134.226 41.688 133.794 41 133.49 40.232C133.186 39.448 133.034 38.616 133.034 37.736C133.034 36.856 133.186 36.024 133.49 35.24C133.794 34.456 134.226 33.768 134.786 33.176C135.362 32.568 136.042 32.096 136.826 31.76C137.626 31.408 138.514 31.232 139.49 31.232C140.466 31.232 141.346 31.408 142.13 31.76C142.93 32.096 143.61 32.568 144.17 33.176C144.746 33.768 145.186 34.456 145.49 35.24C145.794 36.024 145.946 36.856 145.946 37.736C145.946 38.616 145.794 39.448 145.49 40.232C145.186 41 144.746 41.688 144.17 42.296C143.61 42.904 142.93 43.384 142.13 43.736C141.346 44.072 140.466 44.24 139.49 44.24ZM135.746 37.76C135.746 38.56 135.914 39.28 136.25 39.92C136.586 40.56 137.034 41.064 137.594 41.432C138.154 41.8 138.786 41.984 139.49 41.984C140.178 41.984 140.802 41.8 141.362 41.432C141.938 41.048 142.394 40.536 142.73 39.896C143.066 39.24 143.234 38.52 143.234 37.736C143.234 36.936 143.066 36.216 142.73 35.576C142.394 34.936 141.938 34.432 141.362 34.064C140.802 33.68 140.178 33.488 139.49 33.488C138.786 33.488 138.154 33.68 137.594 34.064C137.034 34.448 136.586 34.96 136.25 35.6C135.914 36.224 135.746 36.944 135.746 37.76Z" fill="#555555"/>
</svg>
