<svg width="48" height="54" viewBox="0 0 48 54" fill="none" xmlns="http://www.w3.org/2000/svg">
<path d="M22.7441 0.489288C22.2086 0.772876 21.5252 1.14154 21.2364 1.3046C20.9475 1.46767 20.3628 1.7867 19.933 2.01357C19.5103 2.24044 18.9678 2.53112 18.7353 2.65164C18.5028 2.77926 16.3258 3.95615 13.9023 5.26065C11.4716 6.57224 9.351 7.72077 9.18192 7.81294C9.01283 7.9122 8.42807 8.22414 7.88559 8.52191C4.17273 10.5212 0.713498 12.4283 0.452823 12.6127C0.333053 12.6977 0.185102 12.8679 0.11465 12.9884C0.00192538 13.2011 -0.00511989 14.0377 0.00192539 26.8629C0.00897066 41.9569 -0.0262557 40.8367 0.459868 41.1983C0.593728 41.2976 1.11508 41.6024 1.61529 41.8789C2.12255 42.1483 3.67251 43.0062 5.06748 43.7719C6.46244 44.5375 8.50557 45.6648 9.61168 46.2674C10.7178 46.87 11.9084 47.5294 12.2537 47.7208C12.6059 47.9193 13.092 48.1958 13.3457 48.3305C13.7684 48.5574 17.1572 50.422 20.4966 52.2653C23.3218 53.825 23.7656 54.0377 24.0827 53.9952C24.3997 53.9527 24.6111 53.8463 27.084 52.4922C28.0351 51.9746 29.9373 50.9324 31.3111 50.188C40.7518 45.0409 46.4021 41.9427 47.0996 41.5315C47.6773 41.1912 47.9168 40.9218 47.9732 40.5248C47.9943 40.3617 48.0084 34.1511 47.9943 26.7211L47.9732 13.2153L47.8112 12.953C47.6491 12.6906 47.3391 12.4638 46.5289 12.0313C46.2753 11.8895 44.4576 10.897 42.4779 9.81223C37.8914 7.29539 37.5744 7.12524 35.3269 5.9129C34.7633 5.60805 34.1504 5.27483 33.9531 5.16848C33.3543 4.84236 32.6779 4.47369 28.493 2.21917C25.0197 0.354584 24.3927 0.0355481 24.0827 0.00718938C23.7515 -0.0211694 23.66 0.0142791 22.7441 0.489288ZM27.5419 4.28227C28.7466 4.94161 30.1205 5.68603 30.6066 5.94835C32.9386 7.20323 38.1662 10.0391 39.2018 10.6063C39.8429 10.9608 41.259 11.7335 42.3581 12.3291C43.4572 12.9246 44.3378 13.4422 44.3237 13.4847C44.3026 13.5556 43.9222 13.7683 38.8143 16.5758C37.3067 17.4053 35.799 18.2419 35.4678 18.4262C35.1367 18.6105 33.5374 19.4897 31.91 20.3759C30.2825 21.2621 28.2394 22.3823 27.3658 22.8573C24.2095 24.5871 23.984 24.7006 23.822 24.6013C23.7445 24.5517 22.8216 24.0483 21.7718 23.4812C20.7221 22.914 19.3271 22.1554 18.6649 21.7938C18.0096 21.4322 16.6288 20.6878 15.6002 20.1277C13.6979 19.0997 7.46992 15.6754 6.51176 15.1295C6.2229 14.9664 5.43383 14.534 4.76453 14.1724C4.09523 13.8108 3.57388 13.4847 3.60206 13.4563C3.70069 13.3571 8.87897 10.5425 14.9661 7.27412C17.284 6.03343 17.4601 5.93417 18.8058 5.20393C20.5671 4.23974 23.1104 2.87851 23.5965 2.63038L24.0193 2.41768L24.6886 2.75799C25.0549 2.94232 26.3442 3.63002 27.5419 4.28227ZM45.6694 27.579L45.6483 39.7165L43.8517 40.702C42.8654 41.2479 41.4352 42.0278 40.6813 42.439C39.9275 42.8502 39.1525 43.2756 38.9552 43.3819C38.765 43.4883 38.0041 43.9066 37.2644 44.3036C34.5872 45.7641 32.8611 46.707 31.3463 47.5436C30.4939 48.0115 28.9862 48.8339 27.9998 49.3727C27.0135 49.9115 25.9849 50.4716 25.7242 50.6205C25.4565 50.7765 25.2099 50.897 25.1747 50.897C25.1395 50.897 25.1183 46.076 25.1254 38.7949L25.1465 26.6857L26.2033 26.1185C27.4785 25.4308 29.3244 24.417 31.4168 23.2685C32.2693 22.8005 33.9038 21.9002 35.0451 21.2763C36.1865 20.6524 37.6026 19.8796 38.1803 19.5606C38.765 19.2344 39.5682 18.7878 39.9768 18.568C40.935 18.0434 44.8521 15.8739 45.2608 15.6329C45.4369 15.5336 45.5989 15.4485 45.6342 15.4485C45.6623 15.4485 45.6764 20.9076 45.6694 27.579ZM5.15907 17.0012C6.65971 17.8165 8.17444 18.6389 8.51966 18.8374C8.87193 19.0288 9.44259 19.3479 9.78781 19.5393C12.4509 21.0139 19.0876 24.6368 21.2364 25.7924L22.8216 26.6361L22.8427 38.7311C22.8497 45.9271 22.8286 50.8261 22.7934 50.8261C22.7229 50.8261 21.9691 50.4149 15.5649 46.9126C6.23699 41.808 3.3907 40.2341 2.84822 39.8796L2.35505 39.5535V32.7616C2.35505 29.0253 2.33391 23.6159 2.30573 20.7445C2.2705 16.7601 2.28459 15.5194 2.34096 15.5194C2.39027 15.5194 3.65842 16.1859 5.15907 17.0012Z" fill="#E7332D"/>
<path d="M23.5607 5.65785C23.3846 5.72874 22.7082 6.06905 22.046 6.42353C21.3908 6.77093 20.2635 7.37355 19.5449 7.7564C18.8263 8.13924 17.7977 8.68515 17.2552 8.98291C16.7127 9.27359 16.0011 9.65643 15.67 9.83368C15.3389 10.0038 14.7048 10.3512 14.2609 10.5923C13.8171 10.8333 12.7673 11.3934 11.936 11.8401C11.1047 12.2796 10.3015 12.7192 10.1535 12.8113C9.78719 13.0382 9.57583 13.499 9.64628 13.9386C9.73082 14.5341 9.66742 14.4916 14.7893 17.2424C15.3741 17.5544 16.8747 18.3697 18.1358 19.0645C22.8632 21.6522 23.6311 22.0563 23.9059 22.0918C24.2582 22.1414 24.4414 22.0563 27.2242 20.5391C28.4078 19.8939 30.4228 18.8021 31.698 18.1073C35.8688 15.8528 37.8978 14.7256 38.0599 14.5696C38.5883 14.0946 38.5389 13.258 37.9542 12.861C37.4822 12.5278 25.0966 5.91308 24.4484 5.63658C24.1102 5.49478 23.9552 5.49478 23.5607 5.65785ZM22.8562 13.7472C22.8562 17.4409 22.835 18.9227 22.7787 18.9227C22.7364 18.9227 21.2358 18.1286 19.4533 17.1644C17.6638 16.1931 15.522 15.0375 14.7048 14.5979C13.8805 14.1513 13.2041 13.7685 13.2041 13.7472C13.2041 13.7188 13.3239 13.6479 13.4719 13.577C13.8594 13.3927 19.249 10.5285 21.1653 9.48628C22.0741 8.99 22.828 8.5788 22.8421 8.5788C22.8491 8.57171 22.8562 10.8971 22.8562 13.7472ZM26.7663 9.42247C27.1538 9.62808 27.6963 9.91875 27.964 10.0605C29.2885 10.7695 31.9093 12.1733 32.473 12.471C34.0793 13.3218 34.5936 13.6054 34.7063 13.6905C34.812 13.7685 34.6288 13.889 33.1986 14.6688C32.3039 15.158 30.1551 16.3278 28.429 17.2708C26.7029 18.2208 25.2445 18.9936 25.2022 18.9936C25.1318 18.9936 25.1107 17.9159 25.1107 13.8323C25.1107 10.9893 25.1318 8.64261 25.1529 8.62134C25.1811 8.59298 25.3925 8.68515 25.632 8.81276C25.8645 8.94038 26.3788 9.21687 26.7663 9.42247Z" fill="#E7332D"/>
<path d="M41.7231 20.4824C41.4554 20.5604 39.4968 21.6239 33.2476 25.0695C32.0499 25.7359 30.507 26.5725 29.8307 26.934C28.02 27.8912 27.865 27.9975 27.71 28.2953C27.5832 28.5505 27.5762 28.8341 27.5762 36.6966C27.5762 42.0634 27.6044 44.9277 27.6466 45.0978C27.8087 45.665 28.4568 46.0337 29.0064 45.8635C29.1543 45.821 29.5841 45.6154 29.9575 45.4098C30.3309 45.1971 31.4018 44.6157 32.3317 44.1053C33.2617 43.6019 35.0371 42.6306 36.2771 41.95C37.5171 41.2694 39.4545 40.2059 40.5747 39.5962C41.7019 38.9794 42.6953 38.4052 42.7869 38.3272C43.1603 37.9798 43.1462 38.3414 43.1462 29.5218C43.1462 20.7022 43.1603 21.0567 42.7869 20.7235C42.6108 20.5675 42.2163 20.4044 42.026 20.4186C41.9626 20.4186 41.8288 20.447 41.7231 20.4824ZM40.8213 29.5289V35.5268L40.6311 35.3991C40.5183 35.3282 39.8349 34.8958 39.0952 34.442C38.3625 33.9883 37.2493 33.3006 36.6293 32.9107C33.7831 31.1382 31.5849 29.7699 31.1552 29.5147C30.8945 29.3658 30.6761 29.2027 30.6831 29.1673C30.6831 29.1248 31.2045 28.8057 31.8527 28.4583C32.4938 28.1038 34.7483 26.8561 36.8689 25.6792C38.9825 24.4952 40.7367 23.531 40.772 23.531C40.8002 23.531 40.8213 26.2322 40.8213 29.5289ZM30.6056 31.8118C31.8315 32.5916 36.9605 35.7962 38.2709 36.6044C39.0107 37.0581 39.6236 37.4481 39.6236 37.4622C39.6236 37.4764 39.0741 37.7884 38.4118 38.157C36.3123 39.3126 31.7188 41.8295 31.1693 42.1273C30.8804 42.2832 30.4718 42.503 30.2745 42.6164L29.9011 42.822V37.1078C29.9011 33.9599 29.9293 31.4006 29.9575 31.4147C29.9857 31.4218 30.2816 31.6062 30.6056 31.8118Z" fill="#E7332D"/>
<path d="M5.70139 20.4826C5.37026 20.5535 5.17299 20.7094 5.01095 21.0143L4.85596 21.2979L4.83482 29.4723L4.80664 37.6396L4.96164 37.9658C5.13072 38.3061 5.26458 38.4124 6.19456 38.9158C6.50455 39.0859 7.37817 39.5538 8.13201 39.965C9.47766 40.6953 10.2033 41.0923 14.6841 43.5595C19.031 45.9487 19.0029 45.9346 19.3481 45.9346C19.7004 45.9346 20.0315 45.7502 20.2781 45.417L20.426 45.2114L20.419 36.9803C20.419 30.7414 20.3978 28.6783 20.3344 28.4868C20.2851 28.345 20.1583 28.1465 20.0526 28.0473C19.9399 27.9409 17.8756 26.7782 15.452 25.4595C13.0355 24.1409 10.1188 22.5457 8.97744 21.9218C6.08888 20.3408 6.15933 20.3762 5.70139 20.4826ZM9.68197 24.8924C11.7603 26.0338 14.3882 27.473 16.1848 28.4443C16.8329 28.7988 17.3543 29.1178 17.3402 29.1604C17.3261 29.2029 16.7977 29.5574 16.1566 29.9544C15.5225 30.3443 13.5921 31.5354 11.866 32.5989C10.1399 33.6623 8.42791 34.7187 8.06156 34.9455C7.6952 35.1724 7.34998 35.3709 7.30067 35.3851C7.23021 35.3993 7.20908 34.3004 7.20908 29.5219C7.20908 26.2819 7.20908 23.6091 7.20908 23.5808C7.21612 23.5453 7.34998 23.595 7.51907 23.6942C7.68111 23.7864 8.65336 24.3323 9.68197 24.8924ZM18.1363 37.1079C18.1363 41.383 18.1152 42.7442 18.0518 42.7442C18.0095 42.7442 17.3472 42.3968 16.5934 41.9714C15.4098 41.3121 11.0135 38.9016 9.03381 37.824C8.68859 37.6396 8.41382 37.4695 8.41382 37.4411C8.41382 37.4128 9.21698 36.9094 10.1963 36.3139C12.3733 34.9952 15.7268 32.9179 17.0091 32.0955C17.5304 31.7552 18.0024 31.4787 18.0518 31.4787C18.1152 31.4716 18.1363 32.6414 18.1363 37.1079Z" fill="#E7332D"/>
</svg>
