<svg width="48" height="44" viewBox="0 0 48 44" fill="none" xmlns="http://www.w3.org/2000/svg">
<path d="M0.457844 0.116751C0.343383 0.174485 0.20603 0.324592 0.13163 0.468926L0 0.71718V21.9978V43.2783L0.13163 43.5093C0.211753 43.6594 0.343383 43.7864 0.515074 43.8672L0.766889 44H23.991C43.3693 44 47.2495 43.9885 47.404 43.9192C47.6558 43.8153 47.9477 43.4689 47.9878 43.2264C48.0336 42.9954 47.9477 42.6894 47.7817 42.4701C47.5357 42.1583 47.4956 42.1525 45.4124 42.1525C43.9187 42.1525 43.4952 42.1352 43.4952 42.0775C43.5009 42.0428 43.4895 36.0212 43.478 28.7006C43.4608 19.3593 43.4379 15.3584 43.3922 15.2776C43.2548 15.0178 43.003 14.8446 42.6768 14.7868C42.4708 14.7464 41.2174 14.7291 39.1628 14.7407C36.0724 14.758 35.9636 14.7637 35.7691 14.8734C35.6603 14.9427 35.523 15.0813 35.46 15.1852C35.3513 15.3757 35.3456 15.5951 35.3284 28.6948C35.3169 36.0155 35.294 42.0428 35.2826 42.0832C35.2597 42.141 35.0193 42.1525 34.2124 42.141L33.1651 42.1237L33.1365 34.3585C33.1021 25.7331 33.1307 26.3855 32.7244 26.0911L32.5355 25.9583L29.0674 25.941L25.6049 25.9294L25.4103 26.0564C25.3073 26.1315 25.1643 26.2643 25.1013 26.3509L24.9811 26.5125L24.9525 34.3181L24.9239 42.1237H23.8365H22.7491L22.7205 31.7316C22.6919 21.8361 22.6862 21.328 22.5889 21.1779C22.5316 21.0856 22.4057 20.9643 22.3027 20.9066C22.1253 20.7969 21.988 20.7911 18.6972 20.7911C14.9028 20.7911 15.086 20.7738 14.7826 21.1779L14.6224 21.3858L14.5938 31.7547L14.5652 42.1237H13.4778H12.3904L12.3618 36.281C12.3332 30.4557 12.3332 30.4384 12.213 30.2767C11.9383 29.9072 12.1043 29.9188 8.32131 29.9072C4.48115 29.8957 4.69862 29.8726 4.40675 30.3056L4.26367 30.5134L4.25223 36.2868C4.24078 39.4679 4.23506 42.0832 4.23506 42.1121C4.23506 42.1352 3.70281 42.1468 3.05039 42.141L1.85999 42.1237V21.3973V0.670993L1.73981 0.468926C1.48799 0.0301512 0.909965 -0.131503 0.457844 0.116751ZM40.7367 16.617L41.6066 16.6516L41.5951 29.3876L41.578 42.1237H39.4032H37.2284L37.2113 29.4223C37.2055 22.4365 37.2113 16.6863 37.2284 16.6459C37.2571 16.565 39.2143 16.5477 40.7367 16.617ZM20.8605 32.3667V42.1237L18.6743 42.141L16.4824 42.1525V32.4071C16.4824 27.0437 16.4996 22.6386 16.5224 22.6213C16.5453 22.5982 17.5297 22.5866 18.7087 22.5924L20.8605 22.6097V32.3667ZM31.2479 34.9358V42.089L31.0075 42.1237C30.8701 42.141 29.8858 42.1525 28.8156 42.141L26.8697 42.1237L26.8525 34.9936C26.8468 31.0735 26.8525 27.8346 26.864 27.8057C26.8754 27.7711 27.6481 27.7538 29.0674 27.7653L31.2479 27.7769V34.9358ZM10.4617 36.9392L10.4732 42.1525H8.29842H6.12366V36.9681C6.12366 34.116 6.13511 31.7663 6.14656 31.7547C6.16372 31.7374 7.13664 31.7316 8.30987 31.7316H10.4446L10.4617 36.9392Z" fill="#E7332D"/>
<path d="M38.7169 2.96303C38.5624 2.9919 38.2133 3.11891 37.9557 3.24593C37.103 3.66161 36.4735 4.4641 36.2503 5.41093C36.1244 5.94786 36.1644 6.78499 36.3418 7.24109C36.4105 7.42006 36.4563 7.59326 36.4449 7.62213C36.4334 7.65099 35.8096 8.26297 35.0542 8.99041C34.2987 9.71208 33.0168 10.9534 32.2041 11.7443C31.1281 12.7951 30.7046 13.1761 30.6302 13.153C30.5787 13.1357 30.367 13.0491 30.161 12.9625C29.8634 12.8355 29.6745 12.8008 29.2166 12.7777C28.2552 12.7373 27.5455 13.0029 26.8416 13.6726L26.4696 14.0248L26.1548 13.892C25.7599 13.7303 22.8927 12.5988 22.3204 12.3794L21.8911 12.2177L21.8511 11.7905C21.7481 10.607 21.0842 9.58507 20.0884 9.07124C19.5332 8.78834 18.5661 8.70174 17.8907 8.87495C16.769 9.16361 15.9792 9.9257 15.5901 11.0919C15.4527 11.5076 15.4527 12.5064 15.5901 12.8759C15.6416 13.0144 15.6816 13.1472 15.6816 13.1703C15.6816 13.1934 15.2066 13.6437 14.6229 14.1691C13.2665 15.4046 10.3821 18.0026 10.1417 18.2047L9.95859 18.3548L9.64954 18.1874C8.83687 17.7428 7.76094 17.7486 6.8338 18.2047C6.30156 18.4587 5.64913 19.1169 5.39732 19.6422C4.80784 20.8777 5.00243 22.3095 5.90094 23.291C7.17146 24.6882 9.35194 24.6882 10.6454 23.291C11.0174 22.8926 11.2863 22.3904 11.4237 21.8303C11.5439 21.3454 11.5038 20.5544 11.3378 20.0695L11.2119 19.7231L11.458 19.521C11.5954 19.4113 11.8472 19.1862 12.0189 19.0245C12.1906 18.8628 13.0548 18.0834 13.9361 17.2983C14.8175 16.5073 15.8304 15.5894 16.1853 15.2603L16.832 14.6541L17.2154 14.833C18.5317 15.445 19.8308 15.2603 20.8438 14.325C21.0556 14.1345 21.2444 13.9786 21.2673 13.9786C21.2959 13.9786 21.9999 14.2499 22.8354 14.5848C23.671 14.9139 24.6725 15.3122 25.0674 15.4623L25.7828 15.7452L25.8515 16.2129C25.9717 17.0962 26.1834 17.5985 26.6642 18.1469C27.2079 18.7647 28.1636 19.1919 29.0163 19.1919C29.9549 19.1919 30.676 18.8859 31.3399 18.222C31.9752 17.5754 32.2441 16.9115 32.2441 15.9704C32.2441 15.5143 32.2155 15.3065 32.1068 14.9658L31.9637 14.5444L32.7363 13.7823C34.1156 12.4313 37.6066 9.04237 37.6868 8.99041C37.7325 8.95577 37.8642 8.97887 38.0645 9.07124C38.7627 9.37145 39.541 9.44651 40.2049 9.27331C40.8974 9.08856 41.607 8.5805 42.0306 7.95698C42.8776 6.72149 42.7059 4.93175 41.6414 3.8579C40.8688 3.0785 39.8043 2.75519 38.7169 2.96303ZM39.9989 4.89133C41.2522 5.5264 40.7887 7.52975 39.3865 7.52975C38.0874 7.52975 37.475 6.00559 38.4136 5.10495C38.8256 4.70659 39.4552 4.61999 39.9989 4.89133ZM19.3844 10.7802C19.6534 10.936 19.8652 11.2189 19.9739 11.5769C20.0598 11.8482 20.0197 12.3909 19.8995 12.6276C19.4245 13.5571 18.0395 13.586 17.4901 12.6854C17.3413 12.4429 17.3184 12.3505 17.3184 11.9926C17.3127 11.3113 17.6561 10.8379 18.3142 10.6243C18.5661 10.5377 19.1155 10.6185 19.3844 10.7802ZM29.6859 14.7407C30.161 14.9832 30.4128 15.4162 30.4128 15.9993C30.407 17.4657 28.4727 17.9102 27.8374 16.5939C27.2308 15.3469 28.4555 14.1229 29.6859 14.7407ZM8.77392 19.7808C9.40917 20.0464 9.75256 20.7161 9.6152 21.4031C9.46068 22.1594 8.68807 22.6617 7.98413 22.4712C6.87386 22.171 6.51903 20.8489 7.33743 20.0579C7.68654 19.7173 8.33324 19.5961 8.77392 19.7808Z" fill="#E7332D"/>
</svg>
