<svg width="48" height="47" viewBox="0 0 48 47" fill="none" xmlns="http://www.w3.org/2000/svg">
<path d="M36.9181 0.0326553C36.7052 0.0907024 36.4407 0.309992 36.331 0.516381C36.273 0.619576 36.073 1.2065 35.8795 1.81277C34.9828 4.61193 34.1636 7.04346 34.0474 7.2692C33.7572 7.84322 33.5185 7.95286 29.7577 9.2041C28.4094 9.65558 27.1967 10.0813 27.0548 10.1458C26.4742 10.4231 26.2936 11.2358 26.7 11.7517C26.9128 12.0291 26.8612 12.0033 30.435 13.2416C33.4024 14.2671 33.6088 14.3574 33.8346 14.6863C34.041 14.9959 34.3248 15.757 35.3634 18.8464C35.8795 20.375 36.3504 21.6907 36.4213 21.781C36.4859 21.8713 36.6407 22.0196 36.7632 22.097C36.9439 22.226 37.0406 22.2454 37.3245 22.226C37.9631 22.1744 38.1179 21.9487 38.6211 20.3685C39.6919 16.9695 40.2209 15.428 40.4918 14.8992C40.724 14.4477 40.866 14.3703 43.0141 13.635C44.659 13.0675 47.4845 12.042 47.6135 11.9581C48.0199 11.713 48.1296 10.9584 47.8264 10.5005C47.7361 10.3586 47.549 10.1909 47.4135 10.12C47.2845 10.0555 46.433 9.75877 45.5299 9.47499C42.5496 8.52044 41.0208 7.93996 40.7111 7.64973C40.3692 7.33369 40.1306 6.69518 38.821 2.64478C38.2856 0.980758 38.1373 0.593778 37.9631 0.400287C37.6599 0.0520043 37.3245 -0.06409 36.9181 0.0326553ZM37.4664 5.22465C37.7954 6.28885 38.2985 7.59168 38.5824 8.1399C38.7243 8.41724 39.0017 8.82357 39.2016 9.02996C39.4919 9.35244 39.679 9.47499 40.266 9.75877C40.8789 10.049 42.5496 10.6811 43.4527 10.9649C43.6011 11.01 43.7237 11.0745 43.7237 11.1068C43.7301 11.139 42.9883 11.4357 42.0852 11.7646C40.3047 12.4096 39.75 12.6547 39.3758 12.9578C38.7888 13.448 38.3566 14.3574 37.5631 16.7889C37.4148 17.2469 37.2664 17.6274 37.2341 17.6403C37.2019 17.6467 37.0471 17.2598 36.8923 16.7696C36.2923 14.8734 35.8214 13.7705 35.3892 13.2481C35.2731 13.1062 35.0151 12.8869 34.8022 12.7514C34.3958 12.487 32.9895 11.913 31.5832 11.4292C31.093 11.268 30.693 11.1132 30.693 11.0874C30.693 11.0681 31.0091 10.9455 31.3897 10.8294C32.5831 10.4424 34.1055 9.86842 34.57 9.62333C35.1376 9.3202 35.6472 8.78487 35.9504 8.1528C36.1569 7.71423 37.0084 5.25045 37.1116 4.77317C37.1309 4.66353 37.1761 4.56678 37.2019 4.56678C37.2341 4.56678 37.3503 4.86347 37.4664 5.22465Z" fill="#E7332D"/>
<path d="M15.534 6.57899C15.076 6.81118 15.1598 6.59834 13.3085 12.1451C11.9602 16.2019 11.7409 16.7501 11.1539 17.5305C10.4766 18.4335 10.0508 18.6205 4.0838 20.6199C0.381033 21.8647 0.581008 21.7873 0.342328 22.0131C0.0907464 22.2453 -0.0447207 22.6516 0.0133367 22.9741C0.0584924 23.2192 0.303623 23.5481 0.5165 23.6642C0.587459 23.7029 2.1163 24.2253 3.91608 24.8316C9.94759 26.8503 10.4766 27.0825 11.1732 28.0048C11.6829 28.6756 12.2634 30.2106 13.9858 35.4478C14.5277 37.086 15.0308 38.5178 15.1082 38.6339C15.3211 38.9435 15.6308 39.0854 16.0372 39.0531C16.4113 39.0273 16.6629 38.879 16.8371 38.5823C16.8951 38.4791 17.5079 36.7248 18.1982 34.6867C19.9786 29.4109 20.3011 28.5853 20.8237 27.9597C21.5849 27.0374 21.888 26.9019 27.6938 24.9541C29.6097 24.3092 31.2933 23.7093 31.4417 23.6255C32.0674 23.2579 32.0803 22.3614 31.4611 21.9034C31.3772 21.8389 30.029 21.3552 28.4679 20.8263C21.7203 18.5496 21.2881 18.3561 20.5656 17.2468C20.1528 16.6082 19.856 15.8665 19.0755 13.4802C17.4757 8.61709 16.9983 7.23041 16.85 6.97242C16.6887 6.68864 16.2758 6.4371 15.9791 6.4371C15.8888 6.4371 15.6888 6.5016 15.534 6.57899ZM16.85 13.4479C18.0305 17.021 18.4046 17.9175 19.0819 18.8334C19.9657 20.033 21.3204 20.6909 26.2423 22.2969C26.9713 22.5355 27.5648 22.7548 27.5648 22.7806C27.5648 22.8064 27.1455 22.9612 26.6294 23.1224C23.8297 23.9867 21.5462 24.838 20.6495 25.3411C19.9657 25.7281 19.0819 26.6117 18.7013 27.2889C18.2691 28.0564 17.6047 29.7591 16.7855 32.2036C15.9146 34.7963 15.992 34.5835 15.9533 34.5448C15.9404 34.5319 15.5663 33.4613 15.1276 32.1713C14.2051 29.4689 13.8955 28.6433 13.4955 27.792C12.8053 26.3215 11.9925 25.5926 10.2121 24.838C9.30896 24.4575 7.16084 23.7029 5.58039 23.2063C4.90305 22.9934 4.33538 22.8064 4.32248 22.787C4.28378 22.7483 4.11605 22.8064 6.43835 22.0389C10.1605 20.807 11.2507 20.3491 12.0828 19.6783C13.2311 18.7431 13.7471 17.6531 15.3792 12.6739C15.6888 11.7258 15.9598 10.9519 15.9856 10.9519C16.0049 10.9519 16.392 12.0741 16.85 13.4479Z" fill="#E7332D"/>
<path d="M33.7383 26.8634C33.4028 27.0246 33.2996 27.2117 32.9835 28.2243C31.8546 31.7781 31.2611 33.4743 31.0741 33.6872C30.8225 33.971 30.816 33.9774 26.565 35.4286C25.7393 35.7124 25.0232 35.9962 24.8942 36.0864C24.3781 36.4799 24.3717 37.3506 24.8877 37.7182C24.9845 37.7827 25.6554 38.0407 26.3779 38.2922C29.7001 39.4209 30.687 39.795 30.958 40.0208C31.1966 40.2207 31.3192 40.5045 31.7256 41.7944C32.2223 43.3617 33.0738 45.9674 33.1899 46.264C33.3125 46.5865 33.4351 46.7284 33.7383 46.8832C34.1705 47.1025 34.5769 47.0122 34.9123 46.6188C35.0349 46.4704 35.3316 45.6449 35.9896 43.6326C36.4928 42.0976 36.9701 40.698 37.0475 40.5238C37.2927 39.9692 37.4991 39.8466 39.4408 39.1758C39.8988 39.0211 40.9116 38.6663 41.6921 38.4019C42.4727 38.131 43.2145 37.8343 43.3435 37.7505C43.7951 37.4538 43.9112 36.7443 43.5887 36.2928C43.4016 36.0284 43.1048 35.8994 41.2083 35.2415C38.0474 34.158 37.5507 33.9516 37.2733 33.6549C37.1249 33.5001 36.8927 32.8681 36.0864 30.3978C35.022 27.173 34.9575 27.0246 34.5188 26.8441C34.2479 26.728 34.0027 26.7344 33.7383 26.8634ZM34.6607 32.7326C35.3574 34.9126 35.6154 35.2996 36.654 35.7898C37.1572 36.022 39.2731 36.8153 39.3956 36.8153C39.4343 36.8153 39.473 36.8411 39.4924 36.8733C39.5182 36.9056 39.2473 37.0281 38.9054 37.1442C37.9635 37.4538 36.854 37.8859 36.4347 38.1116C35.9702 38.3567 35.5251 38.8082 35.2929 39.2726C35.1897 39.4725 34.9059 40.2529 34.6607 40.9947C34.4091 41.7428 34.1898 42.3555 34.1705 42.362C34.1447 42.362 33.9447 41.8009 33.7254 41.1172C33.506 40.44 33.2545 39.7047 33.1641 39.4919C32.7255 38.4535 32.1836 38.0858 29.8807 37.3054C29.3388 37.1248 28.8937 36.9507 28.8937 36.9185C28.8872 36.8862 29.2356 36.7379 29.6742 36.5895C32.8287 35.4995 32.8739 35.4544 33.7963 32.5133C33.9898 31.9006 34.164 31.3975 34.1898 31.3975C34.2092 31.3975 34.422 31.9974 34.6607 32.7326Z" fill="#E7332D"/>
</svg>
