<?xml version="1.0" standalone="no"?>
<!DOCTYPE svg PUBLIC "-//W3C//DTD SVG 20010904//EN"
 "http://www.w3.org/TR/2001/REC-SVG-20010904/DTD/svg10.dtd">
<svg version="1.0" xmlns="http://www.w3.org/2000/svg"
 width="5632.000000pt" height="3072.000000pt" viewBox="0 0 5632.000000 3072.000000"
 preserveAspectRatio="xMidYMid meet">

<g transform="translate(0.000000,3072.000000) scale(0.100000,-0.100000)"
fill="#000000" stroke="none">
<path d="M36280 28959 c-198 -25 -363 -155 -437 -345 -25 -65 -27 -83 -34
-294 -3 -124 -7 -226 -8 -227 0 -2 -69 -3 -152 -3 -178 0 -225 -10 -270 -56
-26 -27 -33 -43 -37 -87 -5 -59 10 -97 50 -133 40 -36 84 -44 249 -44 l159 0
0 -394 0 -394 -172 -4 c-153 -3 -177 -5 -208 -24 -115 -67 -104 -228 19 -280
24 -10 79 -14 197 -14 l164 0 0 -395 0 -395 -162 0 c-137 0 -169 -3 -203 -19
-65 -30 -88 -62 -92 -129 -5 -71 17 -111 79 -144 38 -20 61 -23 213 -28 l170
-5 0 -385 c0 -212 -2 -391 -4 -397 -2 -10 -44 -13 -164 -13 -142 0 -166 -2
-204 -21 -72 -35 -103 -95 -89 -172 7 -37 56 -93 96 -110 14 -6 102 -13 195
-16 l170 -6 0 -50 c-1 -27 -2 -202 -3 -387 l-2 -338 -163 0 c-149 0 -166 -2
-207 -22 -62 -32 -85 -68 -85 -132 1 -65 31 -117 83 -142 30 -16 68 -20 207
-24 l170 -5 0 -72 c0 -40 -2 -219 -3 -397 l-2 -323 -172 -5 c-187 -5 -216 -12
-257 -64 -48 -62 -32 -181 32 -226 30 -21 45 -23 217 -28 l185 -5 6 -205 c7
-222 11 -247 67 -355 73 -142 205 -244 370 -286 74 -19 149 -19 3560 -19
l3486 0 43 21 c23 11 53 35 65 52 l23 32 3 2571 2 2571 -23 34 c-48 72 -141
88 -215 35 -20 -14 -324 -312 -674 -663 l-638 -636 -2 1589 -3 1589 -26 66
c-37 96 -70 147 -134 211 -60 59 -135 104 -225 135 -53 17 -155 18 -2600 19
-1400 1 -2574 -2 -2610 -7z m5145 -338 c43 -19 99 -76 118 -120 16 -35 21
-1095 12 -2447 l-7 -1022 -1682 -1686 -1681 -1686 -935 2 -935 3 -41 22 c-60
32 -111 94 -129 156 -12 41 -15 91 -13 208 l3 154 200 5 c189 5 202 6 233 28
81 58 91 172 20 239 -51 48 -85 54 -278 52 l-175 -1 0 399 0 398 195 5 c205 5
216 8 261 57 65 69 53 180 -23 235 -31 22 -44 23 -233 28 l-200 5 -3 387 -2
386 199 4 c184 3 202 5 228 24 96 71 99 207 5 270 -23 16 -54 20 -227 24
l-200 5 -3 397 -2 396 192 4 c215 3 240 10 285 78 46 66 21 174 -48 215 -30
18 -57 21 -229 25 l-195 5 -3 392 -2 391 192 4 c173 3 197 5 228 24 108 63
108 214 0 271 -40 22 -55 23 -232 23 l-188 0 0 394 0 393 193 5 c170 4 198 7
228 24 107 63 107 218 -1 275 -30 17 -59 19 -227 19 l-193 0 0 188 c0 176 2
190 24 238 25 53 74 99 123 114 15 4 1171 9 2568 9 2436 1 2542 0 2580 -18z
m1675 -2810 l0 -308 -83 -5 c-98 -5 -150 -27 -185 -79 -20 -28 -23 -44 -20
-92 4 -46 10 -63 34 -88 42 -45 82 -59 174 -59 l80 0 0 -224 0 -224 -99 -4
c-82 -2 -105 -7 -127 -24 -97 -72 -97 -198 -1 -262 34 -22 53 -27 133 -30 l94
-4 0 -229 0 -229 -78 0 c-135 0 -212 -59 -212 -163 0 -63 25 -105 81 -136 35
-20 56 -24 126 -24 l83 0 0 -227 0 -227 -93 -5 c-104 -6 -139 -20 -174 -71
-33 -49 -38 -98 -15 -148 35 -79 90 -108 210 -109 l72 0 -2 -222 -3 -223 -100
-5 c-82 -4 -106 -9 -131 -27 -64 -45 -82 -134 -42 -205 35 -62 76 -82 185 -86
l93 -4 0 -204 0 -204 -216 2 -215 3 -3 97 c-3 69 -8 105 -20 122 -61 94 -167
108 -251 35 -42 -37 -55 -80 -55 -182 l0 -77 -217 2 -218 3 -5 95 c-6 99 -19
137 -62 177 -45 42 -136 46 -193 9 -48 -32 -60 -63 -65 -175 l-5 -106 -216 -3
-216 -2 -5 97 c-7 134 -36 186 -122 213 -65 21 -151 -17 -189 -85 -6 -11 -14
-65 -17 -120 l-5 -100 -220 0 -220 0 -5 105 c-4 88 -9 110 -27 136 -65 91
-217 80 -270 -19 -11 -21 -18 -64 -21 -129 l-4 -98 -213 0 -213 0 -4 98 c-3
74 -8 106 -23 131 -56 95 -175 113 -251 37 -40 -40 -54 -89 -54 -188 l0 -78
-311 0 c-184 0 -309 4 -307 9 2 8 4428 4447 4436 4450 1 1 2 -138 2 -308z"/>
<path d="M38680 27733 c-112 -39 -136 -74 -180 -268 -17 -77 -34 -147 -36
-156 -4 -14 -158 -89 -182 -89 -6 0 -51 27 -102 60 -189 125 -243 140 -332 97
-70 -35 -397 -349 -427 -409 -49 -104 -35 -169 73 -341 l68 -108 -39 -92 c-44
-105 -24 -92 -227 -143 -60 -15 -122 -37 -139 -49 -38 -25 -73 -75 -87 -124
-13 -49 -13 -515 1 -565 6 -21 29 -58 51 -82 42 -46 80 -61 302 -120 l69 -19
34 -80 c18 -44 33 -84 33 -89 0 -5 -29 -55 -65 -111 -84 -131 -98 -167 -98
-241 -1 -45 5 -69 21 -96 13 -20 99 -112 192 -205 195 -193 240 -223 332 -223
68 0 102 15 230 101 48 33 95 59 104 59 38 0 176 -63 184 -84 4 -12 22 -79 40
-151 38 -152 58 -195 102 -228 55 -41 98 -47 358 -47 261 0 303 6 359 47 42
33 61 76 106 243 19 74 39 141 43 148 4 8 45 29 91 48 l83 33 98 -64 c150 -97
176 -109 245 -109 42 0 72 6 100 21 22 12 126 108 231 215 174 176 192 197
203 242 21 87 0 152 -105 314 -30 45 -54 86 -54 91 0 8 68 163 75 169 2 2 69
21 149 41 172 45 213 68 250 142 l26 53 0 256 c0 401 -9 416 -281 480 -74 17
-138 35 -143 40 -5 5 -24 48 -43 96 l-33 87 59 96 c93 152 104 178 104 246 0
37 -6 73 -17 95 -23 45 -357 373 -416 408 -34 20 -58 27 -101 27 -53 0 -64 -5
-203 -89 l-147 -89 -90 39 -91 39 -42 167 c-23 94 -50 179 -62 195 -11 15 -44
40 -74 56 l-54 27 -265 -1 c-146 0 -273 -3 -281 -6z m419 -316 c6 -8 24 -73
41 -146 50 -214 59 -227 180 -266 30 -10 112 -42 181 -71 182 -78 182 -78 373
59 43 31 86 57 95 57 9 0 61 -45 116 -100 l99 -99 -64 -103 c-109 -176 -123
-205 -116 -241 3 -18 20 -61 37 -97 17 -36 50 -118 74 -183 24 -65 51 -127 60
-137 22 -24 58 -36 225 -74 l135 -31 3 -148 c3 -174 23 -152 -181 -197 -76
-17 -146 -34 -155 -39 -33 -18 -51 -48 -82 -136 -18 -50 -49 -127 -70 -172
-21 -45 -41 -95 -44 -110 -9 -41 12 -92 97 -233 l76 -125 -102 -102 c-56 -57
-105 -103 -110 -103 -4 0 -58 32 -118 71 -122 78 -165 99 -205 99 -15 0 -75
-22 -133 -49 -58 -27 -136 -58 -173 -70 -85 -28 -129 -57 -150 -101 -9 -19
-29 -89 -43 -155 -39 -182 -20 -165 -184 -165 -124 0 -141 2 -149 18 -5 9 -22
73 -37 142 -32 146 -48 191 -75 208 -11 6 -66 29 -122 51 -57 21 -141 57 -187
80 -126 61 -140 59 -321 -62 -83 -56 -118 -74 -129 -67 -9 4 -58 51 -108 103
l-92 95 85 146 c47 80 88 161 91 180 4 27 -4 55 -40 133 -25 54 -58 132 -73
173 -39 111 -52 136 -80 148 -13 7 -93 26 -177 43 -83 17 -158 36 -164 41 -9
8 -13 50 -13 148 0 98 4 140 13 148 6 5 66 22 132 37 234 53 237 55 281 188
15 45 45 123 66 172 61 138 61 141 34 199 -13 28 -53 98 -90 155 -36 57 -66
109 -66 115 0 18 194 206 212 206 17 0 39 -14 168 -106 113 -80 145 -81 296
-11 55 25 131 55 169 67 141 45 148 55 191 269 24 118 32 145 49 152 35 14
261 11 274 -4z"/>
<path d="M38796 26623 c-316 -67 -568 -318 -632 -630 -20 -94 -14 -276 11
-368 75 -278 309 -505 595 -576 113 -29 318 -23 425 11 267 85 478 300 546
556 30 112 30 307 0 418 -70 260 -263 472 -508 557 -145 50 -301 62 -437 32z
m367 -346 c93 -46 155 -100 205 -180 98 -157 107 -326 24 -495 -95 -194 -332
-301 -546 -246 -222 57 -375 251 -376 474 0 213 132 395 340 468 56 19 80 22
172 19 99 -3 112 -6 181 -40z"/>
<path d="M42255 24391 c-55 -34 -1799 -1788 -1823 -1833 -45 -82 -16 -185 62
-222 31 -14 127 -16 964 -16 l929 0 34 23 c73 49 69 -15 69 1017 0 888 -1 927
-19 967 -34 74 -147 108 -216 64z m-85 -1146 l0 -605 -605 0 c-333 0 -605 3
-605 8 -1 8 1192 1199 1203 1201 4 0 7 -271 7 -604z"/>
<path d="M16184 28890 c-76 -40 -173 -92 -214 -115 -41 -23 -124 -68 -185
-100 -60 -32 -137 -73 -170 -90 -33 -18 -342 -184 -686 -368 -345 -185 -646
-347 -670 -360 -24 -14 -107 -58 -184 -100 -527 -282 -1018 -551 -1055 -577
-17 -12 -38 -36 -48 -53 -16 -30 -17 -148 -16 -1957 1 -2129 -4 -1971 65
-2022 19 -14 93 -57 164 -96 72 -38 292 -159 490 -267 198 -108 488 -267 645
-352 157 -85 326 -178 375 -205 50 -28 119 -67 155 -86 60 -32 541 -295 1015
-555 401 -220 464 -250 509 -244 45 6 75 21 426 212 135 73 405 220 600 325
1340 726 2142 1163 2241 1221 82 48 116 86 124 142 3 23 5 899 3 1947 l-3
1905 -23 37 c-23 37 -67 69 -182 130 -36 20 -294 160 -575 313 -651 355 -696
379 -1015 550 -80 43 -167 90 -195 105 -85 46 -181 98 -775 416 -493 263 -582
308 -626 312 -47 4 -60 -1 -190 -68z m681 -535 c171 -93 366 -198 435 -235
331 -177 1073 -577 1220 -657 91 -50 292 -159 448 -243 156 -84 281 -157 279
-163 -3 -10 -57 -40 -782 -436 -214 -117 -428 -235 -475 -261 -47 -26 -274
-150 -505 -275 -231 -125 -521 -283 -645 -350 -448 -244 -480 -260 -503 -246
-11 7 -142 78 -291 158 -149 80 -347 187 -441 238 -93 51 -289 156 -435 235
-270 145 -1154 628 -1290 705 -41 23 -153 84 -248 135 -95 51 -169 97 -165
101 14 14 749 411 1613 872 329 175 354 189 545 292 250 136 611 328 680 363
l60 30 95 -48 c52 -26 235 -123 405 -215z m2573 -3286 l-3 -1712 -255 -139
c-140 -77 -343 -187 -450 -245 -107 -58 -217 -118 -245 -133 -27 -15 -135 -74
-240 -130 -380 -206 -625 -339 -840 -457 -121 -66 -335 -182 -475 -258 -140
-76 -286 -155 -323 -176 -38 -22 -73 -39 -78 -39 -5 0 -8 680 -7 1707 l3 1708
150 80 c181 97 443 240 740 402 121 66 353 193 515 281 162 88 363 197 445
242 83 46 197 109 255 140 136 74 692 380 750 414 25 14 48 26 53 26 4 0 6
-770 5 -1711z m-5750 1492 c213 -115 428 -231 477 -259 50 -27 131 -72 180
-99 378 -208 1320 -719 1625 -882 l225 -119 3 -1706 c1 -1015 -2 -1706 -7
-1706 -10 0 -117 58 -1026 552 -1324 720 -1728 942 -1805 992 l-70 46 0 958
c0 527 -3 1290 -7 1695 -5 562 -3 737 5 737 7 0 187 -94 400 -209z"/>
<path d="M16300 28161 c-25 -10 -121 -58 -215 -108 -93 -49 -253 -134 -355
-188 -102 -54 -248 -131 -325 -173 -77 -41 -178 -95 -225 -120 -47 -24 -137
-73 -200 -107 -63 -34 -212 -113 -330 -176 -118 -62 -232 -124 -253 -137 -52
-32 -82 -97 -72 -159 12 -84 3 -78 730 -466 83 -44 296 -159 475 -257 671
-365 780 -422 819 -427 50 -7 76 5 471 219 168 91 454 245 635 343 592 318
880 477 903 499 75 67 68 185 -15 241 -67 47 -1825 980 -1917 1019 -48 20 -70
20 -126 -3z m-100 -1141 c0 -521 -3 -730 -11 -730 -6 0 -219 112 -472 248
-254 137 -558 300 -674 362 -117 63 -213 117 -213 120 0 4 17 14 38 24 55 26
820 430 1092 577 129 70 236 128 238 128 1 1 2 -327 2 -729z m555 610 c55 -29
132 -70 170 -90 188 -100 560 -298 640 -340 228 -120 301 -160 317 -172 15
-11 -11 -28 -214 -138 -127 -69 -432 -234 -677 -367 -245 -134 -452 -243 -458
-243 -10 0 -13 152 -13 728 0 401 3 732 6 735 4 4 34 -9 68 -27 33 -18 106
-57 161 -86z"/>
<path d="M18878 26070 c-38 -11 -316 -161 -1203 -647 -170 -94 -389 -212 -485
-263 -257 -135 -279 -150 -301 -192 -18 -36 -19 -76 -19 -1185 0 -757 4 -1161
10 -1185 23 -80 115 -132 193 -108 21 6 82 35 135 64 53 30 205 112 337 184
132 71 384 208 560 304 176 96 451 246 610 332 160 87 301 168 314 179 53 49
51 -2 51 1242 0 1244 2 1194 -51 1241 -25 22 -81 45 -108 43 -9 0 -28 -4 -43
-9z m-128 -1276 l0 -846 -27 18 c-16 10 -113 71 -218 135 -104 64 -262 161
-350 216 -404 250 -716 443 -777 479 -37 21 -68 44 -67 49 0 6 74 51 166 100
91 50 411 226 712 392 300 167 549 303 554 303 4 0 7 -381 7 -846z m-1450
-322 c174 -110 902 -562 1088 -676 105 -64 192 -119 192 -121 0 -2 -78 -46
-172 -98 -298 -163 -950 -518 -1028 -560 -41 -22 -99 -53 -127 -69 l-53 -29 0
806 c0 444 4 805 8 803 4 -1 46 -27 92 -56z"/>
<path d="M13765 26070 c-47 -10 -75 -32 -98 -75 l-22 -40 -3 -1153 -4 -1152
22 -46 c24 -48 43 -63 175 -134 44 -24 168 -90 275 -148 191 -103 294 -159
930 -507 617 -337 613 -335 662 -335 50 0 97 26 132 73 l21 29 -1 1161 c0 880
-3 1171 -12 1198 -7 20 -25 48 -40 62 -16 15 -309 179 -653 365 -343 186 -757
411 -919 499 -410 223 -400 218 -465 203z m565 -622 c295 -161 668 -364 923
-501 92 -50 166 -95 164 -101 -2 -6 -77 -56 -168 -112 -90 -55 -364 -223 -609
-373 -245 -150 -488 -299 -540 -331 -52 -32 -101 -60 -108 -62 -10 -2 -13 153
-13 827 0 457 0 834 0 838 1 5 20 -2 44 -16 23 -13 161 -90 307 -169z m1200
-1723 c0 -603 -3 -795 -12 -795 -6 0 -100 49 -207 109 -168 93 -792 433 -1073
585 -49 26 -88 50 -88 54 0 4 114 75 253 159 309 186 785 479 967 595 74 48
141 87 148 87 9 1 12 -164 12 -794z"/>
<path d="M23630 28941 c-20 -10 -44 -36 -57 -61 l-23 -43 0 -3686 0 -3686 23
-40 c14 -26 37 -48 67 -62 l44 -23 4058 0 c3386 0 4064 2 4091 14 44 18 95 78
102 120 8 40 -7 93 -36 131 -43 54 -50 55 -414 55 -261 0 -335 3 -335 13 1 6
-1 1049 -3 2317 -3 1618 -7 2311 -15 2325 -24 45 -68 75 -125 85 -36 7 -255
10 -614 8 -540 -3 -559 -4 -593 -23 -19 -12 -43 -36 -54 -54 -19 -33 -20 -71
-23 -2340 -2 -1268 -6 -2312 -8 -2319 -4 -10 -46 -12 -187 -10 l-183 3 -5
1345 c-6 1494 -1 1381 -72 1432 l-33 23 -606 3 -605 2 -34 -22 c-18 -13 -43
-36 -54 -51 l-21 -28 -5 -1352 -5 -1352 -190 0 -190 0 -5 1800 c-5 1714 -6
1802 -23 1828 -10 16 -32 37 -50 47 -31 19 -55 20 -630 20 -663 0 -631 3 -684
-67 l-28 -36 -5 -1796 -5 -1796 -190 0 -190 0 -5 1012 c-5 1009 -5 1012 -26
1040 -48 64 -19 62 -680 64 -671 2 -633 6 -684 -69 l-25 -36 -2 -1000 c-2
-551 -3 -1004 -3 -1009 0 -4 -93 -6 -207 -5 l-208 3 0 3590 0 3590 -21 35
c-44 76 -145 104 -224 61z m7038 -2858 l152 -6 -2 -2206 -3 -2206 -380 0 -380
0 -3 2200 c-1 1210 0 2206 3 2213 5 14 347 17 613 5z m-3473 -2728 l0 -1690
-382 -3 -383 -2 0 1688 c0 929 3 1692 7 1695 4 4 176 6 382 5 l376 -3 0 -1690z
m1815 -445 l0 -1239 -42 -6 c-24 -3 -196 -5 -383 -3 l-340 3 -3 1235 c-1 679
0 1240 2 1245 2 6 137 9 385 7 l381 -2 0 -1240z m-3632 -347 l2 -903 -380 0
-380 0 0 898 c0 494 2 901 4 903 3 3 173 4 378 4 l373 0 3 -902z"/>
<path d="M48580 28938 c-157 -49 -290 -183 -340 -343 -7 -22 -16 -114 -19
-205 l-6 -165 -125 -6 c-212 -11 -307 -47 -421 -159 -44 -43 -78 -89 -102
-136 -72 -143 -67 59 -67 -2763 0 -2816 -5 -2626 66 -2771 45 -91 143 -192
224 -231 107 -52 149 -61 291 -67 l137 -4 4 -157 c4 -135 8 -165 30 -222 70
-187 200 -306 384 -353 55 -14 310 -16 2371 -16 2304 0 2309 0 2383 21 210 58
358 208 405 412 13 59 15 432 13 3419 l-3 3353 -23 59 c-65 173 -180 284 -346
335 l-68 21 -2362 -1 c-2350 0 -2361 0 -2426 -21z m4768 -314 c47 -19 88 -58
115 -109 l22 -40 0 -3320 0 -3320 -22 -41 c-25 -48 -83 -101 -129 -120 -28
-12 -403 -14 -2322 -14 l-2288 0 -53 26 c-100 50 -134 132 -129 305 l3 94
2035 5 c1944 5 2037 6 2090 23 191 64 328 205 375 382 13 52 15 306 15 2166
l0 2106 -32 44 c-17 24 -275 289 -573 589 -299 300 -594 598 -656 663 -62 65
-126 128 -143 140 l-30 21 -1534 2 c-1064 1 -1537 5 -1544 12 -7 7 -9 53 -6
129 4 96 9 126 26 160 22 43 68 84 112 102 16 6 840 10 2328 10 2060 1 2307
-1 2340 -15z m-1938 -1171 c0 -486 4 -532 55 -635 51 -104 135 -183 246 -230
53 -23 62 -23 539 -28 l485 -5 0 -1985 0 -1986 -26 -49 c-15 -30 -42 -62 -67
-79 -39 -27 -52 -30 -159 -37 -65 -4 -1099 -7 -2298 -6 -1978 2 -2183 3 -2215
18 -42 19 -94 69 -118 113 -16 29 -17 189 -17 2611 l0 2580 21 39 c27 53 82
96 141 112 38 10 392 13 1731 13 l1682 1 0 -447z m718 -177 c210 -211 382
-386 382 -390 0 -4 -152 -5 -338 -4 l-339 3 -37 29 c-65 49 -66 58 -66 421 0
179 4 325 8 325 4 0 180 -173 390 -384z"/>
<path d="M50581 25973 c-43 -22 -63 -55 -105 -178 -19 -55 -67 -194 -106 -310
-40 -115 -196 -577 -347 -1025 -298 -885 -294 -869 -245 -937 60 -85 214 -83
264 3 15 25 256 732 660 1937 69 205 110 345 110 372 1 49 -23 98 -64 128 -37
28 -122 33 -167 10z"/>
<path d="M51177 25585 c-72 -25 -107 -75 -107 -150 0 -25 6 -58 14 -73 8 -15
148 -160 310 -322 163 -162 296 -300 296 -306 0 -6 -137 -146 -304 -311 -254
-250 -306 -307 -317 -341 -35 -117 81 -234 199 -203 36 10 92 62 416 384 207
205 380 385 386 400 20 55 12 121 -18 163 -40 55 -700 721 -737 743 -43 26
-94 32 -138 16z"/>
<path d="M49275 25573 c-41 -22 -745 -715 -772 -761 -33 -54 -31 -118 6 -168
47 -63 733 -740 768 -758 73 -37 178 -6 214 64 21 39 24 94 8 137 -5 15 -147
165 -315 333 -167 168 -304 310 -304 315 0 5 140 149 310 320 282 283 310 314
311 346 2 63 -2 84 -26 120 -41 64 -134 88 -200 52z"/>
<path d="M5137 28499 c-45 -5 -65 -13 -89 -35 -50 -47 -58 -79 -58 -229 l0
-135 -1031 2 -1031 3 -21 55 c-132 359 -618 456 -898 180 -102 -100 -169 -259
-169 -400 0 -175 112 -374 263 -472 297 -191 692 -53 816 285 l11 27 570 0
c532 0 616 -4 548 -26 -44 -14 -245 -128 -348 -198 -457 -310 -817 -709 -1066
-1186 -171 -326 -280 -650 -338 -1000 l-22 -135 -170 -5 c-154 -5 -172 -7
-200 -27 -64 -46 -64 -44 -64 -536 l0 -444 23 -33 c12 -18 35 -43 50 -54 28
-20 40 -21 450 -24 232 -2 441 0 464 3 24 3 56 18 73 32 62 52 61 41 61 528 0
490 1 481 -63 527 -30 21 -46 23 -160 26 l-128 4 0 26 c0 15 9 72 19 127 105
549 341 1025 713 1442 267 299 671 581 1055 737 191 77 304 111 571 171 22 5
22 5 22 -113 0 -102 3 -123 23 -162 42 -82 30 -80 538 -80 l446 0 33 23 c67
45 74 64 78 207 5 153 -8 144 156 105 151 -35 352 -105 505 -174 775 -351
1347 -986 1616 -1796 61 -183 124 -467 112 -499 -4 -11 -36 -15 -136 -18 -129
-3 -130 -3 -162 -33 -59 -56 -59 -54 -59 -523 0 -424 0 -428 23 -472 12 -24
35 -53 50 -64 28 -20 40 -21 487 -21 447 0 459 1 487 21 15 11 38 40 51 65
l22 44 -2 445 -3 445 -23 33 c-41 57 -70 65 -247 72 l-159 5 -13 95 c-72 506
-300 1039 -635 1487 -86 116 -271 316 -392 425 -197 178 -484 381 -675 477
-33 17 -61 36 -61 41 0 7 199 10 559 10 l560 0 42 -82 c106 -206 312 -329 529
-315 347 22 586 351 505 696 -57 239 -288 422 -533 421 -217 -1 -406 -119
-502 -313 l-43 -87 -1031 2 -1031 3 -5 152 c-5 165 -10 180 -74 227 -27 20
-39 21 -429 21 -221 0 -428 -3 -460 -6z m592 -315 l61 -7 0 -239 0 -238 -242
2 -243 3 0 230 c0 127 4 236 9 243 9 13 300 18 415 6z m-3246 -19 c89 -37 147
-126 147 -225 0 -72 -26 -126 -84 -177 -153 -134 -379 -29 -380 177 -1 134
100 239 230 240 28 0 67 -7 87 -15z m6317 -6 c58 -26 87 -53 116 -111 51 -101
19 -236 -71 -298 -87 -60 -185 -62 -276 -5 -63 41 -93 95 -97 180 -3 61 0 79
21 121 29 56 55 83 112 112 53 28 135 28 195 1z m-6160 -3489 l0 -240 -240 0
-240 0 0 240 0 240 240 0 240 0 0 -240z m6300 0 l0 -240 -237 2 -238 3 -3 238
-2 237 240 0 240 0 0 -240z"/>
<path d="M30315 28448 c-27 -5 -88 -27 -133 -49 -149 -72 -259 -211 -298 -375
-22 -93 -15 -238 16 -317 12 -31 20 -61 18 -66 -2 -5 -111 -111 -243 -237
-132 -125 -356 -340 -498 -477 -188 -182 -262 -248 -275 -244 -9 3 -46 18 -82
33 -52 22 -85 28 -165 32 -168 7 -292 -39 -415 -155 l-65 -61 -55 23 c-69 28
-570 224 -670 262 l-75 28 -7 74 c-18 205 -134 382 -308 471 -97 49 -266 64
-384 34 -196 -50 -334 -182 -402 -384 -24 -72 -24 -245 0 -309 9 -24 16 -47
16 -51 0 -4 -83 -82 -185 -173 -237 -214 -741 -664 -783 -699 l-32 -26 -54 29
c-142 77 -330 76 -492 -3 -93 -44 -207 -158 -251 -249 -103 -214 -69 -462 88
-632 222 -242 603 -242 829 0 65 69 112 156 136 253 21 84 14 221 -15 305
l-22 60 43 35 c24 19 68 58 98 86 30 28 181 163 335 299 154 137 331 296 393
353 l113 105 67 -31 c230 -106 457 -74 634 88 37 33 70 60 74 60 5 0 128 -47
274 -105 146 -57 321 -126 390 -152 l125 -49 12 -81 c21 -153 58 -240 142
-335 95 -107 262 -181 411 -181 164 0 290 53 406 168 111 112 158 227 158 390
0 79 -5 115 -24 174 l-25 73 135 132 c241 234 851 821 865 830 8 6 31 2 66
-14 122 -52 258 -65 374 -35 121 32 245 120 319 228 148 214 118 524 -68 710
-135 135 -321 191 -511 155z m224 -334 c219 -110 138 -457 -107 -457 -227 0
-334 264 -170 420 72 69 182 84 277 37z m-3602 -1020 c47 -27 84 -76 103 -138
15 -47 8 -141 -13 -182 -83 -161 -325 -166 -421 -10 -26 42 -30 58 -30 120 -1
118 59 200 174 237 44 15 140 1 187 -27z m1800 -686 c83 -42 127 -117 127
-218 -1 -254 -339 -331 -450 -103 -106 216 108 428 323 321z m-3654 -873 c111
-46 171 -162 147 -281 -27 -131 -162 -218 -285 -185 -194 52 -256 281 -113
418 61 59 174 80 251 48z"/>
<path d="M5496 26956 c-22 -8 -47 -23 -57 -33 -23 -23 -261 -462 -646 -1193
-31 -58 -88 -166 -128 -240 -40 -74 -116 -218 -170 -320 -126 -239 -306 -578
-539 -1016 -238 -449 -234 -407 -60 -614 174 -207 348 -512 423 -740 41 -125
77 -305 90 -457 6 -67 11 -288 11 -493 0 -406 1 -414 58 -462 68 -57 136 -57
202 -1 55 46 55 44 60 408 l5 340 810 0 810 0 5 -347 c5 -332 6 -348 26 -375
31 -42 83 -73 121 -73 74 0 142 53 163 128 6 22 10 192 10 433 0 430 7 543 46
719 77 345 232 638 502 949 77 88 102 133 102 187 0 25 -52 133 -175 364 -51
96 -187 353 -303 570 -430 811 -638 1203 -782 1470 -81 151 -201 374 -265 495
-65 121 -126 232 -137 248 -38 53 -117 76 -182 53z m281 -911 c36 -71 414
-782 688 -1295 83 -157 205 -386 270 -510 65 -124 147 -278 181 -342 35 -64
64 -123 64 -131 0 -7 -12 -24 -26 -38 -14 -13 -58 -67 -98 -119 -247 -321
-394 -655 -462 -1047 l-17 -103 -829 0 c-455 0 -828 4 -828 8 0 5 -9 60 -20
123 -75 416 -219 734 -488 1068 l-92 115 54 100 c29 56 117 220 194 366 77
146 218 414 315 595 96 182 274 517 395 746 121 230 237 449 256 488 20 39 40
71 46 71 10 0 13 -1650 2 -1666 -4 -5 -39 -28 -78 -51 -188 -111 -295 -323
-266 -528 32 -223 207 -401 434 -441 262 -46 531 135 587 394 50 235 -63 473
-276 585 l-73 38 0 842 c1 938 -5 874 67 732z m-118 -1918 c52 -34 81 -91 81
-157 0 -111 -79 -190 -190 -190 -111 0 -190 79 -190 190 0 83 43 147 121 180
44 18 133 7 178 -23z"/>
<path d="M7565 18983 c-33 -9 -74 -43 -91 -75 -9 -16 -40 -107 -70 -201 -139
-434 -266 -811 -284 -846 -45 -89 -82 -106 -665 -300 -209 -70 -397 -136 -419
-146 -90 -43 -118 -169 -55 -249 33 -43 25 -39 579 -231 460 -159 492 -173
527 -224 32 -48 76 -166 237 -645 80 -237 153 -441 164 -455 10 -14 34 -37 53
-49 28 -20 43 -23 87 -20 99 8 123 43 201 288 166 527 248 766 290 848 36 70
58 82 391 196 255 88 693 247 713 260 63 38 80 155 33 226 -14 22 -43 48 -64
59 -20 10 -152 56 -292 100 -462 148 -699 238 -747 283 -53 49 -90 148 -293
776 -83 258 -106 318 -133 348 -47 54 -99 72 -162 57z m85 -805 c51 -165 129
-367 173 -452 22 -43 65 -106 96 -138 45 -50 74 -69 165 -113 95 -45 354 -143
494 -187 23 -7 42 -17 42 -22 1 -5 -114 -51 -254 -102 -276 -100 -362 -138
-420 -185 -91 -76 -158 -217 -281 -594 -23 -71 -46 -130 -51 -132 -5 -1 -29
59 -53 135 -93 294 -166 465 -233 546 -18 22 -58 56 -91 77 -63 41 -281 130
-499 205 -76 25 -138 49 -138 53 0 3 49 22 108 40 185 60 421 149 493 187 88
47 167 130 214 228 32 68 164 450 180 524 3 17 10 32 14 32 5 0 23 -46 41
-102z"/>
<path d="M14628 18979 c-163 -24 -287 -144 -318 -309 -6 -33 -10 -385 -10
-939 l0 -886 24 -67 c39 -109 91 -169 196 -224 l55 -29 728 -3 727 -3 0 -559
0 -560 -1419 0 c-979 0 -1428 -3 -1448 -11 -38 -14 -83 -57 -99 -96 -12 -27
-14 -170 -14 -798 l0 -765 -257 0 c-320 -1 -382 -8 -474 -56 -106 -56 -174
-142 -204 -261 -13 -53 -15 -149 -13 -724 l3 -664 23 -58 c45 -111 135 -197
247 -235 45 -15 123 -17 809 -20 487 -2 778 1 814 8 164 30 288 149 321 308
15 74 15 1301 0 1374 -36 171 -168 294 -341 318 -40 6 -189 10 -332 10 -142
-1 -263 3 -267 7 -5 5 -8 306 -7 674 l3 664 1328 3 1327 2 0 -674 0 -674 -312
-4 c-289 -4 -317 -6 -371 -25 -115 -43 -205 -133 -250 -250 -21 -57 -22 -65
-25 -723 -2 -464 0 -678 8 -709 31 -124 127 -238 237 -283 l58 -23 800 0 c727
0 805 2 855 17 115 36 208 125 253 244 22 58 22 67 25 693 2 396 -1 659 -7
700 -21 135 -110 260 -223 314 -85 39 -155 47 -450 47 l-268 0 0 675 0 675
1325 0 1325 0 0 -675 0 -675 -257 0 c-292 -1 -383 -9 -459 -44 -107 -49 -198
-165 -223 -284 -7 -36 -11 -260 -11 -685 0 -675 2 -703 51 -799 32 -63 111
-135 187 -171 l67 -32 816 0 815 0 76 38 c89 44 136 92 182 187 l31 65 0 705
0 705 -23 58 c-32 79 -116 168 -196 207 -81 40 -173 49 -488 50 l-238 0 0 759
c0 539 -3 768 -11 792 -15 43 -55 88 -96 105 -27 12 -269 14 -1453 14 l-1420
0 0 560 0 559 723 3 722 3 60 28 c79 37 147 104 181 181 27 59 28 69 36 301 5
132 7 560 6 950 l-3 710 -31 65 c-58 122 -166 199 -309 220 -86 12 -3033 12
-3117 -1z m3116 -338 c15 -17 16 -84 14 -882 -2 -475 -7 -872 -12 -882 -5 -10
-18 -22 -30 -25 -11 -4 -704 -5 -1539 -2 -1489 5 -1519 5 -1533 24 -12 17 -14
154 -14 887 l0 868 22 15 c20 14 184 16 1549 16 1474 0 1526 -1 1543 -19z
m-3763 -5279 l29 -32 -1 -603 c0 -643 -1 -660 -49 -684 -19 -10 -186 -13 -747
-13 l-723 0 -30 28 -30 27 -7 610 c-5 542 -4 614 10 647 11 27 24 39 44 44 15
3 33 7 38 9 6 2 331 3 723 2 l714 -2 29 -33z m2944 24 c18 -8 38 -23 44 -34 8
-14 11 -216 11 -642 l0 -622 -29 -29 -29 -29 -740 0 -740 0 -27 31 -26 32 3
623 3 622 24 26 c13 14 33 27 45 29 11 2 337 5 724 6 586 1 708 -1 737 -13z
m3019 -15 l26 -24 0 -634 0 -634 -26 -24 -27 -25 -734 0 -735 0 -29 29 -29 29
0 629 0 630 23 20 c12 12 31 23 42 26 11 3 345 4 742 3 l721 -1 26 -24z"/>
<path d="M27560 18980 c-491 -47 -913 -215 -1275 -507 -130 -105 -330 -311
-427 -440 -232 -308 -393 -704 -444 -1088 -18 -134 -23 -410 -11 -557 l9 -96
-130 -66 c-319 -163 -612 -401 -830 -674 -246 -310 -414 -686 -477 -1072 -68
-417 -19 -873 135 -1269 287 -737 968 -1308 1740 -1460 298 -59 698 -55 997
10 283 61 645 225 857 388 29 23 56 41 59 41 4 0 33 -19 64 -43 211 -158 512
-299 781 -367 199 -51 321 -64 582 -65 312 0 493 26 749 111 695 228 1278 814
1499 1506 249 778 111 1601 -371 2217 -220 280 -511 516 -846 684 l-123 62 6
50 c25 203 15 487 -25 715 -107 616 -489 1191 -1024 1543 -288 189 -615 313
-960 363 -127 18 -412 25 -535 14z m550 -348 c657 -126 1185 -526 1475 -1117
150 -307 216 -622 202 -964 -4 -80 -10 -148 -15 -153 -4 -4 -23 -3 -42 2 -180
53 -600 76 -830 46 -394 -52 -755 -190 -1052 -403 l-90 -65 -31 23 c-227 171
-558 329 -817 390 -202 48 -302 61 -525 66 -234 6 -383 -6 -565 -46 -47 -11
-87 -17 -90 -14 -11 11 -11 322 -1 427 73 695 492 1306 1111 1616 207 103 431
174 650 205 151 21 479 14 620 -13z m-1582 -2502 c226 -25 451 -86 637 -174
102 -49 257 -140 314 -185 l24 -19 -98 -113 c-193 -225 -356 -505 -446 -769
-23 -69 -44 -127 -46 -130 -6 -7 -155 70 -243 127 -265 173 -480 391 -632 640
-115 188 -258 538 -231 564 10 10 211 48 311 58 114 12 300 12 410 1z m2867 0
c141 -16 316 -51 321 -65 9 -22 -57 -209 -120 -340 -205 -427 -495 -733 -900
-950 -48 -26 -91 -43 -95 -38 -4 4 -26 67 -50 139 -90 280 -255 563 -463 796
-37 42 -68 80 -68 85 0 14 196 132 306 185 184 88 447 163 654 187 107 12 310
13 415 1z m708 -196 c500 -253 877 -706 1042 -1250 56 -183 76 -315 82 -525 8
-279 -19 -473 -103 -727 -145 -443 -457 -842 -854 -1093 -390 -247 -862 -352
-1322 -293 -236 30 -417 83 -625 185 -122 60 -303 171 -303 187 0 5 12 19 26
33 48 44 187 223 256 329 93 141 218 398 267 545 104 313 139 609 116 969 l-7
101 124 62 c303 152 572 373 803 658 173 214 352 560 431 833 5 16 7 16 67
-14z m-4599 -41 c184 -609 632 -1135 1220 -1435 l119 -60 -7 -62 c-3 -33 -9
-126 -12 -206 -25 -570 198 -1171 602 -1626 41 -46 74 -87 74 -92 0 -17 -186
-131 -313 -192 -269 -130 -545 -190 -865 -190 -543 1 -1020 194 -1422 577
-328 312 -533 711 -606 1183 -26 170 -24 465 5 625 107 593 413 1061 907 1387
98 65 249 148 270 148 6 0 18 -26 28 -57z m2432 -564 c137 -185 244 -386 314
-589 46 -136 49 -131 -78 -154 -183 -33 -255 -39 -467 -33 -203 6 -337 23
-442 58 -32 10 -34 13 -28 42 4 18 23 75 42 127 98 264 214 461 404 679 l73
84 55 -59 c30 -32 87 -102 127 -155z m-666 -1053 c283 -63 732 -63 1009 0 52
12 66 12 73 2 4 -7 8 -90 8 -185 0 -172 -16 -331 -46 -463 -49 -211 -172 -495
-293 -675 -60 -90 -183 -245 -230 -289 l-31 -30 -41 40 c-92 89 -233 283 -327
449 -105 188 -194 456 -227 685 -14 104 -21 423 -9 467 5 17 12 22 28 18 11
-3 50 -12 86 -19z"/>
<path d="M40305 18980 c-145 -18 -239 -64 -345 -170 -80 -80 -124 -154 -157
-265 -16 -55 -18 -132 -21 -855 -2 -437 0 -810 3 -828 9 -48 66 -107 118 -122
82 -23 174 28 197 111 6 20 10 213 10 466 l0 433 1498 -2 1497 -3 0 -2395 0
-2395 -1497 -3 -1497 -2 -3 447 c-3 431 -4 449 -24 483 -31 53 -77 80 -139 80
-66 0 -112 -29 -143 -90 l-23 -45 3 -805 3 -805 23 -70 c74 -222 240 -377 451
-421 62 -12 252 -14 1384 -12 l1312 3 80 27 c156 53 263 147 336 293 74 151
69 -120 69 3282 0 2140 -3 3085 -11 3140 -34 250 -178 424 -416 505 l-68 23
-1290 1 c-709 1 -1317 -2 -1350 -6z m2653 -341 c58 -28 107 -81 129 -138 15
-38 18 -77 18 -236 l0 -190 -1498 -3 -1498 -2 3 202 c3 172 6 209 21 239 24
49 80 103 131 129 41 20 52 20 1345 20 l1305 0 44 -21z m152 -6191 c0 -101 -5
-200 -10 -220 -20 -70 -70 -130 -138 -165 l-64 -33 -1273 0 c-1245 0 -1275 0
-1327 20 -75 28 -122 71 -157 143 -29 59 -31 70 -37 233 -4 95 -4 179 -1 188
6 15 137 16 1507 16 l1500 0 0 -182z"/>
<path d="M47160 18980 c-114 -10 -167 -26 -256 -75 -136 -76 -239 -213 -280
-370 -17 -67 -18 -206 -16 -3183 1 -2804 3 -3119 17 -3175 59 -233 233 -404
461 -452 106 -22 2588 -22 2695 0 179 38 321 148 398 308 75 153 72 98 69
1315 l-3 1087 -23 37 c-26 42 -91 78 -141 78 -45 0 -107 -37 -134 -80 l-22
-35 -3 -743 -2 -742 -1493 2 -1492 3 -3 2398 -2 2397 1495 0 1495 0 2 -742 3
-743 24 -39 c26 -42 86 -75 136 -76 47 0 117 40 140 80 20 35 20 49 20 1140 0
898 -3 1115 -14 1160 -50 205 -213 375 -416 436 -56 17 -139 18 -1310 20 -687
1 -1293 -2 -1345 -6z m2606 -339 c51 -23 104 -75 130 -127 16 -34 19 -65 22
-242 l3 -202 -1493 2 -1493 3 -3 174 c-3 203 7 253 65 320 20 24 59 54 87 67
l51 24 1295 0 c1242 0 1297 -1 1336 -19z m157 -6108 c8 -136 0 -269 -20 -327
-22 -69 -91 -136 -162 -159 -49 -16 -148 -17 -1306 -17 -1411 0 -1314 -5
-1405 77 -28 25 -57 64 -71 95 -21 48 -24 70 -27 226 -2 95 -1 180 2 188 5 12
208 14 1494 14 l1489 0 6 -97z"/>
<path d="M48086 12500 c-61 -19 -106 -83 -106 -150 0 -60 26 -107 75 -135 l42
-25 335 0 c331 0 335 0 368 23 57 38 75 71 75 137 0 50 -4 63 -31 97 -17 21
-46 43 -65 50 -40 14 -647 16 -693 3z"/>
<path d="M51360 18979 c-146 -13 -260 -70 -368 -184 -77 -81 -122 -165 -147
-275 -15 -66 -18 -165 -22 -825 -6 -779 -3 -842 35 -895 29 -40 100 -72 146
-65 53 8 90 29 118 67 l23 33 5 455 5 455 1491 3 1492 2 6 -622 c4 -343 6
-1422 4 -2398 l-3 -1775 -1492 -3 c-821 -1 -1493 1 -1493 5 -2 719 -6 889 -22
920 -26 47 -73 76 -134 81 -66 5 -122 -23 -153 -78 -21 -38 -21 -41 -21 -837
0 -758 1 -804 19 -875 30 -117 73 -193 160 -279 57 -57 95 -85 153 -113 145
-70 75 -67 1521 -64 l1302 3 75 27 c148 52 229 114 310 234 28 43 60 107 72
147 l23 72 0 3170 0 3170 -27 68 c-74 185 -217 313 -406 362 -55 14 -207 16
-1329 18 -698 1 -1302 0 -1343 -4z m2651 -351 c53 -27 70 -42 96 -87 39 -66
45 -110 41 -311 l-3 -155 -1492 -3 -1493 -2 0 192 c0 169 3 198 20 236 31 68
68 109 123 137 l51 25 1296 0 1297 0 64 -32z m137 -6172 c3 -193 -8 -248 -61
-317 -17 -23 -57 -56 -87 -73 l-55 -31 -1274 -3 c-1451 -3 -1335 -9 -1427 82
-71 72 -82 111 -89 324 -3 95 -3 178 0 183 4 5 579 8 1498 7 l1492 -3 3 -169z"/>
<path d="M35893 18960 c-87 -23 -130 -44 -209 -104 -105 -78 -170 -179 -205
-313 -19 -75 -19 -142 -19 -3188 0 -3042 0 -3113 19 -3187 30 -118 73 -193
160 -279 85 -84 180 -137 291 -163 95 -23 2608 -23 2713 -1 168 35 322 152
400 301 70 135 67 77 67 1305 l0 1106 -23 34 c-24 37 -97 79 -137 79 -44 -1
-107 -36 -134 -77 l-25 -38 -3 -740 -3 -740 -1500 0 -1500 0 0 2395 0 2395
1498 3 1497 2 2 -157 c1 -87 0 -403 -1 -703 -2 -590 1 -635 47 -683 77 -83
208 -72 261 23 21 37 21 39 22 1121 2 960 0 1093 -14 1162 -36 173 -142 315
-297 400 -130 71 -42 67 -1511 66 -1262 0 -1327 -1 -1396 -19z m2742 -324 c55
-25 107 -78 129 -129 22 -54 28 -142 21 -294 l-7 -143 -1497 2 -1496 3 4 190
c3 160 6 197 23 236 22 53 75 107 133 138 l40 21 1300 0 1300 0 50 -24z m153
-6151 c5 -277 -36 -378 -180 -436 -40 -17 -125 -18 -1309 -18 -1427 -1 -1327
-6 -1419 76 -79 71 -93 116 -98 320 -2 95 -2 180 2 188 5 13 171 15 1503 13
l1498 -3 3 -140z"/>
<path d="M36948 12500 c-67 -20 -118 -88 -118 -156 0 -57 46 -124 100 -146 40
-16 685 -10 725 6 46 20 78 69 83 131 5 63 -13 102 -65 142 l-36 28 -331 2
c-182 1 -343 -2 -358 -7z"/>
<path d="M4250 17968 c-71 -36 -58 -3 -345 -863 -209 -629 -243 -714 -334
-835 -105 -140 -171 -169 -1096 -479 -574 -193 -543 -181 -580 -216 -39 -36
-60 -99 -51 -149 7 -38 45 -89 78 -107 11 -6 248 -87 527 -181 935 -313 1017
-349 1125 -492 79 -104 169 -342 436 -1154 84 -254 162 -476 174 -494 33 -48
81 -70 144 -65 58 4 97 27 124 73 9 16 104 288 211 604 276 818 326 946 407
1043 118 143 165 164 1065 466 297 100 558 193 581 206 97 57 99 196 3 267
-13 10 -222 85 -464 167 -1046 353 -1113 383 -1225 555 -64 99 -110 214 -231
584 -248 754 -322 969 -345 1009 -25 44 -89 83 -135 83 -14 0 -45 -10 -69 -22z
m204 -1065 c183 -554 241 -693 346 -835 137 -186 347 -288 1110 -537 113 -37
205 -71 205 -75 0 -4 -65 -28 -145 -53 -434 -134 -788 -266 -927 -344 -106
-60 -243 -197 -302 -302 -67 -119 -170 -383 -297 -762 -135 -402 -123 -369
-129 -363 -2 2 -60 168 -128 368 -143 419 -191 547 -253 679 -107 228 -233
341 -509 458 -140 59 -473 176 -718 253 -105 33 -193 62 -195 65 -6 6 -32 -3
328 116 577 191 746 262 875 366 178 145 258 314 511 1086 48 147 90 267 94
267 3 0 63 -174 134 -387z"/>
<path d="M39894 16310 c-42 -13 -101 -80 -110 -124 -11 -61 2 -98 54 -147 39
-38 229 -197 576 -483 l50 -41 -1271 -5 c-1271 -5 -1272 -5 -1300 -26 -99 -74
-99 -210 2 -271 29 -17 88 -18 1298 -23 l1268 -5 -315 -258 c-174 -142 -325
-270 -336 -284 -44 -57 -46 -142 -4 -202 20 -28 88 -60 127 -61 55 0 73 13
531 394 133 110 318 263 409 339 92 75 174 151 183 168 20 40 20 108 0 147 -8
16 -62 67 -118 113 -57 46 -269 221 -471 389 -203 168 -392 322 -420 343 -56
40 -103 52 -153 37z"/>
<path d="M51170 16298 c-33 -17 -51 -35 -67 -68 -49 -95 -23 -151 132 -282 61
-52 198 -167 305 -257 107 -89 197 -167 198 -172 2 -5 -176 -9 -435 -9 -435 0
-439 0 -483 -22 -84 -43 -111 -142 -60 -226 42 -69 25 -66 534 -72 l461 -5
-215 -180 c-118 -99 -265 -221 -326 -272 -118 -99 -139 -129 -138 -198 2 -90
64 -150 155 -150 68 0 45 -17 539 395 189 157 393 326 454 376 61 50 117 102
123 116 42 92 21 154 -80 235 -148 118 -716 590 -820 680 -132 114 -142 120
-192 128 -31 5 -51 1 -85 -17z"/>
<path d="M48335 15531 c-157 -72 -152 -299 7 -366 96 -39 200 2 250 99 31 60
22 152 -18 203 -60 76 -157 102 -239 64z"/>
<path d="M49186 15535 c-78 -28 -126 -98 -126 -184 0 -67 18 -108 67 -152 100
-90 257 -62 315 56 37 75 28 156 -25 220 -55 68 -145 91 -231 60z"/>
<path d="M50037 15535 c-204 -72 -147 -385 69 -385 178 0 264 206 140 335 -59
62 -130 79 -209 50z"/>
<path d="M7072 14823 c-52 -25 -68 -54 -117 -211 -175 -551 -267 -814 -296
-847 -39 -44 -40 -45 -699 -270 -128 -44 -239 -88 -259 -102 -80 -61 -81 -196
-1 -253 15 -10 119 -50 231 -89 515 -175 668 -233 710 -268 37 -31 56 -75 119
-275 77 -243 209 -647 227 -693 19 -50 38 -72 85 -96 67 -34 130 -20 182 41
19 23 65 151 167 463 78 238 152 455 164 482 38 86 70 105 371 209 71 24 228
79 349 120 121 42 236 88 256 101 70 46 88 156 38 226 -29 41 -75 61 -369 163
-490 168 -567 200 -610 246 -23 24 -59 122 -184 505 -165 500 -175 523 -243
551 -42 18 -80 17 -121 -3z m143 -910 c108 -338 148 -398 309 -474 78 -36 406
-159 425 -159 6 0 12 -4 15 -9 4 -5 -38 -24 -91 -42 -146 -48 -318 -115 -383
-150 -72 -38 -141 -108 -177 -180 -16 -31 -60 -152 -98 -267 -39 -116 -73
-211 -76 -212 -4 0 -35 87 -69 193 -34 105 -73 219 -87 252 -68 161 -152 218
-509 339 -84 28 -153 55 -153 60 -1 5 53 28 121 51 489 169 496 176 639 632
30 95 57 173 61 173 3 0 36 -93 73 -207z"/>
<path d="M4915 9321 c-419 -66 -776 -297 -1017 -655 -150 -224 -233 -468 -260
-763 -29 -318 47 -619 223 -881 50 -74 90 -126 218 -282 59 -71 91 -142 91
-199 0 -12 8 -34 19 -49 10 -15 26 -39 35 -54 22 -37 78 -51 211 -52 83 -1
117 -5 140 -18 114 -64 349 -98 535 -79 60 6 143 20 186 31 117 30 306 118
439 205 133 86 184 126 291 230 40 39 96 92 123 118 28 27 51 53 51 57 0 4 29
38 65 75 36 37 65 70 65 74 1 14 40 52 49 47 5 -4 23 5 39 19 17 14 34 25 39
24 16 -4 43 13 43 27 0 7 9 18 21 24 27 15 121 214 142 300 32 129 42 278 29
412 -21 215 -58 349 -146 533 -221 460 -599 756 -1086 850 -133 26 -398 29
-545 6z m468 -321 c256 -49 447 -149 628 -330 239 -237 359 -530 359 -878 0
-192 -53 -393 -135 -515 -74 -111 -91 -123 -232 -181 -159 -65 -197 -87 -378
-226 -183 -139 -282 -205 -347 -231 -48 -19 -65 -20 -198 -14 -135 6 -212 13
-540 50 -69 8 -130 15 -136 15 -6 0 -32 18 -56 40 -65 57 -80 102 -82 235 l-1
110 -104 160 c-173 266 -201 345 -201 577 0 269 82 513 244 729 196 260 464
417 806 472 77 13 276 6 373 -13z"/>
<path d="M16214 9325 c-348 -51 -647 -196 -898 -435 -255 -243 -421 -541 -498
-894 -20 -88 -23 -130 -23 -331 0 -202 3 -243 23 -335 97 -446 346 -810 728
-1066 187 -125 408 -211 652 -253 l97 -16 3 -390 c1 -215 0 -400 -3 -413 l-5
-22 -1419 0 c-861 1 -1427 -3 -1442 -9 -33 -13 -74 -59 -88 -100 -8 -24 -11
-238 -11 -732 l0 -698 -322 -3 -323 -3 -67 -32 c-85 -40 -146 -97 -189 -175
l-34 -63 0 -650 0 -650 32 -66 c40 -80 120 -159 200 -197 l58 -27 815 0 815 0
66 32 c82 41 150 111 192 201 l32 67 0 630 0 630 -31 66 c-37 78 -87 136 -152
177 -89 57 -125 62 -457 62 l-302 0 -6 248 c-9 316 -9 807 -1 906 l7 76 1316
-2 1316 -3 3 -560 c2 -308 0 -584 -3 -613 l-6 -52 -287 0 c-158 0 -306 -5
-330 -10 -153 -36 -272 -160 -302 -315 -8 -42 -10 -234 -8 -645 l3 -585 23
-55 c35 -81 86 -144 152 -189 114 -76 63 -72 946 -69 l789 3 67 33 c107 53
191 158 218 274 13 57 13 1168 0 1237 -25 133 -115 240 -250 297 -40 17 -80
19 -365 24 l-320 5 0 610 0 610 1323 3 1322 2 0 -615 0 -615 -309 0 c-279 0
-315 -2 -373 -20 -103 -31 -189 -104 -238 -200 -39 -77 -41 -123 -38 -740 l3
-595 23 -58 c34 -82 125 -178 211 -220 l66 -32 815 0 815 0 67 33 c84 41 167
128 200 209 l23 58 0 635 0 635 -33 67 c-41 85 -105 149 -190 190 l-67 33
-321 3 -322 3 -6 31 c-3 17 -6 337 -6 712 0 644 -1 683 -19 716 -10 19 -30 44
-45 55 -27 20 -39 20 -1464 25 l-1437 5 0 410 0 410 50 8 c225 37 363 80 540
167 165 82 288 172 436 320 269 268 422 584 474 979 51 376 -54 813 -270 1131
-244 359 -575 593 -980 694 -179 44 -473 58 -661 31z m536 -333 c293 -72 516
-205 718 -427 87 -96 138 -170 198 -289 147 -288 183 -621 103 -945 -28 -111
-85 -250 -143 -348 -77 -127 -63 -123 -141 -47 -253 243 -556 370 -935 391
-130 7 -247 -5 -437 -43 -325 -64 -529 -177 -696 -384 -42 -52 -34 -57 -112
71 -230 380 -257 861 -69 1268 80 174 239 371 398 496 185 143 382 230 636
279 14 2 108 3 210 2 147 -2 202 -7 270 -24z m-59 -2008 c237 -40 426 -133
574 -283 l69 -71 -34 -29 c-56 -48 -228 -146 -320 -184 -244 -100 -526 -133
-750 -87 -180 37 -371 116 -518 214 -116 78 -115 74 -47 151 122 140 303 235
543 285 114 24 351 26 483 4z m-2440 -3703 l29 -29 0 -557 0 -556 -25 -24 -24
-25 -730 0 -730 0 -28 24 -28 24 -3 553 c-3 598 -4 587 51 609 12 5 345 9 740
9 l719 1 29 -29z m2950 19 c48 -26 49 -33 49 -595 0 -560 -2 -579 -48 -604
-14 -8 -243 -11 -737 -11 l-717 0 -29 29 -29 29 0 555 0 555 31 26 31 26 714
0 c472 0 722 -4 735 -10z m2990 -19 l29 -29 0 -552 0 -552 -29 -29 -29 -29
-735 0 -735 0 -26 31 -26 31 0 551 c1 579 0 569 45 595 15 8 219 11 748 12
l729 0 29 -29z"/>
<path d="M16341 8649 c-214 -42 -394 -205 -472 -426 -29 -83 -36 -238 -15
-323 71 -283 314 -479 593 -480 294 0 540 191 613 476 71 277 -68 578 -325
701 -119 56 -271 76 -394 52z m240 -333 c62 -29 107 -75 141 -143 26 -54 32
-77 32 -132 0 -115 -62 -212 -169 -269 -68 -36 -188 -38 -252 -4 -133 70 -196
203 -163 340 22 94 110 188 203 218 53 17 161 12 208 -10z"/>
<path d="M25610 9321 c-95 -22 -156 -49 -235 -106 -89 -63 -149 -136 -200
-240 -82 -169 -76 143 -73 -3460 l3 -3210 28 -80 c79 -224 256 -387 483 -445
76 -20 124 -20 2633 -20 2516 0 2557 0 2588 20 61 37 67 56 73 239 l6 166 86
200 c125 292 177 425 195 502 15 59 17 166 21 833 4 824 3 837 -48 946 -33 68
-121 159 -188 193 -103 53 -238 63 -339 27 l-42 -15 -31 55 c-57 102 -145 167
-267 199 -77 20 -139 19 -212 -4 l-61 -19 -15 31 c-13 27 -15 237 -15 1796 0
1113 -4 1791 -10 1835 -40 276 -212 476 -475 553 -56 17 -177 18 -1945 20
-1754 1 -1890 0 -1960 -16z m3842 -318 c76 -27 137 -80 177 -153 l36 -65 3
-177 4 -178 -2127 0 -2128 0 6 153 c3 91 11 170 20 198 23 73 72 135 149 189
l71 50 1871 0 c1735 0 1874 -1 1918 -17z m218 -2278 l0 -1375 -69 0 c-38 0
-83 -3 -100 -6 l-31 -6 0 328 c0 289 -2 338 -18 395 -37 132 -113 224 -237
285 -61 30 -87 37 -157 41 -185 12 -331 -58 -424 -203 -71 -111 -69 -66 -69
-1076 0 -500 -1 -908 -2 -908 -1 0 -47 54 -103 120 -114 134 -184 188 -289
221 -235 74 -491 -52 -561 -278 -25 -82 -26 -198 -2 -268 10 -28 85 -174 169
-325 230 -418 283 -518 283 -530 0 -7 -406 -9 -1317 -8 l-1318 3 -3 2483 -2
2482 2125 0 2125 0 0 -1375z m-564 -689 l34 -34 0 -478 c0 -264 1 -654 3 -869
2 -373 3 -391 23 -425 25 -43 87 -80 136 -80 54 0 115 27 141 64 22 30 22 38
27 386 4 283 8 359 19 376 52 79 181 68 228 -18 16 -30 18 -67 19 -409 1 -375
1 -377 24 -414 25 -41 86 -75 135 -75 45 0 109 34 136 71 24 33 24 38 29 314
5 269 6 281 28 316 53 86 168 74 218 -23 11 -22 14 -92 14 -352 0 -276 2 -332
16 -366 38 -95 165 -124 249 -58 49 38 56 72 61 307 5 192 8 220 26 252 37 67
104 87 165 49 67 -41 64 -2 60 -818 -3 -622 -6 -746 -19 -797 -19 -74 -10 -52
-138 -350 -120 -278 -144 -349 -155 -448 l-7 -67 -776 2 -777 3 -6 55 c-18
157 -82 273 -254 460 -130 142 -166 195 -267 394 -133 265 -230 444 -419 783
-179 319 -187 340 -154 402 8 16 31 36 51 46 73 34 146 3 222 -94 20 -26 82
-106 137 -176 267 -343 289 -367 356 -385 51 -14 91 -6 130 27 69 58 64 -35
64 1223 0 1055 1 1137 17 1166 27 50 66 73 122 74 42 0 53 -5 82 -34z m-827
-3303 c49 -98 118 -195 216 -303 129 -142 175 -214 199 -313 l6 -27 -1502 2
-1503 3 -57 27 c-115 54 -187 150 -207 279 -6 35 -11 142 -11 237 l0 172 1410
0 1410 0 39 -77z"/>
<path d="M26794 7620 c-17 -4 -40 -13 -51 -21 -11 -8 -122 -121 -247 -251
-125 -131 -233 -238 -240 -238 -6 0 -51 40 -99 90 -101 103 -139 121 -217 101
-112 -30 -155 -145 -91 -242 41 -60 310 -325 344 -338 41 -16 105 -13 136 5
37 22 622 628 644 667 63 115 -49 257 -179 227z"/>
<path d="M27347 7298 c-93 -54 -101 -184 -18 -263 l32 -30 897 -3 c859 -2 898
-1 932 16 53 29 82 85 77 150 -4 59 -25 94 -77 130 l-33 22 -886 0 -886 0 -38
-22z"/>
<path d="M26763 6304 c-17 -9 -58 -44 -89 -77 -32 -34 -139 -144 -238 -245
l-179 -183 -91 89 c-50 49 -101 95 -113 101 -37 19 -114 13 -157 -12 -68 -39
-97 -132 -61 -200 22 -43 303 -332 345 -356 44 -24 99 -27 139 -7 36 19 636
637 657 678 22 42 14 115 -16 158 -26 37 -90 70 -135 70 -16 0 -44 -8 -62 -16z"/>
<path d="M27361 5998 c-58 -30 -83 -65 -89 -126 -6 -64 18 -115 71 -150 l41
-27 445 0 c432 0 447 1 481 21 19 11 45 36 58 55 20 28 23 44 20 92 -4 46 -10
63 -34 88 -62 66 -46 64 -519 67 l-430 3 -44 -23z"/>
<path d="M25951 4990 c-49 -12 -83 -40 -108 -90 -23 -44 -23 -48 -23 -486 l0
-441 23 -43 c16 -30 37 -51 67 -67 l43 -23 443 0 c288 0 453 4 471 11 42 15
92 68 103 109 6 20 10 215 10 468 0 405 -1 435 -19 470 -10 20 -28 45 -39 55
-48 44 -76 46 -517 46 -231 -1 -435 -5 -454 -9z m707 -567 l-3 -258 -252 -3
-253 -2 0 260 0 260 255 0 255 0 -2 -257z"/>
<path d="M27150 2591 c-104 -55 -114 -204 -19 -272 l34 -24 377 -3 c361 -3
379 -2 417 17 83 43 111 150 59 229 -48 72 -50 72 -465 72 -339 0 -371 -1
-403 -19z"/>
<path d="M39434 9321 c-23 -10 -52 -34 -65 -52 l-24 -34 0 -361 0 -361 28 -36
c37 -48 75 -67 135 -67 61 0 109 30 137 85 19 37 20 61 21 345 0 168 -2 327
-6 353 -17 115 -125 176 -226 128z"/>
<path d="M46991 9320 c-41 -11 -95 -32 -120 -47 -69 -40 -165 -137 -200 -202
-66 -124 -61 166 -61 -3520 0 -2950 2 -3353 15 -3404 47 -183 189 -325 372
-372 50 -13 482 -15 3543 -15 3844 0 3536 -5 3662 62 72 38 162 132 205 214
68 127 63 -154 63 3519 0 3673 5 3392 -63 3519 -63 119 -176 206 -317 245
l-75 21 -3475 -1 c-3405 0 -3476 0 -3549 -19z m7071 -329 c30 -19 52 -44 67
-73 21 -44 21 -53 19 -449 l-3 -404 -3607 -3 -3608 -2 0 402 c0 370 2 406 19
443 20 44 50 74 96 98 27 15 356 16 3501 17 l3470 0 46 -29z m88 -3988 c0
-1853 -3 -2750 -10 -2775 -14 -48 -53 -94 -101 -118 -38 -20 -79 -20 -3513
-18 l-3474 3 -39 31 c-21 16 -48 50 -60 74 l-23 44 0 2748 0 2748 3610 0 3610
0 0 -2737z"/>
<path d="M47357 8699 c-43 -23 -83 -79 -92 -130 -23 -124 105 -241 228 -208
135 36 184 202 89 302 -15 16 -39 35 -54 43 -39 20 -126 17 -171 -7z"/>
<path d="M47995 8704 c-105 -54 -134 -177 -66 -271 36 -50 84 -73 151 -73 103
0 180 76 180 180 0 70 -39 133 -102 166 -36 19 -126 18 -163 -2z"/>
<path d="M48625 8708 c-126 -70 -139 -234 -24 -317 77 -56 192 -37 249 40 66
91 36 224 -61 274 -33 17 -135 19 -164 3z"/>
<path d="M47516 7320 c-16 -5 -40 -19 -53 -32 -56 -52 -53 -5 -53 -983 0 -999
-4 -938 63 -989 l34 -26 3035 0 3035 0 34 23 c74 49 69 -14 67 1004 -3 903 -3
912 -24 939 -11 15 -33 37 -48 48 l-27 21 -3017 2 c-1677 1 -3030 -2 -3046 -7z
m4759 -331 c-18 -8 -478 -141 -1175 -338 -157 -44 -347 -99 -423 -121 l-137
-40 -383 110 c-210 61 -596 171 -857 246 -261 74 -484 139 -495 144 -11 5 746
9 1735 9 1087 0 1747 -4 1735 -10z m-4195 -123 c162 -47 347 -102 410 -120 63
-19 243 -71 400 -116 157 -45 357 -103 445 -129 88 -27 260 -77 383 -111 122
-35 222 -66 222 -69 0 -3 -64 -24 -143 -45 -288 -79 -991 -287 -1619 -478
-235 -71 -432 -127 -437 -124 -5 4 -10 272 -10 647 l-2 641 28 -5 c15 -2 161
-44 323 -91z m5270 -547 l0 -641 -27 4 c-16 3 -143 39 -283 81 -140 41 -374
110 -520 152 -146 43 -348 102 -450 131 -102 30 -248 72 -325 94 -77 21 -187
53 -245 70 -58 17 -162 47 -232 67 -71 20 -128 40 -128 45 0 4 7 8 15 8 13 0
193 51 1020 290 154 45 336 98 405 120 69 21 244 73 390 115 146 42 283 82
305 90 83 28 75 94 75 -626z m-2503 -255 c164 -48 341 -99 393 -114 261 -77
651 -190 878 -255 139 -40 256 -75 259 -79 4 -3 -817 -6 -1822 -6 -1006 0
-1825 4 -1819 8 5 5 61 23 124 41 63 18 264 78 445 132 461 139 554 167 855
254 146 42 283 83 305 90 22 7 50 14 62 14 12 1 156 -38 320 -85z"/>
<path d="M47520 4879 c-61 -25 -100 -85 -100 -155 0 -60 30 -107 86 -134 40
-20 58 -20 1267 -18 l1226 3 28 21 c98 73 98 195 0 268 l-28 21 -1227 2 c-802
1 -1236 -2 -1252 -8z"/>
<path d="M50590 4871 c-19 -10 -44 -30 -55 -45 -20 -27 -20 -37 -20 -1126 l0
-1099 21 -28 c11 -15 38 -38 60 -50 l39 -23 1453 0 c1211 0 1458 2 1485 14 39
16 82 61 96 99 8 19 11 364 11 1091 l0 1062 -22 44 c-14 27 -36 50 -58 62 -33
17 -101 18 -1505 18 -1412 0 -1472 -1 -1505 -19z m2762 -1022 c2 -396 0 -723
-3 -725 -4 -2 -22 13 -39 34 -82 93 -379 421 -417 459 -27 27 -55 44 -78 49
-67 12 -107 -14 -294 -196 -96 -94 -180 -170 -185 -169 -6 0 -47 42 -91 93
-307 354 -521 594 -548 613 -48 35 -89 39 -140 14 -34 -16 -70 -54 -158 -164
-271 -339 -552 -682 -560 -685 -10 -4 -12 1381 -2 1391 3 4 570 7 1260 7
l1253 0 2 -721z m-1454 -546 c148 -170 301 -344 340 -388 40 -44 72 -83 72
-87 0 -4 -297 -8 -660 -8 -363 0 -660 2 -660 6 0 3 118 153 262 332 364 454
362 452 370 452 3 0 128 -138 276 -307z m1077 -250 c107 -119 195 -219 195
-223 0 -3 -95 -5 -211 -5 l-211 0 -54 60 c-30 33 -75 83 -100 112 l-46 52 114
110 c62 61 114 110 115 111 2 0 91 -98 198 -217z"/>
<path d="M52294 4306 c-143 -66 -179 -246 -72 -361 49 -54 118 -80 189 -72
228 27 274 336 65 433 -28 13 -69 24 -91 24 -22 0 -63 -11 -91 -24z"/>
<path d="M47502 4183 c-51 -25 -82 -78 -82 -139 0 -65 29 -111 90 -141 l44
-23 1207 0 1206 0 44 23 c49 25 89 89 89 141 0 53 -37 113 -84 135 -42 21 -51
21 -1262 21 -1109 0 -1222 -2 -1252 -17z"/>
<path d="M47520 3509 c-120 -48 -136 -220 -26 -288 32 -20 48 -20 1257 -23
1317 -2 1243 -5 1301 50 63 58 62 162 -2 223 -21 20 -52 39 -70 43 -55 10
-2432 6 -2460 -5z"/>
<path d="M47523 2819 c-17 -5 -45 -23 -62 -40 -80 -79 -52 -212 53 -260 39
-18 86 -19 904 -19 950 0 901 -3 959 63 78 89 39 225 -74 256 -48 14 -1734 13
-1780 0z"/>
<path d="M37682 8903 c-39 -19 -77 -66 -87 -106 -16 -61 2 -92 199 -355 106
-141 206 -269 222 -284 16 -15 49 -32 74 -39 40 -11 51 -10 92 9 75 33 115
125 89 204 -16 47 -389 538 -430 565 -41 28 -110 30 -159 6z"/>
<path d="M41185 8906 c-41 -18 -85 -69 -273 -315 -165 -217 -192 -259 -192
-301 0 -117 92 -200 190 -171 60 18 86 45 252 262 255 334 243 315 243 380 0
62 -17 95 -67 132 -33 25 -113 32 -153 13z"/>
<path d="M39220 8053 c-362 -37 -594 -85 -881 -181 -448 -151 -983 -481 -1386
-854 -129 -119 -245 -244 -268 -287 -25 -49 -19 -111 15 -162 28 -44 258 -262
410 -390 528 -446 1106 -733 1726 -858 146 -29 351 -58 449 -63 l50 -3 0 -425
0 -425 -1432 -5 -1432 -5 -28 -21 c-15 -12 -37 -36 -48 -55 -19 -32 -20 -55
-23 -466 l-3 -432 -272 -3 c-302 -3 -302 -3 -372 -75 -66 -68 -66 -65 -63
-779 3 -633 3 -639 25 -679 11 -22 34 -52 50 -67 63 -60 38 -58 798 -58 767 0
735 -3 804 63 74 70 71 36 71 762 0 633 -1 651 -21 695 -25 56 -53 86 -104
113 -37 21 -58 22 -315 27 l-275 5 0 325 0 325 1323 3 1322 2 0 -330 0 -330
-257 0 c-238 0 -262 -2 -303 -21 -55 -25 -95 -62 -123 -114 -22 -40 -22 -43
-22 -707 l0 -666 30 -43 c17 -24 50 -57 74 -74 l43 -30 700 -3 c490 -2 712 1
741 9 56 15 129 90 146 150 9 33 11 202 9 690 l-3 646 -30 49 c-19 30 -49 60
-79 79 l-49 30 -274 3 -273 3 0 329 0 330 1320 0 1320 0 2 -315 c0 -173 1
-321 2 -327 1 -10 -63 -14 -274 -18 -307 -6 -307 -6 -372 -78 -65 -72 -63 -51
-63 -758 l0 -640 30 -59 c23 -45 42 -66 79 -90 l49 -30 701 -3 c789 -3 752 -6
824 72 22 24 45 61 51 82 7 26 11 255 11 679 l0 640 -24 50 c-28 60 -56 87
-116 114 -42 19 -65 21 -307 21 l-261 0 -4 433 c-3 411 -4 434 -23 466 -11 19
-33 43 -48 55 l-28 21 -1432 5 -1432 5 -3 426 -2 426 82 7 c615 52 1208 252
1688 569 254 168 514 381 762 627 190 188 191 198 25 381 -179 199 -470 446
-722 614 -516 343 -1001 520 -1615 590 -123 14 -563 19 -670 8z m480 -340
c446 -82 798 -444 865 -890 71 -470 -156 -907 -582 -1122 -222 -112 -517 -139
-763 -70 -387 109 -685 432 -772 834 -19 93 -16 324 6 420 106 459 493 801
956 844 93 9 179 4 290 -16z m-1343 -255 c-115 -166 -184 -329 -228 -538 -31
-146 -31 -381 0 -524 48 -225 148 -444 268 -590 13 -16 22 -30 20 -32 -7 -7
-199 77 -347 151 -212 108 -459 267 -647 417 -118 95 -363 309 -363 318 0 11
164 166 265 251 196 164 430 325 640 439 117 63 446 213 453 206 2 -2 -26 -46
-61 -98z m2370 46 c307 -120 619 -307 897 -537 142 -118 316 -285 316 -303 0
-13 -175 -177 -310 -290 -279 -233 -570 -408 -935 -564 -53 -23 -99 -39 -101
-37 -3 3 22 41 54 86 106 149 190 339 229 521 26 120 26 430 0 549 -42 196
-117 375 -221 528 -54 80 -61 93 -51 93 2 0 57 -21 122 -46z m-3637 -4914 l0
-500 -552 2 -553 3 -3 485 c-1 267 0 491 3 498 3 9 124 12 555 12 l550 0 0
-500z m2968 3 l-3 -498 -547 -3 -548 -2 0 500 0 500 550 0 550 0 -2 -497z
m2972 -3 l0 -500 -550 0 -550 0 0 500 0 500 550 0 550 0 0 -500z"/>
<path d="M39374 7345 c-302 -67 -523 -303 -566 -603 -44 -314 175 -641 497
-744 59 -19 92 -23 210 -22 130 0 146 2 222 30 115 43 186 88 268 169 129 129
185 259 193 443 5 130 -7 206 -49 308 -52 125 -151 242 -270 320 -151 99 -338
135 -505 99z m279 -339 c298 -131 299 -553 1 -688 -40 -18 -67 -23 -149 -23
-88 0 -107 3 -157 27 -76 35 -148 104 -184 175 -27 54 -29 66 -29 168 0 100 3
115 27 160 94 180 312 260 491 181z"/>
<path d="M4625 5923 c-446 -36 -782 -103 -1215 -245 -249 -81 -367 -130 -603
-249 -549 -277 -807 -516 -910 -844 -43 -139 -49 -206 -45 -535 5 -337 6 -343
79 -481 39 -72 143 -173 220 -211 122 -61 4 -58 1973 -58 l1799 0 98 -95 c406
-394 1031 -512 1583 -299 50 19 96 40 103 46 11 9 126 -101 566 -539 307 -307
574 -565 602 -582 155 -98 389 -95 536 6 155 107 227 254 217 438 -6 93 -27
158 -75 235 -22 34 -246 266 -586 607 l-550 551 18 44 c157 387 164 814 18
1177 -144 359 -403 641 -748 814 -317 158 -692 197 -1040 107 -120 -31 -147
-41 -276 -102 l-86 -40 -169 55 c-345 114 -618 169 -978 197 -118 9 -434 11
-531 3z m675 -348 c227 -27 546 -93 653 -134 l28 -11 -62 -70 c-383 -427 -499
-1015 -309 -1555 18 -49 41 -107 51 -127 11 -21 19 -42 19 -48 0 -7 -518 -10
-1662 -10 -1650 0 -1663 1 -1708 21 -59 26 -77 44 -109 104 -26 50 -26 52 -29
303 -2 150 1 283 8 325 41 272 186 434 598 671 457 262 932 425 1492 511 306
46 739 55 1030 20z m1967 -60 c176 -36 337 -108 484 -219 248 -187 426 -487
468 -790 25 -179 9 -377 -45 -548 -114 -362 -417 -669 -769 -777 -333 -103
-715 -49 -1008 142 -95 62 -235 191 -302 277 -103 134 -184 314 -222 491 -21
103 -24 340 -4 449 87 483 477 881 956 974 44 9 96 17 115 20 63 8 246 -3 327
-19z m2004 -3169 c24 -32 29 -49 29 -96 0 -62 -22 -106 -72 -143 -37 -28 -116
-34 -158 -12 -18 9 -265 247 -547 529 l-514 511 118 122 118 121 499 -496
c274 -273 511 -515 527 -536z"/>
</g>
</svg>
