<svg width="48" height="44" viewBox="0 0 48 44" fill="none" xmlns="http://www.w3.org/2000/svg">
<path d="M3.37652 0.037446C2.68014 0.0979047 2.35638 0.194639 1.81271 0.490886C0.98194 0.950373 0.352751 1.77866 0.102297 2.72786C-0.00154973 3.13293 -0.00765836 3.97331 0.0045589 21.9719C0.0106675 38.9245 0.0228848 40.8289 0.108406 41.1675C0.468815 42.5762 1.53172 43.61 2.92448 43.9002C3.572 44.0333 18.7336 44.0333 19.3872 43.9002C20.4807 43.6705 21.3481 43.0055 21.8185 42.0381C22.2766 41.1131 22.2583 41.4456 22.24 34.0878L22.2217 27.5159L22.0812 27.2922C21.9223 27.0383 21.5253 26.8207 21.2198 26.8207C20.9449 26.8207 20.5662 27.0444 20.4013 27.3043L20.2669 27.5159L20.2486 32.008L20.2363 36.4941L11.1162 36.482L2.00208 36.4638L1.98376 21.9658L1.97154 7.47387H11.1039H20.2363L20.2486 11.9599L20.2669 16.452L20.4135 16.6878C20.5723 16.9417 20.9388 17.1412 21.2443 17.1473C21.5314 17.1473 21.959 16.9054 22.0995 16.6636C22.2217 16.452 22.2217 16.3673 22.2217 9.7713C22.2217 4.34211 22.2033 3.03015 22.1361 2.75809C21.8307 1.51868 20.835 0.490886 19.5949 0.122088C19.2529 0.0193084 18.7458 0.0132625 11.5926 0.00117078C7.396 -0.00487509 3.69417 0.0132625 3.37652 0.037446ZM19.2956 2.087C19.6072 2.22605 19.9309 2.54044 20.0897 2.85482C20.1875 3.06038 20.2058 3.2478 20.2241 4.31792L20.2425 5.53919L11.1223 5.5271L2.00208 5.50896L1.98376 4.45698C1.96543 3.22967 2.02652 2.92737 2.38082 2.5223C2.50299 2.3772 2.74123 2.19582 2.91227 2.11723L3.22381 1.97212H11.1345C18.7214 1.97212 19.0574 1.97817 19.2956 2.087ZM20.2547 39.0152C20.3035 39.8374 20.2547 40.6415 20.1325 40.9922C19.9981 41.4093 19.5766 41.8144 19.1429 41.9535C18.8436 42.0502 18.2388 42.0563 11.165 42.0563C2.54575 42.0563 3.13829 42.0865 2.5824 41.5907C2.41136 41.4396 2.23421 41.2038 2.14869 41.0164C2.02041 40.7262 2.00208 40.5932 1.98376 39.65C1.97154 39.0756 1.97765 38.5617 1.99597 38.5134C2.02652 38.4408 3.26657 38.4287 11.1223 38.4287H20.218L20.2547 39.0152Z" fill="#E7332D"/>
<path d="M9.03326 39.2146C8.66063 39.3295 8.38574 39.7165 8.38574 40.1215C8.38574 40.4843 8.54457 40.7684 8.84389 40.9377L9.10045 41.0889H11.1468C13.1688 41.0889 13.1932 41.0889 13.3948 40.9498C13.743 40.7201 13.853 40.5206 13.853 40.1215C13.853 39.8192 13.8285 39.7406 13.6636 39.5351C13.5598 39.4081 13.3826 39.2751 13.2665 39.2328C13.0222 39.1481 9.31425 39.1361 9.03326 39.2146Z" fill="#E7332D"/>
<path d="M29.0323 0.0436303C28.1405 0.122227 27.4441 0.466841 26.7844 1.15607C26.314 1.64579 26.0391 2.15364 25.8864 2.81869C25.7948 3.21771 25.7764 3.81625 25.752 7.80653C25.7154 12.5163 25.7337 12.8972 25.9658 13.2176C26.143 13.4594 26.5767 13.6529 26.8577 13.6106C27.1814 13.5622 27.4074 13.4352 27.5785 13.2055L27.719 13.006L27.7495 10.2551L27.7801 7.50424L36.888 7.4861L46.0021 7.47401L46.0388 11.2345C46.0632 13.3083 46.0754 19.8318 46.0632 25.7325L46.0449 36.464L36.9308 36.4821C31.9156 36.4881 27.8106 36.476 27.8106 36.4519C27.7984 32.1049 27.774 31.0771 27.6762 30.8897C27.5174 30.6055 27.2303 30.4302 26.8577 30.3999C26.4545 30.3697 26.1124 30.539 25.923 30.8715C25.7948 31.1013 25.7948 31.1194 25.7948 35.9319C25.7948 40.5147 25.8009 40.7928 25.9108 41.2221C26.0941 41.9294 26.3568 42.3889 26.8882 42.9089C27.2364 43.2535 27.4685 43.4228 27.8228 43.592C28.7086 44.0152 28.281 43.9971 37.1141 43.979L45.0675 43.9608L45.5256 43.7976C46.4297 43.4832 46.9245 43.1084 47.4193 42.3829C47.5904 42.1229 47.7858 41.736 47.8591 41.4941L47.9996 41.0588V21.8934V2.728L47.8347 2.31688C47.3827 1.19839 46.5091 0.42452 45.3546 0.128272C45.0186 0.0436303 44.0901 0.0315386 37.2362 0.0194468C32.9724 0.0134009 29.2828 0.0194468 29.0323 0.0436303ZM45.2263 2.16573C45.5501 2.32897 45.6539 2.41966 45.8128 2.69172C46.051 3.09075 46.0876 3.35677 46.0632 4.57199L46.0449 5.5091L36.9308 5.52724L27.8106 5.53933V4.37852C27.8106 3.35677 27.8289 3.18144 27.9328 2.95169C28.1222 2.54057 28.3482 2.29269 28.6842 2.12341L28.9957 1.97226H36.9125H44.8354L45.2263 2.16573ZM46.0632 39.4808C46.0815 40.6477 46.0143 40.9802 45.6906 41.3974C45.5867 41.5364 45.3424 41.736 45.1591 41.8387L44.8232 42.0262L37.0408 42.0443C28.1771 42.0624 28.8857 42.0987 28.3237 41.5485C27.89 41.1132 27.8228 40.8774 27.7801 39.5897C27.7617 39.0153 27.7617 38.5135 27.7801 38.4833C27.8045 38.453 31.317 38.4349 36.9308 38.441L46.0449 38.4591L46.0632 39.4808Z" fill="#E7332D"/>
<path d="M27.8721 16.252C27.6705 16.3548 27.5605 16.4636 27.4628 16.6631C27.1635 17.2375 27.3223 17.5761 28.2691 18.3681C28.6418 18.6825 29.4787 19.3777 30.1323 19.9219C30.7859 20.4599 31.3357 20.9315 31.3418 20.9617C31.354 20.992 30.2667 21.0162 28.6845 21.0162C26.0273 21.0162 26.0028 21.0162 25.7341 21.1492C25.2209 21.4091 25.056 22.0077 25.3675 22.5155C25.6241 22.9327 25.5203 22.9146 28.6296 22.9508L31.4456 22.9811L30.1323 24.0693C29.4115 24.6679 28.5135 25.4055 28.1409 25.7138C27.42 26.3123 27.2918 26.4937 27.2979 26.9109C27.3101 27.455 27.6888 27.8178 28.2447 27.8178C28.6601 27.8178 28.5196 27.9205 31.5373 25.4296C32.6918 24.4804 33.938 23.4587 34.3106 23.1564C34.6832 22.8541 35.0253 22.5397 35.0619 22.4551C35.3185 21.8989 35.1902 21.524 34.5732 21.0343C33.6692 20.3209 30.1995 17.4672 29.5642 16.9231C28.7578 16.2339 28.6967 16.1976 28.3913 16.1492C28.2019 16.119 28.0798 16.1432 27.8721 16.252Z" fill="#E7332D"/>
<path d="M10.5543 20.8892C9.59526 21.3245 9.6258 22.6969 10.5971 23.102C11.1835 23.3378 11.8188 23.0899 12.1242 22.5035C12.3136 22.1407 12.2586 21.5845 12.0143 21.2761C11.6478 20.8167 11.0552 20.6595 10.5543 20.8892Z" fill="#E7332D"/>
<path d="M15.7521 20.865C15.2756 21.0343 14.9824 21.4575 14.9824 21.9775C14.9824 22.3825 15.0924 22.6304 15.3917 22.8964C16.0026 23.4406 16.9616 23.2713 17.3159 22.5579C17.5419 22.1044 17.487 21.6147 17.1632 21.2278C16.8272 20.8166 16.2775 20.6776 15.7521 20.865Z" fill="#E7332D"/>
<path d="M20.9515 20.8657C19.7053 21.301 20.0535 23.1934 21.373 23.1934C22.4603 23.1934 22.9856 21.9479 22.2282 21.168C21.8678 20.7931 21.434 20.6904 20.9515 20.8657Z" fill="#E7332D"/>
</svg>
