<svg width="48" height="47" viewBox="0 0 48 47" fill="none" xmlns="http://www.w3.org/2000/svg">
<path d="M17.1194 21.1735C14.367 21.3968 12.2935 21.8124 9.62129 22.6932C8.08464 23.1956 7.35643 23.4996 5.90001 24.2377C2.51197 25.9559 0.919781 27.4384 0.284139 29.4729C0.0187732 30.3351 -0.0182545 30.7507 0.00643064 32.7914C0.0372871 34.8818 0.0434583 34.919 0.493962 35.775C0.734642 36.2216 1.37646 36.8481 1.85165 37.0838C2.60454 37.4621 1.87633 37.4435 14.0276 37.4435H25.1297L25.7345 38.0328C28.2401 40.4767 32.0971 41.2087 35.5037 39.8874C35.8122 39.7696 36.0961 39.6393 36.1393 39.6021C36.2072 39.5463 36.9169 40.2286 39.6323 42.9454C41.5268 44.8497 43.1746 46.45 43.3474 46.5555C44.3039 47.1634 45.748 47.1448 46.6552 46.5183C47.6117 45.8546 48.0561 44.9428 47.9944 43.8014C47.9573 43.2246 47.8277 42.8214 47.5315 42.3438C47.3957 42.1329 46.0134 40.6938 43.9151 38.5787L40.5209 35.1609L40.632 34.888C41.6009 32.4875 41.6441 29.8389 40.7431 27.5872C39.8544 25.3604 38.2561 23.6112 36.127 22.5381C34.1707 21.5581 31.8564 21.3162 29.7088 21.8744C28.9683 22.0667 28.8017 22.1288 28.0056 22.5071L27.4748 22.7552L26.4319 22.4141C24.3028 21.707 22.618 21.3658 20.3964 21.1921C19.6681 21.1363 17.718 21.1239 17.1194 21.1735ZM21.285 23.3321C22.6859 23.4996 24.6545 23.909 25.3149 24.1633L25.4877 24.2315L25.1051 24.6657C22.7415 27.3143 22.0256 30.9616 23.1981 34.3111C23.3092 34.615 23.4511 34.9748 23.5129 35.0989C23.5807 35.2291 23.6301 35.3594 23.6301 35.3966C23.6301 35.44 20.4334 35.4586 13.3734 35.4586C3.19081 35.4586 3.11059 35.4524 2.83288 35.3284C2.46877 35.1671 2.35769 35.0554 2.16021 34.6833C1.99976 34.3731 1.99976 34.3607 1.98124 32.8038C1.9689 31.8734 1.98741 31.0484 2.03061 30.7879C2.28364 29.1007 3.17847 28.0959 5.72104 26.6258C8.54132 25.0007 11.4727 23.9896 14.9286 23.4562C16.817 23.1708 19.4892 23.115 21.285 23.3321ZM33.4239 23.7043C34.5101 23.9276 35.5037 24.3742 36.4108 25.0627C37.9413 26.2226 39.0398 28.0835 39.299 29.9629C39.4533 31.0732 39.3546 32.3014 39.0213 33.3621C38.3178 35.6075 36.4479 37.5118 34.2756 38.1817C32.2205 38.8206 29.8631 38.4856 28.0549 37.3009C27.4687 36.9163 26.6047 36.1161 26.1912 35.5827C25.5556 34.7515 25.0557 33.635 24.8212 32.5371C24.6916 31.8982 24.6731 30.4281 24.7965 29.752C25.3334 26.7561 27.7402 24.2873 30.6962 23.7105C30.9678 23.6547 31.2887 23.605 31.4059 23.5864C31.7947 23.5368 32.9241 23.605 33.4239 23.7043ZM45.7912 43.361C45.9393 43.5595 45.9702 43.665 45.9702 43.9565C45.9702 44.3411 45.8344 44.614 45.5258 44.8435C45.2975 45.0172 44.81 45.0544 44.5508 44.9179C44.4397 44.8621 42.9154 43.3858 41.1751 41.6366L38.003 38.467L38.7313 37.7103L39.4595 36.9597L42.5389 40.0363C44.2299 41.7297 45.6925 43.2308 45.7912 43.361Z" fill="#E7332D"/>
<mask id="path-2-inside-1_370_2275" fill="white">
<ellipse cx="17.9406" cy="9.48416" rx="9.19453" ry="9.24197"/>
</mask>
<path d="M27.1351 9.48416H10.6351C10.6351 5.55583 13.826 2.22613 17.9406 2.22613V18.7261V35.2261C32.2113 35.2261 43.6351 23.6209 43.6351 9.48416H27.1351ZM17.9406 18.7261V2.22613C22.0553 2.22613 25.2461 5.55583 25.2461 9.48416H8.74609H-7.75391C-7.75391 23.6209 3.66996 35.2261 17.9406 35.2261V18.7261ZM8.74609 9.48416H25.2461C25.2461 13.4125 22.0553 16.7422 17.9406 16.7422V0.242188V-16.2578C3.66996 -16.2578 -7.75391 -4.65257 -7.75391 9.48416H8.74609ZM17.9406 0.242188V16.7422C13.826 16.7422 10.6351 13.4125 10.6351 9.48416H27.1351H43.6351C43.6351 -4.65257 32.2113 -16.2578 17.9406 -16.2578V0.242188Z" fill="#E7332D" mask="url(#path-2-inside-1_370_2275)"/>
</svg>
