<svg width="48" height="45" viewBox="0 0 48 45" fill="none" xmlns="http://www.w3.org/2000/svg">
<path d="M22.5199 0.0816885C20.4678 0.384538 18.7047 1.24558 17.2246 2.66481C15.7209 4.1078 14.742 5.87739 14.288 7.97358C14.17 8.49614 14.1523 8.74555 14.1523 9.93913C14.1523 11.1387 14.17 11.3821 14.288 11.9284C14.86 14.5769 16.3283 16.7384 18.5808 18.2586C19.6835 19.0009 20.9867 19.5115 22.4256 19.7609L22.9975 19.856L23.0152 22.1719C23.0211 23.4486 23.0152 24.5472 22.9975 24.6243L22.9681 24.755H14.6005C9.52334 24.7491 6.18575 24.7728 6.0973 24.8084C5.9027 24.8856 5.66093 25.1588 5.57838 25.4023C5.5312 25.5448 5.51351 26.8156 5.51351 29.749V33.8939L3.61474 33.9117L1.71007 33.9295L1.31499 34.1196C0.813759 34.3571 0.454054 34.6956 0.200491 35.1587L0 35.5329V39.3927V43.2525L0.188698 43.6445C0.42457 44.1195 0.896314 44.5886 1.36806 44.8143L1.71007 44.9746H6.51597H11.3219L11.7111 44.7846C12.1946 44.5411 12.5956 44.1255 12.8432 43.591L13.0319 43.1932V39.4521V35.711L12.8491 35.3191C12.631 34.8559 12.3361 34.5115 11.9528 34.268C11.428 33.9295 11.2157 33.8998 9.25799 33.8998H7.47715L7.44177 32.4272C7.3887 30.5507 7.3887 27.635 7.43587 27.0471L7.47715 26.5958L15.2373 26.6077L22.9975 26.6255L23.0152 29.9509C23.027 31.7799 23.0152 33.4189 22.9975 33.5911L22.9622 33.8998H21.2698C20.3381 33.8998 19.4654 33.9295 19.3238 33.9592C18.4216 34.173 17.7199 34.9093 17.543 35.8298C17.4958 36.0792 17.484 37.2193 17.4958 39.6599L17.5135 43.1338L17.6491 43.4604C17.8555 43.9414 18.1563 44.3155 18.5455 44.5827C19.2177 45.034 18.917 45.0103 24.1238 44.9924L28.7764 44.9746L29.1715 44.7787C29.8025 44.4639 30.2978 43.8404 30.457 43.1516C30.5337 42.8131 30.5337 36.2158 30.457 35.806C30.3096 35.0162 29.7789 34.3808 28.9828 34.0424C28.7469 33.9414 28.5111 33.9295 26.8305 33.8998L24.9435 33.8702V30.2478V26.6255L32.745 26.6077L40.5405 26.5958V30.2478V33.8998H38.7184C37.0732 33.8998 36.8609 33.9117 36.5189 34.0186C35.9115 34.2027 35.4044 34.6362 35.1155 35.2063C34.8855 35.6635 34.8737 35.9367 34.8914 39.6005L34.9091 43.1338L35.0447 43.4782C35.2452 43.9651 35.7818 44.5352 36.2889 44.7846L36.6781 44.9746H41.484H46.2899L46.685 44.7787C47.1803 44.5352 47.6698 44.0186 47.8644 43.5376L48 43.1932V39.4224V35.6516L47.8054 35.2538C47.5636 34.749 47.1862 34.369 46.685 34.1255L46.2899 33.9295L44.3971 33.9117L42.4983 33.8939L42.4629 33.7098C42.4452 33.6089 42.4275 31.7086 42.4275 29.4818C42.4275 25.6576 42.4216 25.426 42.3155 25.23C42.2565 25.1172 42.1386 24.9688 42.0501 24.9034C41.8909 24.7847 41.8201 24.7847 33.4172 24.755L24.9435 24.7253V22.2906V19.856L25.2383 19.8085C26.5651 19.5887 27.3789 19.3334 28.4226 18.8168C29.3956 18.3298 30.1209 17.7954 30.9936 16.9165C32.5799 15.3251 33.4821 13.4486 33.7887 11.103C34.0894 8.87025 33.4703 6.27525 32.1966 4.3869C30.7577 2.25508 28.8059 0.865533 26.4177 0.265773C25.3622 0.00449161 23.6285 -0.0786435 22.5199 0.0816885ZM25.6806 2.05912C27.4084 2.48667 28.7233 3.27645 29.9145 4.59473C30.4275 5.1648 30.7283 5.60423 31.0821 6.31088C31.9489 8.02109 32.1612 9.99851 31.6894 11.9225C31.5243 12.5816 31.1882 13.4071 30.8462 13.989C30.3921 14.7432 30.4747 14.7194 30.0147 14.2681C28.5228 12.8251 26.7361 12.071 24.5012 11.9462C23.7346 11.9047 23.0447 11.9759 21.9243 12.2016C20.0079 12.5816 18.8049 13.2527 17.8201 14.4819C17.5725 14.7907 17.6197 14.8203 17.1597 14.0603C15.8034 11.8037 15.6442 8.94745 16.7528 6.53059C17.2246 5.49734 18.1622 4.32751 19.0998 3.58524C20.1907 2.73607 21.3523 2.21945 22.8501 1.92847C22.9327 1.9166 23.487 1.91066 24.0885 1.9166C24.9553 1.92847 25.2796 1.95817 25.6806 2.05912ZM25.3327 13.9831C26.7302 14.2206 27.8447 14.7728 28.7174 15.6636L29.1243 16.0852L28.9238 16.2574C28.5936 16.5424 27.5794 17.1244 27.0369 17.35C25.598 17.9439 23.9351 18.1398 22.6143 17.8667C21.5528 17.6469 20.4265 17.1778 19.5597 16.5959C18.8757 16.1327 18.8816 16.1564 19.2826 15.6992C20.002 14.8679 21.0693 14.3037 22.4845 14.0068C23.1568 13.8643 24.5543 13.8524 25.3327 13.9831ZM10.9445 35.9723L11.1155 36.1445V39.4521V42.7537L10.9681 42.8962L10.8265 43.0447H6.52187H2.2172L2.05209 42.9022L1.88698 42.7597L1.86929 39.4758C1.8516 35.9248 1.8457 35.9901 2.17002 35.8595C2.24079 35.8298 4.20442 35.806 6.53366 35.806L10.7735 35.8001L10.9445 35.9723ZM28.34 35.8595C28.6231 36.0139 28.629 36.0554 28.629 39.3927C28.629 42.7181 28.6172 42.8309 28.3459 42.9794C28.2634 43.0269 26.913 43.0447 24 43.0447H19.772L19.601 42.8725L19.43 42.7003V39.4046V36.1089L19.6128 35.9545L19.7956 35.8001H24.0059C26.7892 35.8001 28.2634 35.8238 28.34 35.8595ZM45.9715 35.9723L46.1425 36.1445V39.4224V42.7003L45.9715 42.8725L45.8005 43.0447H41.4663H37.1322L36.9789 42.8606L36.8256 42.6765V39.4046C36.8314 35.9663 36.8256 36.0257 37.0909 35.8713C37.1794 35.8238 38.3823 35.806 41.5017 35.8001H45.8005L45.9715 35.9723Z" fill="#E7332D"/>
<path d="M23.2696 4.09548C22.0076 4.34489 20.9462 5.31282 20.4863 6.62516C20.3153 7.11804 20.274 8.03846 20.3978 8.54321C20.8165 10.2237 22.2494 11.3876 23.8946 11.3936C25.6283 11.3936 27.0789 10.2594 27.5094 8.56696C27.928 6.92208 27.1084 5.13467 25.5929 4.40427C24.8912 4.07173 23.9949 3.95297 23.2696 4.09548ZM24.6848 6.07291C25.0504 6.24512 25.3158 6.51828 25.5162 6.92208C25.6696 7.24274 25.7049 7.37932 25.7049 7.70592C25.7049 8.38882 25.3393 8.96482 24.7084 9.3033C24.3074 9.51708 23.5998 9.52895 23.2224 9.32705C22.4381 8.91138 22.0666 8.1216 22.2612 7.30806C22.3909 6.74987 22.9099 6.19167 23.4583 6.01353C23.7708 5.91258 24.4076 5.94227 24.6848 6.07291Z" fill="#E7332D"/>
</svg>
