<svg width="48" height="47" viewBox="0 0 48 47" fill="none" xmlns="http://www.w3.org/2000/svg">
<path d="M23.5536 0.102394C23.4101 0.164419 23.229 0.313281 23.1479 0.424927L22.998 0.635814V2.87494V5.11407L23.1728 5.33736C23.4038 5.63508 23.641 5.75293 24.0156 5.75293C24.3964 5.75293 24.6961 5.56685 24.8709 5.22571C24.9895 4.99622 24.9957 4.84736 25.002 3.08583C25.002 2.0438 24.9895 1.05759 24.9645 0.896322C24.8584 0.183027 24.1842 -0.195329 23.5536 0.102394Z" fill="#E7332D"/>
<path d="M12.6161 2.69492C12.3727 2.81277 12.1354 3.10429 12.073 3.3524C11.9731 3.73075 12.0855 3.92303 13.3153 5.55431C13.977 6.42887 14.6013 7.2228 14.7012 7.31583C14.8011 7.40887 15.0071 7.51432 15.1632 7.55773C15.4129 7.62596 15.4815 7.61976 15.7375 7.50191C16.2057 7.29723 16.4554 6.72659 16.2931 6.23659C16.1932 5.94507 13.8647 2.89961 13.6087 2.73214C13.3528 2.55847 12.922 2.54606 12.6161 2.69492Z" fill="#E7332D"/>
<path d="M34.4849 2.67627C34.2289 2.78792 33.9543 3.10425 32.7806 4.63008C31.7506 5.97604 31.582 6.23654 31.582 6.49705C31.582 7.22275 32.1564 7.73757 32.7681 7.55769C33.1427 7.44604 33.305 7.27858 34.3413 5.93262C35.9332 3.86096 35.8583 3.97881 35.8583 3.57564C35.8583 3.19109 35.7522 2.9864 35.44 2.75691C35.234 2.60184 34.7346 2.55842 34.4849 2.67627Z" fill="#E7332D"/>
<path d="M22.2176 7.96714C19.9577 8.19663 18.5094 8.49435 16.7178 9.0898C13.921 10.0264 10.5812 12.0732 8.06535 14.3868C7.26004 15.1249 6.53588 15.9002 6.3923 16.1669C6.23623 16.4709 6.27369 16.8554 6.48594 17.1717C6.66074 17.4447 8.09656 18.7968 9.04546 19.5907C12.3416 22.3571 15.9499 24.1372 19.8204 24.9125C20.7318 25.0924 22.0116 25.2723 22.6234 25.3033L22.9355 25.3219V27.958V30.5941L13.9959 30.6251L5.05636 30.6561L4.88156 30.7864C4.78792 30.8608 4.65058 31.0097 4.58191 31.1275C4.4633 31.326 4.45706 31.4687 4.43833 34.0179L4.4196 36.6974L2.72159 36.716C0.836285 36.7346 0.836285 36.7346 0.399295 37.1812C-0.0127242 37.603 -0.0127242 37.5844 0.00600398 42.013C0.0247321 45.9392 0.0247321 45.9764 0.162072 46.2246C0.230742 46.361 0.374324 46.5471 0.474208 46.6401C0.867499 47.0123 0.711431 46.9999 5.45589 46.9999C10.2441 46.9999 10.0443 47.0185 10.475 46.6091C10.937 46.1749 10.9183 46.3858 10.9183 41.8828C10.9183 37.9565 10.912 37.8449 10.7872 37.572C10.6311 37.2246 10.4563 37.0386 10.1379 36.8711C9.90695 36.7408 9.77585 36.7346 8.17148 36.7036L6.45473 36.6726V34.6568V32.6409L14.7138 32.6223L22.9667 32.6099V34.6568V36.7036H21.3623C19.8766 36.7036 19.7267 36.716 19.4708 36.8339C19.1274 36.9889 18.8777 37.2184 18.7029 37.541C18.5656 37.7891 18.5656 37.8077 18.5656 41.9262V46.0571L18.7529 46.3238C18.859 46.4727 19.065 46.6773 19.2148 46.7828L19.4833 46.9689L23.8532 46.9875C26.9121 46.9999 28.298 46.9813 28.479 46.9316C28.8286 46.8386 29.2843 46.3734 29.3905 46.0013C29.4467 45.7966 29.4591 44.7483 29.4467 41.7215L29.4279 37.7146L29.2406 37.4107C29.122 37.2246 28.9347 37.0386 28.7475 36.9207L28.4416 36.7346L26.7311 36.716L25.0268 36.6974V34.6568V32.6099H33.2672H41.5076L41.5201 34.5637C41.5201 35.6368 41.5263 36.5548 41.5325 36.592C41.5388 36.654 41.1393 36.6788 39.822 36.7036C37.9055 36.7408 37.9055 36.7408 37.4998 37.1874C37.094 37.634 37.1065 37.5037 37.1065 41.889V45.8586L37.2937 46.2246C37.4373 46.5037 37.5559 46.6339 37.7869 46.7828L38.0928 46.9689L42.469 46.9875C47.3945 47.0061 47.1635 47.0247 47.613 46.5409C47.7503 46.392 47.8939 46.1625 47.9313 46.0323C47.975 45.871 48 44.4506 48 41.8207V37.8511L47.8502 37.541C47.6754 37.1688 47.5006 37.0013 47.126 36.8339C46.8638 36.716 46.7202 36.7036 45.2095 36.7036H43.5802L43.5552 34.0179C43.5365 31.4687 43.5302 31.326 43.4116 31.1275C43.3429 31.0097 43.2056 30.8608 43.112 30.7864L42.9372 30.6561L33.9976 30.6251L25.058 30.5941L25.0393 27.9518L25.0268 25.3095L25.5387 25.2661C29.378 24.9436 33.0799 23.703 36.0764 21.7368C37.6621 20.6948 39.2852 19.3737 40.8334 17.8478C42.0195 16.6817 42.0257 16.6197 40.9894 15.4846C39.872 14.2503 38.0554 12.7183 36.4822 11.6763C33.2609 9.54879 30.2332 8.45094 26.4002 8.01676C25.6324 7.92992 22.8856 7.89891 22.2176 7.96714ZM25.2141 10.076C27.9983 10.5846 30.1958 12.8299 30.614 15.5963C31.0573 18.5115 29.6402 21.222 26.9808 22.5556C25.5949 23.2503 23.7533 23.4177 22.2176 22.9897C19.8017 22.3137 17.9413 20.3102 17.3982 17.8168C17.2796 17.24 17.2983 15.8072 17.4357 15.2117C18.0974 12.3648 20.5133 10.2435 23.4037 9.97677C23.9843 9.92094 24.5211 9.95196 25.2141 10.076ZM16.8301 11.6577C16.1122 12.6873 15.6815 13.6983 15.4068 14.9946C15.2133 15.9002 15.2133 17.3578 15.4068 18.2448C15.7064 19.6404 16.3307 20.9987 17.0798 21.9043C17.161 22.0035 17.2172 22.0904 17.2047 22.1028C17.161 22.1462 15.9624 21.6252 15.0385 21.1662C13.715 20.4963 12.1731 19.5101 10.9994 18.5797C10.2628 17.9905 8.73332 16.6631 8.73332 16.6073C8.73332 16.5391 9.75713 15.5777 10.3876 15.0505C11.6112 14.0332 13.072 13.0346 14.383 12.3275C15.1134 11.9368 17.1672 11.0064 17.2109 11.0498C17.2234 11.0622 17.0486 11.3351 16.8301 11.6577ZM31.6254 11.3723C33.5419 12.1167 35.4896 13.2765 37.2251 14.7031C38.1115 15.435 39.1978 16.4709 39.1978 16.5825C39.1978 16.6631 38.1053 17.6804 37.2625 18.3812C35.5208 19.8264 33.7042 20.9119 31.4256 21.8795C31.0947 22.0221 30.8076 22.1214 30.7951 22.109C30.7763 22.0904 30.9324 21.8547 31.1322 21.5756C31.7939 20.6514 32.3183 19.4729 32.5618 18.344C32.7241 17.5997 32.7241 15.6769 32.5618 14.9388C32.2996 13.7231 31.8314 12.6129 31.1821 11.6639C30.845 11.1677 30.8013 11.087 30.8637 11.087C30.8762 11.087 31.2196 11.2173 31.6254 11.3723ZM8.9206 41.8517V44.953L5.47462 44.9406L2.0224 44.922L2.00367 41.9138C1.99743 40.2577 2.00367 38.8683 2.0224 38.8249C2.04113 38.7691 2.7965 38.7505 5.48711 38.7505H8.9206V41.8517ZM27.449 41.8331L27.4303 44.922L24.0155 44.9406L20.5945 44.953V41.8517V38.7505H24.028H27.4615L27.449 41.8331ZM46.0023 41.8517V44.953H42.5688H39.1353V41.8517V38.7505H42.5688H46.0023V41.8517Z" fill="#E7332D"/>
<path d="M23.1798 12.3584C21.2945 12.774 19.9148 14.2378 19.6464 16.0985C19.3717 18.0462 20.7389 20.0744 22.749 20.7133C23.1174 20.8311 23.3234 20.8559 24.06 20.8497C24.8716 20.8497 24.9714 20.8373 25.4459 20.6636C26.1638 20.3969 26.607 20.1178 27.1189 19.6154C27.9242 18.8153 28.2738 18.0089 28.3238 16.8677C28.355 16.0613 28.2801 15.5899 28.0179 14.9573C27.6933 14.182 27.0752 13.4563 26.3323 12.9725C25.3897 12.3584 24.2223 12.1351 23.1798 12.3584ZM24.9215 14.4611C26.7818 15.2736 26.7881 17.8911 24.9277 18.7284C24.678 18.8401 24.5095 18.8711 23.9976 18.8711C23.4482 18.8711 23.3296 18.8525 23.0175 18.7036C22.543 18.4865 22.0935 18.0586 21.8688 17.6182C21.7003 17.2832 21.6878 17.2088 21.6878 16.5761C21.6878 15.9559 21.7065 15.8628 21.8563 15.5837C22.4431 14.4673 23.804 13.9711 24.9215 14.4611Z" fill="#E7332D"/>
</svg>
