<svg width="48" height="46" viewBox="0 0 48 46" fill="none" xmlns="http://www.w3.org/2000/svg">
<path d="M5.5778 0.0433783C4.40303 0.194174 3.42406 0.978314 2.985 2.12436C2.83668 2.51643 2.82481 2.62501 2.78328 3.89773C2.76548 4.64568 2.74174 5.26092 2.73581 5.26696C2.73581 5.27902 2.32642 5.28505 1.83397 5.28505C0.777863 5.28505 0.499004 5.34537 0.232011 5.62283C0.0777488 5.78569 0.0362166 5.8822 0.0124839 6.1476C-0.017182 6.50348 0.0718156 6.73269 0.309143 6.94984C0.54647 7.16699 0.807529 7.21524 1.7865 7.21524H2.72988V9.59179V11.9683L1.70937 11.9925C0.801596 12.0106 0.6592 12.0226 0.475272 12.1372C-0.207044 12.5414 -0.141779 13.5125 0.588002 13.8261C0.730398 13.8865 1.05672 13.9106 1.75684 13.9106H2.72988V16.2932V18.6757H1.7687C0.955859 18.6757 0.765997 18.6938 0.564269 18.7904C0.178613 18.9713 0.0421497 19.1643 0.018417 19.5685C-0.0112488 19.9967 0.119281 20.238 0.487138 20.437C0.712599 20.5577 0.849061 20.5758 1.7509 20.6059L2.75954 20.6361V22.9584C2.75954 24.2371 2.74768 25.3168 2.73581 25.353C2.72394 25.4133 2.47475 25.4314 1.76277 25.4314C0.92026 25.4314 0.777863 25.4435 0.552403 25.5581C0.125214 25.7692 -0.0587142 26.1311 0.0243502 26.5956C0.0658824 26.8187 0.356608 27.1565 0.593935 27.2591C0.676999 27.2953 1.19912 27.3375 1.7509 27.3556L2.75954 27.3918V27.6934C2.75361 27.8562 2.74768 28.9118 2.74174 30.0277L2.72988 32.0664H1.76277C0.878727 32.0664 0.777863 32.0785 0.534603 32.1991C0.166746 32.3922 0.0302834 32.6093 0.0302834 32.9953C0.0362166 33.3874 0.214212 33.7011 0.522737 33.8519C0.700732 33.9484 0.926193 33.9725 1.7509 33.9966L2.75954 34.0268V34.4611C2.75954 34.7024 2.74768 35.7821 2.74174 36.8557L2.72988 38.804L1.70937 38.8342C0.599868 38.8643 0.427806 38.9066 0.184546 39.2202C-0.100246 39.5942 -0.00531565 40.312 0.374408 40.5834C0.552403 40.7101 0.6414 40.7221 1.66191 40.7523L2.75954 40.7825L2.79514 42.019C2.83668 43.3581 2.86041 43.5088 3.19267 44.1603C3.62579 45.0168 4.40897 45.6321 5.38794 45.8854C5.827 46 6.27198 46 26.51 46H47.1931L47.4482 45.8733C47.5847 45.807 47.7627 45.6622 47.8339 45.5597L47.9703 45.3667L47.9881 29.8588L48 14.3509L47.8635 14.1458C47.5787 13.7115 47.027 13.615 46.5879 13.9347C46.4692 14.0192 44.6656 15.8167 42.5889 17.9338L38.8036 21.7701L38.7917 12.1855L38.7739 2.60088L38.6197 2.20278C38.4001 1.62372 38.2043 1.3161 37.8246 0.930059C37.4686 0.574181 37.0236 0.302748 36.4896 0.11576C36.1752 0.0132191 35.57 0.00718722 21.0634 0.00115537C12.7569 -0.00487647 5.7914 0.0132191 5.5778 0.0433783ZM36.104 2.08214C36.3591 2.19675 36.6914 2.54056 36.8041 2.80596C36.899 3.01708 36.9287 9.41083 36.8753 17.5659L36.8338 23.7304L26.8542 33.9001L16.8805 44.0698L11.333 44.0577L5.78546 44.0397L5.5422 43.907C5.18621 43.7139 4.88362 43.34 4.77682 42.966C4.70563 42.7187 4.68783 42.4171 4.69969 41.7114L4.71749 40.7825L5.90413 40.7523C7.0255 40.7221 7.10263 40.7161 7.28656 40.5834C7.76714 40.2336 7.82648 39.5459 7.40522 39.1418C7.10263 38.8523 6.9009 38.8161 5.7558 38.8281L4.71749 38.8342V36.4275V34.0268L5.87446 33.9966C7.09076 33.9665 7.15603 33.9484 7.42302 33.6528C7.80868 33.2366 7.73748 32.5671 7.28656 32.2353C7.10263 32.1026 7.0255 32.0966 5.90413 32.0664L4.71749 32.0363L4.69969 29.702L4.68783 27.3737L5.86853 27.3495C6.96023 27.3314 7.06703 27.3194 7.22129 27.2048C7.79088 26.7765 7.80868 25.9562 7.25096 25.5762C7.11449 25.4797 6.93057 25.4555 5.90413 25.4314L4.71749 25.4013L4.69969 23.0066L4.68783 20.618L5.827 20.5939C7.10263 20.5758 7.25096 20.5336 7.51795 20.1234C7.79088 19.7253 7.64255 19.0738 7.23316 18.8265C7.05516 18.718 6.89497 18.6999 5.87446 18.6757L4.71749 18.6456L4.69969 16.2811L4.68783 13.9227L5.827 13.8985C6.85343 13.8804 6.99583 13.8684 7.17976 13.7538C7.82054 13.3738 7.82054 12.4629 7.17976 12.1191C6.94243 11.9864 6.85343 11.9804 5.80326 11.9804H4.68783V9.60385V7.23334L5.83293 7.20318C6.84157 7.17905 7.0077 7.16095 7.18569 7.05841C7.82054 6.67841 7.82054 5.74347 7.17976 5.39966C7.00176 5.29711 6.8297 5.28505 5.83293 5.28505H4.68783V4.15106C4.68783 3.08946 4.69969 3.00501 4.83022 2.71549C4.97855 2.3958 5.26928 2.11833 5.56 2.02786C5.649 2.00373 12.5077 1.97357 20.7964 1.97357C35.2496 1.96754 35.8785 1.97357 36.104 2.08214ZM46.0421 19.0316V20.8894L45.5496 20.9196C44.9681 20.9498 44.6596 21.0825 44.452 21.3961C44.3333 21.565 44.3155 21.6615 44.3333 21.951C44.357 22.2285 44.3926 22.331 44.535 22.4818C44.7842 22.7533 45.0215 22.8377 45.5674 22.8377H46.0421V24.1889V25.54L45.4547 25.5641C44.9681 25.5762 44.8317 25.6063 44.7012 25.7089C44.1256 26.1432 44.1256 26.9032 44.6952 27.2892C44.897 27.4219 45.0097 27.4521 45.4843 27.4702L46.0421 27.4943V28.8756V30.2569H45.5793C44.7783 30.2569 44.3214 30.6128 44.3214 31.2401C44.3214 31.6201 44.4698 31.8734 44.802 32.0604C45.0097 32.181 45.1343 32.2052 45.5496 32.2052H46.0421V33.5744V34.9436L45.4903 34.9738C44.8732 35.01 44.6656 35.0944 44.4579 35.402C44.2621 35.6976 44.2324 35.9932 44.3689 36.2948C44.5766 36.7713 44.9029 36.9462 45.6149 36.9522H46.0421L46.0302 38.2913L46.0124 39.6364L45.4191 39.6666C44.9326 39.6907 44.7902 39.7209 44.6418 39.8294C44.2621 40.1009 44.1553 40.6377 44.3926 41.066C44.6003 41.4399 44.8436 41.5606 45.4903 41.5847L46.0421 41.6088V42.8393V44.0698L44.7605 44.0577L43.4849 44.0397L43.4671 43.4546C43.4493 43.0384 43.4196 42.8212 43.3484 42.7187C42.9865 42.1517 42.3576 42.0672 41.8592 42.5076C41.61 42.7307 41.5328 42.9901 41.5328 43.6054V44.0698L40.2453 44.0577L38.9519 44.0397L38.9222 43.4666C38.8866 42.8695 38.8095 42.6403 38.5544 42.399C38.2874 42.1457 37.7475 42.1215 37.4093 42.3447C37.1245 42.5377 37.0533 42.7247 37.0236 43.4003L36.994 44.0397L35.7124 44.0577L34.4308 44.0698L34.4012 43.4847C34.3596 42.6765 34.1876 42.3628 33.6773 42.1999C33.2917 42.0733 32.7814 42.3025 32.5559 42.7126C32.5203 42.779 32.4729 43.1047 32.4551 43.4365L32.4254 44.0397H31.1201H29.8148L29.7852 43.4063C29.7614 42.8755 29.7318 42.7428 29.625 42.586C29.2393 42.0371 28.3375 42.1034 28.023 42.7006C27.9577 42.8272 27.9162 43.0866 27.8984 43.4787L27.8747 44.0698H26.6109H25.3471L25.3234 43.4787C25.3056 43.0323 25.2759 42.8393 25.1869 42.6885C24.8547 42.1155 24.1486 42.0069 23.6977 42.4653C23.4604 42.7066 23.3773 43.0022 23.3773 43.5993V44.0698H21.5321C20.4404 44.0698 19.6988 44.0457 19.7106 44.0155C19.7225 43.9673 45.9827 17.1919 46.0302 17.1738C46.0361 17.1678 46.0421 18.0062 46.0421 19.0316Z" fill="#E7332D"/>
<path d="M19.8166 7.43883C19.1521 7.67407 19.0097 7.88518 18.7486 9.05536C18.6477 9.51981 18.5469 9.94204 18.535 9.99633C18.5113 10.0808 17.5976 10.5332 17.4552 10.5332C17.4196 10.5332 17.1526 10.3703 16.85 10.1713C15.7286 9.41727 15.4082 9.32679 14.8802 9.58616C14.4648 9.79728 12.5247 11.6913 12.3467 12.0532C12.056 12.6805 12.139 13.0726 12.7798 14.11L13.1833 14.7615L12.9519 15.3164C12.6908 15.9498 12.8095 15.8713 11.6051 16.179C11.2491 16.2694 10.8812 16.4021 10.7803 16.4745C10.5549 16.6253 10.3472 16.9269 10.2642 17.2225C10.187 17.518 10.187 20.3289 10.2701 20.6305C10.3057 20.7571 10.4422 20.9803 10.5727 21.1251C10.8219 21.4025 11.0473 21.493 12.3645 21.8489L12.7739 21.9635L12.9756 22.4461C13.0824 22.7115 13.1714 22.9527 13.1714 22.9829C13.1714 23.013 12.9994 23.3146 12.7858 23.6524C12.2874 24.4426 12.2043 24.6597 12.2043 25.1061C12.1984 25.3775 12.234 25.5223 12.3289 25.6852C12.406 25.8058 12.9163 26.3607 13.4681 26.9217C14.625 28.0858 14.892 28.2668 15.4379 28.2668C15.8413 28.2668 16.0431 28.1763 16.8025 27.6576C17.0873 27.4585 17.3662 27.3017 17.4196 27.3017C17.645 27.3017 18.4638 27.6817 18.5113 27.8084C18.535 27.8807 18.6418 28.2849 18.7486 28.7192C18.9741 29.636 19.0927 29.8954 19.3538 30.0944C19.6801 30.3417 19.9352 30.3779 21.4779 30.3779C23.0264 30.3779 23.2756 30.3417 23.6079 30.0944C23.8571 29.8954 23.9698 29.636 24.2368 28.6287C24.3495 28.1823 24.4682 27.7782 24.4919 27.736C24.5156 27.6877 24.7589 27.5611 25.0318 27.4465L25.5243 27.2474L26.1057 27.6334C26.9957 28.2185 27.15 28.2909 27.5594 28.2909C27.8086 28.2909 27.9866 28.2547 28.1527 28.1642C28.2832 28.0919 28.9003 27.5128 29.5232 26.8674C30.5556 25.8058 30.6624 25.6791 30.7277 25.4077C30.8523 24.8829 30.7277 24.4908 30.1047 23.5137C29.9267 23.2423 29.7843 22.995 29.7843 22.9648C29.7843 22.9165 30.1878 21.9816 30.2293 21.9454C30.2412 21.9333 30.6387 21.8187 31.1133 21.6981C32.1338 21.4267 32.3771 21.2879 32.5966 20.8416L32.7509 20.5219V18.9777C32.7509 16.559 32.6975 16.4685 31.0837 16.0825C30.6446 15.9799 30.2649 15.8713 30.2352 15.8412C30.2056 15.811 30.0928 15.5517 29.9801 15.2621L29.7843 14.7374L30.1344 14.1583C30.6861 13.2415 30.7514 13.0846 30.7514 12.6745C30.7514 12.4513 30.7158 12.2341 30.6505 12.1014C30.5141 11.83 28.5324 9.85156 28.1823 9.64045C27.9806 9.51981 27.8382 9.47759 27.5831 9.47759C27.2686 9.47759 27.2034 9.50775 26.3787 10.0144L25.5065 10.5513L24.9725 10.316L24.4326 10.0808L24.1834 9.07346C24.0469 8.50646 23.8867 7.99376 23.8155 7.89725C23.7503 7.80677 23.5545 7.65597 23.3765 7.55946L23.0561 7.3966L21.4838 7.40263C20.6175 7.40263 19.864 7.42073 19.8166 7.43883ZM22.3026 9.34489C22.3382 9.39314 22.445 9.78521 22.5458 10.2255C22.8425 11.5164 22.8959 11.5948 23.6138 11.83C23.7918 11.8903 24.2783 12.0833 24.6877 12.2583C25.7675 12.7288 25.7675 12.7288 26.9008 11.9024C27.1559 11.7154 27.411 11.5586 27.4644 11.5586C27.5178 11.5586 27.8264 11.83 28.1527 12.1618L28.7401 12.7589L28.3603 13.3802C27.7136 14.4418 27.6306 14.6167 27.6721 14.8339C27.6899 14.9424 27.7908 15.2018 27.8916 15.419C27.9925 15.6361 28.1883 16.1307 28.3307 16.5228C28.4731 16.9149 28.6333 17.2888 28.6867 17.3491C28.8172 17.4939 29.0308 17.5663 30.0216 17.7955L30.8226 17.9825L30.8404 18.8752C30.8582 19.9247 30.9769 19.792 29.7665 20.0635C29.3156 20.166 28.9003 20.2686 28.8469 20.2987C28.6511 20.4073 28.5443 20.5882 28.3603 21.119C28.2535 21.4206 28.0696 21.8851 27.945 22.1565C27.8204 22.428 27.7018 22.7296 27.684 22.82C27.6306 23.0673 27.7552 23.375 28.2595 24.2254L28.7104 24.9794L28.1052 25.5947C27.773 25.9385 27.4822 26.216 27.4526 26.216C27.4288 26.216 27.1084 26.0229 26.7525 25.7877C26.0286 25.3172 25.7735 25.1905 25.5362 25.1905C25.4472 25.1905 25.0912 25.3232 24.747 25.4861C24.4029 25.649 23.9401 25.836 23.7206 25.9083C23.2163 26.0772 22.9552 26.2521 22.8306 26.5175C22.7772 26.6322 22.6586 27.0544 22.5755 27.4525C22.3441 28.5503 22.4568 28.4477 21.4838 28.4477C20.7481 28.4477 20.6472 28.4357 20.5997 28.3392C20.5701 28.2849 20.4692 27.8988 20.3802 27.4826C20.1904 26.602 20.0954 26.3306 19.9352 26.228C19.87 26.1918 19.5436 26.0531 19.2114 25.9204C18.8732 25.7937 18.3748 25.5766 18.1019 25.4378C17.3543 25.0699 17.2712 25.082 16.1973 25.8118C15.7049 26.1496 15.4972 26.2582 15.432 26.216C15.3786 26.1918 15.0878 25.9083 14.7912 25.5947L14.2453 25.0217L14.7496 24.141C15.0285 23.6585 15.2718 23.1699 15.2896 23.0553C15.3133 22.8924 15.2658 22.7235 15.0522 22.253C14.9039 21.9273 14.7081 21.4568 14.6191 21.2095C14.3877 20.54 14.3106 20.3892 14.1445 20.3168C14.0673 20.2746 13.5927 20.16 13.0943 20.0574C12.6018 19.9549 12.1568 19.8403 12.1212 19.8101C12.0678 19.7619 12.0441 19.5085 12.0441 18.9174C12.0441 18.3263 12.0678 18.073 12.1212 18.0247C12.1568 17.9946 12.5128 17.892 12.9044 17.8015C14.2928 17.4818 14.3106 17.4698 14.5716 16.6675C14.6606 16.3961 14.8386 15.9256 14.9632 15.6301C15.3252 14.7977 15.3252 14.7796 15.165 14.4297C15.0878 14.2608 14.8505 13.8386 14.631 13.4948C14.4174 13.151 14.2394 12.8373 14.2394 12.8011C14.2394 12.6926 15.3904 11.5586 15.4972 11.5586C15.5981 11.5586 15.7286 11.643 16.494 12.198C17.1644 12.6805 17.3543 12.6865 18.2502 12.2643C18.5765 12.1135 19.0275 11.9325 19.2529 11.8602C20.0895 11.5887 20.131 11.5284 20.3862 10.2376C20.5286 9.52584 20.576 9.36298 20.6769 9.32076C20.8845 9.23632 22.2254 9.25441 22.3026 9.34489Z" fill="#E7332D"/>
<path d="M20.5063 14.1342C18.6315 14.5383 17.1363 16.0523 16.7566 17.9343C16.6379 18.5013 16.6735 19.5991 16.8218 20.154C17.2668 21.8308 18.6552 23.2001 20.3521 23.6283C21.0225 23.8032 22.2388 23.7671 22.8737 23.562C24.4578 23.0493 25.7097 21.7524 26.1132 20.2083C26.2912 19.5327 26.2912 18.3565 26.1132 17.687C25.6979 16.1187 24.5528 14.8399 23.0991 14.3272C22.2388 14.0256 21.3133 13.9532 20.5063 14.1342ZM22.6838 16.2212C23.2356 16.4987 23.6035 16.8244 23.9001 17.307C24.4816 18.254 24.535 19.2733 24.0425 20.2927C23.4789 21.4629 22.0727 22.1083 20.803 21.7765C19.4858 21.4327 18.5781 20.2626 18.5721 18.9175C18.5721 17.6327 19.3553 16.5349 20.5894 16.0946C20.9217 15.9799 21.0641 15.9619 21.6099 15.9799C22.1973 15.998 22.2744 16.0161 22.6838 16.2212Z" fill="#E7332D"/>
<path d="M41.0284 27.5969C40.7021 27.802 30.3546 38.3819 30.2122 38.6533C29.9452 39.1479 30.1173 39.7692 30.5801 39.9924C30.764 40.0768 31.3336 40.0889 36.2997 40.0889H41.8116L42.0133 39.9501C42.4464 39.6546 42.4227 40.0406 42.4227 33.8157C42.4227 28.4595 42.4168 28.2242 42.31 27.983C42.1083 27.5366 41.4378 27.3315 41.0284 27.5969ZM40.5241 34.5094V38.1587H36.9345C34.9588 38.1587 33.345 38.1406 33.345 38.1104C33.339 38.0622 40.4173 30.8782 40.4826 30.8662C40.5063 30.8662 40.5241 32.5008 40.5241 34.5094Z" fill="#E7332D"/>
</svg>
