<svg width="48" height="57" viewBox="0 0 48 57" fill="none" xmlns="http://www.w3.org/2000/svg">
<path d="M8.21775 0.164567C7.02322 0.531103 6.01129 1.53346 5.63086 2.73032C5.5776 2.89488 5.50913 3.58307 5.4863 4.26378L5.44065 5.49803L4.48959 5.54291C2.87659 5.6252 2.15378 5.89449 1.28641 6.73228C0.951641 7.05394 0.692952 7.39803 0.510349 7.74961C-0.0374626 8.81929 0.000579827 7.30827 0.000579827 28.4177C0.000579827 49.4823 -0.0374626 48.061 0.50274 49.1457C0.845122 49.8264 1.59075 50.5819 2.20704 50.8736C3.02115 51.2626 3.34071 51.3299 4.42111 51.3748L5.46348 51.4047L5.49391 52.5791C5.52434 53.589 5.55478 53.8134 5.72216 54.2398C6.25476 55.6386 7.24386 56.5287 8.64382 56.8803C9.06229 56.985 11.0025 57 26.6836 57C44.2135 57 44.2516 57 44.8146 56.8429C46.4124 56.4091 47.5384 55.287 47.896 53.761C47.9949 53.3197 48.0101 50.5295 47.9949 28.1858L47.9721 3.10433L47.7971 2.66299C47.3026 1.3689 46.4276 0.538583 45.1646 0.157087L44.6472 2.12342e-07L26.6759 0.00748053C8.79599 0.00748053 8.7123 0.00748053 8.21775 0.164567ZM44.495 2.51339C44.8526 2.65551 45.1646 2.94724 45.37 3.32874L45.5374 3.62795V28.4626V53.2972L45.37 53.6039C45.1798 53.963 44.7385 54.3594 44.3885 54.5016C44.1755 54.5913 41.3223 54.6063 26.7216 54.6063H9.31337L8.91012 54.4118C8.14927 54.0378 7.89058 53.4244 7.92863 52.1303L7.95145 51.4272L23.4347 51.3898C38.2256 51.3524 38.9332 51.3449 39.3365 51.2177C40.7897 50.739 41.8321 49.6843 42.1897 48.3602C42.2886 47.9713 42.3038 46.0713 42.3038 32.1579V16.4043L42.0603 16.0752C41.931 15.8957 39.968 13.9134 37.7006 11.6693C35.4257 9.4252 33.1812 7.19606 32.7095 6.70984C32.2377 6.22362 31.7508 5.75236 31.6215 5.6626L31.3932 5.50551L19.7218 5.49055C11.6264 5.48307 8.02754 5.45315 7.97428 5.40079C7.92102 5.34843 7.9058 5.00433 7.92863 4.43583C7.95906 3.71772 7.9971 3.49331 8.12645 3.23898C8.29383 2.91732 8.64382 2.61063 8.9786 2.47598C9.10033 2.4311 15.3697 2.40118 26.6912 2.40118C42.3646 2.3937 44.2439 2.40866 44.495 2.51339ZM29.7498 11.2728C29.7498 14.9083 29.7802 15.2524 30.1682 16.0228C30.5563 16.8008 31.1954 17.3917 32.0399 17.7433C32.4432 17.9154 32.5117 17.9154 36.1409 17.9528L39.831 17.9902V32.8386V47.6945L39.6332 48.061C39.5191 48.2854 39.3136 48.5248 39.1234 48.652C38.8267 48.8539 38.7278 48.8764 37.9137 48.9287C37.4191 48.9587 29.552 48.9811 20.4294 48.9736C5.37978 48.9587 3.82004 48.9512 3.57657 48.839C3.25701 48.6969 2.86137 48.3228 2.67877 47.9937C2.55703 47.7768 2.54942 46.5799 2.54942 28.4626V9.16339L2.7092 8.87165C2.91463 8.4752 3.3331 8.15354 3.782 8.03386C4.07112 7.95906 6.76453 7.93661 16.9523 7.93661L29.7498 7.92913V11.2728ZM35.2127 12.5969C36.8105 14.1752 38.1191 15.4843 38.1191 15.5142C38.1191 15.5441 36.9626 15.5516 35.5474 15.5441L32.9682 15.5217L32.6867 15.3047C32.1921 14.9382 32.1845 14.8709 32.1845 12.1555C32.1845 10.8165 32.2149 9.72441 32.2454 9.72441C32.2758 9.72441 33.6149 11.0185 35.2127 12.5969Z" fill="#E7332D"/>
<path d="M23.4426 22.3433C23.1154 22.5079 22.9632 22.7548 22.6437 23.6748C22.4991 24.0863 22.1339 25.126 21.8372 25.9937C21.5328 26.854 20.3459 30.3099 19.197 33.6611C16.9297 40.2811 16.9601 40.1615 17.3329 40.6701C17.7894 41.3059 18.9612 41.291 19.3416 40.6477C19.4557 40.4607 21.2893 35.1721 24.3632 26.1583C24.8882 24.6248 25.2001 23.5776 25.2001 23.3756C25.2077 23.0091 25.0251 22.6426 24.7132 22.4181C24.4317 22.2087 23.7849 22.1713 23.4426 22.3433Z" fill="#E7332D"/>
<path d="M27.9774 25.2457C27.4296 25.4327 27.1633 25.8067 27.1633 26.3677C27.1633 26.5547 27.2089 26.8016 27.2698 26.9138C27.3306 27.026 28.3958 28.1107 29.6284 29.3225C30.8686 30.5343 31.8805 31.5666 31.8805 31.6114C31.8805 31.6563 30.8382 32.7036 29.5675 33.9378C27.635 35.8079 27.2393 36.2343 27.1557 36.4886C26.8894 37.3638 27.7719 38.239 28.6697 38.0071C28.9436 37.9323 29.3697 37.5433 31.8349 35.1347C33.4098 33.6012 34.7261 32.2547 34.7718 32.1425C34.9239 31.7311 34.8631 31.2374 34.6348 30.9233C34.3305 30.5118 29.3089 25.5299 29.0273 25.3654C28.7002 25.1709 28.3121 25.126 27.9774 25.2457Z" fill="#E7332D"/>
<path d="M13.5064 25.3362C13.1944 25.5008 7.83806 30.6846 7.63263 31.0287C7.38155 31.4327 7.39676 31.9114 7.67828 32.2854C8.03588 32.7567 13.2553 37.8208 13.5216 37.9555C14.077 38.2323 14.8759 38.0004 15.1498 37.4768C15.3096 37.185 15.3324 36.7736 15.2107 36.452C15.1726 36.3397 14.0922 35.2177 12.814 33.961C11.5434 32.7043 10.501 31.6421 10.501 31.6047C10.501 31.5673 11.5662 30.4901 12.8597 29.211C15.0053 27.0941 15.2183 26.8622 15.2259 26.6228C15.2411 26.1516 15.2107 25.9945 15.0281 25.7252C14.7161 25.2464 14.0085 25.0669 13.5064 25.3362Z" fill="#E7332D"/>
</svg>
