<svg width="48" height="43" viewBox="0 0 48 43" fill="none" xmlns="http://www.w3.org/2000/svg">
<path d="M14.8198 0.0583683C13.8637 0.200176 13.1364 0.909212 12.9546 1.88414C12.9194 2.07912 12.8959 4.15896 12.8959 7.43234V12.6674L13.0367 13.0633C13.2654 13.7073 13.5704 14.0618 14.1863 14.3868L14.5089 14.5582L18.7789 14.5759L23.043 14.5936V17.8965V21.2054H14.72C8.97788 21.2054 6.34434 21.2231 6.22703 21.2704C6.00415 21.3531 5.74021 21.6072 5.64637 21.8376C5.57598 21.9971 5.56425 22.8421 5.56425 26.5527V31.0728H4.05686C2.17995 31.0787 1.8163 31.1201 1.27669 31.4037C0.654959 31.7346 0.256116 32.2427 0.0801557 32.9458C0.00390626 33.259 -0.00782442 33.8262 0.00390626 37.2237L0.0215023 41.147L0.156405 41.4897C0.420346 42.1456 0.948226 42.6537 1.60514 42.8782C1.86908 42.9669 2.32658 42.9787 6.35021 42.9964C9.20663 43.0082 10.9134 42.9905 11.1246 42.9491C12.0865 42.7719 12.8138 42.0688 13.0074 41.1293C13.0953 40.692 13.0953 33.4421 13.0074 33.0108C12.7962 32.0004 12.022 31.2737 11.0073 31.1319C10.7727 31.0964 9.89874 31.0728 9.05999 31.0728C8.22712 31.0787 7.51741 31.0551 7.49395 31.0314C7.46462 31.0019 7.44703 29.2234 7.45289 27.049L7.47049 23.1257L15.2597 23.1079L23.043 23.0961V27.0785V31.061L21.213 31.0846C19.5179 31.1082 19.3537 31.1201 19.0369 31.2323C18.3624 31.4864 17.8345 32.0182 17.5706 32.7095C17.4474 33.0463 17.4416 33.0935 17.424 36.9814C17.4122 39.723 17.424 40.9875 17.4709 41.1706C17.6527 41.9033 18.2158 42.5769 18.861 42.8428L19.2012 42.9787H23.8934C28.1575 42.9787 28.615 42.9669 28.9083 42.8782C29.5828 42.6655 30.1283 42.1397 30.3922 41.4365C30.5213 41.0938 30.5213 41.0406 30.5389 37.3418C30.5506 35.002 30.533 33.4481 30.4978 33.2058C30.3746 32.4081 29.8526 31.6696 29.1898 31.3505C28.6913 31.1201 28.2807 31.0728 26.5504 31.0728H24.9785V27.0845V23.0961H32.7501H40.5217V27.0845V31.0728H39.0143C37.3016 31.0787 36.7679 31.126 36.3221 31.3328C35.6945 31.6223 35.1608 32.3077 35.0141 33.0108C34.9731 33.2235 34.9496 34.5471 34.9496 37.0582C34.9496 41.0466 34.9613 41.212 35.2487 41.7792C35.4364 42.1515 35.8998 42.5769 36.3456 42.7896L36.7385 42.9787H41.5247H46.3049L46.7507 42.7542C47.2727 42.4942 47.5484 42.2106 47.8182 41.6492L48 41.2652V37.0996V32.934L47.8651 32.5913C47.6774 32.1245 47.1847 31.5987 46.7155 31.3682C46.2404 31.1319 45.7008 31.0787 43.8532 31.0728H42.4573V26.5881C42.4573 23.4034 42.4397 22.0503 42.3927 21.9085C42.3048 21.6544 42.0701 21.3885 41.8297 21.2881C41.6713 21.2172 40.2519 21.2054 33.3073 21.2054H24.9785V17.8965V14.5936L29.2192 14.5759L33.454 14.5582L33.8059 14.3927C34.2692 14.1741 34.6681 13.7782 34.8675 13.3232C35.0259 12.9746 35.0317 12.9156 35.0787 11.5448C35.108 10.7648 35.1197 8.23592 35.1138 5.93155L35.0962 1.73642L34.9144 1.35236C34.5742 0.631506 33.9408 0.176541 33.102 0.0524597C32.5976 -0.0184439 15.3124 -0.0184439 14.8198 0.0583683ZM33.0962 2.05549C33.1841 2.15593 33.19 2.55181 33.1783 7.2669C33.1665 10.0735 33.1372 12.4192 33.1079 12.4783C33.0786 12.5374 33.0023 12.6083 32.9319 12.626C32.8674 12.6497 28.8027 12.6556 23.9052 12.6378C15.1717 12.6083 14.9957 12.6083 14.9136 12.496C14.8432 12.3956 14.8315 11.5861 14.8315 7.25508V2.12639L14.9605 2.03776C15.0778 1.95504 16.0398 1.94322 24.0459 1.94322C32.6915 1.94322 32.9965 1.94913 33.0962 2.05549ZM11.0249 33.2472L11.195 33.4362L11.1891 36.9991C11.1891 40.7984 11.1832 40.8988 10.9017 41.0406C10.7903 41.0997 9.81076 41.1175 6.5203 41.1175H2.27966L2.1037 40.952L1.92774 40.7925L1.88668 37.1882C1.85735 33.9857 1.86322 33.5603 1.94533 33.3653C2.00985 33.2058 2.0861 33.1349 2.20341 33.1054C2.29139 33.0876 2.39697 33.064 2.42629 33.0522C2.46148 33.0404 4.36772 33.0345 6.66693 33.0404L10.8548 33.0522L11.0249 33.2472ZM28.2925 33.1054C28.398 33.1526 28.5153 33.2413 28.5505 33.3062C28.5974 33.389 28.615 34.5825 28.615 37.0996V40.7748L28.4449 40.9461L28.2749 41.1175H23.9345H19.5941L19.4358 40.9343L19.2833 40.7452L19.3009 37.0641L19.3185 33.389L19.4592 33.2353C19.5355 33.1526 19.6528 33.0758 19.7232 33.064C19.7877 33.0522 21.6998 33.0345 23.9697 33.0285C27.4068 33.0226 28.1224 33.0345 28.2925 33.1054ZM45.9999 33.194L46.1524 33.3358V37.0819V40.8279L45.9999 40.9697L45.8416 41.1175H41.5364H37.2254L37.0553 40.9461L36.8852 40.7748V37.0582V33.3358L37.0201 33.2176C37.0905 33.1467 37.2019 33.0817 37.2664 33.064C37.3309 33.0463 39.29 33.0404 41.6185 33.0463L45.8474 33.0522L45.9999 33.194Z" fill="#E7332D"/>
</svg>
