<svg width="48" height="46" viewBox="0 0 48 46" fill="none" xmlns="http://www.w3.org/2000/svg">
<path d="M21.3259 0.038842C21.0348 0.0709425 20.9055 0.122303 20.7502 0.263545C20.4268 0.56529 20.3751 0.770733 20.3751 1.73375V2.60046L13.7063 2.58762L7.03748 2.56836L6.90165 2.21526C6.04784 -0.08956 2.90425 -0.71231 1.09314 1.05964C0.433374 1.70165 0 2.72244 0 3.62768C0 4.75119 0.724447 6.02879 1.70116 6.65796C3.62223 7.8842 6.1772 6.99823 6.97927 4.82824L7.05042 4.65489H10.7373C14.1785 4.65489 14.7218 4.68057 14.2819 4.82182C13.9973 4.9117 12.6972 5.64359 12.031 6.093C9.07499 8.08323 6.74641 10.6448 5.13581 13.7072C4.02973 15.8002 3.32469 17.8803 2.94953 20.1273L2.80723 20.994L1.70762 21.0261C0.71151 21.0582 0.595081 21.0711 0.413969 21.1995C0 21.4948 0 21.482 0 24.6407V27.4912L0.14877 27.703C0.22639 27.8186 0.37516 27.9791 0.472184 28.0497C0.653296 28.1781 0.730915 28.1846 3.38291 28.2038C4.88355 28.2167 6.23542 28.2038 6.38419 28.1846C6.53942 28.1653 6.74641 28.069 6.85637 27.9791C7.2574 27.6453 7.25093 27.7159 7.25093 24.5893C7.25093 21.4435 7.2574 21.5012 6.84343 21.2059C6.64938 21.0711 6.54589 21.0582 5.80851 21.039L4.98057 21.0133V20.8464C4.98057 20.7501 5.03878 20.3841 5.10347 20.031C5.78264 16.5064 7.30915 13.4504 9.71535 10.7732C11.4424 8.85364 14.0556 7.04317 16.5394 6.04163C17.7748 5.54729 18.5057 5.329 20.2328 4.9438C20.3751 4.9117 20.3751 4.9117 20.3751 5.66927C20.3751 6.32412 20.3945 6.45894 20.5238 6.70932C20.7955 7.23577 20.7179 7.22293 24.0038 7.22293H26.8886L27.1021 7.07527C27.5354 6.78637 27.5807 6.66438 27.6066 5.74631C27.6389 4.76403 27.5548 4.82182 28.6156 5.0722C29.5924 5.2969 30.8925 5.74631 31.8821 6.1893C36.895 8.44275 40.5949 12.5195 42.3348 17.7198C42.7294 18.8947 43.1369 20.718 43.0593 20.9234C43.0334 20.994 42.8264 21.0197 42.1796 21.039C41.3452 21.0582 41.3387 21.0582 41.1317 21.2508C40.7501 21.6104 40.7501 21.5975 40.7501 24.6086C40.7501 27.3307 40.7501 27.3564 40.8989 27.6388C40.9765 27.7929 41.1253 27.9791 41.2223 28.0497C41.4034 28.1781 41.481 28.1846 44.3724 28.1846C47.2637 28.1846 47.3413 28.1781 47.5224 28.0497C47.6194 27.9791 47.7682 27.7929 47.8523 27.6324L47.9946 27.3499L47.9817 24.493L47.9622 21.6361L47.8135 21.4242C47.5483 21.0582 47.3607 21.0069 46.2158 20.9619L45.1874 20.9298L45.1033 20.3199C44.6376 17.0714 43.1628 13.6495 40.9959 10.7732C40.4396 10.0285 39.243 8.7445 38.4604 8.04471C37.1861 6.90193 35.3297 5.59865 34.0943 4.98232C33.8808 4.87318 33.6997 4.75119 33.6997 4.71909C33.6997 4.67415 34.9869 4.65489 37.3155 4.65489H40.9377L41.2094 5.18134C41.895 6.50388 43.2275 7.29355 44.6311 7.20367C46.8756 7.06243 48.4215 4.95022 47.8976 2.73528C47.5289 1.20088 46.0347 0.0260018 44.45 0.0324219C43.0464 0.038842 41.8239 0.796414 41.2029 2.04191L40.9248 2.60046L34.256 2.58762L27.5872 2.56836L27.5548 1.59251C27.5225 0.53319 27.4902 0.436888 27.0762 0.135144C26.9015 0.00674153 26.8239 0.00032143 24.3013 0.00032143C22.8718 0.00032143 21.5329 0.0195817 21.3259 0.038842ZM25.1551 2.06117L25.5497 2.10611V3.64052V5.1685L23.9844 5.15566L22.4126 5.1364V3.65978C22.4126 2.84443 22.4384 2.14463 22.4708 2.09969C22.529 2.01623 24.4113 1.98413 25.1551 2.06117ZM4.1591 2.18315C4.73478 2.4207 5.10994 2.99209 5.10994 3.62768C5.10994 4.08992 4.94176 4.43661 4.5666 4.76403C3.57696 5.62433 2.11513 4.95022 2.10866 3.62768C2.10219 2.76738 2.75548 2.09327 3.59636 2.08685C3.77747 2.08685 4.02973 2.13179 4.1591 2.18315ZM45.0192 2.22168C45.3943 2.3886 45.5819 2.56194 45.7695 2.93431C46.0994 3.58274 45.8924 4.44945 45.3103 4.8475C44.7475 5.2327 44.1136 5.24554 43.525 4.8796C43.1175 4.61637 42.9235 4.26969 42.8976 3.72398C42.8782 3.33235 42.8976 3.21679 43.0334 2.94715C43.221 2.58762 43.3892 2.41428 43.7579 2.2281C44.1007 2.04833 44.6311 2.04833 45.0192 2.22168ZM5.17462 24.6214V26.1622H3.62223H2.06985V24.6214V23.0806H3.62223H5.17462V24.6214ZM45.9247 24.6214V26.1622L44.3918 26.1494L42.8523 26.1301L42.8329 24.6021L42.82 23.0806H44.3724H45.9247V24.6214Z" fill="#E7332D"/>
<path d="M23.6484 9.94472C23.5061 9.99608 23.3444 10.0924 23.2797 10.1566C23.131 10.3042 21.5915 13.1227 19.1012 17.8158C18.9007 18.1881 18.532 18.8815 18.2733 19.3566C18.0146 19.8317 17.523 20.7562 17.1737 21.411C16.3587 22.9454 15.1944 25.1218 13.6873 27.9338C12.1478 30.8165 12.1737 30.5468 13.2992 31.8758C14.4247 33.2047 15.5502 35.1629 16.0353 36.6267C16.3005 37.4292 16.5333 38.5848 16.6174 39.5606C16.6562 39.9908 16.6886 41.4096 16.6886 42.7257C16.6886 45.3323 16.695 45.3837 17.0637 45.6918C17.5036 46.0578 17.9434 46.0578 18.3703 45.6983C18.7261 45.4029 18.7261 45.4158 18.7584 43.0789L18.7908 40.896H24.0301H29.2694L29.3017 43.1238C29.334 45.2553 29.3405 45.358 29.4699 45.5313C29.6704 45.801 30.0067 46 30.2525 46C30.7312 46 31.171 45.6597 31.3069 45.1782C31.3457 45.037 31.3715 43.9456 31.3715 42.3983C31.3715 39.6377 31.4168 38.9122 31.6691 37.7823C32.1671 35.5673 33.1697 33.6862 34.9162 31.6896C35.4142 31.1246 35.5759 30.8357 35.5759 30.489C35.5759 30.3285 35.2396 29.6352 34.444 28.1521C34.1141 27.5358 33.2344 25.8858 32.4841 24.4927C29.7027 19.286 28.3573 16.7693 27.4259 15.0551C26.902 14.0857 26.1258 12.654 25.7118 11.8772C25.2914 11.1003 24.8968 10.3877 24.8257 10.285C24.5799 9.94472 24.0689 9.79706 23.6484 9.94472ZM25.466 15.7934C25.6989 16.2493 28.1439 20.8139 29.9162 24.1075C30.4531 25.1154 31.2422 26.5856 31.6626 27.3817C32.0831 28.1778 32.6135 29.1665 32.8334 29.5774C33.0598 29.9883 33.2473 30.3671 33.2473 30.4184C33.2473 30.4634 33.1697 30.5725 33.0792 30.6624C32.9886 30.7458 32.704 31.0925 32.4453 31.4264C30.8476 33.4872 29.8968 35.6315 29.4569 38.1482L29.347 38.8095H23.9848C21.0417 38.8095 18.629 38.7838 18.629 38.7581C18.629 38.726 18.5708 38.3729 18.4997 37.9685C18.0146 35.2977 17.0831 33.2561 15.3432 31.1118L14.7481 30.3735L15.0974 29.7315C15.285 29.3719 15.8542 28.319 16.3522 27.3817C16.8503 26.4444 17.7623 24.7238 18.3897 23.5618C19.0107 22.3933 20.162 20.2426 20.9447 18.7724C21.7274 17.2957 22.4777 15.8897 22.6006 15.6393C22.7299 15.389 22.8593 15.1835 22.8981 15.1835C22.9628 15.1835 22.9822 25.7767 22.911 25.8794C22.8852 25.9115 22.6588 26.0592 22.4065 26.2068C21.1905 26.9195 20.4984 28.2805 20.686 29.5966C20.8929 31.0283 22.0249 32.1711 23.4932 32.4279C25.1879 32.7232 26.9278 31.5612 27.2901 29.8984C27.6135 28.3897 26.8826 26.8617 25.5048 26.1426L25.0326 25.8987V20.4929C25.0391 14.4709 25.0003 14.8818 25.466 15.7934ZM24.7028 28.1072C25.0391 28.3255 25.2267 28.6914 25.2267 29.1151C25.2267 29.8278 24.7157 30.335 23.9977 30.335C23.2797 30.335 22.7687 29.8278 22.7687 29.1151C22.7687 28.5823 23.0469 28.1714 23.5514 27.9595C23.836 27.844 24.4117 27.9146 24.7028 28.1072Z" fill="#E7332D"/>
</svg>
