<svg width="48" height="60" viewBox="0 0 48 60" fill="none" xmlns="http://www.w3.org/2000/svg">
<path d="M3.99639 0.12886C3.25115 0.303065 2.77264 0.516862 2.15292 0.968212C1.45475 1.46707 0.984076 2.04512 0.584004 2.86863C-0.0592504 4.20684 -0.012183 1.7363 0.0113507 30.2663L0.0348843 55.6845L0.254532 56.3179C0.874252 58.0917 2.26274 59.3824 4.04346 59.8416C4.63964 60 5.01618 60 24.6982 60C44.4351 60 44.7567 60 44.9999 59.8416C45.4784 59.5487 45.5255 59.3982 45.5726 57.9491L45.6196 56.6347L46.2943 55.051C47.2748 52.7388 47.6827 51.6857 47.8239 51.0759C47.9416 50.6088 47.9573 49.7615 47.9887 44.4799C48.0201 37.9551 48.0122 37.8522 47.6121 36.9891C47.3533 36.4506 46.663 35.7301 46.1374 35.4608C45.3294 35.0412 44.2704 34.962 43.4781 35.247L43.1486 35.3658L42.9054 34.9303C42.4583 34.1226 41.7679 33.6079 40.8109 33.3545C40.2069 33.1962 39.7205 33.2041 39.1479 33.3862L38.6693 33.5367L38.5517 33.2912C38.4497 33.0774 38.434 31.4145 38.434 19.0697C38.434 10.2565 38.4026 4.88783 38.3556 4.53942C38.0418 2.35393 36.6925 0.770251 34.6294 0.160533C34.1901 0.0259203 33.2409 0.0180019 19.3717 0.00216507C5.61237 -0.00575335 4.54551 0.00216507 3.99639 0.12886ZM34.1352 2.64692C34.7314 2.86071 35.2099 3.28039 35.5237 3.85843L35.8061 4.37313L35.8296 5.77469L35.861 7.18417H19.1756H2.48239L2.52945 5.97265C2.55299 5.25207 2.61574 4.62652 2.68635 4.4048C2.86677 3.82676 3.25115 3.33582 3.85519 2.90822L4.41215 2.5123H19.0893C32.6996 2.5123 33.79 2.52022 34.1352 2.64692ZM35.8453 20.6851V31.5729H35.304C35.0059 31.5729 34.6529 31.5966 34.5196 31.6204L34.2764 31.6679V29.0707C34.2764 26.7822 34.2607 26.3942 34.1352 25.9429C33.8449 24.8977 33.2488 24.1692 32.276 23.6861C31.7975 23.4486 31.5936 23.3932 31.0444 23.3615C29.5932 23.2665 28.4479 23.8208 27.7183 24.9689C27.1614 25.8479 27.1771 25.4915 27.1771 33.4891C27.1771 37.4484 27.1692 40.6791 27.1614 40.6791C27.1535 40.6791 26.7927 40.2515 26.3534 39.7289C25.4591 38.6678 24.91 38.2402 24.0863 37.9789C22.2428 37.3929 20.2346 38.3906 19.6855 40.1802C19.4894 40.8295 19.4816 41.7481 19.6698 42.3023C19.7483 42.5241 20.3366 43.6801 20.9956 44.8758C22.7998 48.1857 23.2156 48.9776 23.2156 49.0726C23.2156 49.128 20.0307 49.1439 12.8843 49.1359L2.54514 49.1122L2.52161 29.4508L2.50592 9.79725H19.1756H35.8453V20.6851ZM31.421 26.1409L31.6877 26.4101V30.1951C31.6877 32.2855 31.6955 35.3737 31.7112 37.0762C31.7269 40.0298 31.7348 40.1723 31.8916 40.4415C32.0878 40.782 32.5741 41.075 32.9585 41.075C33.3821 41.075 33.8606 40.8612 34.0646 40.5682C34.2372 40.3307 34.2372 40.2673 34.2764 37.5117C34.3078 35.2708 34.3391 34.669 34.4254 34.5344C34.8334 33.9088 35.8453 33.9959 36.214 34.6769C36.3395 34.9145 36.3552 35.2074 36.363 37.9155C36.3709 40.8849 36.3709 40.9008 36.5513 41.1938C36.7474 41.5184 37.2259 41.7876 37.6103 41.7876C37.9633 41.7876 38.4654 41.5184 38.6772 41.2254C38.8655 40.9641 38.8655 40.9245 38.9047 38.7391C38.9439 36.609 38.9517 36.514 39.1243 36.2368C39.5401 35.5559 40.4422 35.6509 40.8344 36.419C40.9207 36.5932 40.9443 37.1475 40.9443 39.2062C40.9443 41.3917 40.96 41.8352 41.0698 42.1044C41.3679 42.8566 42.3641 43.0863 43.0231 42.5636C43.4075 42.2627 43.4624 41.9935 43.5016 40.1327C43.5408 38.6124 43.5644 38.3906 43.7056 38.1373C43.9958 37.6067 44.5214 37.4484 44.9999 37.7493C45.5255 38.0739 45.502 37.7651 45.4706 44.2265C45.447 49.1518 45.4235 50.1337 45.3215 50.5375C45.1725 51.1235 45.2431 50.9493 44.239 53.3089C43.2976 55.5103 43.1094 56.0725 43.0231 56.8564L42.9682 57.3869L36.8808 57.3711L30.7856 57.3473L30.7385 56.9118C30.5973 55.6686 30.0952 54.7501 28.746 53.2693C27.7262 52.1449 27.4438 51.7253 26.6515 50.1495C25.6082 48.0511 24.8472 46.6337 23.3646 43.9494C21.9604 41.4234 21.8977 41.2571 22.1565 40.7662C22.2193 40.6395 22.3997 40.4811 22.5566 40.4019C23.1293 40.1327 23.7019 40.3782 24.2981 41.1463C24.455 41.3521 24.9414 41.9856 25.3728 42.5399C27.4673 45.2559 27.6399 45.446 28.1655 45.5885C28.5656 45.6993 28.8793 45.636 29.1853 45.3747C29.7265 44.9154 29.6873 45.6518 29.6873 35.6905C29.6873 27.3365 29.6952 26.6872 29.8207 26.4576C30.0325 26.0617 30.3384 25.8795 30.7777 25.8716C31.1072 25.8716 31.1935 25.9112 31.421 26.1409ZM24.9335 52.2954C25.3179 53.0714 25.8592 53.8395 26.6279 54.6947C27.6399 55.8191 28.0007 56.3892 28.189 57.1731L28.2361 57.3869L16.4536 57.3711L4.66318 57.3473L4.21604 57.1335C3.31391 56.7059 2.7491 55.9458 2.59221 54.9243C2.54514 54.6472 2.50592 53.7999 2.50592 53.0476V51.6857H13.5668H24.6276L24.9335 52.2954Z" fill="#E7332D"/>
<path d="M13.2837 13.5976C13.1504 13.6293 12.97 13.7006 12.8837 13.7639C12.7974 13.8273 11.9266 14.722 10.9461 15.7514C9.96548 16.7887 9.11827 17.636 9.06336 17.636C9.01629 17.636 8.66329 17.3193 8.28675 16.9234C7.49445 16.1078 7.19635 15.9652 6.58448 16.1236C5.70589 16.3611 5.36857 17.2718 5.87062 18.0398C6.19225 18.515 8.30244 20.6133 8.56915 20.7163C8.89078 20.843 9.39283 20.8192 9.63601 20.6767C9.92626 20.5025 14.5153 15.7039 14.6879 15.3951C15.1821 14.4845 14.3035 13.3601 13.2837 13.5976Z" fill="#E7332D"/>
<path d="M17.6224 16.1483C16.8929 16.5759 16.8301 17.6053 17.4812 18.2308L17.7322 18.4684L24.7688 18.4921C31.5073 18.508 31.8132 18.5001 32.0799 18.3654C32.4957 18.1358 32.7232 17.6924 32.684 17.1777C32.6526 16.7105 32.4879 16.4333 32.0799 16.1483L31.8211 15.9741H24.8708H17.9205L17.6224 16.1483Z" fill="#E7332D"/>
<path d="M13.0405 24.0189C12.9071 24.0902 12.5855 24.3673 12.3423 24.6286C12.0913 24.8978 11.2519 25.7689 10.4753 26.5686L9.07112 28.0177L8.35726 27.3129C7.96504 26.9249 7.56496 26.5607 7.47083 26.5132C7.18058 26.3627 6.57655 26.4102 6.23923 26.6082C5.7058 26.917 5.47831 27.6534 5.76072 28.1919C5.9333 28.5324 8.13762 30.8208 8.46709 31.0108C8.81225 31.2009 9.2437 31.2246 9.55748 31.0663C9.83989 30.9158 14.5466 26.0222 14.7114 25.6976C14.8839 25.365 14.8212 24.787 14.5858 24.4465C14.3819 24.1535 13.8798 23.8922 13.5268 23.8922C13.4013 23.8922 13.1817 23.9555 13.0405 24.0189Z" fill="#E7332D"/>
<path d="M17.7326 26.4415C17.2776 26.6791 17.0815 26.9562 17.0344 27.4393C16.9873 27.946 17.1756 28.3499 17.5914 28.627L17.913 28.8408H21.4038C24.7927 28.8408 24.9103 28.8329 25.1771 28.6745C25.3261 28.5874 25.5301 28.3895 25.632 28.239C25.7889 28.0173 25.8125 27.8906 25.7889 27.5105C25.7576 27.1463 25.7105 27.0117 25.5222 26.8137C25.0359 26.2911 25.1614 26.3069 21.4509 26.2832L18.0777 26.2594L17.7326 26.4415Z" fill="#E7332D"/>
<path d="M6.67217 34.4231C6.28779 34.5181 6.02107 34.7399 5.82496 35.1358C5.64453 35.4842 5.64453 35.5159 5.64453 38.9841V42.4761L5.82496 42.8166C5.95047 43.0542 6.1152 43.2205 6.35054 43.3472L6.68786 43.5293H10.163C12.4222 43.5293 13.7166 43.4976 13.8578 43.4422C14.1873 43.3234 14.5795 42.9037 14.6658 42.5791C14.7128 42.4207 14.7442 40.8766 14.7442 38.8733C14.7442 35.6663 14.7364 35.4288 14.5952 35.1516C14.5167 34.9932 14.3755 34.7953 14.2892 34.7161C13.9127 34.3677 13.6931 34.3519 10.2336 34.3519C8.42151 34.3598 6.82122 34.3914 6.67217 34.4231ZM12.2183 38.9129L12.1947 40.9558L10.2179 40.9796L8.23324 40.9954V38.9366V36.8778H10.2336H12.234L12.2183 38.9129Z" fill="#E7332D"/>
<path d="M16.0771 53.4201C15.2613 53.8556 15.1828 55.0354 15.928 55.5739L16.1948 55.7639L19.1522 55.7877C21.984 55.8114 22.1252 55.8035 22.4233 55.6531C23.0744 55.3126 23.2941 54.4653 22.8862 53.8398C22.5096 53.2696 22.4939 53.2696 19.2384 53.2696C16.5791 53.2696 16.3281 53.2776 16.0771 53.4201Z" fill="#E7332D"/>
</svg>
