<svg width="48" height="48" viewBox="0 0 48 48" fill="none" xmlns="http://www.w3.org/2000/svg">
<g clip-path="url(#clip0_376_3516)">
<path d="M25.5 15V33H31.5C31.8978 33 32.2794 33.158 32.5607 33.4393C32.842 33.7206 33 34.1022 33 34.5C33 34.8978 32.842 35.2794 32.5607 35.5607C32.2794 35.842 31.8978 36 31.5 36H16.5C16.1022 36 15.7206 35.842 15.4393 35.5607C15.158 35.2794 15 34.8978 15 34.5C15 34.1022 15.158 33.7206 15.4393 33.4393C15.7206 33.158 16.1022 33 16.5 33H22.5V15H15V16.5C15 16.8978 14.842 17.2794 14.5607 17.5607C14.2794 17.842 13.8978 18 13.5 18C13.1022 18 12.7206 17.842 12.4393 17.5607C12.158 17.2794 12 16.8978 12 16.5V13.5C12 13.1022 12.158 12.7206 12.4393 12.4393C12.7206 12.158 13.1022 12 13.5 12H34.5C34.6995 12 34.8971 12.0397 35.081 12.117C35.265 12.1942 35.4317 12.3074 35.5714 12.4499C35.7111 12.5924 35.821 12.7613 35.8945 12.9468C35.9681 13.1322 36.004 13.3305 36 13.53L35.937 16.53C35.929 16.9278 35.7634 17.3062 35.4764 17.5819C35.1895 17.8576 34.8048 18.008 34.407 18C34.0092 17.992 33.6308 17.8264 33.3551 17.5394C33.0794 17.2525 32.929 16.8678 32.937 16.47L32.967 15H25.5ZM3 45H7.5C7.89782 45 8.27935 45.158 8.56066 45.4393C8.84196 45.7206 9 46.1022 9 46.5C9 46.8978 8.84196 47.2794 8.56066 47.5607C8.27935 47.842 7.89782 48 7.5 48H1.5C1.10218 48 0.720644 47.842 0.43934 47.5607C0.158035 47.2794 0 46.8978 0 46.5V40.512C0 40.1142 0.158035 39.7326 0.43934 39.4513C0.720644 39.17 1.10218 39.012 1.5 39.012C1.89782 39.012 2.27936 39.17 2.56066 39.4513C2.84196 39.7326 3 40.1142 3 40.512V45ZM3 3V7.491C3 7.88882 2.84196 8.27036 2.56066 8.55166C2.27936 8.83296 1.89782 8.991 1.5 8.991C1.10218 8.991 0.720644 8.83296 0.43934 8.55166C0.158035 8.27036 0 7.88882 0 7.491V1.5C0 1.10218 0.158035 0.720644 0.43934 0.43934C0.720644 0.158035 1.10218 0 1.5 0L7.5 0C7.89782 0 8.27935 0.158035 8.56066 0.43934C8.84196 0.720644 9 1.10218 9 1.5C9 1.89782 8.84196 2.27936 8.56066 2.56066C8.27935 2.84196 7.89782 3 7.5 3H3ZM45 3H40.515C40.1172 3 39.7356 2.84196 39.4543 2.56066C39.173 2.27936 39.015 1.89782 39.015 1.5C39.015 1.10218 39.173 0.720644 39.4543 0.43934C39.7356 0.158035 40.1172 0 40.515 0L46.5 0C46.8978 0 47.2794 0.158035 47.5607 0.43934C47.842 0.720644 48 1.10218 48 1.5V7.5C48 7.89782 47.842 8.27935 47.5607 8.56066C47.2794 8.84196 46.8978 9 46.5 9C46.1022 9 45.7206 8.84196 45.4393 8.56066C45.158 8.27935 45 7.89782 45 7.5V3ZM45 45V40.5C45 40.1022 45.158 39.7206 45.4393 39.4393C45.7206 39.158 46.1022 39 46.5 39C46.8978 39 47.2794 39.158 47.5607 39.4393C47.842 39.7206 48 40.1022 48 40.5V46.5C48 46.8978 47.842 47.2794 47.5607 47.5607C47.2794 47.842 46.8978 48 46.5 48H40.5C40.1022 48 39.7206 47.842 39.4393 47.5607C39.158 47.2794 39 46.8978 39 46.5C39 46.1022 39.158 45.7206 39.4393 45.4393C39.7206 45.158 40.1022 45 40.5 45H45Z" fill="#E7332D"/>
</g>
<defs>
<clipPath id="clip0_376_3516">
<rect width="48" height="48" fill="white"/>
</clipPath>
</defs>
</svg>
