<svg width="48" height="46" viewBox="0 0 48 46" fill="none" xmlns="http://www.w3.org/2000/svg">
<path d="M2.3272 0.121372C2.07682 0.188126 1.74706 0.315565 1.59439 0.406593C1.17302 0.649335 0.586776 1.23798 0.37304 1.63244C-0.0300051 2.38494 0.00052863 0.625062 0.00052863 22.9937C0.00052863 40.8959 0.0127421 43.3415 0.0921297 43.651C0.379146 44.7615 1.2463 45.6232 2.36384 45.9085C2.66917 45.9874 5.30729 45.9995 24 45.9995C47.4743 45.9995 45.5934 46.0298 46.3629 45.6232C46.8026 45.3926 47.3522 44.8222 47.6148 44.3246C48.03 43.5539 47.9995 45.2591 47.9995 22.9694C47.9995 0.679679 48.03 2.38494 47.6148 1.61423C47.23 0.892076 46.54 0.364114 45.6789 0.127441L45.2209 1.53381e-06L24 0.00607007C3.20657 0.00607007 2.77299 0.00607007 2.3272 0.121372ZM45.5079 2.11792C45.6911 2.23322 45.8255 2.38494 45.9171 2.56092C46.0453 2.82794 46.0453 2.88256 46.0331 5.28569L46.0148 7.73738L23.9878 7.75559L1.95469 7.76772V5.32817C1.95469 3.08282 1.9669 2.86435 2.07071 2.63981C2.19285 2.3728 2.37605 2.19074 2.65696 2.0451C2.82184 1.95407 4.83096 1.948 24.0367 1.94193H45.227L45.5079 2.11792ZM46.0453 26.3192C46.0453 37.5642 46.027 43.0077 45.9843 43.1594C45.8988 43.4507 45.6606 43.7299 45.3675 43.8755C45.1354 43.9969 44.8851 43.9969 23.9145 43.9847L2.69971 43.9665L2.46154 43.7784C2.3333 43.6813 2.16842 43.475 2.09514 43.3293L1.95469 43.0623V26.386V9.70966H24H46.0453V26.3192Z" fill="#E7332D"/>
<path d="M4.56269 3.88914C4.3001 4.02872 4.05583 4.36856 4.00087 4.67805C3.86041 5.43055 4.64208 6.14057 5.3932 5.94031C6.21761 5.72184 6.51684 4.71447 5.9367 4.10761C5.8451 4.01052 5.69854 3.89521 5.60694 3.84667C5.36878 3.72529 4.83749 3.7435 4.56269 3.88914Z" fill="#E7332D"/>
<path d="M8.45927 3.85969C7.81806 4.18739 7.64097 4.93382 8.05623 5.50426C8.27607 5.80769 8.56919 5.94727 8.97834 5.94727C9.60734 5.94727 10.0776 5.48606 10.0776 4.85493C10.0776 4.43013 9.83939 4.04781 9.45467 3.84755C9.23483 3.73225 8.68522 3.73832 8.45927 3.85969Z" fill="#E7332D"/>
<path d="M12.3062 3.8353C11.5367 4.2601 11.4573 5.25534 12.1596 5.75903C12.6298 6.09887 13.3321 5.98356 13.6802 5.51629C14.0832 4.96405 13.9 4.15694 13.3077 3.85351C13.1061 3.75034 12.4833 3.73821 12.3062 3.8353Z" fill="#E7332D"/>
<path d="M5.53236 12.259C5.43465 12.2893 5.28809 12.3743 5.2087 12.4532C4.86672 12.7688 4.88504 12.4835 4.88504 18.4186C4.88504 24.481 4.86062 24.1108 5.26977 24.4203L5.4774 24.5781H24.0113H42.5453L42.7529 24.4385C43.2048 24.1412 43.1743 24.5235 43.1621 18.3457C43.1438 12.8659 43.1438 12.8112 43.0155 12.6474C42.9483 12.5564 42.814 12.4229 42.7224 12.3561L42.5575 12.2287L24.1335 12.2165C13.8925 12.2105 5.63007 12.2287 5.53236 12.259ZM34.5943 14.2677C34.4844 14.3162 31.6753 15.1233 27.4189 16.3189C26.4601 16.5859 25.2999 16.9196 24.8358 17.0531L23.9991 17.2959L21.6603 16.6283C20.3778 16.2582 18.0206 15.5906 16.4268 15.1355C14.8329 14.6864 13.4711 14.292 13.4039 14.2616C13.3368 14.2313 17.9596 14.207 23.9991 14.207C30.6372 14.207 34.6676 14.2313 34.5943 14.2677ZM8.97656 15.0141C9.96585 15.2993 11.0956 15.6331 11.4803 15.7423C11.865 15.8576 12.9643 16.1732 13.923 16.4463C14.8818 16.7194 16.1031 17.0713 16.6405 17.2291C17.1779 17.393 18.2283 17.6964 18.9794 17.9027C19.7244 18.1151 20.3351 18.3033 20.3351 18.3215C20.3351 18.3397 19.9443 18.4671 19.4618 18.5946C17.7031 19.074 13.4101 20.3362 9.57502 21.4953C8.13994 21.9262 6.93691 22.266 6.90637 22.2478C6.87584 22.2235 6.84531 20.5972 6.84531 18.3215L6.83309 14.4315L7.00408 14.4619C7.09568 14.474 7.98727 14.7289 8.97656 15.0141ZM41.1591 18.3336V22.2235L40.9942 22.1993C40.8965 22.1811 40.1209 21.9626 39.266 21.7077C38.411 21.4589 36.9821 21.0402 36.0905 20.7853C35.1989 20.5243 33.9653 20.1663 33.3424 19.9903C32.7196 19.8083 31.828 19.5534 31.3578 19.4199C30.8875 19.2924 30.2158 19.0982 29.8616 18.9951C29.5074 18.8919 28.8723 18.7099 28.4448 18.5885C28.0113 18.4671 27.6632 18.3457 27.6632 18.3154C27.6632 18.2911 27.7059 18.2668 27.7548 18.2668C27.8342 18.2668 28.9334 17.9574 33.9837 16.507C34.9241 16.2339 36.0355 15.9123 36.4569 15.7788C36.8782 15.6513 37.9469 15.3357 38.8385 15.0809C39.7301 14.826 40.5667 14.5832 40.7011 14.5347C41.2079 14.3648 41.1591 13.9643 41.1591 18.3336ZM25.8739 19.8811C26.8754 20.1724 27.9563 20.4819 28.2739 20.5729C29.8677 21.0402 32.2493 21.7259 33.6356 22.1204C34.4844 22.3631 35.1989 22.5755 35.2172 22.5998C35.2416 22.618 30.228 22.6362 24.0907 22.6362C17.9474 22.6362 12.9459 22.6119 12.9826 22.5876C13.0131 22.5573 13.3551 22.4481 13.7398 22.3388C14.1245 22.2296 15.352 21.8655 16.4573 21.5378C19.2725 20.6943 19.8404 20.5243 21.6786 19.9964C22.5702 19.7415 23.4068 19.4927 23.5411 19.4502C23.6755 19.4077 23.8465 19.3653 23.9197 19.3653C23.993 19.3592 24.8724 19.5959 25.8739 19.8811Z" fill="#E7332D"/>
<path d="M5.55794 27.0713C5.18543 27.223 4.94727 27.5871 4.94727 28.0119C4.94727 28.376 5.13047 28.6612 5.47245 28.8251C5.71671 28.9465 5.82664 28.9465 13.2097 28.9343L20.6965 28.9161L20.8675 28.7887C21.466 28.3457 21.466 27.6053 20.8675 27.1623L20.6965 27.0349L13.2036 27.0227C8.30597 27.0167 5.65565 27.0349 5.55794 27.0713Z" fill="#E7332D"/>
<path d="M24.3057 27.1193C24.1896 27.18 24.037 27.3014 23.9698 27.3924C23.8477 27.5563 23.8477 27.6169 23.8477 34.2256V40.8949L23.9759 41.0648C24.0431 41.1558 24.208 41.2954 24.3423 41.3682L24.5805 41.5078H33.4536C40.8488 41.5078 42.3572 41.4957 42.5221 41.4229C42.7602 41.3258 43.0228 41.0527 43.1083 40.8221C43.1572 40.7068 43.1755 38.6131 43.1755 34.2013V27.7565L43.0411 27.4895C42.9556 27.3256 42.8213 27.1861 42.6869 27.1132C42.4854 27.0101 42.0702 27.004 33.4963 27.004C24.8736 27.004 24.5072 27.0101 24.3057 27.1193ZM41.1725 33.3214C41.1847 35.7245 41.1725 37.7089 41.1542 37.721C41.1297 37.7332 41.0198 37.6422 40.916 37.5147C40.4152 36.9503 38.6015 34.9599 38.3695 34.7293C38.2046 34.5654 38.0336 34.4622 37.8932 34.4319C37.484 34.3591 37.2397 34.5169 36.0978 35.6213C35.5115 36.1918 34.9986 36.653 34.968 36.6469C34.9314 36.6469 34.681 36.392 34.4123 36.0825C32.5375 33.9343 31.2307 32.4778 31.0658 32.3625C30.7727 32.1501 30.5223 32.1259 30.2109 32.2776C30.0032 32.3747 29.7834 32.6053 29.246 33.2728C27.5911 35.33 25.8751 37.4116 25.8262 37.4298C25.7652 37.454 25.753 29.0491 25.814 28.9884C25.8323 28.9642 29.2949 28.9459 33.5085 28.9459H41.1603L41.1725 33.3214ZM32.2933 36.6348C33.1971 37.6664 34.1314 38.7224 34.3696 38.9894C34.6138 39.2564 34.8093 39.4931 34.8093 39.5173C34.8093 39.5416 32.9956 39.5659 30.7788 39.5659C28.5621 39.5659 26.7484 39.5537 26.7484 39.5295C26.7484 39.5113 27.469 38.601 28.3483 37.5147C30.5712 34.7596 30.559 34.7717 30.6078 34.7717C30.6261 34.7717 31.3895 35.6092 32.2933 36.6348ZM38.8702 38.1519C39.5237 38.8741 40.061 39.4809 40.061 39.5052C40.061 39.5234 39.4809 39.5355 38.7725 39.5355H37.484L37.1542 39.1714C36.971 38.9712 36.6962 38.6677 36.5436 38.4918L36.2627 38.1762L36.9588 37.5086C37.3374 37.1385 37.655 36.8411 37.6611 36.835C37.6733 36.835 38.2168 37.4298 38.8702 38.1519Z" fill="#E7332D"/>
<path d="M34.7114 30.5492C33.8381 30.9498 33.6183 32.0421 34.2717 32.74C34.5709 33.0677 34.9923 33.2255 35.4259 33.1769C36.8182 33.0131 37.0991 31.1379 35.8228 30.5492C35.6518 30.4704 35.4014 30.4036 35.2671 30.4036C35.1327 30.4036 34.8824 30.4704 34.7114 30.5492Z" fill="#E7332D"/>
<path d="M5.44802 31.296C5.13657 31.4477 4.94727 31.7693 4.94727 32.1395C4.94727 32.534 5.12436 32.8131 5.49687 32.9952L5.76557 33.1348H13.1364H20.5011L20.7698 32.9952C21.0691 32.8435 21.3133 32.4551 21.3133 32.1395C21.3133 31.8179 21.0874 31.4538 20.8004 31.3203C20.5439 31.1928 20.4889 31.1928 13.0937 31.1928C6.32128 31.1928 5.63122 31.205 5.44802 31.296Z" fill="#E7332D"/>
<path d="M5.55774 35.3849C4.82493 35.6762 4.72722 36.72 5.39896 37.1326C5.59438 37.254 5.69209 37.254 13.0751 37.2722C21.1177 37.2843 20.6658 37.3025 21.02 36.9688C21.4047 36.6168 21.3986 35.9857 21.0078 35.6155C20.8795 35.4941 20.6902 35.3788 20.5803 35.3545C20.2444 35.2939 5.72873 35.3181 5.55774 35.3849Z" fill="#E7332D"/>
<path d="M5.57652 39.5738C5.47271 39.6041 5.30172 39.7134 5.1979 39.8165C4.70937 40.2959 4.88035 41.103 5.52156 41.3943C5.75972 41.5036 6.04674 41.5096 11.0421 41.5096C16.8435 41.5096 16.5442 41.5278 16.8984 41.1273C17.3747 40.5872 17.1366 39.7619 16.4465 39.5738C16.1534 39.4888 5.85743 39.4949 5.57652 39.5738Z" fill="#E7332D"/>
</svg>
