<svg width="960" height="136" viewBox="0 0 960 136" fill="none" xmlns="http://www.w3.org/2000/svg">
<g opacity="0.9">
<rect x="1.5" y="1.5" width="957" height="133" rx="48.5" fill="white"/>
<rect x="1.5" y="1.5" width="957" height="133" rx="48.5" stroke="#068B35" stroke-width="3"/>
<rect width="155" height="136" fill="#068B35"/>
<path d="M60.8653 83.6259C57.5091 83.6259 54.7794 82.4132 52.7324 80.0056C50.6854 77.5979 49.3421 74.025 48.5598 68.8267C47.4079 61.1659 48.5509 54.7088 51.7779 50.6461C53.6779 48.2533 56.1717 46.8698 58.989 46.6472C61.4012 46.4542 65.0067 47.4324 68.489 53.1784C70.6696 56.7766 72.3276 61.5563 73.0386 66.2914C73.8981 72.0077 73.2583 76.2159 71.0822 79.1535C69.3544 81.487 66.6974 82.9327 63.1839 83.4582C62.4162 83.5709 61.6412 83.627 60.8653 83.6259ZM66.6796 103.625C64.7187 103.625 62.7311 102.997 60.941 101.79C58.3579 100.04 56.5699 97.3406 55.9654 94.2793C55.5423 92.1032 55.7962 90.3739 56.7402 88.989C58.2736 86.7402 61.0256 86.234 63.9379 85.6966C64.2452 85.6402 64.5569 85.5838 64.8731 85.523C65.544 85.3953 66.2298 85.2261 66.8948 85.0613C69.3856 84.4468 71.9625 83.81 74.0896 85.3211C75.5131 86.3305 76.3161 88.0464 76.5566 90.5639C76.8297 93.4688 76.2063 96.3678 74.8006 98.728C73.288 101.268 71.0199 102.947 68.4178 103.457C67.8451 103.569 67.263 103.625 66.6796 103.625ZM97.1345 69.3759C96.3593 69.3731 95.5854 69.3136 94.8189 69.1978C91.3069 68.6783 88.6498 67.231 86.922 64.8931C84.7459 61.9555 84.1017 57.7488 84.9656 52.031C85.6766 47.2914 87.3302 42.5162 89.5004 38.9314C92.9649 33.2062 96.5749 32.2131 99.0004 32.3883C101.809 32.5931 104.298 33.9573 106.201 36.3367C109.45 40.3995 110.602 46.8758 109.446 54.5708C108.664 59.7661 107.338 63.3212 105.273 65.7496C103.209 68.178 100.491 69.3759 97.1345 69.3759ZM91.3202 89.3749C90.7382 89.3749 90.1576 89.3187 89.5865 89.2072C86.9799 88.6966 84.7118 87.0177 83.2037 84.478C81.7979 82.1178 81.1745 79.2188 81.4476 76.3139C81.6851 73.7905 82.4867 72.0805 83.9147 71.0696C86.0418 69.56 88.6186 70.1953 91.1094 70.8113C91.7744 70.9746 92.4602 71.1438 93.1311 71.273L94.0648 71.4466C96.9786 71.9825 99.7307 72.4857 101.264 74.7375C102.208 76.1224 102.462 77.8547 102.039 80.0278C101.435 83.0898 99.6469 85.7896 97.0633 87.5402C95.2627 88.7485 93.2751 89.3749 91.3202 89.3749Z" fill="white"/>
<path d="M194.2 59V30.6H206.12C207.4 30.6 208.573 30.8667 209.64 31.4C210.707 31.9333 211.64 32.64 212.44 33.52C213.24 34.4 213.853 35.3867 214.28 36.48C214.707 37.5733 214.92 38.6933 214.92 39.84C214.92 41.4133 214.56 42.92 213.84 44.36C213.147 45.7733 212.147 46.92 210.84 47.8C209.56 48.68 208.067 49.12 206.36 49.12H198.68V59H194.2ZM198.68 45.16H206.08C206.933 45.16 207.68 44.9333 208.32 44.48C208.96 44 209.453 43.36 209.8 42.56C210.173 41.76 210.36 40.8533 210.36 39.84C210.36 38.8 210.147 37.88 209.72 37.08C209.293 36.28 208.733 35.6667 208.04 35.24C207.373 34.7867 206.64 34.56 205.84 34.56H198.68V45.16ZM227.651 59.4C226.025 59.4 224.545 59.12 223.211 58.56C221.905 57.9733 220.771 57.1867 219.811 56.2C218.851 55.1867 218.105 54.04 217.571 52.76C217.065 51.4533 216.811 50.0667 216.811 48.6C216.811 46.6267 217.265 44.8267 218.171 43.2C219.078 41.5467 220.345 40.2267 221.971 39.24C223.598 38.2267 225.505 37.72 227.691 37.72C229.878 37.72 231.758 38.2267 233.331 39.24C234.931 40.2267 236.171 41.5333 237.051 43.16C237.931 44.7867 238.371 46.5333 238.371 48.4C238.371 48.72 238.358 49.0267 238.331 49.32C238.305 49.5867 238.278 49.8133 238.251 50H221.491C221.571 51.2267 221.905 52.3067 222.491 53.24C223.105 54.1467 223.878 54.8667 224.811 55.4C225.745 55.9067 226.745 56.16 227.811 56.16C228.985 56.16 230.091 55.8667 231.131 55.28C232.198 54.6933 232.918 53.92 233.291 52.96L237.051 54.04C236.598 55.0533 235.905 55.9733 234.971 56.8C234.065 57.6 232.985 58.24 231.731 58.72C230.478 59.1733 229.118 59.4 227.651 59.4ZM221.371 47.08H234.011C233.931 45.88 233.585 44.8267 232.971 43.92C232.385 42.9867 231.625 42.2667 230.691 41.76C229.785 41.2267 228.771 40.96 227.651 40.96C226.558 40.96 225.545 41.2267 224.611 41.76C223.705 42.2667 222.958 42.9867 222.371 43.92C221.785 44.8267 221.451 45.88 221.371 47.08ZM253.72 41.88C252.014 41.9067 250.494 42.2933 249.16 43.04C247.854 43.7867 246.92 44.84 246.36 46.2V59H241.96V38.08H246.04V42.76C246.76 41.32 247.707 40.1733 248.88 39.32C250.054 38.44 251.294 37.96 252.6 37.88C252.867 37.88 253.08 37.88 253.24 37.88C253.427 37.88 253.587 37.8933 253.72 37.92V41.88ZM266.011 59.4C264.384 59.4 262.904 59.12 261.571 58.56C260.264 57.9733 259.131 57.1733 258.171 56.16C257.211 55.1467 256.464 53.9867 255.931 52.68C255.424 51.3733 255.171 49.9867 255.171 48.52C255.171 46.5467 255.611 44.7467 256.491 43.12C257.397 41.4933 258.651 40.1867 260.251 39.2C261.877 38.2133 263.797 37.72 266.011 37.72C268.144 37.72 269.997 38.2 271.571 39.16C273.171 40.0933 274.344 41.3467 275.091 42.92L270.811 44.28C270.331 43.4 269.651 42.72 268.771 42.24C267.917 41.7333 266.971 41.48 265.931 41.48C264.757 41.48 263.691 41.7867 262.731 42.4C261.797 42.9867 261.051 43.8133 260.491 44.88C259.957 45.92 259.691 47.1333 259.691 48.52C259.691 49.8533 259.971 51.0667 260.531 52.16C261.091 53.2267 261.837 54.08 262.771 54.72C263.731 55.3333 264.797 55.64 265.971 55.64C266.691 55.64 267.384 55.52 268.051 55.28C268.744 55.0133 269.344 54.6667 269.851 54.24C270.357 53.7867 270.717 53.2933 270.931 52.76L275.251 54.04C274.797 55.08 274.117 56 273.211 56.8C272.331 57.6 271.277 58.24 270.051 58.72C268.851 59.1733 267.504 59.4 266.011 59.4ZM288.079 59.4C286.426 59.4 284.946 59.12 283.639 58.56C282.332 57.9733 281.199 57.1733 280.239 56.16C279.306 55.1467 278.586 54 278.079 52.72C277.572 51.4133 277.319 50.0267 277.319 48.56C277.319 47.0933 277.572 45.7067 278.079 44.4C278.586 43.0933 279.306 41.9467 280.239 40.96C281.199 39.9467 282.332 39.16 283.639 38.6C284.972 38.0133 286.452 37.72 288.079 37.72C289.706 37.72 291.172 38.0133 292.479 38.6C293.812 39.16 294.946 39.9467 295.879 40.96C296.839 41.9467 297.572 43.0933 298.079 44.4C298.586 45.7067 298.839 47.0933 298.839 48.56C298.839 50.0267 298.586 51.4133 298.079 52.72C297.572 54 296.839 55.1467 295.879 56.16C294.946 57.1733 293.812 57.9733 292.479 58.56C291.172 59.12 289.706 59.4 288.079 59.4ZM281.839 48.6C281.839 49.9333 282.119 51.1333 282.679 52.2C283.239 53.2667 283.986 54.1067 284.919 54.72C285.852 55.3333 286.906 55.64 288.079 55.64C289.226 55.64 290.266 55.3333 291.199 54.72C292.159 54.08 292.919 53.2267 293.479 52.16C294.039 51.0667 294.319 49.8667 294.319 48.56C294.319 47.2267 294.039 46.0267 293.479 44.96C292.919 43.8933 292.159 43.0533 291.199 42.44C290.266 41.8 289.226 41.48 288.079 41.48C286.906 41.48 285.852 41.8 284.919 42.44C283.986 43.08 283.239 43.9333 282.679 45C282.119 46.04 281.839 47.24 281.839 48.6ZM314.502 41.88C312.795 41.9067 311.275 42.2933 309.942 43.04C308.635 43.7867 307.702 44.84 307.142 46.2V59H302.742V38.08H306.822V42.76C307.542 41.32 308.488 40.1733 309.662 39.32C310.835 38.44 312.075 37.96 313.382 37.88C313.648 37.88 313.862 37.88 314.022 37.88C314.208 37.88 314.368 37.8933 314.502 37.92V41.88ZM325.143 59.4C323.383 59.4 321.716 59.12 320.143 58.56C318.569 57.9733 317.223 57.1067 316.103 55.96L317.743 53C318.943 54.0667 320.143 54.84 321.343 55.32C322.569 55.8 323.783 56.04 324.983 56.04C326.209 56.04 327.209 55.8133 327.983 55.36C328.756 54.88 329.143 54.1867 329.143 53.28C329.143 52.6133 328.943 52.12 328.543 51.8C328.143 51.48 327.556 51.2 326.783 50.96C326.036 50.72 325.129 50.4533 324.063 50.16C322.569 49.7067 321.316 49.24 320.303 48.76C319.289 48.2533 318.529 47.64 318.023 46.92C317.516 46.2 317.263 45.28 317.263 44.16C317.263 42.8 317.609 41.64 318.303 40.68C318.996 39.72 319.956 38.9867 321.183 38.48C322.436 37.9733 323.876 37.72 325.503 37.72C327.023 37.72 328.423 37.96 329.703 38.44C331.009 38.8933 332.156 39.6133 333.143 40.6L331.263 43.52C330.329 42.6667 329.369 42.04 328.383 41.64C327.423 41.24 326.383 41.04 325.263 41.04C324.623 41.04 324.009 41.12 323.423 41.28C322.836 41.4133 322.343 41.68 321.943 42.08C321.569 42.4533 321.383 42.9867 321.383 43.68C321.383 44.24 321.543 44.6933 321.863 45.04C322.183 45.3867 322.663 45.68 323.303 45.92C323.943 46.16 324.729 46.4267 325.663 46.72C327.289 47.2 328.676 47.68 329.823 48.16C330.969 48.6133 331.849 49.2133 332.463 49.96C333.103 50.68 333.423 51.68 333.423 52.96C333.423 54.9867 332.663 56.5733 331.143 57.72C329.649 58.84 327.649 59.4 325.143 59.4ZM346.751 59.4C345.098 59.4 343.618 59.12 342.311 58.56C341.004 57.9733 339.871 57.1733 338.911 56.16C337.978 55.1467 337.258 54 336.751 52.72C336.244 51.4133 335.991 50.0267 335.991 48.56C335.991 47.0933 336.244 45.7067 336.751 44.4C337.258 43.0933 337.978 41.9467 338.911 40.96C339.871 39.9467 341.004 39.16 342.311 38.6C343.644 38.0133 345.124 37.72 346.751 37.72C348.378 37.72 349.844 38.0133 351.151 38.6C352.484 39.16 353.618 39.9467 354.551 40.96C355.511 41.9467 356.244 43.0933 356.751 44.4C357.258 45.7067 357.511 47.0933 357.511 48.56C357.511 50.0267 357.258 51.4133 356.751 52.72C356.244 54 355.511 55.1467 354.551 56.16C353.618 57.1733 352.484 57.9733 351.151 58.56C349.844 59.12 348.378 59.4 346.751 59.4ZM340.511 48.6C340.511 49.9333 340.791 51.1333 341.351 52.2C341.911 53.2667 342.658 54.1067 343.591 54.72C344.524 55.3333 345.578 55.64 346.751 55.64C347.898 55.64 348.938 55.3333 349.871 54.72C350.831 54.08 351.591 53.2267 352.151 52.16C352.711 51.0667 352.991 49.8667 352.991 48.56C352.991 47.2267 352.711 46.0267 352.151 44.96C351.591 43.8933 350.831 43.0533 349.871 42.44C348.938 41.8 347.898 41.48 346.751 41.48C345.578 41.48 344.524 41.8 343.591 42.44C342.658 43.08 341.911 43.9333 341.351 45C340.791 46.04 340.511 47.24 340.511 48.6ZM216.52 98.68C216.52 100.2 216.12 101.507 215.32 102.6C214.547 103.693 213.493 104.533 212.16 105.12C210.827 105.707 209.36 106 207.76 106H194.2V77.6H208.84C210.173 77.6 211.32 77.96 212.28 78.68C213.267 79.3733 214.013 80.28 214.52 81.4C215.053 82.4933 215.32 83.64 215.32 84.84C215.32 86.2267 214.96 87.5333 214.24 88.76C213.547 89.96 212.547 90.8533 211.24 91.44C212.867 91.92 214.147 92.8 215.08 94.08C216.04 95.3333 216.52 96.8667 216.52 98.68ZM211.92 97.84C211.92 97.04 211.747 96.32 211.4 95.68C211.08 95.0133 210.627 94.48 210.04 94.08C209.48 93.6533 208.813 93.44 208.04 93.44H198.68V102.12H207.76C208.56 102.12 209.267 101.933 209.88 101.56C210.52 101.16 211.013 100.64 211.36 100C211.733 99.3333 211.92 98.6133 211.92 97.84ZM198.68 81.48V89.84H206.92C207.667 89.84 208.333 89.6667 208.92 89.32C209.507 88.9467 209.973 88.4533 210.32 87.84C210.667 87.2 210.84 86.48 210.84 85.68C210.84 84.8533 210.68 84.1333 210.36 83.52C210.04 82.88 209.6 82.3867 209.04 82.04C208.507 81.6667 207.88 81.48 207.16 81.48H198.68ZM232.392 88.88C230.686 88.9067 229.166 89.2933 227.832 90.04C226.526 90.7867 225.592 91.84 225.032 93.2V106H220.632V85.08H224.712V89.76C225.432 88.32 226.379 87.1733 227.552 86.32C228.726 85.44 229.966 84.96 231.272 84.88C231.539 84.88 231.752 84.88 231.912 84.88C232.099 84.88 232.259 84.8933 232.392 84.92V88.88ZM244.683 106.4C243.056 106.4 241.576 106.12 240.243 105.56C238.936 104.973 237.803 104.187 236.843 103.2C235.883 102.187 235.136 101.04 234.603 99.76C234.096 98.4533 233.843 97.0667 233.843 95.6C233.843 93.6267 234.296 91.8267 235.202 90.2C236.109 88.5467 237.376 87.2267 239.003 86.24C240.629 85.2267 242.536 84.72 244.723 84.72C246.909 84.72 248.789 85.2267 250.363 86.24C251.963 87.2267 253.203 88.5333 254.083 90.16C254.963 91.7867 255.403 93.5333 255.403 95.4C255.403 95.72 255.389 96.0267 255.363 96.32C255.336 96.5867 255.309 96.8133 255.283 97H238.523C238.603 98.2267 238.936 99.3067 239.523 100.24C240.136 101.147 240.909 101.867 241.843 102.4C242.776 102.907 243.776 103.16 244.843 103.16C246.016 103.16 247.123 102.867 248.163 102.28C249.229 101.693 249.949 100.92 250.323 99.96L254.083 101.04C253.629 102.053 252.936 102.973 252.003 103.8C251.096 104.6 250.016 105.24 248.763 105.72C247.509 106.173 246.149 106.4 244.683 106.4ZM238.403 94.08H251.043C250.963 92.88 250.616 91.8267 250.003 90.92C249.416 89.9867 248.656 89.2667 247.723 88.76C246.816 88.2267 245.803 87.96 244.683 87.96C243.589 87.96 242.576 88.2267 241.643 88.76C240.736 89.2667 239.989 89.9867 239.403 90.92C238.816 91.8267 238.483 92.88 238.403 94.08ZM264.246 106L256.286 85.08H260.846L266.806 101.92L272.766 85.08H277.006L269.046 106H264.246ZM288.94 106.4C287.314 106.4 285.834 106.12 284.5 105.56C283.194 104.973 282.06 104.187 281.1 103.2C280.14 102.187 279.394 101.04 278.86 99.76C278.354 98.4533 278.1 97.0667 278.1 95.6C278.1 93.6267 278.554 91.8267 279.46 90.2C280.367 88.5467 281.634 87.2267 283.26 86.24C284.887 85.2267 286.794 84.72 288.98 84.72C291.167 84.72 293.047 85.2267 294.62 86.24C296.22 87.2267 297.46 88.5333 298.34 90.16C299.22 91.7867 299.66 93.5333 299.66 95.4C299.66 95.72 299.647 96.0267 299.62 96.32C299.594 96.5867 299.567 96.8133 299.54 97H282.78C282.86 98.2267 283.194 99.3067 283.78 100.24C284.394 101.147 285.167 101.867 286.1 102.4C287.034 102.907 288.034 103.16 289.1 103.16C290.274 103.16 291.38 102.867 292.42 102.28C293.487 101.693 294.207 100.92 294.58 99.96L298.34 101.04C297.887 102.053 297.194 102.973 296.26 103.8C295.354 104.6 294.274 105.24 293.02 105.72C291.767 106.173 290.407 106.4 288.94 106.4ZM282.66 94.08H295.3C295.22 92.88 294.874 91.8267 294.26 90.92C293.674 89.9867 292.914 89.2667 291.98 88.76C291.074 88.2267 290.06 87.96 288.94 87.96C287.847 87.96 286.834 88.2267 285.9 88.76C284.994 89.2667 284.247 89.9867 283.66 90.92C283.074 91.8267 282.74 92.88 282.66 94.08Z" fill="#0F0F0F"/>
<rect x="506" y="28" width="222" height="80" rx="29" fill="white"/>
<rect x="506" y="28" width="222" height="80" rx="29" stroke="#A6A6A6" stroke-width="2"/>
<path d="M546 47C557.598 47 567 56.4017 567 68C567 79.5983 557.598 89 546 89C534.402 89 525 79.5983 525 68C525 56.4017 534.402 47 546 47ZM546 55.4C545.443 55.4 544.909 55.6212 544.515 56.0151C544.121 56.4089 543.9 56.943 543.9 57.5V68C543.9 68.5569 544.121 69.091 544.515 69.4847L550.815 75.7847C551.211 76.1672 551.742 76.3789 552.292 76.3741C552.843 76.3693 553.37 76.1485 553.759 75.7591C554.148 75.3698 554.369 74.8431 554.374 74.2924C554.379 73.7418 554.167 73.2114 553.785 72.8153L548.1 67.1306V57.5C548.1 56.943 547.879 56.4089 547.485 56.0151C547.091 55.6212 546.557 55.4 546 55.4Z" fill="#555555"/>
<path d="M601.71 62V43.54H608.262C610.255 43.54 611.919 43.956 613.254 44.788C614.589 45.6027 615.585 46.712 616.244 48.116C616.92 49.5027 617.258 51.0453 617.258 52.744C617.258 54.616 616.885 56.2453 616.14 57.632C615.412 59.0187 614.372 60.0933 613.02 60.856C611.668 61.6187 610.082 62 608.262 62H601.71ZM614.294 52.744C614.294 51.444 614.051 50.3 613.566 49.312C613.098 48.3067 612.413 47.5267 611.512 46.972C610.628 46.4 609.545 46.114 608.262 46.114H604.622V59.426H608.262C609.562 59.426 610.654 59.1313 611.538 58.542C612.439 57.9527 613.124 57.1553 613.592 56.15C614.06 55.1447 614.294 54.0093 614.294 52.744ZM619.827 56.722V48.402H622.687V56.15C622.687 57.3633 622.904 58.282 623.337 58.906C623.788 59.5127 624.438 59.816 625.287 59.816C625.825 59.816 626.345 59.7033 626.847 59.478C627.367 59.2527 627.835 58.9233 628.251 58.49C628.685 58.0393 629.031 57.502 629.291 56.878V48.402H632.151V58.776C632.151 59.1053 632.212 59.3393 632.333 59.478C632.455 59.6167 632.654 59.6947 632.931 59.712V62C632.637 62.052 632.394 62.0867 632.203 62.104C632.013 62.1213 631.831 62.13 631.657 62.13C631.137 62.13 630.704 61.9913 630.357 61.714C630.011 61.4193 629.811 61.0467 629.759 60.596L629.707 59.244C629.101 60.232 628.312 60.986 627.341 61.506C626.371 62.0087 625.305 62.26 624.143 62.26C622.722 62.26 621.647 61.792 620.919 60.856C620.191 59.92 619.827 58.542 619.827 56.722ZM643.445 50.872C642.336 50.8893 641.348 51.1407 640.481 51.626C639.632 52.1113 639.025 52.796 638.661 53.68V62H635.801V48.402H638.453V51.444C638.921 50.508 639.536 49.7627 640.299 49.208C641.062 48.636 641.868 48.324 642.717 48.272C642.89 48.272 643.029 48.272 643.133 48.272C643.254 48.272 643.358 48.2807 643.445 48.298V50.872ZM644.512 58.022C644.512 57.1553 644.755 56.4013 645.24 55.76C645.743 55.1013 646.428 54.5987 647.294 54.252C648.161 53.888 649.166 53.706 650.31 53.706C650.917 53.706 651.532 53.7493 652.156 53.836C652.798 53.9227 653.361 54.0613 653.846 54.252V53.394C653.846 52.4407 653.56 51.6953 652.988 51.158C652.416 50.6207 651.593 50.352 650.518 50.352C649.756 50.352 649.036 50.4907 648.36 50.768C647.684 51.028 646.965 51.4007 646.202 51.886L645.24 49.962C646.142 49.3553 647.043 48.9047 647.944 48.61C648.863 48.3153 649.825 48.168 650.83 48.168C652.65 48.168 654.08 48.6533 655.12 49.624C656.178 50.5773 656.706 51.938 656.706 53.706V58.776C656.706 59.1053 656.758 59.3393 656.862 59.478C656.984 59.6167 657.183 59.6947 657.46 59.712V62C657.2 62.052 656.966 62.0867 656.758 62.104C656.55 62.1213 656.377 62.13 656.238 62.13C655.632 62.13 655.172 61.9827 654.86 61.688C654.548 61.3933 654.366 61.0467 654.314 60.648L654.236 59.868C653.647 60.6307 652.893 61.22 651.974 61.636C651.056 62.052 650.128 62.26 649.192 62.26C648.291 62.26 647.485 62.078 646.774 61.714C646.064 61.3327 645.509 60.8213 645.11 60.18C644.712 59.5387 644.512 58.8193 644.512 58.022ZM653.17 58.854C653.378 58.6287 653.543 58.4033 653.664 58.178C653.786 57.9527 653.846 57.7533 653.846 57.58V56.02C653.361 55.8293 652.85 55.6907 652.312 55.604C651.775 55.5 651.246 55.448 650.726 55.448C649.686 55.448 648.837 55.656 648.178 56.072C647.537 56.488 647.216 57.06 647.216 57.788C647.216 58.1867 647.32 58.568 647.528 58.932C647.754 59.296 648.066 59.5907 648.464 59.816C648.88 60.0413 649.392 60.154 649.998 60.154C650.622 60.154 651.22 60.0327 651.792 59.79C652.364 59.5473 652.824 59.2353 653.17 58.854ZM667.64 61.298C667.398 61.4193 667.094 61.5493 666.73 61.688C666.366 61.8267 665.95 61.948 665.482 62.052C665.032 62.156 664.564 62.208 664.078 62.208C663.489 62.208 662.943 62.104 662.44 61.896C661.938 61.688 661.53 61.3587 661.218 60.908C660.924 60.44 660.776 59.842 660.776 59.114V50.612H658.982V48.402H660.776V43.93H663.636V48.402H666.6V50.612H663.636V58.204C663.671 58.672 663.818 59.0187 664.078 59.244C664.356 59.4693 664.694 59.582 665.092 59.582C665.491 59.582 665.872 59.5127 666.236 59.374C666.6 59.2353 666.869 59.1227 667.042 59.036L667.64 61.298ZM668.633 58.022C668.633 57.1553 668.876 56.4013 669.361 55.76C669.864 55.1013 670.549 54.5987 671.415 54.252C672.282 53.888 673.287 53.706 674.431 53.706C675.038 53.706 675.653 53.7493 676.277 53.836C676.919 53.9227 677.482 54.0613 677.967 54.252V53.394C677.967 52.4407 677.681 51.6953 677.109 51.158C676.537 50.6207 675.714 50.352 674.639 50.352C673.877 50.352 673.157 50.4907 672.481 50.768C671.805 51.028 671.086 51.4007 670.323 51.886L669.361 49.962C670.263 49.3553 671.164 48.9047 672.065 48.61C672.984 48.3153 673.946 48.168 674.951 48.168C676.771 48.168 678.201 48.6533 679.241 49.624C680.299 50.5773 680.827 51.938 680.827 53.706V58.776C680.827 59.1053 680.879 59.3393 680.983 59.478C681.105 59.6167 681.304 59.6947 681.581 59.712V62C681.321 62.052 681.087 62.0867 680.879 62.104C680.671 62.1213 680.498 62.13 680.359 62.13C679.753 62.13 679.293 61.9827 678.981 61.688C678.669 61.3933 678.487 61.0467 678.435 60.648L678.357 59.868C677.768 60.6307 677.014 61.22 676.095 61.636C675.177 62.052 674.249 62.26 673.313 62.26C672.412 62.26 671.606 62.078 670.895 61.714C670.185 61.3327 669.63 60.8213 669.231 60.18C668.833 59.5387 668.633 58.8193 668.633 58.022ZM677.291 58.854C677.499 58.6287 677.664 58.4033 677.785 58.178C677.907 57.9527 677.967 57.7533 677.967 57.58V56.02C677.482 55.8293 676.971 55.6907 676.433 55.604C675.896 55.5 675.367 55.448 674.847 55.448C673.807 55.448 672.958 55.656 672.299 56.072C671.658 56.488 671.337 57.06 671.337 57.788C671.337 58.1867 671.441 58.568 671.649 58.932C671.875 59.296 672.187 59.5907 672.585 59.816C673.001 60.0413 673.513 60.154 674.119 60.154C674.743 60.154 675.341 60.0327 675.913 59.79C676.485 59.5473 676.945 59.2353 677.291 58.854ZM684.297 51.834V48.532H686.663V51.834H684.297ZM684.297 62V58.672H686.663V62H684.297ZM595.733 91.388V93H587.127V91.388H590.637V76.282C590.481 76.49 590.247 76.724 589.935 76.984C589.64 77.2267 589.293 77.4693 588.895 77.712C588.496 77.9373 588.089 78.128 587.673 78.284C587.257 78.44 586.875 78.518 586.529 78.518V76.854C586.997 76.854 587.465 76.7327 587.933 76.49C588.401 76.23 588.834 75.944 589.233 75.632C589.649 75.3027 589.978 75.008 590.221 74.748C590.481 74.4707 590.619 74.3233 590.637 74.306H592.431V91.388H595.733ZM603.221 93.26C601.904 93.26 600.716 92.9393 599.659 92.298C598.619 91.6393 597.83 90.7727 597.293 89.698L598.489 88.814C598.957 89.6633 599.616 90.348 600.465 90.868C601.314 91.388 602.242 91.648 603.247 91.648C604.114 91.648 604.885 91.4573 605.561 91.076C606.254 90.6947 606.8 90.1747 607.199 89.516C607.615 88.84 607.823 88.06 607.823 87.176C607.823 86.3267 607.624 85.5813 607.225 84.94C606.826 84.2813 606.298 83.77 605.639 83.406C604.98 83.0247 604.235 82.834 603.403 82.834C602.606 82.834 601.843 83.016 601.115 83.38C600.387 83.744 599.798 84.2553 599.347 84.914H597.683L599.763 74.54H608.681V76.178H601.089L599.789 82.808C600.24 82.3227 600.794 81.95 601.453 81.69C602.129 81.4127 602.848 81.274 603.611 81.274C604.738 81.274 605.752 81.5253 606.653 82.028C607.572 82.5307 608.291 83.224 608.811 84.108C609.348 84.9747 609.617 85.9887 609.617 87.15C609.617 88.346 609.331 89.412 608.759 90.348C608.187 91.2667 607.416 91.986 606.445 92.506C605.492 93.0087 604.417 93.26 603.221 93.26ZM612.39 86.734V85.096H619.982V86.734H612.39ZM622.917 93C622.9 91.908 622.986 90.946 623.177 90.114C623.368 89.282 623.654 88.5453 624.035 87.904C624.434 87.2627 624.91 86.708 625.465 86.24C626.02 85.7547 626.644 85.33 627.337 84.966C627.996 84.602 628.68 84.2727 629.391 83.978C630.102 83.666 630.76 83.328 631.367 82.964C631.974 82.6 632.459 82.158 632.823 81.638C633.204 81.1007 633.395 80.4333 633.395 79.636C633.395 78.9773 633.248 78.3707 632.953 77.816C632.676 77.2613 632.242 76.8193 631.653 76.49C631.064 76.1433 630.318 75.97 629.417 75.97C628.533 75.97 627.744 76.1173 627.051 76.412C626.375 76.7067 625.803 77.062 625.335 77.478C624.884 77.894 624.52 78.2753 624.243 78.622L623.073 77.478C623.177 77.3567 623.385 77.1227 623.697 76.776C624.026 76.4293 624.46 76.0653 624.997 75.684C625.552 75.3027 626.202 74.982 626.947 74.722C627.71 74.4447 628.594 74.306 629.599 74.306C630.882 74.306 631.948 74.5573 632.797 75.06C633.646 75.5453 634.279 76.1867 634.695 76.984C635.128 77.7813 635.345 78.6567 635.345 79.61C635.345 80.5287 635.163 81.3087 634.799 81.95C634.452 82.574 633.993 83.1027 633.421 83.536C632.866 83.952 632.26 84.316 631.601 84.628C630.96 84.94 630.353 85.2347 629.781 85.512C628.672 86.0147 627.788 86.5087 627.129 86.994C626.47 87.4793 625.976 87.9647 625.647 88.45C625.335 88.9353 625.127 89.4207 625.023 89.906C624.919 90.3913 624.858 90.8853 624.841 91.388H635.371V93H622.917ZM643.744 93.26C642.427 93.26 641.24 92.9393 640.182 92.298C639.142 91.6393 638.354 90.7727 637.816 89.698L639.012 88.814C639.48 89.6633 640.139 90.348 640.988 90.868C641.838 91.388 642.765 91.648 643.77 91.648C644.637 91.648 645.408 91.4573 646.084 91.076C646.778 90.6947 647.324 90.1747 647.722 89.516C648.138 88.84 648.346 88.06 648.346 87.176C648.346 86.3267 648.147 85.5813 647.748 84.94C647.35 84.2813 646.821 83.77 646.162 83.406C645.504 83.0247 644.758 82.834 643.926 82.834C643.129 82.834 642.366 83.016 641.638 83.38C640.91 83.744 640.321 84.2553 639.87 84.914H638.206L640.286 74.54H649.204V76.178H641.612L640.312 82.808C640.763 82.3227 641.318 81.95 641.976 81.69C642.652 81.4127 643.372 81.274 644.134 81.274C645.261 81.274 646.275 81.5253 647.176 82.028C648.095 82.5307 648.814 83.224 649.334 84.108C649.872 84.9747 650.14 85.9887 650.14 87.15C650.14 88.346 649.854 89.412 649.282 90.348C648.71 91.2667 647.939 91.986 646.968 92.506C646.015 93.0087 644.94 93.26 643.744 93.26ZM679.951 93H678.183V85.434C678.183 83.8567 677.931 82.6953 677.429 81.95C676.926 81.2047 676.181 80.832 675.193 80.832C674.17 80.832 673.251 81.196 672.437 81.924C671.639 82.652 671.076 83.588 670.747 84.732V93H668.979V85.434C668.979 83.8393 668.736 82.678 668.251 81.95C667.765 81.2047 667.02 80.832 666.015 80.832C665.009 80.832 664.099 81.1873 663.285 81.898C662.47 82.6087 661.898 83.5447 661.569 84.706V93H659.801V79.454H661.413V82.522C661.985 81.4647 662.713 80.65 663.597 80.078C664.498 79.506 665.495 79.22 666.587 79.22C667.713 79.22 668.623 79.5407 669.317 80.182C670.01 80.8233 670.435 81.664 670.591 82.704C671.215 81.56 671.96 80.6933 672.827 80.104C673.711 79.5147 674.707 79.22 675.817 79.22C676.579 79.22 677.221 79.3587 677.741 79.636C678.278 79.9133 678.703 80.312 679.015 80.832C679.344 81.3347 679.578 81.95 679.717 82.678C679.873 83.3887 679.951 84.186 679.951 85.07V93ZM683.693 93V79.454H685.461V93H683.693ZM683.693 76.62V74.02H685.461V76.62H683.693ZM700.743 93H698.975V85.434C698.975 83.8393 698.741 82.678 698.273 81.95C697.805 81.2047 697.069 80.832 696.063 80.832C695.37 80.832 694.685 81.0053 694.009 81.352C693.333 81.6813 692.735 82.1407 692.215 82.73C691.713 83.302 691.349 83.9607 691.123 84.706V93H689.355V79.454H690.967V82.522C691.331 81.8633 691.808 81.2913 692.397 80.806C692.987 80.3033 693.654 79.9133 694.399 79.636C695.145 79.3587 695.916 79.22 696.713 79.22C697.459 79.22 698.091 79.3587 698.611 79.636C699.131 79.9133 699.547 80.312 699.859 80.832C700.171 81.3347 700.397 81.95 700.535 82.678C700.674 83.3887 700.743 84.186 700.743 85.07V93Z" fill="#555555"/>
<rect x="755" y="28" width="176" height="80" rx="29" fill="white"/>
<rect x="755" y="28" width="176" height="80" rx="29" stroke="#A6A6A6" stroke-width="2"/>
<path d="M808.542 72.0841C806.864 73.1164 804.937 73.6593 802.973 73.6528C801.328 73.6397 799.701 73.2992 798.186 72.6507C797.018 74.3191 796.393 76.3144 796.398 78.359V83.5804C796.398 83.7746 796.359 83.9668 796.283 84.1451C796.207 84.3233 796.095 84.4839 795.955 84.6167C795.816 84.7495 795.65 84.8518 795.469 84.9172C795.289 84.9826 795.097 85.0098 794.905 84.9969C794.545 84.9652 794.211 84.797 793.968 84.5261C793.726 84.2552 793.594 83.9016 793.598 83.5362V81.3336L786.841 74.4956C785.836 74.8749 784.774 75.0732 783.702 75.0817C782.226 75.0856 780.778 74.6769 779.517 73.9007C775.704 71.5565 773.651 66.1616 774.049 59.4635C774.069 59.117 774.214 58.7899 774.456 58.5445C774.699 58.299 775.022 58.1523 775.364 58.132C781.984 57.7372 787.315 59.807 789.625 63.6651C790.532 65.1773 790.928 66.9474 790.753 68.7076C790.742 68.844 790.693 68.9743 790.61 69.0827C790.528 69.1911 790.416 69.2731 790.288 69.3186C790.161 69.3641 790.023 69.3712 789.892 69.3392C789.76 69.3071 789.641 69.2372 789.548 69.1379L786.188 65.5791C785.923 65.3246 785.571 65.1849 785.206 65.1896C784.841 65.1943 784.492 65.3432 784.234 65.6044C783.976 65.8656 783.829 66.2185 783.824 66.5878C783.82 66.9572 783.958 67.3138 784.209 67.5816L793.637 77.364C793.647 77.2259 793.659 77.0878 793.673 76.9514C793.979 74.3252 795.125 71.872 796.935 69.9648L805.787 60.4993C806.049 60.2337 806.197 59.8735 806.197 59.4978C806.197 59.1221 806.05 58.7617 805.787 58.4959C805.525 58.2301 805.169 58.0807 804.798 58.0805C804.426 58.0804 804.07 58.2295 803.808 58.495L795.234 67.6701C795.148 67.7621 795.04 67.8291 794.92 67.8643C794.8 67.8994 794.672 67.9013 794.551 67.8699C794.43 67.8385 794.32 67.7748 794.231 67.6854C794.143 67.5961 794.079 67.4845 794.048 67.362C793.218 64.2671 793.584 61.1863 795.168 58.541C798.293 53.3214 805.564 50.5274 814.621 51.0657C814.963 51.0859 815.286 51.2327 815.529 51.4782C815.772 51.7236 815.917 52.0506 815.937 52.3972C816.462 61.5634 813.701 68.9219 808.542 72.0841Z" fill="#555555"/>
<path d="M830.477 62V43.54H838.225C839.057 43.54 839.82 43.7133 840.513 44.06C841.207 44.4067 841.813 44.866 842.333 45.438C842.853 46.01 843.252 46.6513 843.529 47.362C843.807 48.0727 843.945 48.8007 843.945 49.546C843.945 50.5687 843.711 51.548 843.243 52.484C842.793 53.4027 842.143 54.148 841.293 54.72C840.461 55.292 839.491 55.578 838.381 55.578H833.389V62H830.477ZM833.389 53.004H838.199C838.754 53.004 839.239 52.8567 839.655 52.562C840.071 52.25 840.392 51.834 840.617 51.314C840.86 50.794 840.981 50.2047 840.981 49.546C840.981 48.87 840.843 48.272 840.565 47.752C840.288 47.232 839.924 46.8333 839.473 46.556C839.04 46.2613 838.563 46.114 838.043 46.114H833.389V53.004ZM846.313 62V48.402H849.173V62H846.313ZM846.313 46.166V43.02H849.173V46.166H846.313ZM851.622 58.022C851.622 57.1553 851.864 56.4013 852.35 55.76C852.852 55.1013 853.537 54.5987 854.404 54.252C855.27 53.888 856.276 53.706 857.42 53.706C858.026 53.706 858.642 53.7493 859.266 53.836C859.907 53.9227 860.47 54.0613 860.956 54.252V53.394C860.956 52.4407 860.67 51.6953 860.098 51.158C859.526 50.6207 858.702 50.352 857.628 50.352C856.865 50.352 856.146 50.4907 855.47 50.768C854.794 51.028 854.074 51.4007 853.312 51.886L852.35 49.962C853.251 49.3553 854.152 48.9047 855.054 48.61C855.972 48.3153 856.934 48.168 857.94 48.168C859.76 48.168 861.19 48.6533 862.23 49.624C863.287 50.5773 863.816 51.938 863.816 53.706V58.776C863.816 59.1053 863.868 59.3393 863.972 59.478C864.093 59.6167 864.292 59.6947 864.57 59.712V62C864.31 62.052 864.076 62.0867 863.868 62.104C863.66 62.1213 863.486 62.13 863.348 62.13C862.741 62.13 862.282 61.9827 861.97 61.688C861.658 61.3933 861.476 61.0467 861.424 60.648L861.346 59.868C860.756 60.6307 860.002 61.22 859.084 61.636C858.165 62.052 857.238 62.26 856.302 62.26C855.4 62.26 854.594 62.078 853.884 61.714C853.173 61.3327 852.618 60.8213 852.22 60.18C851.821 59.5387 851.622 58.8193 851.622 58.022ZM860.28 58.854C860.488 58.6287 860.652 58.4033 860.774 58.178C860.895 57.9527 860.956 57.7533 860.956 57.58V56.02C860.47 55.8293 859.959 55.6907 859.422 55.604C858.884 55.5 858.356 55.448 857.836 55.448C856.796 55.448 855.946 55.656 855.288 56.072C854.646 56.488 854.326 57.06 854.326 57.788C854.326 58.1867 854.43 58.568 854.638 58.932C854.863 59.296 855.175 59.5907 855.574 59.816C855.99 60.0413 856.501 60.154 857.108 60.154C857.732 60.154 858.33 60.0327 858.902 59.79C859.474 59.5473 859.933 59.2353 860.28 58.854ZM879.479 62H876.619V54.382C876.619 53.1167 876.411 52.1893 875.995 51.6C875.597 51.0107 874.999 50.716 874.201 50.716C873.647 50.716 873.092 50.8547 872.537 51.132C872 51.4093 871.515 51.7907 871.081 52.276C870.648 52.744 870.336 53.29 870.145 53.914V62H867.285V48.402H869.885V51.132C870.232 50.5253 870.683 50.0053 871.237 49.572C871.809 49.1213 872.451 48.7747 873.161 48.532C873.872 48.2893 874.626 48.168 875.423 48.168C876.238 48.168 876.905 48.3153 877.425 48.61C877.963 48.9047 878.379 49.312 878.673 49.832C878.985 50.3347 879.193 50.924 879.297 51.6C879.419 52.2587 879.479 52.9607 879.479 53.706V62ZM890.263 61.298C890.021 61.4193 889.717 61.5493 889.353 61.688C888.989 61.8267 888.573 61.948 888.105 62.052C887.655 62.156 887.187 62.208 886.701 62.208C886.112 62.208 885.566 62.104 885.063 61.896C884.561 61.688 884.153 61.3587 883.841 60.908C883.547 60.44 883.399 59.842 883.399 59.114V50.612H881.605V48.402H883.399V43.93H886.259V48.402H889.223V50.612H886.259V58.204C886.294 58.672 886.441 59.0187 886.701 59.244C886.979 59.4693 887.317 59.582 887.715 59.582C888.114 59.582 888.495 59.5127 888.859 59.374C889.223 59.2353 889.492 59.1227 889.665 59.036L890.263 61.298ZM898.229 62.26C897.171 62.26 896.209 62.078 895.343 61.714C894.493 61.3327 893.757 60.8213 893.133 60.18C892.509 59.5213 892.023 58.776 891.677 57.944C891.347 57.0947 891.183 56.1933 891.183 55.24C891.183 53.9573 891.477 52.7873 892.067 51.73C892.656 50.6553 893.479 49.7973 894.537 49.156C895.594 48.4973 896.833 48.168 898.255 48.168C899.676 48.168 900.898 48.4973 901.921 49.156C902.961 49.7973 903.767 50.6467 904.339 51.704C904.911 52.7613 905.197 53.8967 905.197 55.11C905.197 55.318 905.188 55.5173 905.171 55.708C905.153 55.8813 905.136 56.0287 905.119 56.15H894.225C894.277 56.9473 894.493 57.6493 894.875 58.256C895.273 58.8453 895.776 59.3133 896.383 59.66C896.989 59.9893 897.639 60.154 898.333 60.154C899.095 60.154 899.815 59.9633 900.491 59.582C901.184 59.2007 901.652 58.698 901.895 58.074L904.339 58.776C904.044 59.4347 903.593 60.0327 902.987 60.57C902.397 61.09 901.695 61.506 900.881 61.818C900.066 62.1127 899.182 62.26 898.229 62.26ZM894.147 54.252H902.363C902.311 53.472 902.085 52.7873 901.687 52.198C901.305 51.5913 900.811 51.1233 900.205 50.794C899.615 50.4473 898.957 50.274 898.229 50.274C897.518 50.274 896.859 50.4473 896.253 50.794C895.663 51.1233 895.178 51.5913 894.797 52.198C894.415 52.7873 894.199 53.472 894.147 54.252ZM907.529 51.834V48.532H909.895V51.834H907.529ZM907.529 62V58.672H909.895V62H907.529ZM867.334 91.388V93H858.728V91.388H862.238V76.282C862.082 76.49 861.848 76.724 861.536 76.984C861.241 77.2267 860.895 77.4693 860.496 77.712C860.097 77.9373 859.69 78.128 859.274 78.284C858.858 78.44 858.477 78.518 858.13 78.518V76.854C858.598 76.854 859.066 76.7327 859.534 76.49C860.002 76.23 860.435 75.944 860.834 75.632C861.25 75.3027 861.579 75.008 861.822 74.748C862.082 74.4707 862.221 74.3233 862.238 74.306H864.032V91.388H867.334ZM869.102 93C869.085 91.908 869.172 90.946 869.362 90.114C869.553 89.282 869.839 88.5453 870.22 87.904C870.619 87.2627 871.096 86.708 871.65 86.24C872.205 85.7547 872.829 85.33 873.522 84.966C874.181 84.602 874.866 84.2727 875.576 83.978C876.287 83.666 876.946 83.328 877.552 82.964C878.159 82.6 878.644 82.158 879.008 81.638C879.39 81.1007 879.58 80.4333 879.58 79.636C879.58 78.9773 879.433 78.3707 879.138 77.816C878.861 77.2613 878.428 76.8193 877.838 76.49C877.249 76.1433 876.504 75.97 875.602 75.97C874.718 75.97 873.93 76.1173 873.236 76.412C872.56 76.7067 871.988 77.062 871.52 77.478C871.07 77.894 870.706 78.2753 870.428 78.622L869.258 77.478C869.362 77.3567 869.57 77.1227 869.882 76.776C870.212 76.4293 870.645 76.0653 871.182 75.684C871.737 75.3027 872.387 74.982 873.132 74.722C873.895 74.4447 874.779 74.306 875.784 74.306C877.067 74.306 878.133 74.5573 878.982 75.06C879.832 75.5453 880.464 76.1867 880.88 76.984C881.314 77.7813 881.53 78.6567 881.53 79.61C881.53 80.5287 881.348 81.3087 880.984 81.95C880.638 82.574 880.178 83.1027 879.606 83.536C879.052 83.952 878.445 84.316 877.786 84.628C877.145 84.94 876.538 85.2347 875.966 85.512C874.857 86.0147 873.973 86.5087 873.314 86.994C872.656 87.4793 872.162 87.9647 871.832 88.45C871.52 88.9353 871.312 89.4207 871.208 89.906C871.104 90.3913 871.044 90.8853 871.026 91.388H881.556V93H869.102Z" fill="#555555"/>
</g>
</svg>
