<svg width="483" height="102" viewBox="0 0 483 102" fill="none" xmlns="http://www.w3.org/2000/svg">
<g filter="url(#filter0_d_102_361)">
<rect x="7" y="4" width="467" height="86" rx="32" fill="#068B35" shape-rendering="crispEdges"/>
<path d="M89.56 58V35.28H93.144V58H89.56ZM112.839 58H109.319V48.624C109.319 47.0667 109.063 45.9253 108.551 45.2C108.06 44.4747 107.324 44.112 106.343 44.112C105.66 44.112 104.977 44.2827 104.295 44.624C103.633 44.9653 103.036 45.4347 102.503 46.032C101.969 46.608 101.585 47.28 101.351 48.048V58H97.8307V41.264H101.031V44.624C101.457 43.8773 102.012 43.2373 102.695 42.704C103.399 42.1493 104.188 41.7227 105.063 41.424C105.937 41.1253 106.865 40.976 107.847 40.976C108.849 40.976 109.671 41.1573 110.311 41.52C110.972 41.8827 111.484 42.384 111.847 43.024C112.231 43.6427 112.487 44.368 112.615 45.2C112.764 46.0107 112.839 46.8747 112.839 47.792V58ZM116.924 58V41.264H120.445V58H116.924ZM116.924 38.512V34.64H120.445V38.512H116.924ZM123.459 55.792L133.379 43.76H123.811V41.264H137.219V43.472L127.363 55.504H137.315V58H123.459V55.792ZM140.456 58V41.264H143.976V58H140.456ZM140.456 38.512V34.64H143.976V38.512H140.456ZM146.99 53.104C146.99 52.0373 147.288 51.1093 147.886 50.32C148.504 49.5093 149.347 48.8907 150.414 48.464C151.48 48.016 152.718 47.792 154.126 47.792C154.872 47.792 155.63 47.8453 156.398 47.952C157.187 48.0587 157.88 48.2293 158.478 48.464V47.408C158.478 46.2347 158.126 45.3173 157.422 44.656C156.718 43.9947 155.704 43.664 154.382 43.664C153.443 43.664 152.558 43.8347 151.726 44.176C150.894 44.496 150.008 44.9547 149.07 45.552L147.886 43.184C148.995 42.4373 150.104 41.8827 151.214 41.52C152.344 41.1573 153.528 40.976 154.766 40.976C157.006 40.976 158.766 41.5733 160.046 42.768C161.347 43.9413 161.998 45.616 161.998 47.792V54.032C161.998 54.4373 162.062 54.7253 162.19 54.896C162.339 55.0667 162.584 55.1627 162.926 55.184V58C162.606 58.064 162.318 58.1067 162.062 58.128C161.806 58.1493 161.592 58.16 161.422 58.16C160.675 58.16 160.11 57.9787 159.726 57.616C159.342 57.2533 159.118 56.8267 159.054 56.336L158.958 55.376C158.232 56.3147 157.304 57.04 156.174 57.552C155.043 58.064 153.902 58.32 152.75 58.32C151.64 58.32 150.648 58.096 149.774 57.648C148.899 57.1787 148.216 56.5493 147.726 55.76C147.235 54.9707 146.99 54.0853 146.99 53.104ZM157.646 54.128C157.902 53.8507 158.104 53.5733 158.254 53.296C158.403 53.0187 158.478 52.7733 158.478 52.56V50.64C157.88 50.4053 157.251 50.2347 156.59 50.128C155.928 50 155.278 49.936 154.638 49.936C153.358 49.936 152.312 50.192 151.502 50.704C150.712 51.216 150.318 51.92 150.318 52.816C150.318 53.3067 150.446 53.776 150.702 54.224C150.979 54.672 151.363 55.0347 151.854 55.312C152.366 55.5893 152.995 55.728 153.742 55.728C154.51 55.728 155.246 55.5787 155.95 55.28C156.654 54.9813 157.219 54.5973 157.646 54.128ZM174.174 58V41.264H177.695V58H174.174ZM174.174 38.512V34.64H177.695V38.512H174.174ZM181.957 34.64H185.477V53.168C185.477 54.0213 185.605 54.5653 185.861 54.8C186.117 55.0347 186.437 55.152 186.821 55.152C187.247 55.152 187.642 55.1093 188.005 55.024C188.389 54.9387 188.719 54.832 188.997 54.704L189.509 57.488C188.997 57.7013 188.389 57.8827 187.685 58.032C186.981 58.1813 186.351 58.256 185.797 58.256C184.602 58.256 183.663 57.9253 182.981 57.264C182.298 56.5813 181.957 55.6427 181.957 54.448V34.64ZM208.054 58.32C206.71 58.32 205.526 58 204.502 57.36C203.478 56.72 202.667 55.888 202.07 54.864V64.816H198.549V41.264H201.654V44.272C202.294 43.2693 203.126 42.4693 204.15 41.872C205.174 41.2747 206.315 40.976 207.574 40.976C208.726 40.976 209.782 41.2107 210.742 41.68C211.702 42.128 212.534 42.7573 213.238 43.568C213.942 44.3787 214.486 45.3067 214.87 46.352C215.275 47.376 215.478 48.464 215.478 49.616C215.478 51.216 215.158 52.6773 214.517 54C213.899 55.3227 213.024 56.3787 211.894 57.168C210.784 57.936 209.504 58.32 208.054 58.32ZM206.902 55.312C207.648 55.312 208.32 55.152 208.918 54.832C209.536 54.512 210.059 54.0853 210.486 53.552C210.934 53.0187 211.275 52.4107 211.51 51.728C211.744 51.0453 211.862 50.3413 211.862 49.616C211.862 48.848 211.734 48.1227 211.478 47.44C211.222 46.7573 210.848 46.16 210.358 45.648C209.888 45.136 209.334 44.7307 208.694 44.432C208.075 44.1333 207.392 43.984 206.646 43.984C206.198 43.984 205.728 44.0693 205.238 44.24C204.747 44.4107 204.288 44.6453 203.862 44.944C203.435 45.2427 203.062 45.5947 202.742 46C202.422 46.4053 202.198 46.832 202.07 47.28V51.664C202.368 52.3467 202.763 52.9653 203.254 53.52C203.744 54.0533 204.31 54.4907 204.95 54.832C205.59 55.152 206.24 55.312 206.902 55.312ZM226.227 58.32C224.926 58.32 223.742 58.096 222.675 57.648C221.63 57.1787 220.723 56.5493 219.955 55.76C219.187 54.9493 218.59 54.032 218.163 53.008C217.758 51.9627 217.555 50.8533 217.555 49.68C217.555 48.1013 217.918 46.6613 218.643 45.36C219.369 44.0373 220.382 42.9813 221.683 42.192C222.985 41.3813 224.51 40.976 226.259 40.976C228.009 40.976 229.513 41.3813 230.771 42.192C232.051 42.9813 233.043 44.0267 233.747 45.328C234.451 46.6293 234.803 48.0267 234.803 49.52C234.803 49.776 234.793 50.0213 234.771 50.256C234.75 50.4693 234.729 50.6507 234.707 50.8H221.299C221.363 51.7813 221.63 52.6453 222.099 53.392C222.59 54.1173 223.209 54.6933 223.955 55.12C224.702 55.5253 225.502 55.728 226.355 55.728C227.294 55.728 228.179 55.4933 229.011 55.024C229.865 54.5547 230.441 53.936 230.739 53.168L233.747 54.032C233.385 54.8427 232.83 55.5787 232.083 56.24C231.358 56.88 230.494 57.392 229.491 57.776C228.489 58.1387 227.401 58.32 226.227 58.32ZM221.203 48.464H231.315C231.251 47.504 230.974 46.6613 230.483 45.936C230.014 45.1893 229.406 44.6133 228.659 44.208C227.934 43.7813 227.123 43.568 226.227 43.568C225.353 43.568 224.542 43.7813 223.795 44.208C223.07 44.6133 222.473 45.1893 222.003 45.936C221.534 46.6613 221.267 47.504 221.203 48.464ZM247.083 44.304C245.717 44.3253 244.501 44.6347 243.435 45.232C242.389 45.8293 241.643 46.672 241.195 47.76V58H237.674V41.264H240.939V45.008C241.515 43.856 242.272 42.9387 243.211 42.256C244.149 41.552 245.141 41.168 246.187 41.104C246.4 41.104 246.571 41.104 246.699 41.104C246.848 41.104 246.976 41.1147 247.083 41.136V44.304ZM256.915 58.32C255.613 58.32 254.429 58.096 253.363 57.648C252.317 57.1787 251.411 56.5387 250.643 55.728C249.875 54.9173 249.277 53.9893 248.851 52.944C248.445 51.8987 248.243 50.7893 248.243 49.616C248.243 48.0373 248.595 46.5973 249.299 45.296C250.024 43.9947 251.027 42.9493 252.307 42.16C253.608 41.3707 255.144 40.976 256.915 40.976C258.621 40.976 260.104 41.36 261.363 42.128C262.643 42.8747 263.581 43.8773 264.179 45.136L260.755 46.224C260.371 45.52 259.827 44.976 259.123 44.592C258.44 44.1867 257.683 43.984 256.851 43.984C255.912 43.984 255.059 44.2293 254.291 44.72C253.544 45.1893 252.947 45.8507 252.499 46.704C252.072 47.536 251.859 48.5067 251.859 49.616C251.859 50.6827 252.083 51.6533 252.531 52.528C252.979 53.3813 253.576 54.064 254.323 54.576C255.091 55.0667 255.944 55.312 256.883 55.312C257.459 55.312 258.013 55.216 258.547 55.024C259.101 54.8107 259.581 54.5333 259.987 54.192C260.392 53.8293 260.68 53.4347 260.851 53.008L264.307 54.032C263.944 54.864 263.4 55.6 262.675 56.24C261.971 56.88 261.128 57.392 260.147 57.776C259.187 58.1387 258.109 58.32 256.915 58.32ZM274.57 58.32C273.247 58.32 272.063 58.096 271.018 57.648C269.972 57.1787 269.066 56.5387 268.298 55.728C267.551 54.9173 266.975 54 266.57 52.976C266.164 51.9307 265.962 50.8213 265.962 49.648C265.962 48.4747 266.164 47.3653 266.57 46.32C266.975 45.2747 267.551 44.3573 268.298 43.568C269.066 42.7573 269.972 42.128 271.018 41.68C272.084 41.2107 273.268 40.976 274.57 40.976C275.871 40.976 277.044 41.2107 278.09 41.68C279.156 42.128 280.063 42.7573 280.81 43.568C281.578 44.3573 282.164 45.2747 282.569 46.32C282.975 47.3653 283.178 48.4747 283.178 49.648C283.178 50.8213 282.975 51.9307 282.569 52.976C282.164 54 281.578 54.9173 280.81 55.728C280.063 56.5387 279.156 57.1787 278.09 57.648C277.044 58.096 275.871 58.32 274.57 58.32ZM269.578 49.68C269.578 50.7467 269.802 51.7067 270.25 52.56C270.698 53.4133 271.295 54.0853 272.042 54.576C272.788 55.0667 273.631 55.312 274.57 55.312C275.487 55.312 276.319 55.0667 277.066 54.576C277.834 54.064 278.442 53.3813 278.89 52.528C279.338 51.6533 279.562 50.6933 279.562 49.648C279.562 48.5813 279.338 47.6213 278.89 46.768C278.442 45.9147 277.834 45.2427 277.066 44.752C276.319 44.24 275.487 43.984 274.57 43.984C273.631 43.984 272.788 44.24 272.042 44.752C271.295 45.264 270.698 45.9467 270.25 46.8C269.802 47.632 269.578 48.592 269.578 49.68ZM295.708 44.304C294.342 44.3253 293.126 44.6347 292.06 45.232C291.014 45.8293 290.268 46.672 289.82 47.76V58H286.299V41.264H289.564V45.008C290.14 43.856 290.897 42.9387 291.836 42.256C292.774 41.552 293.766 41.168 294.812 41.104C295.025 41.104 295.196 41.104 295.324 41.104C295.473 41.104 295.601 41.1147 295.708 41.136V44.304ZM304.22 58.32C302.812 58.32 301.479 58.096 300.22 57.648C298.962 57.1787 297.884 56.4853 296.988 55.568L298.3 53.2C299.26 54.0533 300.22 54.672 301.18 55.056C302.162 55.44 303.132 55.632 304.092 55.632C305.074 55.632 305.874 55.4507 306.492 55.088C307.111 54.704 307.42 54.1493 307.42 53.424C307.42 52.8907 307.26 52.496 306.94 52.24C306.62 51.984 306.151 51.76 305.532 51.568C304.935 51.376 304.21 51.1627 303.356 50.928C302.162 50.5653 301.159 50.192 300.348 49.808C299.538 49.4027 298.93 48.912 298.524 48.336C298.119 47.76 297.916 47.024 297.916 46.128C297.916 45.04 298.194 44.112 298.748 43.344C299.303 42.576 300.071 41.9893 301.052 41.584C302.055 41.1787 303.207 40.976 304.508 40.976C305.724 40.976 306.844 41.168 307.868 41.552C308.914 41.9147 309.831 42.4907 310.62 43.28L309.116 45.616C308.37 44.9333 307.602 44.432 306.812 44.112C306.044 43.792 305.212 43.632 304.316 43.632C303.804 43.632 303.314 43.696 302.844 43.824C302.375 43.9307 301.98 44.144 301.66 44.464C301.362 44.7627 301.212 45.1893 301.212 45.744C301.212 46.192 301.34 46.5547 301.596 46.832C301.852 47.1093 302.236 47.344 302.748 47.536C303.26 47.728 303.89 47.9413 304.636 48.176C305.938 48.56 307.047 48.944 307.964 49.328C308.882 49.6907 309.586 50.1707 310.076 50.768C310.588 51.344 310.844 52.144 310.844 53.168C310.844 54.7893 310.236 56.0587 309.02 56.976C307.826 57.872 306.226 58.32 304.22 58.32ZM321.507 58.32C320.184 58.32 319 58.096 317.955 57.648C316.91 57.1787 316.003 56.5387 315.235 55.728C314.488 54.9173 313.912 54 313.507 52.976C313.102 51.9307 312.899 50.8213 312.899 49.648C312.899 48.4747 313.102 47.3653 313.507 46.32C313.912 45.2747 314.488 44.3573 315.235 43.568C316.003 42.7573 316.91 42.128 317.955 41.68C319.022 41.2107 320.206 40.976 321.507 40.976C322.808 40.976 323.982 41.2107 325.027 41.68C326.094 42.128 327 42.7573 327.747 43.568C328.515 44.3573 329.102 45.2747 329.507 46.32C329.912 47.3653 330.115 48.4747 330.115 49.648C330.115 50.8213 329.912 51.9307 329.507 52.976C329.102 54 328.515 54.9173 327.747 55.728C327 56.5387 326.094 57.1787 325.027 57.648C323.982 58.096 322.808 58.32 321.507 58.32ZM316.515 49.68C316.515 50.7467 316.739 51.7067 317.187 52.56C317.635 53.4133 318.232 54.0853 318.979 54.576C319.726 55.0667 320.568 55.312 321.507 55.312C322.424 55.312 323.256 55.0667 324.003 54.576C324.771 54.064 325.379 53.3813 325.827 52.528C326.275 51.6533 326.499 50.6933 326.499 49.648C326.499 48.5813 326.275 47.6213 325.827 46.768C325.379 45.9147 324.771 45.2427 324.003 44.752C323.256 44.24 322.424 43.984 321.507 43.984C320.568 43.984 319.726 44.24 318.979 44.752C318.232 45.264 317.635 45.9467 317.187 46.8C316.739 47.632 316.515 48.592 316.515 49.68Z" fill="white"/>
<path d="M384.988 57.3052C384.205 58.1922 382.814 58.1637 382.068 57.2456C381.463 56.5008 381.504 55.4233 382.162 54.7259L387.267 49.3215H356C354.895 49.3215 354 48.4261 354 47.3215V46.858C354 45.7534 354.895 44.858 356 44.858H387.267L382.068 39.2893C381.416 38.5903 381.377 37.5176 381.978 36.7738C382.727 35.8475 384.13 35.8197 384.914 36.7156L392.842 45.7673C393.504 46.5236 393.502 47.6541 392.837 48.4081L384.988 57.3052Z" fill="white"/>
</g>
<defs>
<filter id="filter0_d_102_361" x="0" y="0" width="483" height="102" filterUnits="userSpaceOnUse" color-interpolation-filters="sRGB">
<feFlood flood-opacity="0" result="BackgroundImageFix"/>
<feColorMatrix in="SourceAlpha" type="matrix" values="0 0 0 0 0 0 0 0 0 0 0 0 0 0 0 0 0 0 127 0" result="hardAlpha"/>
<feOffset dx="1" dy="4"/>
<feGaussianBlur stdDeviation="4"/>
<feComposite in2="hardAlpha" operator="out"/>
<feColorMatrix type="matrix" values="0 0 0 0 0 0 0 0 0 0 0 0 0 0 0 0 0 0 0.3 0"/>
<feBlend mode="normal" in2="BackgroundImageFix" result="effect1_dropShadow_102_361"/>
<feBlend mode="normal" in="SourceGraphic" in2="effect1_dropShadow_102_361" result="shape"/>
</filter>
</defs>
</svg>
