<svg width="222" height="96" viewBox="0 0 222 96" fill="none" xmlns="http://www.w3.org/2000/svg">
<rect x="1" y="1" width="220" height="94" rx="31" fill="white"/>
<rect x="1" y="1" width="220" height="94" rx="31" stroke="#068B35" stroke-width="2"/>
<rect width="70" height="96" fill="#068B35"/>
<path d="M47.8975 51.8439C46.2993 52.8154 44.4637 53.3264 42.5934 53.3203C41.0265 53.3079 39.4774 52.9875 38.0342 52.3771C36.9219 53.9474 36.3266 55.8253 36.3311 57.7497V62.6639C36.3315 62.8467 36.2943 63.0276 36.2219 63.1954C36.1494 63.3631 36.0433 63.5142 35.91 63.6393C35.7767 63.7643 35.6191 63.8606 35.447 63.9221C35.2749 63.9837 35.092 64.0092 34.9097 63.9971C34.567 63.9672 34.2483 63.809 34.0175 63.554C33.7866 63.299 33.6607 62.9662 33.6649 62.6223V60.5492L27.2293 54.1135C26.2726 54.4705 25.2609 54.6571 24.2398 54.6651C22.8341 54.6688 21.4548 54.2841 20.2538 53.5536C16.6228 51.3473 14.6681 46.2697 15.0464 39.9657C15.0654 39.6395 15.2035 39.3317 15.4345 39.1007C15.6656 38.8697 15.9733 38.7316 16.2995 38.7125C22.6034 38.3409 27.6809 40.2889 29.8805 43.9201C30.7447 45.3433 31.122 47.0093 30.9554 48.666C30.945 48.7944 30.8977 48.917 30.8191 49.019C30.7405 49.1211 30.6341 49.1982 30.5127 49.241C30.3912 49.2838 30.26 49.2906 30.1348 49.2604C30.0096 49.2302 29.8958 49.1644 29.8072 49.071L26.6078 45.7215C26.3557 45.482 26.0201 45.3505 25.6725 45.3549C25.3249 45.3594 24.9927 45.4995 24.7469 45.7453C24.5011 45.9911 24.361 46.3233 24.3565 46.6709C24.3521 47.0185 24.4836 47.3541 24.7231 47.6062L33.7016 56.8131C33.7116 56.6832 33.7232 56.5532 33.7366 56.4249C34.0281 53.9531 35.1187 51.6442 36.8427 49.8492L45.273 40.9405C45.5231 40.6906 45.6637 40.3515 45.6639 39.9979C45.664 39.6443 45.5237 39.3051 45.2738 39.055C45.0239 38.8048 44.6848 38.6642 44.3312 38.664C43.9776 38.6639 43.6384 38.8042 43.3883 39.0541L35.223 47.6895C35.1412 47.7761 35.0378 47.8392 34.9234 47.8722C34.8091 47.9053 34.6879 47.9072 34.5726 47.8776C34.4573 47.848 34.352 47.788 34.2677 47.704C34.1834 47.6199 34.1231 47.5148 34.0932 47.3995C33.3033 44.4866 33.6516 41.5871 35.1597 39.0974C38.1358 34.1848 45.0613 31.5552 53.6865 32.0618C54.0127 32.0809 54.3205 32.219 54.5515 32.45C54.7825 32.681 54.9206 32.9888 54.9397 33.315C55.4396 41.942 52.81 48.8677 47.8975 51.8439Z" fill="white"/>
<path d="M98 28.968C97.84 28.792 97.608 28.608 97.304 28.416C97 28.208 96.64 28.016 96.224 27.84C95.808 27.664 95.36 27.52 94.88 27.408C94.4 27.296 93.904 27.24 93.392 27.24C92.272 27.24 91.44 27.448 90.896 27.864C90.352 28.28 90.08 28.856 90.08 29.592C90.08 30.136 90.232 30.568 90.536 30.888C90.84 31.192 91.304 31.448 91.928 31.656C92.552 31.864 93.336 32.088 94.28 32.328C95.432 32.6 96.432 32.928 97.28 33.312C98.128 33.68 98.776 34.176 99.224 34.8C99.672 35.424 99.896 36.248 99.896 37.272C99.896 38.136 99.736 38.88 99.416 39.504C99.096 40.128 98.648 40.64 98.072 41.04C97.496 41.424 96.832 41.712 96.08 41.904C95.328 42.08 94.52 42.168 93.656 42.168C92.808 42.168 91.96 42.08 91.112 41.904C90.28 41.728 89.48 41.472 88.712 41.136C87.96 40.784 87.264 40.36 86.624 39.864L87.848 37.56C88.056 37.768 88.352 38 88.736 38.256C89.136 38.496 89.592 38.728 90.104 38.952C90.632 39.176 91.2 39.368 91.808 39.528C92.432 39.672 93.064 39.744 93.704 39.744C94.776 39.744 95.592 39.56 96.152 39.192C96.728 38.808 97.016 38.264 97.016 37.56C97.016 36.984 96.832 36.528 96.464 36.192C96.096 35.84 95.56 35.544 94.856 35.304C94.152 35.064 93.312 34.824 92.336 34.584C91.216 34.28 90.28 33.952 89.528 33.6C88.776 33.232 88.208 32.768 87.824 32.208C87.456 31.632 87.272 30.904 87.272 30.024C87.272 28.904 87.544 27.96 88.088 27.192C88.632 26.408 89.368 25.824 90.296 25.44C91.24 25.04 92.296 24.84 93.464 24.84C94.232 24.84 94.96 24.928 95.648 25.104C96.336 25.264 96.976 25.488 97.568 25.776C98.176 26.064 98.728 26.392 99.224 26.76L98 28.968ZM107.944 42.24C106.968 42.24 106.08 42.072 105.28 41.736C104.496 41.384 103.816 40.904 103.24 40.296C102.664 39.688 102.216 38.992 101.896 38.208C101.592 37.424 101.44 36.592 101.44 35.712C101.44 34.528 101.704 33.448 102.232 32.472C102.776 31.496 103.528 30.712 104.488 30.12C105.464 29.528 106.616 29.232 107.944 29.232C109.224 29.232 110.336 29.52 111.28 30.096C112.24 30.656 112.944 31.408 113.392 32.352L110.824 33.168C110.536 32.64 110.128 32.232 109.6 31.944C109.088 31.64 108.52 31.488 107.896 31.488C107.192 31.488 106.552 31.672 105.976 32.04C105.416 32.392 104.968 32.888 104.632 33.528C104.312 34.152 104.152 34.88 104.152 35.712C104.152 36.512 104.32 37.24 104.656 37.896C104.992 38.536 105.44 39.048 106 39.432C106.576 39.8 107.216 39.984 107.92 39.984C108.352 39.984 108.768 39.912 109.168 39.768C109.584 39.608 109.944 39.4 110.248 39.144C110.552 38.872 110.768 38.576 110.896 38.256L113.488 39.024C113.216 39.648 112.808 40.2 112.264 40.68C111.736 41.16 111.104 41.544 110.368 41.832C109.648 42.104 108.84 42.24 107.944 42.24ZM121.185 42.24C120.193 42.24 119.305 42.072 118.521 41.736C117.737 41.384 117.057 40.904 116.481 40.296C115.921 39.688 115.489 39 115.185 38.232C114.881 37.448 114.729 36.616 114.729 35.736C114.729 34.856 114.881 34.024 115.185 33.24C115.489 32.456 115.921 31.768 116.481 31.176C117.057 30.568 117.737 30.096 118.521 29.76C119.321 29.408 120.209 29.232 121.185 29.232C122.161 29.232 123.041 29.408 123.825 29.76C124.625 30.096 125.305 30.568 125.865 31.176C126.441 31.768 126.881 32.456 127.185 33.24C127.489 34.024 127.641 34.856 127.641 35.736C127.641 36.616 127.489 37.448 127.185 38.232C126.881 39 126.441 39.688 125.865 40.296C125.305 40.904 124.625 41.384 123.825 41.736C123.041 42.072 122.161 42.24 121.185 42.24ZM117.441 35.76C117.441 36.56 117.609 37.28 117.945 37.92C118.281 38.56 118.729 39.064 119.289 39.432C119.849 39.8 120.481 39.984 121.185 39.984C121.873 39.984 122.497 39.8 123.057 39.432C123.633 39.048 124.089 38.536 124.425 37.896C124.761 37.24 124.929 36.52 124.929 35.736C124.929 34.936 124.761 34.216 124.425 33.576C124.089 32.936 123.633 32.432 123.057 32.064C122.497 31.68 121.873 31.488 121.185 31.488C120.481 31.488 119.849 31.68 119.289 32.064C118.729 32.448 118.281 32.96 117.945 33.6C117.609 34.224 117.441 34.944 117.441 35.76ZM137.11 42.24C136.102 42.24 135.214 42 134.446 41.52C133.678 41.04 133.07 40.416 132.622 39.648V47.112H129.982V29.448H132.31V31.704C132.79 30.952 133.414 30.352 134.182 29.904C134.95 29.456 135.806 29.232 136.75 29.232C137.614 29.232 138.406 29.408 139.126 29.76C139.846 30.096 140.47 30.568 140.998 31.176C141.526 31.784 141.934 32.48 142.222 33.264C142.526 34.032 142.678 34.848 142.678 35.712C142.678 36.912 142.438 38.008 141.958 39C141.494 39.992 140.838 40.784 139.99 41.376C139.158 41.952 138.198 42.24 137.11 42.24ZM136.246 39.984C136.806 39.984 137.31 39.864 137.758 39.624C138.222 39.384 138.614 39.064 138.934 38.664C139.27 38.264 139.526 37.808 139.702 37.296C139.878 36.784 139.966 36.256 139.966 35.712C139.966 35.136 139.87 34.592 139.678 34.08C139.486 33.568 139.206 33.12 138.838 32.736C138.486 32.352 138.07 32.048 137.59 31.824C137.126 31.6 136.614 31.488 136.054 31.488C135.718 31.488 135.366 31.552 134.998 31.68C134.63 31.808 134.286 31.984 133.966 32.208C133.646 32.432 133.366 32.696 133.126 33C132.886 33.304 132.718 33.624 132.622 33.96V37.248C132.846 37.76 133.142 38.224 133.51 38.64C133.878 39.04 134.302 39.368 134.782 39.624C135.262 39.864 135.75 39.984 136.246 39.984ZM152.109 31.728C151.085 31.744 150.173 31.976 149.373 32.424C148.589 32.872 148.029 33.504 147.693 34.32V42H145.053V29.448H147.501V32.256C147.933 31.392 148.501 30.704 149.205 30.192C149.909 29.664 150.653 29.376 151.437 29.328C151.597 29.328 151.725 29.328 151.821 29.328C151.933 29.328 152.029 29.336 152.109 29.352V31.728ZM154.029 42V29.448H156.669V42H154.029ZM154.029 27.384V24.48H156.669V27.384H154.029ZM165.796 24.48H168.436V38.376C168.436 39.016 168.532 39.424 168.724 39.6C168.916 39.776 169.156 39.864 169.444 39.864C169.764 39.864 170.06 39.832 170.332 39.768C170.62 39.704 170.868 39.624 171.076 39.528L171.46 41.616C171.076 41.776 170.62 41.912 170.092 42.024C169.564 42.136 169.092 42.192 168.676 42.192C167.78 42.192 167.076 41.944 166.564 41.448C166.052 40.936 165.796 40.232 165.796 39.336V24.48ZM178.678 42.24C177.702 42.24 176.814 42.072 176.014 41.736C175.23 41.384 174.55 40.912 173.974 40.32C173.398 39.712 172.95 39.024 172.63 38.256C172.326 37.472 172.174 36.64 172.174 35.76C172.174 34.576 172.446 33.496 172.99 32.52C173.534 31.528 174.294 30.736 175.27 30.144C176.246 29.536 177.39 29.232 178.702 29.232C180.014 29.232 181.142 29.536 182.086 30.144C183.046 30.736 183.79 31.52 184.318 32.496C184.846 33.472 185.11 34.52 185.11 35.64C185.11 35.832 185.102 36.016 185.086 36.192C185.07 36.352 185.054 36.488 185.038 36.6H174.982C175.03 37.336 175.23 37.984 175.582 38.544C175.95 39.088 176.414 39.52 176.974 39.84C177.534 40.144 178.134 40.296 178.774 40.296C179.478 40.296 180.142 40.12 180.766 39.768C181.406 39.416 181.838 38.952 182.062 38.376L184.318 39.024C184.046 39.632 183.63 40.184 183.07 40.68C182.526 41.16 181.878 41.544 181.126 41.832C180.374 42.104 179.558 42.24 178.678 42.24ZM174.91 34.848H182.494C182.446 34.128 182.238 33.496 181.87 32.952C181.518 32.392 181.062 31.96 180.502 31.656C179.958 31.336 179.35 31.176 178.678 31.176C178.022 31.176 177.414 31.336 176.854 31.656C176.31 31.96 175.862 32.392 175.51 32.952C175.158 33.496 174.958 34.128 174.91 34.848ZM94.712 70.24C93.704 70.24 92.816 70 92.048 69.52C91.28 69.04 90.672 68.416 90.224 67.648V75.112H87.584V57.448H89.912V59.704C90.392 58.952 91.016 58.352 91.784 57.904C92.552 57.456 93.408 57.232 94.352 57.232C95.216 57.232 96.008 57.408 96.728 57.76C97.448 58.096 98.072 58.568 98.6 59.176C99.128 59.784 99.536 60.48 99.824 61.264C100.128 62.032 100.28 62.848 100.28 63.712C100.28 64.912 100.04 66.008 99.56 67C99.096 67.992 98.44 68.784 97.592 69.376C96.76 69.952 95.8 70.24 94.712 70.24ZM93.848 67.984C94.408 67.984 94.912 67.864 95.36 67.624C95.824 67.384 96.216 67.064 96.536 66.664C96.872 66.264 97.128 65.808 97.304 65.296C97.48 64.784 97.568 64.256 97.568 63.712C97.568 63.136 97.472 62.592 97.28 62.08C97.088 61.568 96.808 61.12 96.44 60.736C96.088 60.352 95.672 60.048 95.192 59.824C94.728 59.6 94.216 59.488 93.656 59.488C93.32 59.488 92.968 59.552 92.6 59.68C92.232 59.808 91.888 59.984 91.568 60.208C91.248 60.432 90.968 60.696 90.728 61C90.488 61.304 90.32 61.624 90.224 61.96V65.248C90.448 65.76 90.744 66.224 91.112 66.64C91.48 67.04 91.904 67.368 92.384 67.624C92.864 67.864 93.352 67.984 93.848 67.984ZM102.654 70V57.448H105.294V70H102.654ZM102.654 55.384V52.48H105.294V55.384H102.654ZM107.555 66.328C107.555 65.528 107.779 64.832 108.227 64.24C108.691 63.632 109.323 63.168 110.123 62.848C110.923 62.512 111.851 62.344 112.907 62.344C113.467 62.344 114.035 62.384 114.611 62.464C115.203 62.544 115.723 62.672 116.171 62.848V62.056C116.171 61.176 115.907 60.488 115.379 59.992C114.851 59.496 114.091 59.248 113.099 59.248C112.395 59.248 111.731 59.376 111.107 59.632C110.483 59.872 109.819 60.216 109.115 60.664L108.227 58.888C109.059 58.328 109.891 57.912 110.723 57.64C111.571 57.368 112.459 57.232 113.387 57.232C115.067 57.232 116.387 57.68 117.347 58.576C118.323 59.456 118.811 60.712 118.811 62.344V67.024C118.811 67.328 118.859 67.544 118.955 67.672C119.067 67.8 119.251 67.872 119.507 67.888V70C119.267 70.048 119.051 70.08 118.859 70.096C118.667 70.112 118.507 70.12 118.379 70.12C117.819 70.12 117.395 69.984 117.107 69.712C116.819 69.44 116.651 69.12 116.603 68.752L116.531 68.032C115.987 68.736 115.291 69.28 114.443 69.664C113.595 70.048 112.739 70.24 111.875 70.24C111.043 70.24 110.299 70.072 109.643 69.736C108.987 69.384 108.475 68.912 108.107 68.32C107.739 67.728 107.555 67.064 107.555 66.328ZM115.547 67.096C115.739 66.888 115.891 66.68 116.003 66.472C116.115 66.264 116.171 66.08 116.171 65.92V64.48C115.723 64.304 115.251 64.176 114.755 64.096C114.259 64 113.771 63.952 113.291 63.952C112.331 63.952 111.547 64.144 110.939 64.528C110.347 64.912 110.051 65.44 110.051 66.112C110.051 66.48 110.147 66.832 110.339 67.168C110.547 67.504 110.835 67.776 111.203 67.984C111.587 68.192 112.059 68.296 112.619 68.296C113.195 68.296 113.747 68.184 114.275 67.96C114.803 67.736 115.227 67.448 115.547 67.096ZM133.27 70H130.63V62.968C130.63 61.8 130.438 60.944 130.054 60.4C129.686 59.856 129.134 59.584 128.398 59.584C127.886 59.584 127.374 59.712 126.862 59.968C126.366 60.224 125.918 60.576 125.518 61.024C125.118 61.456 124.83 61.96 124.654 62.536V70H122.014V57.448H124.414V59.968C124.734 59.408 125.15 58.928 125.662 58.528C126.19 58.112 126.782 57.792 127.438 57.568C128.094 57.344 128.79 57.232 129.526 57.232C130.278 57.232 130.894 57.368 131.374 57.64C131.87 57.912 132.254 58.288 132.526 58.768C132.814 59.232 133.006 59.776 133.102 60.4C133.214 61.008 133.27 61.656 133.27 62.344V70ZM143.224 69.352C143 69.464 142.72 69.584 142.384 69.712C142.048 69.84 141.664 69.952 141.232 70.048C140.816 70.144 140.384 70.192 139.936 70.192C139.392 70.192 138.888 70.096 138.424 69.904C137.96 69.712 137.584 69.408 137.296 68.992C137.024 68.56 136.888 68.008 136.888 67.336V59.488H135.232V57.448H136.888V53.32H139.528V57.448H142.264V59.488H139.528V66.496C139.56 66.928 139.696 67.248 139.936 67.456C140.192 67.664 140.504 67.768 140.872 67.768C141.24 67.768 141.592 67.704 141.928 67.576C142.264 67.448 142.512 67.344 142.672 67.264L143.224 69.352ZM150.577 70.24C149.601 70.24 148.713 70.072 147.913 69.736C147.129 69.384 146.449 68.912 145.873 68.32C145.297 67.712 144.849 67.024 144.529 66.256C144.225 65.472 144.073 64.64 144.073 63.76C144.073 62.576 144.345 61.496 144.889 60.52C145.433 59.528 146.193 58.736 147.169 58.144C148.145 57.536 149.289 57.232 150.601 57.232C151.913 57.232 153.041 57.536 153.985 58.144C154.945 58.736 155.689 59.52 156.217 60.496C156.745 61.472 157.009 62.52 157.009 63.64C157.009 63.832 157.001 64.016 156.985 64.192C156.969 64.352 156.953 64.488 156.937 64.6H146.881C146.929 65.336 147.129 65.984 147.481 66.544C147.849 67.088 148.313 67.52 148.873 67.84C149.433 68.144 150.033 68.296 150.673 68.296C151.377 68.296 152.041 68.12 152.665 67.768C153.305 67.416 153.737 66.952 153.961 66.376L156.217 67.024C155.945 67.632 155.529 68.184 154.969 68.68C154.425 69.16 153.777 69.544 153.025 69.832C152.273 70.104 151.457 70.24 150.577 70.24ZM146.809 62.848H154.393C154.345 62.128 154.137 61.496 153.769 60.952C153.417 60.392 152.961 59.96 152.401 59.656C151.857 59.336 151.249 59.176 150.577 59.176C149.921 59.176 149.313 59.336 148.753 59.656C148.209 59.96 147.761 60.392 147.409 60.952C147.057 61.496 146.857 62.128 146.809 62.848ZM159.666 63.928V52.792H162.306V63.928H159.666ZM159.666 70V66.712H162.306V70H159.666Z" fill="#0F0F0F"/>
</svg>
