<svg width="550" height="76" viewBox="0 0 550 76" fill="none" xmlns="http://www.w3.org/2000/svg">
<rect x="1" y="1" width="302" height="74" rx="25" fill="white"/>
<rect x="1" y="1" width="302" height="74" rx="25" stroke="#A6A6A6" stroke-width="2"/>
<path d="M56 20C65.9414 20 74 28.0586 74 38C74 47.9414 65.9414 56 56 56C46.0586 56 38 47.9414 38 38C38 28.0586 46.0586 20 56 20ZM56 27.2C55.5226 27.2 55.0648 27.3896 54.7272 27.7272C54.3896 28.0648 54.2 28.5226 54.2 29V38C54.2001 38.4773 54.3898 38.9351 54.7274 39.2726L60.1274 44.6726C60.4669 45.0005 60.9216 45.1819 61.3935 45.1778C61.8655 45.1737 62.3169 44.9844 62.6507 44.6507C62.9844 44.3169 63.1737 43.8655 63.1778 43.3935C63.1819 42.9216 63.0005 42.4669 62.6726 42.1274L57.8 37.2548V29C57.8 28.5226 57.6104 28.0648 57.2728 27.7272C56.9352 27.3896 56.4774 27.2 56 27.2Z" fill="#555555"/>
<path d="M87.9446 46V30.38H93.4886C95.1752 30.38 96.5832 30.732 97.7126 31.436C98.8419 32.1253 99.6852 33.064 100.243 34.252C100.815 35.4253 101.101 36.7307 101.101 38.168C101.101 39.752 100.785 41.1307 100.155 42.304C99.5386 43.4773 98.6586 44.3867 97.5146 45.032C96.3706 45.6773 95.0286 46 93.4886 46H87.9446ZM98.5926 38.168C98.5926 37.068 98.3872 36.1 97.9766 35.264C97.5806 34.4133 97.0012 33.7533 96.2386 33.284C95.4906 32.8 94.5739 32.558 93.4886 32.558H90.4086V43.822H93.4886C94.5886 43.822 95.5126 43.5727 96.2606 43.074C97.0232 42.5753 97.6026 41.9007 97.9986 41.05C98.3946 40.1993 98.5926 39.2387 98.5926 38.168ZM103.275 41.534V34.494H105.695V41.05C105.695 42.0767 105.878 42.854 106.245 43.382C106.626 43.8953 107.176 44.152 107.895 44.152C108.349 44.152 108.789 44.0567 109.215 43.866C109.655 43.6753 110.051 43.3967 110.403 43.03C110.769 42.6487 111.063 42.194 111.283 41.666V34.494H113.703V43.272C113.703 43.5507 113.754 43.7487 113.857 43.866C113.959 43.9833 114.128 44.0493 114.363 44.064V46C114.113 46.044 113.908 46.0733 113.747 46.088C113.585 46.1027 113.431 46.11 113.285 46.11C112.845 46.11 112.478 45.9927 112.185 45.758C111.891 45.5087 111.723 45.1933 111.679 44.812L111.635 43.668C111.121 44.504 110.454 45.142 109.633 45.582C108.811 46.0073 107.909 46.22 106.927 46.22C105.724 46.22 104.815 45.824 104.199 45.032C103.583 44.24 103.275 43.074 103.275 41.534ZM123.259 36.584C122.32 36.5987 121.484 36.8113 120.751 37.222C120.032 37.6327 119.519 38.212 119.211 38.96V46H116.791V34.494H119.035V37.068C119.431 36.276 119.952 35.6453 120.597 35.176C121.242 34.692 121.924 34.428 122.643 34.384C122.79 34.384 122.907 34.384 122.995 34.384C123.098 34.384 123.186 34.3913 123.259 34.406V36.584ZM124.162 42.634C124.162 41.9007 124.367 41.2627 124.778 40.72C125.203 40.1627 125.783 39.7373 126.516 39.444C127.249 39.136 128.1 38.982 129.068 38.982C129.581 38.982 130.102 39.0187 130.63 39.092C131.173 39.1653 131.649 39.2827 132.06 39.444V38.718C132.06 37.9113 131.818 37.2807 131.334 36.826C130.85 36.3713 130.153 36.144 129.244 36.144C128.599 36.144 127.99 36.2613 127.418 36.496C126.846 36.716 126.237 37.0313 125.592 37.442L124.778 35.814C125.541 35.3007 126.303 34.9193 127.066 34.67C127.843 34.4207 128.657 34.296 129.508 34.296C131.048 34.296 132.258 34.7067 133.138 35.528C134.033 36.3347 134.48 37.486 134.48 38.982V43.272C134.48 43.5507 134.524 43.7487 134.612 43.866C134.715 43.9833 134.883 44.0493 135.118 44.064V46C134.898 46.044 134.7 46.0733 134.524 46.088C134.348 46.1027 134.201 46.11 134.084 46.11C133.571 46.11 133.182 45.9853 132.918 45.736C132.654 45.4867 132.5 45.1933 132.456 44.856L132.39 44.196C131.891 44.8413 131.253 45.34 130.476 45.692C129.699 46.044 128.914 46.22 128.122 46.22C127.359 46.22 126.677 46.066 126.076 45.758C125.475 45.4353 125.005 45.0027 124.668 44.46C124.331 43.9173 124.162 43.3087 124.162 42.634ZM131.488 43.338C131.664 43.1473 131.803 42.9567 131.906 42.766C132.009 42.5753 132.06 42.4067 132.06 42.26V40.94C131.649 40.7787 131.217 40.6613 130.762 40.588C130.307 40.5 129.86 40.456 129.42 40.456C128.54 40.456 127.821 40.632 127.264 40.984C126.721 41.336 126.45 41.82 126.45 42.436C126.45 42.7733 126.538 43.096 126.714 43.404C126.905 43.712 127.169 43.9613 127.506 44.152C127.858 44.3427 128.291 44.438 128.804 44.438C129.332 44.438 129.838 44.3353 130.322 44.13C130.806 43.9247 131.195 43.6607 131.488 43.338ZM143.732 45.406C143.527 45.5087 143.27 45.6187 142.962 45.736C142.654 45.8533 142.302 45.956 141.906 46.044C141.525 46.132 141.129 46.176 140.718 46.176C140.219 46.176 139.757 46.088 139.332 45.912C138.907 45.736 138.562 45.4573 138.298 45.076C138.049 44.68 137.924 44.174 137.924 43.558V36.364H136.406V34.494H137.924V30.71H140.344V34.494H142.852V36.364H140.344V42.788C140.373 43.184 140.498 43.4773 140.718 43.668C140.953 43.8587 141.239 43.954 141.576 43.954C141.913 43.954 142.236 43.8953 142.544 43.778C142.852 43.6607 143.079 43.5653 143.226 43.492L143.732 45.406ZM144.572 42.634C144.572 41.9007 144.777 41.2627 145.188 40.72C145.613 40.1627 146.193 39.7373 146.926 39.444C147.659 39.136 148.51 38.982 149.478 38.982C149.991 38.982 150.512 39.0187 151.04 39.092C151.583 39.1653 152.059 39.2827 152.47 39.444V38.718C152.47 37.9113 152.228 37.2807 151.744 36.826C151.26 36.3713 150.563 36.144 149.654 36.144C149.009 36.144 148.4 36.2613 147.828 36.496C147.256 36.716 146.647 37.0313 146.002 37.442L145.188 35.814C145.951 35.3007 146.713 34.9193 147.476 34.67C148.253 34.4207 149.067 34.296 149.918 34.296C151.458 34.296 152.668 34.7067 153.548 35.528C154.443 36.3347 154.89 37.486 154.89 38.982V43.272C154.89 43.5507 154.934 43.7487 155.022 43.866C155.125 43.9833 155.293 44.0493 155.528 44.064V46C155.308 46.044 155.11 46.0733 154.934 46.088C154.758 46.1027 154.611 46.11 154.494 46.11C153.981 46.11 153.592 45.9853 153.328 45.736C153.064 45.4867 152.91 45.1933 152.866 44.856L152.8 44.196C152.301 44.8413 151.663 45.34 150.886 45.692C150.109 46.044 149.324 46.22 148.532 46.22C147.769 46.22 147.087 46.066 146.486 45.758C145.885 45.4353 145.415 45.0027 145.078 44.46C144.741 43.9173 144.572 43.3087 144.572 42.634ZM151.898 43.338C152.074 43.1473 152.213 42.9567 152.316 42.766C152.419 42.5753 152.47 42.4067 152.47 42.26V40.94C152.059 40.7787 151.627 40.6613 151.172 40.588C150.717 40.5 150.27 40.456 149.83 40.456C148.95 40.456 148.231 40.632 147.674 40.984C147.131 41.336 146.86 41.82 146.86 42.436C146.86 42.7733 146.948 43.096 147.124 43.404C147.315 43.712 147.579 43.9613 147.916 44.152C148.268 44.3427 148.701 44.438 149.214 44.438C149.742 44.438 150.248 44.3353 150.732 44.13C151.216 43.9247 151.605 43.6607 151.898 43.338ZM157.826 37.398V34.604H159.828V37.398H157.826ZM157.826 46V43.184H159.828V46H157.826ZM175.42 44.636V46H168.138V44.636H171.108V31.854C170.976 32.03 170.778 32.228 170.514 32.448C170.265 32.6533 169.971 32.8587 169.634 33.064C169.297 33.2547 168.952 33.416 168.6 33.548C168.248 33.68 167.925 33.746 167.632 33.746V32.338C168.028 32.338 168.424 32.2353 168.82 32.03C169.216 31.81 169.583 31.568 169.92 31.304C170.272 31.0253 170.551 30.776 170.756 30.556C170.976 30.3213 171.093 30.1967 171.108 30.182H172.626V44.636H175.42ZM181.756 46.22C180.642 46.22 179.637 45.9487 178.742 45.406C177.862 44.8487 177.195 44.1153 176.74 43.206L177.752 42.458C178.148 43.1767 178.706 43.756 179.424 44.196C180.143 44.636 180.928 44.856 181.778 44.856C182.512 44.856 183.164 44.6947 183.736 44.372C184.323 44.0493 184.785 43.6093 185.122 43.052C185.474 42.48 185.65 41.82 185.65 41.072C185.65 40.3533 185.482 39.7227 185.144 39.18C184.807 38.6227 184.36 38.19 183.802 37.882C183.245 37.5593 182.614 37.398 181.91 37.398C181.236 37.398 180.59 37.552 179.974 37.86C179.358 38.168 178.86 38.6007 178.478 39.158H177.07L178.83 30.38H186.376V31.766H179.952L178.852 37.376C179.234 36.9653 179.703 36.65 180.26 36.43C180.832 36.1953 181.441 36.078 182.086 36.078C183.04 36.078 183.898 36.2907 184.66 36.716C185.438 37.1413 186.046 37.728 186.486 38.476C186.941 39.2093 187.168 40.0673 187.168 41.05C187.168 42.062 186.926 42.964 186.442 43.756C185.958 44.5333 185.306 45.142 184.484 45.582C183.678 46.0073 182.768 46.22 181.756 46.22ZM189.515 40.698V39.312H195.939V40.698H189.515ZM198.422 46C198.408 45.076 198.481 44.262 198.642 43.558C198.804 42.854 199.046 42.2307 199.368 41.688C199.706 41.1453 200.109 40.676 200.578 40.28C201.048 39.8693 201.576 39.51 202.162 39.202C202.72 38.894 203.299 38.6153 203.9 38.366C204.502 38.102 205.059 37.816 205.572 37.508C206.086 37.2 206.496 36.826 206.804 36.386C207.127 35.9313 207.288 35.3667 207.288 34.692C207.288 34.1347 207.164 33.6213 206.914 33.152C206.68 32.6827 206.313 32.3087 205.814 32.03C205.316 31.7367 204.685 31.59 203.922 31.59C203.174 31.59 202.507 31.7147 201.92 31.964C201.348 32.2133 200.864 32.514 200.468 32.866C200.087 33.218 199.779 33.5407 199.544 33.834L198.554 32.866C198.642 32.7633 198.818 32.5653 199.082 32.272C199.361 31.9787 199.728 31.6707 200.182 31.348C200.652 31.0253 201.202 30.754 201.832 30.534C202.478 30.2993 203.226 30.182 204.076 30.182C205.162 30.182 206.064 30.3947 206.782 30.82C207.501 31.2307 208.036 31.7733 208.388 32.448C208.755 33.1227 208.938 33.8633 208.938 34.67C208.938 35.4473 208.784 36.1073 208.476 36.65C208.183 37.178 207.794 37.6253 207.31 37.992C206.841 38.344 206.328 38.652 205.77 38.916C205.228 39.18 204.714 39.4293 204.23 39.664C203.292 40.0893 202.544 40.5073 201.986 40.918C201.429 41.3287 201.011 41.7393 200.732 42.15C200.468 42.5607 200.292 42.9713 200.204 43.382C200.116 43.7927 200.065 44.2107 200.05 44.636H208.96V46H198.422ZM216.045 46.22C214.931 46.22 213.926 45.9487 213.031 45.406C212.151 44.8487 211.484 44.1153 211.029 43.206L212.041 42.458C212.437 43.1767 212.995 43.756 213.713 44.196C214.432 44.636 215.217 44.856 216.067 44.856C216.801 44.856 217.453 44.6947 218.025 44.372C218.612 44.0493 219.074 43.6093 219.411 43.052C219.763 42.48 219.939 41.82 219.939 41.072C219.939 40.3533 219.771 39.7227 219.433 39.18C219.096 38.6227 218.649 38.19 218.091 37.882C217.534 37.5593 216.903 37.398 216.199 37.398C215.525 37.398 214.879 37.552 214.263 37.86C213.647 38.168 213.149 38.6007 212.767 39.158H211.359L213.119 30.38H220.665V31.766H214.241L213.141 37.376C213.523 36.9653 213.992 36.65 214.549 36.43C215.121 36.1953 215.73 36.078 216.375 36.078C217.329 36.078 218.187 36.2907 218.949 36.716C219.727 37.1413 220.335 37.728 220.775 38.476C221.23 39.2093 221.457 40.0673 221.457 41.05C221.457 42.062 221.215 42.964 220.731 43.756C220.247 44.5333 219.595 45.142 218.773 45.582C217.967 46.0073 217.057 46.22 216.045 46.22ZM246.681 46H245.185V39.598C245.185 38.2633 244.973 37.2807 244.547 36.65C244.122 36.0193 243.491 35.704 242.655 35.704C241.79 35.704 241.013 36.012 240.323 36.628C239.649 37.244 239.172 38.036 238.893 39.004V46H237.397V39.598C237.397 38.2487 237.192 37.266 236.781 36.65C236.371 36.0193 235.74 35.704 234.889 35.704C234.039 35.704 233.269 36.0047 232.579 36.606C231.89 37.2073 231.406 37.9993 231.127 38.982V46H229.631V34.538H230.995V37.134C231.479 36.2393 232.095 35.55 232.843 35.066C233.606 34.582 234.449 34.34 235.373 34.34C236.327 34.34 237.097 34.6113 237.683 35.154C238.27 35.6967 238.629 36.408 238.761 37.288C239.289 36.32 239.92 35.5867 240.653 35.088C241.401 34.5893 242.245 34.34 243.183 34.34C243.829 34.34 244.371 34.4573 244.811 34.692C245.266 34.9267 245.625 35.264 245.889 35.704C246.168 36.1293 246.366 36.65 246.483 37.266C246.615 37.8673 246.681 38.542 246.681 39.29V46ZM249.848 46V34.538H251.344V46H249.848ZM249.848 32.14V29.94H251.344V32.14H249.848ZM264.275 46H262.779V39.598C262.779 38.2487 262.581 37.266 262.185 36.65C261.789 36.0193 261.166 35.704 260.315 35.704C259.729 35.704 259.149 35.8507 258.577 36.144C258.005 36.4227 257.499 36.8113 257.059 37.31C256.634 37.794 256.326 38.3513 256.135 38.982V46H254.639V34.538H256.003V37.134C256.311 36.5767 256.715 36.0927 257.213 35.682C257.712 35.2567 258.277 34.9267 258.907 34.692C259.538 34.4573 260.191 34.34 260.865 34.34C261.496 34.34 262.031 34.4573 262.471 34.692C262.911 34.9267 263.263 35.264 263.527 35.704C263.791 36.1293 263.982 36.65 264.099 37.266C264.217 37.8673 264.275 38.542 264.275 39.29V46Z" fill="#555555"/>
<rect x="351" y="1" width="198" height="74" rx="25" fill="white"/>
<rect x="351" y="1" width="198" height="74" rx="25" stroke="#A6A6A6" stroke-width="2"/>
<path d="M406.608 40.9835C405.169 41.864 403.517 42.327 401.834 42.3215C400.424 42.3103 399.03 42.0199 397.731 41.4668C396.73 42.8899 396.194 44.5917 396.198 46.3356V50.7892C396.198 50.9548 396.165 51.1187 396.1 51.2708C396.035 51.4228 395.939 51.5598 395.819 51.6731C395.699 51.7864 395.557 51.8736 395.402 51.9294C395.247 51.9852 395.083 52.0083 394.919 51.9973C394.61 51.9703 394.323 51.8269 394.116 51.5958C393.908 51.3647 393.795 51.0631 393.798 50.7514V48.8728L388.006 43.0404C387.145 43.3639 386.235 43.533 385.316 43.5403C384.051 43.5436 382.809 43.195 381.728 42.533C378.46 40.5335 376.701 35.9319 377.042 30.2189C377.059 29.9233 377.183 29.6444 377.391 29.435C377.599 29.2257 377.876 29.1005 378.17 29.0832C383.843 28.7464 388.413 30.5118 390.392 33.8026C391.17 35.0924 391.51 36.6022 391.36 38.1036C391.35 38.2199 391.308 38.331 391.237 38.4235C391.166 38.516 391.071 38.5858 390.961 38.6247C390.852 38.6635 390.734 38.6696 390.621 38.6422C390.509 38.6149 390.406 38.5553 390.326 38.4706L387.447 35.4351C387.22 35.2181 386.918 35.0989 386.605 35.1029C386.292 35.1069 385.993 35.2339 385.772 35.4567C385.551 35.6795 385.425 35.9805 385.421 36.2955C385.417 36.6105 385.535 36.9147 385.751 37.1431L393.831 45.4869C393.84 45.3691 393.851 45.2513 393.863 45.135C394.125 42.895 395.107 40.8026 396.658 39.1758L404.246 31.1023C404.471 30.8758 404.597 30.5686 404.597 30.2481C404.598 29.9276 404.471 29.6203 404.246 29.3936C404.021 29.1669 403.716 29.0394 403.398 29.0393C403.08 29.0391 402.775 29.1663 402.549 29.3928L395.201 37.2186C395.127 37.2971 395.034 37.3543 394.931 37.3842C394.828 37.4142 394.719 37.4159 394.615 37.389C394.512 37.3622 394.417 37.3079 394.341 37.2317C394.265 37.1555 394.211 37.0603 394.184 36.9558C393.473 34.316 393.786 31.6883 395.144 29.4321C397.822 24.98 404.055 22.5969 411.818 23.056C412.111 23.0733 412.388 23.1985 412.596 23.4078C412.804 23.6172 412.929 23.8961 412.946 24.1917C413.396 32.01 411.029 38.2863 406.608 40.9835Z" fill="#555555"/>
<path d="M426.872 46V30.38H433.428C434.132 30.38 434.778 30.5267 435.364 30.82C435.951 31.1133 436.464 31.502 436.904 31.986C437.344 32.47 437.682 33.0127 437.916 33.614C438.151 34.2153 438.268 34.8313 438.268 35.462C438.268 36.3273 438.07 37.156 437.674 37.948C437.293 38.7253 436.743 39.356 436.024 39.84C435.32 40.324 434.499 40.566 433.56 40.566H429.336V46H426.872ZM429.336 38.388H433.406C433.876 38.388 434.286 38.2633 434.638 38.014C434.99 37.75 435.262 37.398 435.452 36.958C435.658 36.518 435.76 36.0193 435.76 35.462C435.76 34.89 435.643 34.384 435.408 33.944C435.174 33.504 434.866 33.1667 434.484 32.932C434.118 32.6827 433.714 32.558 433.274 32.558H429.336V38.388ZM440.271 46V34.494H442.691V46H440.271ZM440.271 32.602V29.94H442.691V32.602H440.271ZM444.763 42.634C444.763 41.9007 444.969 41.2627 445.379 40.72C445.805 40.1627 446.384 39.7373 447.117 39.444C447.851 39.136 448.701 38.982 449.669 38.982C450.183 38.982 450.703 39.0187 451.231 39.092C451.774 39.1653 452.251 39.2827 452.661 39.444V38.718C452.661 37.9113 452.419 37.2807 451.935 36.826C451.451 36.3713 450.755 36.144 449.845 36.144C449.2 36.144 448.591 36.2613 448.019 36.496C447.447 36.716 446.839 37.0313 446.193 37.442L445.379 35.814C446.142 35.3007 446.905 34.9193 447.667 34.67C448.445 34.4207 449.259 34.296 450.109 34.296C451.649 34.296 452.859 34.7067 453.739 35.528C454.634 36.3347 455.081 37.486 455.081 38.982V43.272C455.081 43.5507 455.125 43.7487 455.213 43.866C455.316 43.9833 455.485 44.0493 455.719 44.064V46C455.499 46.044 455.301 46.0733 455.125 46.088C454.949 46.1027 454.803 46.11 454.685 46.11C454.172 46.11 453.783 45.9853 453.519 45.736C453.255 45.4867 453.101 45.1933 453.057 44.856L452.991 44.196C452.493 44.8413 451.855 45.34 451.077 45.692C450.3 46.044 449.515 46.22 448.723 46.22C447.961 46.22 447.279 46.066 446.677 45.758C446.076 45.4353 445.607 45.0027 445.269 44.46C444.932 43.9173 444.763 43.3087 444.763 42.634ZM452.089 43.338C452.265 43.1473 452.405 42.9567 452.507 42.766C452.61 42.5753 452.661 42.4067 452.661 42.26V40.94C452.251 40.7787 451.818 40.6613 451.363 40.588C450.909 40.5 450.461 40.456 450.021 40.456C449.141 40.456 448.423 40.632 447.865 40.984C447.323 41.336 447.051 41.82 447.051 42.436C447.051 42.7733 447.139 43.096 447.315 43.404C447.506 43.712 447.77 43.9613 448.107 44.152C448.459 44.3427 448.892 44.438 449.405 44.438C449.933 44.438 450.439 44.3353 450.923 44.13C451.407 43.9247 451.796 43.6607 452.089 43.338ZM468.335 46H465.915V39.554C465.915 38.4833 465.739 37.6987 465.387 37.2C465.05 36.7013 464.544 36.452 463.869 36.452C463.4 36.452 462.931 36.5693 462.461 36.804C462.007 37.0387 461.596 37.3613 461.229 37.772C460.863 38.168 460.599 38.63 460.437 39.158V46H458.017V34.494H460.217V36.804C460.511 36.2907 460.892 35.8507 461.361 35.484C461.845 35.1027 462.388 34.8093 462.989 34.604C463.591 34.3987 464.229 34.296 464.903 34.296C465.593 34.296 466.157 34.4207 466.597 34.67C467.052 34.9193 467.404 35.264 467.653 35.704C467.917 36.1293 468.093 36.628 468.181 37.2C468.284 37.7573 468.335 38.3513 468.335 38.982V46ZM477.46 45.406C477.255 45.5087 476.998 45.6187 476.69 45.736C476.382 45.8533 476.03 45.956 475.634 46.044C475.253 46.132 474.857 46.176 474.446 46.176C473.948 46.176 473.486 46.088 473.06 45.912C472.635 45.736 472.29 45.4573 472.026 45.076C471.777 44.68 471.652 44.174 471.652 43.558V36.364H470.134V34.494H471.652V30.71H474.072V34.494H476.58V36.364H474.072V42.788C474.102 43.184 474.226 43.4773 474.446 43.668C474.681 43.8587 474.967 43.954 475.304 43.954C475.642 43.954 475.964 43.8953 476.272 43.778C476.58 43.6607 476.808 43.5653 476.954 43.492L477.46 45.406ZM484.2 46.22C483.306 46.22 482.492 46.066 481.758 45.758C481.04 45.4353 480.416 45.0027 479.888 44.46C479.36 43.9027 478.95 43.272 478.656 42.568C478.378 41.8493 478.238 41.0867 478.238 40.28C478.238 39.1947 478.488 38.2047 478.986 37.31C479.485 36.4007 480.182 35.6747 481.076 35.132C481.971 34.5747 483.02 34.296 484.222 34.296C485.425 34.296 486.459 34.5747 487.324 35.132C488.204 35.6747 488.886 36.3933 489.37 37.288C489.854 38.1827 490.096 39.1433 490.096 40.17C490.096 40.346 490.089 40.5147 490.074 40.676C490.06 40.8227 490.045 40.9473 490.03 41.05H480.812C480.856 41.7247 481.04 42.3187 481.362 42.832C481.7 43.3307 482.125 43.7267 482.638 44.02C483.152 44.2987 483.702 44.438 484.288 44.438C484.934 44.438 485.542 44.2767 486.114 43.954C486.701 43.6313 487.097 43.206 487.302 42.678L489.37 43.272C489.121 43.8293 488.74 44.3353 488.226 44.79C487.728 45.23 487.134 45.582 486.444 45.846C485.755 46.0953 485.007 46.22 484.2 46.22ZM480.746 39.444H487.698C487.654 38.784 487.464 38.2047 487.126 37.706C486.804 37.1927 486.386 36.7967 485.872 36.518C485.374 36.2247 484.816 36.078 484.2 36.078C483.599 36.078 483.042 36.2247 482.528 36.518C482.03 36.7967 481.619 37.1927 481.296 37.706C480.974 38.2047 480.79 38.784 480.746 39.444ZM492.07 37.398V34.604H494.072V37.398H492.07ZM492.07 46V43.184H494.072V46H492.07ZM509.664 44.636V46H502.382V44.636H505.352V31.854C505.22 32.03 505.022 32.228 504.758 32.448C504.509 32.6533 504.215 32.8587 503.878 33.064C503.541 33.2547 503.196 33.416 502.844 33.548C502.492 33.68 502.169 33.746 501.876 33.746V32.338C502.272 32.338 502.668 32.2353 503.064 32.03C503.46 31.81 503.827 31.568 504.164 31.304C504.516 31.0253 504.795 30.776 505 30.556C505.22 30.3213 505.337 30.1967 505.352 30.182H506.87V44.636H509.664ZM511.16 46C511.146 45.076 511.219 44.262 511.38 43.558C511.542 42.854 511.784 42.2307 512.106 41.688C512.444 41.1453 512.847 40.676 513.316 40.28C513.786 39.8693 514.314 39.51 514.9 39.202C515.458 38.894 516.037 38.6153 516.638 38.366C517.24 38.102 517.797 37.816 518.31 37.508C518.824 37.2 519.234 36.826 519.542 36.386C519.865 35.9313 520.026 35.3667 520.026 34.692C520.026 34.1347 519.902 33.6213 519.652 33.152C519.418 32.6827 519.051 32.3087 518.552 32.03C518.054 31.7367 517.423 31.59 516.66 31.59C515.912 31.59 515.245 31.7147 514.658 31.964C514.086 32.2133 513.602 32.514 513.206 32.866C512.825 33.218 512.517 33.5407 512.282 33.834L511.292 32.866C511.38 32.7633 511.556 32.5653 511.82 32.272C512.099 31.9787 512.466 31.6707 512.92 31.348C513.39 31.0253 513.94 30.754 514.57 30.534C515.216 30.2993 515.964 30.182 516.814 30.182C517.9 30.182 518.802 30.3947 519.52 30.82C520.239 31.2307 520.774 31.7733 521.126 32.448C521.493 33.1227 521.676 33.8633 521.676 34.67C521.676 35.4473 521.522 36.1073 521.214 36.65C520.921 37.178 520.532 37.6253 520.048 37.992C519.579 38.344 519.066 38.652 518.508 38.916C517.966 39.18 517.452 39.4293 516.968 39.664C516.03 40.0893 515.282 40.5073 514.724 40.918C514.167 41.3287 513.749 41.7393 513.47 42.15C513.206 42.5607 513.03 42.9713 512.942 43.382C512.854 43.7927 512.803 44.2107 512.788 44.636H521.698V46H511.16Z" fill="#555555"/>
</svg>
